<svg width="218" height="63" viewBox="0 0 218 63" fill="none" xmlns="http://www.w3.org/2000/svg">
<path d="M28.3247 63L26.6663 61.7348C26.2298 61.4294 24.1786 59.8587 22.8256 58.7244C16.1045 58.0263 10.2999 55.3213 6.45926 51.0893C2.79319 47.0755 0.96016 41.8837 0.96016 35.6884C0.96016 33.5506 1.78939 29.8421 2.70591 25.8719C3.27327 23.3414 4.01521 20.1565 4.01521 19.153C3.84064 18.3677 2.44404 14.9211 0.698298 11.3435L0 9.86011L5.76096 1.78878L9.55796 3.09765C12.1329 3.75208 14.8825 4.31925 17.5447 4.31925C20.5125 4.31925 23.0875 3.57756 25.3133 2.00693L28.3247 0L31.2925 2.00693C33.562 3.57756 36.0933 4.31925 39.1047 4.31925C41.8106 4.31925 44.5165 3.75208 47.0915 3.09765L50.8885 1.78878L56.6494 9.90374L55.9511 11.3435C54.2054 14.9211 52.8088 18.3677 52.6342 19.153C52.6779 20.2001 53.3762 23.385 53.9872 25.9155C54.8601 29.8857 55.7329 33.5942 55.7329 35.6884C55.7329 41.84 53.8563 47.0755 50.1902 51.133C46.3495 55.365 40.5449 58.0699 33.8238 58.768C32.3399 59.9896 30.0268 61.7348 29.9832 61.7784L28.3247 63Z" fill="#D3D4D4"/>
<path d="M54.991 9.99101L50.3648 3.49032L47.528 4.45015C44.8221 5.10459 41.9852 5.71539 39.1048 5.71539C35.8315 5.71539 32.9946 4.88644 30.507 3.14129L28.3248 1.70154L26.1862 3.18492C23.6985 4.93007 20.8617 5.75902 17.5884 5.75902C14.7516 5.75902 11.8711 5.14821 9.16521 4.49378L6.32838 3.49032L1.70215 10.0346L2.0513 10.7327C3.66611 14.0921 5.4555 18.2369 5.49915 19.0658C5.49915 20.2002 4.80085 23.2542 4.14619 26.2209C3.31696 29.9294 2.44409 33.7687 2.44409 35.732C2.44409 41.5346 4.18984 46.3774 7.59404 50.1731C11.2601 54.2306 16.8901 56.8047 23.4803 57.3719C24.8333 58.5499 27.4955 60.5132 27.6265 60.6004L28.4121 61.1676L29.1976 60.6004C29.3286 60.5132 31.9472 58.5063 33.3438 57.3719C39.8903 56.8047 45.5204 54.2306 49.2301 50.1731C52.6779 46.3774 54.38 41.5346 54.38 35.732C54.38 33.8123 53.5072 29.973 52.6779 26.2646C52.0233 23.2978 51.325 20.2002 51.325 19.0658C51.3686 18.1932 53.158 14.0485 54.7728 10.6891L54.991 9.99101Z" fill="#0D2A3A"/>
<path d="M72.2305 41.2728H75.3292L77.5986 47.599L79.8681 41.2728H82.9232L78.8643 51.3511H76.2893L72.2305 41.2728Z" fill="white"/>
<path d="M87.4185 46.2901C87.4185 43.4106 89.7316 41.0547 92.8303 41.0547C95.929 41.0547 98.1984 43.367 98.1984 46.2029V46.2465C98.1984 49.126 95.8853 51.4383 92.7866 51.4383C89.6879 51.482 87.4185 49.1696 87.4185 46.2901ZM95.3616 46.2901C95.3616 44.8068 94.3142 43.5852 92.7866 43.5852C91.2591 43.5852 90.2553 44.8068 90.2553 46.2465V46.2901C90.2553 47.7299 91.3027 48.9951 92.8303 48.9951C94.3141 48.9951 95.3616 47.7299 95.3616 46.2901Z" fill="white"/>
<path d="M104.265 41.2728H107.015V48.8642H111.859V51.3075H104.265V41.2728Z" fill="white"/>
<path d="M118.362 41.2728H121.111V48.8642H125.956V51.3075H118.362V41.2728Z" fill="white"/>
<path d="M132.415 41.2728H140.445V43.6288H135.165V45.1558H139.965V47.3372H135.165V48.9079H140.533V51.2638H132.415V41.2728Z" fill="white"/>
<path d="M150.134 47.5553L146.337 41.3164H149.48L151.531 44.9376L153.582 41.3164H156.681L152.884 47.5117V51.3074H150.134V47.5553Z" fill="white"/>
<path d="M162.704 41.2728H167.81C169.076 41.2728 169.949 41.5782 170.516 42.189C170.909 42.5817 171.171 43.1052 171.171 43.8033V43.8469C171.171 44.9813 170.516 45.6793 169.643 46.072C170.865 46.4647 171.607 47.1627 171.607 48.5152V48.5588C171.607 50.2604 170.21 51.3075 167.81 51.3075H162.66V41.2728H162.704ZM167.112 45.2867C167.941 45.2867 168.421 44.9813 168.421 44.4141V44.3705C168.421 43.8469 167.985 43.4979 167.155 43.4979H165.366V45.243H167.112V45.2867ZM167.505 49.0388C168.334 49.0388 168.814 48.6897 168.814 48.1226V48.0789C168.814 47.5554 168.377 47.1627 167.461 47.1627H165.366V48.9951H167.505V49.0388Z" fill="white"/>
<path d="M181.34 41.2292H184.002L188.235 51.3075H185.267L184.526 49.5187H180.685L179.987 51.3075H177.062L181.34 41.2292ZM183.74 47.3373L182.605 44.5014L181.47 47.3373H183.74Z" fill="white"/>
<path d="M194.171 41.2728H196.92V48.8642H201.765V51.3075H194.171V41.2728Z" fill="white"/>
<path d="M208.268 41.2728H211.017V48.8642H215.862V51.3075H208.268V41.2728Z" fill="white"/>
<path d="M73.9762 32.3725C72.3177 31.4563 71.0084 30.1911 70.0919 28.5332C69.1754 26.9189 68.6953 25.0865 68.6953 23.0796C68.6953 20.8109 69.2627 18.804 70.3538 17.1024C71.4449 15.4009 72.9724 14.0484 74.8491 13.1322C76.7694 12.216 78.8643 11.7361 81.1774 11.7361C82.0939 11.7361 82.9668 11.7797 83.7524 11.9106C84.538 12.0415 85.3672 12.216 86.2401 12.4778V17.0152L86.1528 17.0588C85.3672 16.5353 84.4507 16.099 83.4032 15.7499C82.3994 15.4445 81.352 15.27 80.3045 15.27C79.0825 15.27 77.9478 15.5754 76.944 16.2299C75.9402 16.8843 75.1546 17.7569 74.5872 18.8476C74.0198 19.9819 73.7143 21.2472 73.7143 22.6433C73.7143 23.9958 73.9762 25.261 74.5436 26.3517C75.1109 27.4425 75.8529 28.3587 76.8567 28.9695C77.8168 29.6239 78.9516 29.9293 80.13 29.9293C81.4393 29.9293 82.7049 29.7112 83.8397 29.2312C84.9744 28.795 85.9346 28.1841 86.6765 27.3988L86.7638 27.4425L86.5456 32.0671C84.6252 33.1578 82.3558 33.6814 79.6935 33.6814C77.555 33.7686 75.6347 33.2887 73.9762 32.3725Z" fill="white"/>
<path d="M90.9972 30.7146C91.1281 29.7984 91.2154 28.6641 91.2154 27.3552V18.1932C91.2154 16.8843 91.1281 15.75 90.9972 14.8337C90.8663 13.9175 90.6044 12.9577 90.2553 12.0415H96.8018C96.4527 13.0013 96.1908 13.9175 96.0599 14.8337C95.9289 15.75 95.8416 16.8843 95.8416 18.1932V30.0166C97.2382 29.8857 98.7658 29.5803 100.337 29.144C101.952 28.7077 103.174 28.2714 104.047 27.7479L104.09 27.7915L101.734 33.4632H90.168C90.5608 32.547 90.8226 31.6308 90.9972 30.7146Z" fill="white"/>
<path d="M142.366 24.3013C142.933 25.1302 143.239 26.09 143.239 27.1808C143.239 28.4024 142.846 29.4931 142.104 30.4529C141.362 31.4127 140.358 32.1544 139.092 32.678C137.827 33.2015 136.43 33.4633 134.946 33.4633H128.312C128.662 32.5035 128.924 31.5873 129.054 30.6711C129.185 29.7549 129.273 28.6205 129.273 27.3116V18.1496C129.273 16.8407 129.185 15.7064 129.054 14.7902C128.924 13.874 128.662 12.9141 128.312 11.9979H134.859C136.299 11.9979 137.609 12.2597 138.7 12.7396C139.791 13.2195 140.664 13.9176 141.275 14.7902C141.886 15.6627 142.191 16.6226 142.191 17.7569C142.191 18.5859 141.973 19.3712 141.537 20.0693C141.1 20.8109 140.445 21.4217 139.66 21.9889C140.882 22.687 141.798 23.4723 142.366 24.3013ZM133.899 21.9017C135.034 21.6399 135.906 21.16 136.561 20.4619C137.216 19.7202 137.565 18.9349 137.565 18.0187C137.565 17.4079 137.39 16.8407 137.041 16.3172C136.692 15.7936 136.212 15.3573 135.645 15.0083C135.077 14.6593 134.51 14.5284 133.899 14.5284V21.9017ZM136.299 30.4529C136.998 30.1039 137.565 29.624 137.958 29.0132C138.351 28.4024 138.569 27.7916 138.569 27.0935C138.569 25.9591 138.132 24.9557 137.259 24.0395C136.387 23.1669 135.295 22.5561 133.899 22.338V30.9765C134.815 30.9765 135.601 30.8019 136.299 30.4529Z" fill="white"/>
<path d="M170.254 13.0886C172.043 13.9612 173.44 15.2264 174.487 16.8407C175.535 18.4549 176.059 20.331 176.059 22.3815C176.059 24.563 175.535 26.4826 174.487 28.2278C173.44 29.973 172.043 31.3254 170.21 32.2853C168.421 33.2451 166.413 33.725 164.231 33.725C161.918 33.725 159.91 33.2015 158.165 32.198C156.419 31.1946 155.066 29.8421 154.106 28.1842C153.146 26.5263 152.666 24.7375 152.666 22.8615C152.666 20.8109 153.189 18.9785 154.193 17.2333C155.241 15.5318 156.637 14.1793 158.426 13.1322C160.216 12.1288 162.18 11.6052 164.318 11.6052C166.501 11.7361 168.465 12.1724 170.254 13.0886ZM160.696 16.1426C159.823 16.6662 159.125 17.4079 158.601 18.3677C158.077 19.3275 157.815 20.4619 157.815 21.6835C157.815 23.1669 158.121 24.5194 158.776 25.8282C159.387 27.1371 160.303 28.1842 161.394 28.9695C162.529 29.7548 163.795 30.1475 165.279 30.1475C166.413 30.1475 167.417 29.8421 168.29 29.2749C169.163 28.7077 169.861 27.9224 170.341 26.9189C170.821 25.9155 171.083 24.8684 171.083 23.6904C171.083 22.207 170.734 20.8545 170.079 19.5893C169.425 18.3241 168.508 17.277 167.33 16.5353C166.195 15.7936 164.929 15.4009 163.533 15.4009C162.529 15.3573 161.569 15.6191 160.696 16.1426Z" fill="white"/>
<path d="M199.321 26.4826C199.321 27.966 199.408 29.2313 199.539 30.322C199.67 31.4127 199.888 32.4598 200.15 33.4632H193.953C193.822 32.8524 193.298 31.9362 192.338 30.5837L184.875 20.2001V26.439C184.875 28.0533 184.962 29.3621 185.093 30.3656C185.224 31.3691 185.486 32.4162 185.835 33.4632H179.55C179.899 32.4162 180.161 31.3691 180.292 30.3656C180.423 29.3621 180.51 28.0533 180.51 26.439V15.2264C179.943 14.5283 179.463 13.9612 179.027 13.5249C178.59 13.0886 178.066 12.6087 177.499 12.1288V12.0415H184.831C185.006 12.6087 185.224 13.1322 185.486 13.6121C185.748 14.0921 186.228 14.7901 186.882 15.75L195 27.0498V19.0221C195 17.4515 194.913 16.1426 194.782 15.1391C194.651 14.1357 194.389 13.0886 194.04 12.0415H200.325C199.932 13.0886 199.67 14.1357 199.539 15.1391C199.408 16.1426 199.321 17.4515 199.321 19.0221V26.4826Z" fill="white"/>
<path d="M204.601 30.7146C204.732 29.7984 204.82 28.6641 204.82 27.3552V18.1932C204.82 16.8843 204.732 15.75 204.601 14.8337C204.47 13.9175 204.209 12.9577 203.859 12.0415H216.909L214.727 16.7534C213.33 15.7936 211.584 15.3137 209.446 15.2264V20.8982H216.211L213.679 25.1738C212.544 24.6066 211.148 24.3012 209.489 24.2139V30.0602C211.191 30.0602 212.719 29.9293 214.028 29.6675C215.381 29.4058 216.691 28.9695 217.956 28.4023L218 28.4459L215.949 33.5069H203.859C204.209 32.547 204.47 31.6308 204.601 30.7146Z" fill="white"/>
<path d="M115.35 33.6814C119.016 33.6814 122.202 32.1108 123.075 29.9729C123.643 28.6204 123.948 26.9626 123.948 24.912V18.1932C123.948 16.8843 124.035 15.75 124.166 14.8337C124.297 13.9175 124.559 12.9577 124.908 12.0415H118.362C118.711 13.0013 118.973 13.9175 119.104 14.8337C119.235 15.75 119.322 16.8843 119.322 18.1932V24.9993C119.322 25.6537 119.278 26.2209 119.147 26.7444C119.06 27.0934 118.885 27.4425 118.711 27.7479C118.318 28.4023 117.794 28.9258 117.096 29.2749C116.529 29.5803 115.961 29.6239 115.307 29.6675C114.696 29.6239 114.085 29.5803 113.517 29.2749C112.863 28.9258 112.339 28.4023 111.902 27.7479C111.728 27.4425 111.553 27.0934 111.466 26.7444C111.379 26.2209 111.291 25.6537 111.291 24.9993V18.1932C111.291 16.8843 111.379 15.75 111.51 14.8337C111.641 13.9175 111.902 12.9577 112.252 12.0415H105.705C106.054 13.0013 106.316 13.9175 106.447 14.8337C106.578 15.75 106.665 16.8843 106.665 18.1932V24.9556C106.665 27.0062 107.014 28.6641 107.538 30.0166C108.498 32.1544 111.684 33.6814 115.35 33.6814Z" fill="white"/>
<path d="M27.8448 30.0603L27.4956 30.9328L28.4121 31.1946C33.9112 32.8089 38.712 33.3761 41.0688 33.5506L41.5925 33.5942L41.8544 33.1143C44.0365 29.1441 46.5679 25.8283 49.2738 22.9924C48.9246 21.2909 48.6628 19.8948 48.6628 19.0222C48.6628 17.5388 50.8013 12.8269 52.0233 10.2528L49.4484 6.63159C35.9188 13.5249 29.6778 25.7846 27.8448 30.0603Z" fill="#2F5785"/>
<path d="M29.0668 5.32269L28.3685 4.84277L27.6702 5.32269C25.7499 6.63155 23.6987 7.50413 21.4292 7.94042L23.2622 13.5685L32.2528 13.6558L25.0516 19.4148L27.1902 26.6572C29.6342 21.8144 34.5223 13.9612 43.1201 8.02768C41.8108 8.24582 40.4578 8.33308 39.1049 8.33308C35.3079 8.33308 31.991 7.32962 29.0668 5.32269Z" fill="#2F5785"/>
<path d="M11.5656 22.4252C11.5656 22.4252 13.0495 23.7341 14.0533 24.4321L15.4499 19.5021L8.2487 13.8303L17.1956 13.6122L18.8977 8.28946C18.4613 8.33309 18.0249 8.33309 17.5448 8.33309C14.4025 8.33309 11.3474 7.67866 8.46692 6.9806L8.37963 6.93697L7.28854 6.54431L4.66992 10.2528C5.54279 12.1288 6.93939 15.1392 7.63769 17.2334C7.68133 17.3206 7.72498 17.3643 7.76862 17.4515C8.42327 19.0658 10.0381 21.0291 11.5656 22.4252Z" fill="#2F5785"/>
<path d="M16.4536 26.0464C18.9413 27.5734 21.7345 28.9259 24.8332 30.0602L25.5751 30.322L25.8806 29.5803C26.0989 29.1004 26.3171 28.4896 26.6226 27.8352L20.2506 23.1669L16.4536 26.0464Z" fill="#2F5785"/>
<path d="M50.103 26.788C50.0157 26.3081 49.8847 25.8718 49.7975 25.4355C47.3534 28.1405 45.2585 31.0637 43.6001 34.1613L43.3818 34.5976L43.6437 34.9903C44.7784 36.8227 47.0043 40.9674 48.4445 46.9882C50.6703 43.8905 51.7614 40.1821 51.7614 35.6883C51.7178 34.0304 50.8449 30.1911 50.103 26.788Z" fill="#A51E24"/>
<path d="M41.8542 35.9938L41.636 35.6448L41.1996 35.6011C38.4937 35.4266 31.7289 34.6849 24.4841 32.1108C24.6586 32.5908 24.7896 33.1579 24.7896 33.7251C24.7896 34.3795 24.7459 35.034 24.6586 35.6011C24.615 35.8193 24.615 36.0374 24.615 36.2119C24.615 36.2992 24.5714 36.3865 24.5714 36.5173C24.5277 36.6919 24.4841 36.8664 24.4404 37.0409C25.4442 37.1718 26.0552 37.9135 26.3171 38.2189C26.4917 38.3934 26.6226 38.6115 26.7535 38.786C28.4556 37.5644 30.987 37.6081 32.5581 38.8733C33.6929 39.7895 34.1293 41.0984 33.6929 42.4072C33.6929 42.4509 33.6929 42.4509 33.6492 42.4945C33.6929 42.4509 33.7365 42.3636 33.7802 42.32C35.0895 40.4439 36.5734 39.0478 38.3191 38.1316C40.0212 37.2154 41.7233 37.2154 43.0326 38.088C42.5089 37.1282 42.1161 36.4301 41.8542 35.9938Z" fill="#EFAF1E"/>
<path d="M7.28881 39.8768C6.54687 39.3532 5.80493 38.786 5.06299 38.2189C5.28121 40.2694 5.76129 42.1455 6.50323 43.847C6.54687 42.3636 6.85238 41.0547 7.28881 39.8768Z" fill="#EFAF1E"/>
<path d="M15.3192 38.6552C14.1844 40.2258 13.4425 41.6656 12.9624 43.1053C13.9662 42.4945 14.8391 41.6219 15.6683 40.4439C16.4539 39.3096 17.1085 38.0444 17.8068 36.7355C18.0251 36.2992 18.2433 35.8629 18.5051 35.4266C18.4615 35.4266 18.4615 35.4703 18.4179 35.4703C17.2395 36.1683 16.3666 37.259 15.3192 38.6552Z" fill="#EFAF1E"/>
<path d="M12.4823 32.9834L12.6569 32.8525C13.7043 31.9363 14.7954 31.0201 16.1484 30.322C16.9339 29.9294 17.6759 29.624 18.3742 29.4931C15.8865 28.2278 13.4861 26.7008 11.2603 24.8684C9.95096 23.7777 8.77258 22.6434 7.72514 21.4218C7.46327 22.9051 7.02684 24.7375 6.5904 26.7881C5.84846 30.0166 5.01923 33.6378 4.97559 35.4266C6.02303 36.3428 7.11412 37.1718 8.20522 37.9571C9.42724 35.8193 11.0857 34.205 12.4823 32.9834Z" fill="#EFAF1E"/>
<path d="M44.6914 41.9709C44.6041 42.8872 44.2986 43.7597 43.6876 44.4578C43.4258 44.7632 43.1639 45.0686 42.8584 45.4176C43.0766 45.5049 43.2512 45.6358 43.4258 45.8103L43.6003 45.9848C44.2114 46.5956 44.3859 47.5991 43.9495 48.3408C43.9495 48.3844 43.9058 48.428 43.9058 48.4716C44.6041 48.428 45.2152 48.3844 45.6952 48.3408L46.6118 48.2099L46.3935 47.2937C45.8698 45.2867 45.2588 43.498 44.6914 41.9709Z" fill="#EFAF1E"/>
<path d="M24.4845 54.8851L24.79 55.1905C25.5755 55.8886 27.3213 57.241 28.3251 57.9827C29.3289 57.1974 31.0746 55.8886 31.8602 55.1905L32.1657 54.8851H32.3839C31.0746 53.8816 30.2891 52.5291 30.1581 51.0894C29.067 51.3948 28.0632 51.2203 27.1031 50.5658C26.3175 49.9987 25.7501 49.1697 25.5319 48.2099C25.2264 48.5153 24.9209 48.8207 24.6154 49.1261C24.1353 49.5624 23.6989 50.0423 23.2188 50.4786C22.2586 51.4384 20.6438 52.0928 19.0726 51.0458C18.0252 50.3477 17.4578 49.3006 17.4578 48.1663C16.3231 49.0388 15.1011 49.7805 13.7045 50.3913C13.0935 50.6531 12.5697 50.8276 12.1333 50.8712C15.2756 53.1399 19.3781 54.5361 24.0044 54.8851H24.4845Z" fill="#EFAF1E"/>
<path d="M42.4656 50.3913C41.6364 51.3512 40.7635 52.311 39.8906 53.2272C41.8546 52.4855 43.6003 51.5257 45.1279 50.3041C44.3859 50.3913 43.513 50.435 42.4656 50.3913Z" fill="#EFAF1E"/>
<path d="M22.5638 35.9938C21.2545 41.7092 18.2868 46.0284 12.9186 48.5153C10.9546 49.3006 9.73262 47.4682 9.42711 47.0755C8.64152 46.203 8.46695 45.1122 8.51059 43.9343C8.64152 39.8768 10.8674 36.9537 13.7915 34.4668C14.8389 33.5942 15.8864 32.6344 17.0647 32.0236C18.3304 31.3692 19.7707 30.9329 21.2109 31.4128C22.1274 31.7182 22.7384 32.5471 22.7384 33.6379C22.7384 34.5104 22.6511 35.2958 22.5638 35.9938ZM20.469 33.9433C20.338 32.9834 19.9016 32.678 18.9414 32.9834C18.3741 33.158 17.8503 33.4634 17.3266 33.7688C15.8427 34.7286 14.7516 36.0811 13.7042 37.4772C12.2203 39.5278 11.0856 41.7092 10.6491 44.2397C10.3873 45.8103 10.7364 46.0721 12.2203 45.5922C14.4461 44.8505 16.0609 43.3235 17.283 41.4911C18.5923 39.5278 19.5961 37.3463 20.7745 35.2958C21.1236 34.8158 20.5126 34.205 20.469 33.9433Z" fill="white"/>
<path d="M41.4179 47.5118C40.8069 48.0353 40.2396 48.6461 39.6286 49.126C38.3193 50.0859 36.9663 51.0021 35.5697 51.8747C34.915 52.2673 34.435 51.9183 34.5223 51.1766C34.5659 50.5222 34.7405 49.8241 34.915 49.1697C34.9587 48.9515 35.2642 48.777 35.4824 48.6461C36.5299 48.0353 37.7082 47.599 38.6248 46.8573C39.9341 45.7666 41.0688 44.4578 42.2035 43.1925C42.9455 42.3199 42.8582 40.7493 42.1599 40.0076C41.4616 39.2659 40.4141 39.2659 39.2358 39.8767C37.621 40.7493 36.3989 42.0145 35.3951 43.4543C34.6968 44.4578 33.9112 45.2431 32.8638 45.8102C31.9473 46.3338 31.0308 46.7701 30.0706 47.25C30.027 47.1627 29.9833 47.1191 29.9397 47.0319C30.027 46.8137 30.1142 46.5519 30.2015 46.3338C30.7253 44.8068 31.249 43.2798 31.7727 41.7528C31.9473 41.1856 31.7291 40.7493 31.2926 40.4003C30.3761 39.6586 28.8049 39.6586 27.8011 40.4439C26.8846 41.142 26.0117 41.8837 25.0516 42.669C25.1389 42.4072 25.1389 42.1891 25.2698 42.0145C25.7935 41.0547 25.488 40.2694 24.8334 39.4841C24.2224 38.786 23.9168 38.786 23.4804 39.5713C22.4766 41.4474 21.5164 43.2798 20.5563 45.1558C20.1635 45.9411 19.9016 46.7265 19.6398 47.5554C19.3779 48.2971 19.7271 48.9079 20.2944 49.3442C20.8618 49.7368 21.4292 49.4751 21.9092 48.9952C23.0876 47.8172 24.266 46.6392 25.4444 45.5048C26.4918 44.5014 27.5393 43.5415 28.6304 42.5381C28.3685 43.7161 28.0194 44.8504 27.6702 45.9848C27.3211 47.2064 27.5829 48.2971 28.3249 48.8206C29.3723 49.5187 30.2015 48.9515 31.0308 48.3843C31.7291 47.9044 32.3837 47.3809 33.082 46.8573C32.8202 47.8172 32.471 48.7334 32.2964 49.6932C31.9909 51.1766 32.6019 52.3982 33.7367 53.2271C34.2604 53.6198 35.046 53.8816 35.657 53.7507C36.3553 53.6198 37.1409 53.1835 37.6646 52.66C39.0612 51.2638 40.3705 49.7805 41.6362 48.2971C41.898 47.9917 42.029 47.599 42.2035 47.25C42.1599 47.2064 42.0726 47.1191 42.029 47.0755C41.8107 47.2936 41.5925 47.3809 41.4179 47.5118ZM37.1409 45.0249C37.8392 43.4979 38.9303 42.1891 40.5014 41.142C40.5451 41.142 40.5451 41.142 40.5887 41.142C40.6324 41.142 40.6324 41.1856 40.5887 41.2292C39.8468 42.9307 38.712 44.2396 37.1845 45.1122H37.1409H37.0972C37.1409 45.0686 37.1409 45.0249 37.1409 45.0249Z" fill="white"/>
<path d="M26.9284 15.5319L22.8695 18.7604L24.3534 23.865L20.2073 20.811L16.1484 23.9086L17.5886 18.7604L13.5298 15.5755L18.5924 15.4446L20.2073 10.3837L21.8657 15.401L26.9284 15.5319Z" fill="white"/>
</svg>
