<svg width="218" height="63" viewBox="0 0 218 63" fill="none" xmlns="http://www.w3.org/2000/svg">
<path d="M28.3247 63L26.6663 61.7348C26.2298 61.4294 24.1786 59.8587 22.8256 58.7244C16.1045 58.0263 10.2999 55.3213 6.45926 51.0893C2.79319 47.0755 0.96016 41.8837 0.96016 35.6884C0.96016 33.5506 1.78939 29.8421 2.70591 25.8719C3.27327 23.3414 4.01521 20.1565 4.01521 19.153C3.84064 18.3677 2.44404 14.9211 0.698298 11.3435L0 9.86011L5.76096 1.78878L9.55796 3.09765C12.1329 3.75208 14.8825 4.31925 17.5447 4.31925C20.5125 4.31925 23.0875 3.57756 25.3133 2.00693L28.3247 0L31.2925 2.00693C33.562 3.57756 36.0933 4.31925 39.1047 4.31925C41.8106 4.31925 44.5165 3.75208 47.0915 3.09765L50.8885 1.78878L56.6494 9.90374L55.9511 11.3435C54.2054 14.9211 52.8088 18.3677 52.6342 19.153C52.6779 20.2001 53.3762 23.385 53.9872 25.9155C54.8601 29.8857 55.7329 33.5942 55.7329 35.6884C55.7329 41.84 53.8563 47.0755 50.1902 51.133C46.3495 55.365 40.5449 58.0699 33.8238 58.768C32.3399 59.9896 30.0268 61.7348 29.9832 61.7784L28.3247 63Z" fill="#D3D4D4"/>
<path d="M54.991 9.99101L50.3648 3.49032L47.528 4.45015C44.8221 5.10459 41.9852 5.71539 39.1047 5.71539C35.8315 5.71539 32.9946 4.88644 30.507 3.14129L28.3248 1.70154L26.1862 3.18492C23.6985 4.93007 20.8617 5.75902 17.5884 5.75902C14.7516 5.75902 11.8711 5.14821 9.16521 4.49378L6.32837 3.49032L1.70215 10.0346L2.0513 10.7327C3.66611 14.0921 5.4555 18.2369 5.49915 19.0658C5.49915 20.2002 4.80085 23.2542 4.14619 26.2209C3.31696 29.9294 2.44409 33.7687 2.44409 35.732C2.44409 41.5346 4.18984 46.3774 7.59404 50.1731C11.2601 54.2306 16.8901 56.8047 23.4803 57.3719C24.8333 58.5499 27.4955 60.5132 27.6265 60.6004L28.4121 61.1676L29.1976 60.6004C29.3286 60.5132 31.9472 58.5063 33.3438 57.3719C39.8903 56.8047 45.5204 54.2306 49.2301 50.1731C52.6779 46.3774 54.38 41.5346 54.38 35.732C54.38 33.8123 53.5071 29.973 52.6779 26.2646C52.0233 23.2978 51.325 20.2002 51.325 19.0658C51.3686 18.1932 53.158 14.0485 54.7728 10.6891L54.991 9.99101Z" fill="#0D2A3A"/>
<path d="M72.2302 41.2728H75.3289L77.5984 47.599L79.8679 41.2728H82.9229L78.8641 51.3511H76.2891L72.2302 41.2728Z" fill="#0D2A3A"/>
<path d="M87.4182 46.2901C87.4182 43.4106 89.7313 41.0547 92.83 41.0547C95.9287 41.0547 98.1982 43.367 98.1982 46.2029V46.2465C98.1982 49.126 95.8851 51.4383 92.7864 51.4383C89.6877 51.482 87.4182 49.1696 87.4182 46.2901ZM95.3614 46.2901C95.3614 44.8068 94.3139 43.5852 92.7864 43.5852C91.2589 43.5852 90.255 44.8068 90.255 46.2465V46.2901C90.255 47.7299 91.3025 48.9951 92.83 48.9951C94.3139 48.9951 95.3614 47.7299 95.3614 46.2901Z" fill="#0D2A3A"/>
<path d="M104.265 41.2728H107.014V48.8642H111.859V51.3074H104.265V41.2728Z" fill="#0D2A3A"/>
<path d="M118.362 41.2728H121.111V48.8642H125.956V51.3074H118.362V41.2728Z" fill="#0D2A3A"/>
<path d="M132.415 41.2728H140.445V43.6288H135.164V45.1558H139.965V47.3372H135.164V48.9079H140.533V51.2638H132.415V41.2728Z" fill="#0D2A3A"/>
<path d="M150.134 47.5554L146.337 41.3165H149.48L151.531 44.9377L153.582 41.3165H156.681L152.884 47.5118V51.3075H150.134V47.5554Z" fill="#0D2A3A"/>
<path d="M162.704 41.2728H167.81C169.076 41.2728 169.948 41.5782 170.516 42.189C170.909 42.5817 171.17 43.1052 171.17 43.8033V43.8469C171.17 44.9813 170.516 45.6793 169.643 46.072C170.865 46.4647 171.607 47.1627 171.607 48.5152V48.5588C171.607 50.2604 170.21 51.3074 167.81 51.3074H162.66V41.2728H162.704ZM167.112 45.2867C167.941 45.2867 168.421 44.9813 168.421 44.4141V44.3705C168.421 43.8469 167.984 43.4979 167.155 43.4979H165.366V45.243H167.112V45.2867ZM167.504 49.0388C168.334 49.0388 168.814 48.6897 168.814 48.1225V48.0789C168.814 47.5554 168.377 47.1627 167.461 47.1627H165.366V48.9951H167.504V49.0388Z" fill="#0D2A3A"/>
<path d="M181.339 41.2292H184.002L188.235 51.3075H185.267L184.525 49.5187H180.685L179.986 51.3075H177.062L181.339 41.2292ZM183.74 47.3373L182.605 44.5014L181.47 47.3373H183.74Z" fill="#0D2A3A"/>
<path d="M194.171 41.2728H196.92V48.8642H201.765V51.3074H194.171V41.2728Z" fill="#0D2A3A"/>
<path d="M208.268 41.2728H211.017V48.8642H215.862V51.3074H208.268V41.2728Z" fill="#0D2A3A"/>
<path d="M73.976 32.3725C72.3175 31.4563 71.0082 30.1911 70.0917 28.5332C69.1752 26.9189 68.6951 25.0865 68.6951 23.0796C68.6951 20.8109 69.2624 18.804 70.3535 17.1024C71.4446 15.4009 72.9721 14.0484 74.8488 13.1322C76.7691 12.216 78.864 11.7361 81.1772 11.7361C82.0937 11.7361 82.9665 11.7797 83.7521 11.9106C84.5377 12.0415 85.3669 12.216 86.2398 12.4778V17.0152L86.1525 17.0588C85.3669 16.5353 84.4504 16.099 83.403 15.7499C82.3992 15.4445 81.3517 15.27 80.3043 15.27C79.0823 15.27 77.9475 15.5754 76.9437 16.2299C75.9399 16.8843 75.1543 17.7569 74.587 18.8476C74.0196 19.9819 73.7141 21.2472 73.7141 22.6433C73.7141 23.9958 73.976 25.261 74.5433 26.3517C75.1107 27.4425 75.8526 28.3587 76.8564 28.9695C77.8166 29.6239 78.9513 29.9293 80.1297 29.9293C81.439 29.9293 82.7047 29.7112 83.8394 29.2312C84.9742 28.795 85.9343 28.1841 86.6763 27.3988L86.7635 27.4425L86.5453 32.0671C84.625 33.1578 82.3555 33.6814 79.6933 33.6814C77.5547 33.7686 75.6344 33.2887 73.976 32.3725Z" fill="#0D2A3A"/>
<path d="M90.997 30.7146C91.1279 29.7984 91.2152 28.6641 91.2152 27.3552V18.1932C91.2152 16.8843 91.1279 15.75 90.997 14.8337C90.866 13.9175 90.6042 12.9577 90.255 12.0415H96.8016C96.4524 13.0013 96.1905 13.9175 96.0596 14.8337C95.9287 15.75 95.8414 16.8843 95.8414 18.1932V30.0166C97.238 29.8857 98.7655 29.5803 100.337 29.144C101.952 28.7077 103.174 28.2714 104.046 27.7479L104.09 27.7915L101.733 33.4632H90.1677C90.5605 32.547 90.8224 31.6308 90.997 30.7146Z" fill="#0D2A3A"/>
<path d="M142.366 24.3013C142.933 25.1302 143.238 26.09 143.238 27.1808C143.238 28.4024 142.846 29.4931 142.104 30.4529C141.362 31.4127 140.358 32.1544 139.092 32.678C137.827 33.2015 136.43 33.4633 134.946 33.4633H128.312C128.661 32.5035 128.923 31.5873 129.054 30.6711C129.185 29.7549 129.272 28.6205 129.272 27.3116V18.1496C129.272 16.8407 129.185 15.7064 129.054 14.7902C128.923 13.874 128.661 12.9141 128.312 11.9979H134.859C136.299 11.9979 137.608 12.2597 138.699 12.7396C139.791 13.2195 140.663 13.9176 141.274 14.7902C141.885 15.6627 142.191 16.6226 142.191 17.7569C142.191 18.5859 141.973 19.3712 141.536 20.0693C141.1 20.8109 140.445 21.4217 139.66 21.9889C140.882 22.687 141.798 23.4723 142.366 24.3013ZM133.899 21.9017C135.033 21.6399 135.906 21.16 136.561 20.4619C137.216 19.7202 137.565 18.9349 137.565 18.0187C137.565 17.4079 137.39 16.8407 137.041 16.3172C136.692 15.7936 136.212 15.3573 135.644 15.0083C135.077 14.6593 134.51 14.5284 133.899 14.5284V21.9017ZM136.299 30.4529C136.997 30.1039 137.565 29.624 137.958 29.0132C138.35 28.4024 138.569 27.7916 138.569 27.0935C138.569 25.9591 138.132 24.9557 137.259 24.0395C136.386 23.1669 135.295 22.5561 133.899 22.338V30.9765C134.815 30.9765 135.601 30.8019 136.299 30.4529Z" fill="#0D2A3A"/>
<path d="M170.254 13.0886C172.043 13.9612 173.44 15.2264 174.487 16.8407C175.535 18.4549 176.058 20.331 176.058 22.3815C176.058 24.563 175.535 26.4826 174.487 28.2278C173.44 29.9729 172.043 31.3254 170.21 32.2853C168.421 33.2451 166.413 33.725 164.231 33.725C161.918 33.725 159.91 33.2015 158.165 32.198C156.419 31.1946 155.066 29.8421 154.106 28.1842C153.145 26.5263 152.665 24.7375 152.665 22.8615C152.665 20.8109 153.189 18.9785 154.193 17.2333C155.24 15.5318 156.637 14.1793 158.426 13.1322C160.216 12.1288 162.18 11.6052 164.318 11.6052C166.5 11.7361 168.464 12.1724 170.254 13.0886ZM160.696 16.1426C159.823 16.6662 159.125 17.4079 158.601 18.3677C158.077 19.3275 157.815 20.4619 157.815 21.6835C157.815 23.1669 158.121 24.5194 158.776 25.8282C159.387 27.1371 160.303 28.1842 161.394 28.9695C162.529 29.7548 163.795 30.1475 165.278 30.1475C166.413 30.1475 167.417 29.8421 168.29 29.2749C169.163 28.7077 169.861 27.9224 170.341 26.9189C170.821 25.9155 171.083 24.8684 171.083 23.6904C171.083 22.207 170.734 20.8545 170.079 19.5893C169.425 18.3241 168.508 17.277 167.33 16.5353C166.195 15.7936 164.929 15.4009 163.533 15.4009C162.529 15.3573 161.569 15.6191 160.696 16.1426Z" fill="#0D2A3A"/>
<path d="M199.32 26.4826C199.32 27.966 199.408 29.2313 199.539 30.322C199.67 31.4127 199.888 32.4598 200.15 33.4632H193.952C193.821 32.8524 193.298 31.9362 192.337 30.5837L184.874 20.2001V26.439C184.874 28.0533 184.962 29.3621 185.093 30.3656C185.224 31.3691 185.485 32.4162 185.835 33.4632H179.55C179.899 32.4162 180.161 31.3691 180.292 30.3656C180.423 29.3621 180.51 28.0533 180.51 26.439V15.2264C179.943 14.5283 179.463 13.9612 179.026 13.5249C178.59 13.0886 178.066 12.6087 177.499 12.1288V12.0415H184.831C185.005 12.6087 185.224 13.1322 185.485 13.6121C185.747 14.0921 186.227 14.7901 186.882 15.75L195 27.0498V19.0221C195 17.4515 194.912 16.1426 194.782 15.1391C194.651 14.1357 194.389 13.0886 194.04 12.0415H200.324C199.931 13.0886 199.67 14.1357 199.539 15.1391C199.408 16.1426 199.32 17.4515 199.32 19.0221V26.4826Z" fill="#0D2A3A"/>
<path d="M204.601 30.7146C204.732 29.7984 204.82 28.6641 204.82 27.3552V18.1932C204.82 16.8843 204.732 15.75 204.601 14.8337C204.47 13.9175 204.209 12.9577 203.859 12.0415H216.909L214.727 16.7534C213.33 15.7936 211.584 15.3137 209.446 15.2264V20.8982H216.211L213.679 25.1738C212.544 24.6066 211.148 24.3012 209.489 24.2139V30.0602C211.192 30.0602 212.719 29.9293 214.028 29.6675C215.381 29.4058 216.691 28.9695 217.956 28.4023L218 28.4459L215.949 33.5069H203.859C204.209 32.547 204.47 31.6308 204.601 30.7146Z" fill="#0D2A3A"/>
<path d="M115.35 33.6814C119.016 33.6814 122.202 32.1108 123.075 29.9729C123.642 28.6205 123.948 26.9626 123.948 24.912V18.1932C123.948 16.8843 124.035 15.75 124.166 14.8337C124.297 13.9175 124.559 12.9577 124.908 12.0415H118.362C118.711 13.0013 118.973 13.9175 119.103 14.8337C119.234 15.75 119.322 16.8843 119.322 18.1932V24.9993C119.322 25.6537 119.278 26.2209 119.147 26.7444C119.06 27.0934 118.885 27.4425 118.711 27.7479C118.318 28.4023 117.794 28.9259 117.096 29.2749C116.528 29.5803 115.961 29.6239 115.306 29.6675C114.695 29.6239 114.084 29.5803 113.517 29.2749C112.862 28.9259 112.339 28.4023 111.902 27.7479C111.728 27.4425 111.553 27.0934 111.466 26.7444C111.379 26.2209 111.291 25.6537 111.291 24.9993V18.1932C111.291 16.8843 111.379 15.75 111.509 14.8337C111.64 13.9175 111.902 12.9577 112.251 12.0415H105.705C106.054 13.0013 106.316 13.9175 106.447 14.8337C106.578 15.75 106.665 16.8843 106.665 18.1932V24.9556C106.665 27.0062 107.014 28.6641 107.538 30.0166C108.498 32.1544 111.684 33.6814 115.35 33.6814Z" fill="#0D2A3A"/>
<path d="M27.8446 30.0603L27.4955 30.9328L28.412 31.1946C33.9111 32.8089 38.7119 33.3761 41.0687 33.5506L41.5924 33.5942L41.8542 33.1143C44.0364 29.1441 46.5678 25.8283 49.2737 22.9924C48.9245 21.2909 48.6627 19.8948 48.6627 19.0222C48.6627 17.5388 50.8012 12.8269 52.0232 10.2528L49.4482 6.63159C35.9187 13.5249 29.6777 25.7846 27.8446 30.0603Z" fill="#2F5785"/>
<path d="M29.0667 5.32269L28.3684 4.84277L27.6701 5.32269C25.7498 6.63155 23.6985 7.50413 21.4291 7.94042L23.2621 13.5685L32.2527 13.6558L25.0515 19.4148L27.19 26.6572C29.6341 21.8144 34.5222 13.9612 43.12 8.02768C41.8107 8.24582 40.4577 8.33308 39.1048 8.33308C35.3078 8.33308 31.9908 7.32962 29.0667 5.32269Z" fill="#2F5785"/>
<path d="M11.5656 22.4252C11.5656 22.4252 13.0495 23.7341 14.0533 24.4321L15.4499 19.5021L8.2487 13.8303L17.1956 13.6122L18.8977 8.28946C18.4613 8.33309 18.0249 8.33309 17.5448 8.33309C14.4025 8.33309 11.3474 7.67866 8.46692 6.9806L8.37963 6.93697L7.28854 6.54431L4.66992 10.2528C5.54279 12.1288 6.93939 15.1392 7.63769 17.2334C7.68133 17.3206 7.72498 17.3643 7.76862 17.4515C8.42327 19.0658 10.0381 21.0291 11.5656 22.4252Z" fill="#2F5785"/>
<path d="M16.4537 26.0464C18.9414 27.5734 21.7346 28.9259 24.8333 30.0602L25.5753 30.322L25.8808 29.5803C26.099 29.1004 26.3172 28.4896 26.6227 27.8352L20.2507 23.1669L16.4537 26.0464Z" fill="#2F5785"/>
<path d="M50.103 26.788C50.0157 26.3081 49.8847 25.8718 49.7975 25.4355C47.3534 28.1405 45.2585 31.0637 43.6001 34.1613L43.3818 34.5976L43.6437 34.9903C44.7784 36.8227 47.0043 40.9674 48.4445 46.9882C50.6703 43.8905 51.7614 40.1821 51.7614 35.6883C51.7178 34.0304 50.8449 30.1911 50.103 26.788Z" fill="#A51E24"/>
<path d="M41.8542 35.9938L41.636 35.6448L41.1996 35.6011C38.4937 35.4266 31.7289 34.6849 24.4841 32.1108C24.6586 32.5908 24.7896 33.1579 24.7896 33.7251C24.7896 34.3795 24.7459 35.034 24.6586 35.6011C24.615 35.8193 24.615 36.0374 24.615 36.212C24.615 36.2992 24.5714 36.3865 24.5714 36.5174C24.5277 36.6919 24.4841 36.8664 24.4404 37.0409C25.4442 37.1718 26.0552 37.9135 26.3171 38.2189C26.4917 38.3934 26.6226 38.6115 26.7535 38.7861C28.4556 37.5644 30.987 37.6081 32.5581 38.8733C33.6929 39.7895 34.1293 41.0984 33.6929 42.4072C33.6929 42.4509 33.6929 42.4509 33.6492 42.4945C33.6929 42.4509 33.7365 42.3636 33.7802 42.32C35.0895 40.444 36.5734 39.0478 38.3191 38.1316C40.0212 37.2154 41.7233 37.2154 43.0326 38.088C42.5089 37.1282 42.1161 36.4301 41.8542 35.9938Z" fill="#EFAF1E"/>
<path d="M7.28845 39.8768C6.54651 39.3532 5.80456 38.786 5.06262 38.2189C5.28084 40.2694 5.76092 42.1455 6.50286 43.847C6.54651 42.3636 6.85201 41.0547 7.28845 39.8768Z" fill="#EFAF1E"/>
<path d="M15.3189 38.6552C14.1842 40.2258 13.4422 41.6656 12.9622 43.1053C13.966 42.4945 14.8388 41.6219 15.6681 40.4439C16.4537 39.3096 17.1083 38.0444 17.8066 36.7355C18.0248 36.2992 18.243 35.8629 18.5049 35.4266C18.4613 35.4266 18.4613 35.4703 18.4176 35.4703C17.2392 36.1683 16.3664 37.259 15.3189 38.6552Z" fill="#EFAF1E"/>
<path d="M12.482 32.9834L12.6566 32.8525C13.7041 31.9363 14.7952 31.0201 16.1481 30.322C16.9337 29.9294 17.6756 29.624 18.3739 29.4931C15.8863 28.2278 13.4859 26.7008 11.26 24.8684C9.95072 23.7777 8.77234 22.6434 7.72489 21.4218C7.46303 22.9051 7.02659 24.7375 6.59016 26.7881C5.84822 30.0166 5.01899 33.6378 4.97534 35.4266C6.02279 36.3428 7.11388 37.1718 8.20497 37.9571C9.42699 35.8193 11.0855 34.205 12.482 32.9834Z" fill="#EFAF1E"/>
<path d="M44.6911 41.9709C44.6038 42.8872 44.2983 43.7597 43.6873 44.4578C43.4254 44.7632 43.1635 45.0686 42.858 45.4176C43.0763 45.5049 43.2508 45.6358 43.4254 45.8103L43.6 45.9848C44.211 46.5956 44.3856 47.5991 43.9491 48.3408C43.9491 48.3844 43.9055 48.428 43.9055 48.4716C44.6038 48.428 45.2148 48.3844 45.6949 48.3408L46.6114 48.2099L46.3932 47.2937C45.8694 45.2867 45.2584 43.498 44.6911 41.9709Z" fill="#EFAF1E"/>
<path d="M24.4841 54.885L24.7896 55.1904C25.5752 55.8884 27.3209 57.2409 28.3247 57.9826C29.3285 57.1973 31.0743 55.8884 31.8599 55.1904L32.1654 54.885H32.3836C31.0743 53.8815 30.2887 52.529 30.1578 51.0893C29.0667 51.3947 28.0629 51.2202 27.1027 50.5657C26.3171 49.9985 25.7498 49.1696 25.5315 48.2098C25.226 48.5152 24.9205 48.8206 24.615 49.126C24.1349 49.5623 23.6985 50.0422 23.2184 50.4785C22.2583 51.4383 20.6434 52.0927 19.0723 51.0456C18.0248 50.3476 17.4575 49.3005 17.4575 48.1661C16.3227 49.0387 15.1007 49.7804 13.7041 50.3912C13.0931 50.653 12.5694 50.8275 12.1329 50.8711C15.2753 53.1398 19.3778 54.5359 24.004 54.885H24.4841Z" fill="#EFAF1E"/>
<path d="M42.4652 50.3913C41.636 51.3512 40.7631 52.311 39.8903 53.2272C41.8542 52.4855 43.6 51.5257 45.1275 50.3041C44.3856 50.3913 43.5127 50.435 42.4652 50.3913Z" fill="#EFAF1E"/>
<path d="M22.5637 35.9938C21.2544 41.7092 18.2866 46.0285 12.9185 48.5153C10.9545 49.3006 9.73249 47.4682 9.42699 47.0755C8.6414 46.203 8.46683 45.1122 8.51047 43.9343C8.6414 39.8768 10.8672 36.9537 13.7914 34.4668C14.8388 33.5942 15.8862 32.6344 17.0646 32.0236C18.3303 31.3692 19.7705 30.9329 21.2108 31.4128C22.1273 31.7182 22.7383 32.5471 22.7383 33.6379C22.7383 34.5104 22.651 35.2958 22.5637 35.9938ZM20.4688 33.9433C20.3379 32.9834 19.9015 32.678 18.9413 32.9834C18.3739 33.158 17.8502 33.4634 17.3265 33.7688C15.8426 34.7286 14.7515 36.0811 13.7041 37.4772C12.2202 39.5278 11.0854 41.7092 10.649 44.2397C10.3871 45.8103 10.7363 46.0721 12.2202 45.5922C14.446 44.8505 16.0608 43.3235 17.2828 41.4911C18.5922 39.5278 19.596 37.3463 20.7743 35.2958C21.1235 34.8158 20.5125 34.205 20.4688 33.9433Z" fill="white"/>
<path d="M41.4178 47.5118C40.8068 48.0353 40.2394 48.6461 39.6284 49.126C38.3191 50.0859 36.9662 51.0021 35.5696 51.8747C34.9149 52.2673 34.4348 51.9183 34.5221 51.1766C34.5658 50.5222 34.7403 49.8241 34.9149 49.1697C34.9586 48.9515 35.2641 48.777 35.4823 48.6461C36.5297 48.0353 37.7081 47.599 38.6246 46.8573C39.9339 45.7666 41.0687 44.4578 42.2034 43.1925C42.9454 42.3199 42.8581 40.7493 42.1598 40.0076C41.4615 39.2659 40.414 39.2659 39.2356 39.8767C37.6208 40.7493 36.3988 42.0145 35.395 43.4543C34.6967 44.4578 33.9111 45.2431 32.8637 45.8102C31.9472 46.3338 31.0306 46.7701 30.0705 47.25C30.0268 47.1627 29.9832 47.1191 29.9395 47.0319C30.0268 46.8137 30.1141 46.5519 30.2014 46.3338C30.7251 44.8068 31.2489 43.2798 31.7726 41.7528C31.9472 41.1856 31.7289 40.7493 31.2925 40.4003C30.376 39.6586 28.8048 39.6586 27.801 40.4439C26.8845 41.142 26.0116 41.8837 25.0515 42.669C25.1387 42.4072 25.1387 42.1891 25.2697 42.0145C25.7934 41.0547 25.4879 40.2694 24.8332 39.4841C24.2222 38.786 23.9167 38.786 23.4803 39.5713C22.4765 41.4474 21.5163 43.2798 20.5562 45.1558C20.1634 45.9411 19.9015 46.7265 19.6396 47.5554C19.3778 48.2971 19.7269 48.9079 20.2943 49.3442C20.8617 49.7368 21.429 49.4751 21.9091 48.9952C23.0875 47.8172 24.2659 46.6392 25.4443 45.5048C26.4917 44.5014 27.5391 43.5415 28.6302 42.5381C28.3684 43.7161 28.0192 44.8504 27.6701 45.9848C27.3209 47.2064 27.5828 48.2971 28.3247 48.8206C29.3722 49.5187 30.2014 48.9515 31.0306 48.3843C31.7289 47.9044 32.3836 47.3809 33.0819 46.8573C32.82 47.8172 32.4709 48.7334 32.2963 49.6932C31.9908 51.1766 32.6018 52.3982 33.7365 53.2271C34.2603 53.6198 35.0459 53.8816 35.6569 53.7507C36.3552 53.6198 37.1407 53.1835 37.6645 52.66C39.0611 51.2639 40.3704 49.7805 41.636 48.2971C41.8979 47.9917 42.0288 47.599 42.2034 47.25C42.1598 47.2064 42.0725 47.1191 42.0288 47.0755C41.8106 47.2936 41.5924 47.3809 41.4178 47.5118ZM37.1407 45.0249C37.839 43.4979 38.9301 42.1891 40.5013 41.142C40.545 41.142 40.545 41.142 40.5886 41.142C40.6322 41.142 40.6322 41.1856 40.5886 41.2292C39.8467 42.9307 38.7119 44.2396 37.1844 45.1122H37.1407H37.0971C37.1407 45.0686 37.1407 45.0249 37.1407 45.0249Z" fill="white"/>
<path d="M26.9281 15.5319L22.8693 18.7604L24.3532 23.865L20.207 20.811L16.1482 23.9086L17.5884 18.7604L13.5295 15.5755L18.5922 15.4446L20.207 10.3837L21.8655 15.401L26.9281 15.5319Z" fill="white"/>
</svg>
