<svg width="108" height="120" viewBox="0 0 108 120" fill="none" xmlns="http://www.w3.org/2000/svg">
<path d="M71.965 87.5659C71.9956 87.5659 72.0261 87.5659 72.0566 87.5355C75.1086 85.7708 77.428 83.1237 78.9235 79.6552C78.954 79.5943 78.9235 79.5335 78.893 79.4726C78.8319 79.4422 78.7709 79.4118 78.7099 79.4726C75.5053 81.6329 73.2469 84.2191 71.8735 87.3225C71.843 87.3834 71.8735 87.4442 71.904 87.5051C71.904 87.5355 71.9345 87.5659 71.965 87.5659Z" fill="white"/>
<path d="M31.6794 80.3242C34.3346 76.3688 36.3489 71.9875 38.7294 67.8495C39.3703 66.7542 38.1495 65.5372 38.0579 64.9895C37.7528 63.0422 36.8982 62.4337 34.945 63.0118C33.8157 63.3465 32.717 63.9854 31.7099 64.6244C28.6884 66.5716 26.4605 69.2796 24.3852 72.1396C21.3637 76.2775 19.0443 80.7197 18.1897 85.8009C17.6404 88.9956 18.3728 89.5432 21.3943 88.5696C25.8501 87.1092 29.1462 84.0361 31.6794 80.3242ZM22.8592 83.4885C23.7748 80.5676 25.3008 77.6771 27.6203 74.5128C29.6651 71.7136 31.5268 69.523 33.8768 68.0017C33.9378 67.9712 33.9988 67.9408 34.0599 67.88C33.5716 68.7623 33.1138 69.6447 32.656 70.527C31.2521 73.2045 29.9092 75.7299 28.3222 78.0422C26.6742 80.4763 24.904 82.2714 22.8592 83.4885Z" fill="white"/>
<path d="M107.917 16.6734L98.5782 3.52941L92.8405 5.5071C87.408 6.84584 81.5788 8.09331 75.8106 8.09331C69.1573 8.09331 63.4502 6.38945 58.3839 2.92089L53.9586 0L49.5943 2.89047L49.5638 2.92089C44.4975 6.41988 38.7904 8.09331 32.1371 8.09331C26.3689 8.09331 20.5397 6.84584 15.1072 5.5071L9.3695 3.52941L0 16.6734L0.67143 18.0426C3.96754 24.8276 7.56885 33.2252 7.66041 34.8986C7.66041 37.1501 6.25651 43.3266 4.91365 49.3205C3.20455 56.8053 1.46494 64.5639 1.46494 68.5193C1.46494 80.2333 4.97469 90.0609 11.9331 97.6978C19.4104 105.913 30.7942 111.085 44.0702 112.272C46.8475 114.615 52.1884 118.631 52.4326 118.813L53.9891 120L55.5456 118.813C55.7898 118.631 61.1307 114.615 63.908 112.272C77.184 111.085 88.5678 105.943 96.0451 97.6978C103.004 90.0304 106.513 80.2333 106.513 68.5193C106.513 64.6247 104.774 56.8965 103.065 49.4118C101.691 43.3874 100.287 37.1805 100.287 34.8986C100.379 33.1643 103.98 24.7972 107.276 18.0122L107.917 16.6734ZM52.5242 7.18053L53.9891 6.2069L55.454 7.18053C61.4054 11.288 68.0891 13.2657 75.8106 13.2657C78.5573 13.2657 81.2431 13.0223 83.9288 12.6268C66.5021 24.645 56.5833 40.4665 51.7001 50.2941L47.3664 35.6897L61.8631 24.0669L43.643 23.8844L39.9196 12.5355C44.467 11.6227 48.6482 9.85801 52.5242 7.18053ZM62.382 74.8783C59.1774 72.2921 54.1112 72.2312 50.6319 74.6957C50.3573 74.3002 50.0826 73.9047 49.7469 73.5396C49.2281 72.931 47.9462 71.4402 45.9319 71.1359C46.0235 70.7708 46.1151 70.4057 46.1761 70.071C46.2066 69.8884 46.2371 69.6755 46.2677 69.4929C46.2982 69.0974 46.3287 68.7018 46.3897 68.2759C46.5118 67.1501 46.6644 65.8418 46.6339 64.503C46.6339 63.3469 46.4202 62.2515 46.054 61.2475C60.795 66.5112 74.4982 67.9412 79.9307 68.3367L80.8158 68.3976L81.2736 69.1278C81.8229 70.0406 82.6164 71.4402 83.5626 73.2961C80.9684 71.501 77.5197 71.4706 74.0405 73.357C70.5002 75.2738 67.5093 78.0426 64.8541 81.8458C64.7625 81.9675 64.7015 82.0892 64.6099 82.1805C64.6404 82.1197 64.6404 82.0892 64.6709 82.0284C65.556 79.3813 64.7015 76.7647 62.382 74.8783ZM29.8481 49.0466L37.6001 43.2353L50.5099 52.6978C49.8995 54.0365 49.3806 55.2231 48.9839 56.1968L48.3735 57.6876L46.8475 57.14C40.591 54.858 34.8839 52.1501 29.8481 49.0466ZM40.8352 27.6876L51.0592 27.8093L42.9105 34.3205L45.9625 44.6045L37.5696 38.4584L29.2377 44.6957L32.1981 34.3813L24.0189 27.9615L34.2429 27.7181L37.5085 17.4949L40.8352 27.6876ZM6.01235 17.1602L11.3533 9.67546L13.5202 10.4361L13.7338 10.497C19.5325 11.927 25.7585 13.2657 32.1371 13.2657C33.0527 13.2657 33.9683 13.2353 34.8533 13.1744L31.4046 23.9452L13.2455 24.3712L27.8033 35.7809L24.965 45.7606C22.9202 44.3002 19.9293 41.6531 19.9293 41.6531C16.8773 38.9148 13.6117 34.8986 12.2078 31.643C12.1468 31.4909 12.0552 31.3692 11.9637 31.217C10.6208 27.0791 7.81301 20.9635 6.01235 17.1602ZM9.76626 85.0101C8.2708 81.5416 7.29417 77.7688 6.8669 73.6004C8.33184 74.787 9.8273 75.9128 11.3533 76.9777C10.4377 79.3813 9.85782 82.0588 9.76626 85.0101ZM13.1539 73.1136C10.926 71.5314 8.75911 69.8276 6.62274 67.9716C6.77534 64.3509 8.45392 56.9878 9.94938 50.4767C10.865 46.3996 11.7195 42.6268 12.2689 39.6755C14.4358 42.1095 16.8163 44.4219 19.4104 46.5821C23.8968 50.2941 28.8105 53.3976 33.7852 55.9533C32.3202 56.288 30.8248 56.8661 29.2377 57.6572C26.5215 59.0568 24.3241 60.9432 22.1572 62.7992L21.8215 63.1034C19.0137 65.5071 15.626 68.7627 13.1539 73.1136ZM15.6565 91.5821C14.0695 89.787 13.7033 87.5964 13.7643 85.2536C14.0085 77.0385 18.5559 71.1968 24.4462 66.146C26.552 64.3509 28.6884 62.4949 31.0994 61.2475C33.6631 59.9391 36.5319 59.0872 39.5534 60.0608C41.415 60.6694 42.6358 62.3124 42.6358 64.5639C42.6358 66.1765 42.3917 67.789 42.2696 69.2191C39.5839 80.7809 33.602 89.5132 22.7371 94.503C18.8 96.0243 16.3585 92.3428 15.6565 91.5821ZM61.7716 107.252L61.1307 107.83C59.5437 109.229 56.0339 111.937 53.9891 113.519C51.9443 111.968 48.4345 109.26 46.8475 107.83L46.2066 107.252L45.3215 107.191C35.9826 106.491 27.6812 103.661 21.3027 99.1278C22.2182 99.0061 23.2559 98.6714 24.4767 98.1237C27.2234 96.8763 29.7566 95.355 32.0455 93.6207C32.0455 95.9026 33.2358 98.0324 35.3417 99.432C38.4852 101.531 41.7202 100.223 43.704 98.2759C44.6501 97.3631 45.5657 96.4503 46.5118 95.5071L46.5423 95.4767C47.1527 94.8681 47.7936 94.2292 48.4345 93.6207C48.8923 95.6288 49.9605 97.3022 51.5781 98.3976C53.5008 99.7363 55.5761 100.101 57.743 99.4929C58.0482 102.444 59.6352 105.152 62.2904 107.191L61.7716 107.252ZM68.669 105.183C67.4482 105.396 65.8002 104.878 64.7625 104.087C62.4735 102.353 61.1612 99.9189 61.8326 96.9067C62.2599 94.9899 62.9008 93.1034 63.4502 91.1562C62.0768 92.1907 60.7339 93.286 59.2995 94.2292C57.6209 95.3245 55.9118 96.5416 53.806 95.1116C52.28 94.0467 51.7612 91.856 52.4936 89.3611C53.1651 87.0791 53.9281 84.8276 54.4469 82.3935C52.3105 84.3712 50.1436 86.3489 48.0073 88.357C45.5962 90.6694 43.2157 93.073 40.8046 95.4158C39.8585 96.3286 38.6988 96.9067 37.5391 96.1156C36.3488 95.3245 35.7079 94.0467 36.1962 92.5558C36.7455 90.9128 37.2644 89.2393 38.0274 87.6876C39.9196 83.8844 41.9339 80.1116 43.9482 76.3692C44.8332 74.7262 45.5047 74.7566 46.6949 76.1562C48.0378 77.7383 48.6482 79.3205 47.58 81.2677C47.3664 81.6633 47.3358 82.1197 47.1832 82.6065C49.106 81.0548 50.9371 79.5639 52.7683 78.1034C54.7826 76.5213 58.0177 76.5213 59.8183 77.9817C60.7339 78.712 61.1917 79.6247 60.795 80.7505C59.7573 83.8235 58.6891 86.8965 57.6514 90C57.4988 90.4868 57.3157 90.9736 57.1326 91.4604C57.2242 91.5822 57.3157 91.7343 57.4073 91.856C59.269 90.8823 61.1917 89.9696 63.0229 88.9351C65.0982 87.7789 66.7158 86.1359 68.1197 84.1582C70.1645 81.2069 72.6976 78.6815 75.9327 76.9168C78.3437 75.6085 80.4496 75.6389 81.8535 77.1602C83.2879 78.6815 83.5015 81.8458 81.945 83.6105C79.6561 86.2272 77.3366 88.8134 74.6814 91.0345C72.8197 92.5862 70.4086 93.4686 68.2723 94.6856C67.8145 94.929 67.2651 95.3245 67.143 95.7809C66.7768 97.0892 66.5021 98.4584 66.38 99.7972C66.258 101.349 67.1736 102.049 68.5164 101.258C71.3547 99.5537 74.071 97.6673 76.7262 95.7201C78.0385 94.7769 79.1677 93.5294 80.3885 92.4645C80.7242 92.1602 81.182 92.0081 81.5788 91.7951C81.7009 91.9168 81.7924 92.0081 81.9145 92.1298C81.5177 92.8296 81.2431 93.6511 80.7242 94.2292C78.069 97.211 75.4749 100.254 72.6366 103.053C71.6904 104.057 70.1339 104.939 68.669 105.183ZM77.3976 103.996C79.1983 102.11 80.9074 100.162 82.6165 98.2454C84.7223 98.2759 86.5229 98.215 87.9879 98.1237C84.9054 100.527 81.3346 102.505 77.3976 103.996ZM88.995 93.9858C88.0489 94.1075 86.8587 94.1988 85.4242 94.2596C85.4853 94.1684 85.5158 94.0771 85.5463 94.0162C86.4009 92.4645 86.1262 90.4868 84.8444 89.2393L84.5087 88.9047C84.1729 88.57 83.7762 88.2961 83.3489 88.1136C83.9593 87.4442 84.5087 86.8053 85.0275 86.1967C86.2178 84.8276 86.8892 83.0324 87.0418 81.1765C88.232 84.2799 89.3918 87.9006 90.3989 91.9473L90.8567 93.7728L88.995 93.9858ZM101.325 68.5193C101.325 77.5862 99.097 85.071 94.5801 91.3083C91.6197 79.1379 87.1028 70.7708 84.8444 67.0892L84.3255 66.2677L84.7833 65.4158C88.2015 59.1481 92.4437 53.2454 97.3879 47.7992C97.6016 48.712 97.8152 49.6247 98.0288 50.5679C99.5548 57.4138 101.325 65.2028 101.325 68.5193ZM95.099 34.8986C95.099 36.6024 95.5873 39.4016 96.2892 42.8702C90.8262 48.5903 85.6379 55.3753 81.2736 63.3469L80.7548 64.2901L79.6561 64.1988C74.8645 63.8032 65.1898 62.6471 54.0501 59.4219L52.219 58.9047L52.9514 57.1704C56.6443 48.499 69.2489 23.7018 96.686 9.82759L101.935 17.1602C99.4632 22.3631 95.099 31.9168 95.099 34.8986Z" fill="white"/>
</svg>
