<?xml version="1.0" encoding="utf-8"?>
<!-- Generator: Adobe Illustrator 24.1.0, SVG Export Plug-In . SVG Version: 6.00 Build 0)  -->
<svg version="1.1" id="Layer_1" xmlns="http://www.w3.org/2000/svg" xmlns:xlink="http://www.w3.org/1999/xlink" x="0px" y="0px"
	 viewBox="0 0 65 65" style="enable-background:new 0 0 65 65;" xml:space="preserve">
<style type="text/css">
	.st0{fill:#A61421;}
</style>
<path class="st0" d="M18.6,27.1c1.1,2.2,1.6,4.6,2.2,7.1c0.7-0.9,1.8-0.9,2.5-1.7c1-1,2.2-1.8,3.4-2.7c0.3-0.2,0.4-0.5,0.3-0.9
	c0-0.6,0-1.3,0-2c-0.1-0.7-0.2-1.4-0.3-2.2c-0.1-0.4-0.2-0.8-0.2-1.3c0.1-0.9,0.2-1.8,0.4-2.7c0.1-0.7,0.3-1.4,0.5-2.1
	c0.1-0.9,0.3-1.8,0.3-2.8s0.5-1.7,0.8-2.5c0.3-0.6,0.6-1.2,0.7-1.9c0.2-1,0.9-1.7,1.5-2.5c0.5-0.6,0.7-1.2,1.1-1.9
	c0.2-0.3,0.5-0.6,0.8-0.9c0.5,0.7,0.6,1.4,0.6,2c0,1.3,0,2.6-0.1,4c0,0.7-0.2,1.3-0.3,2s0,1.5-0.1,2.2c0,0.8-0.1,1.5-0.1,2.3
	c0,0.2,0,0.4,0,0.6c0.2,1,0.1,2,0,3c-0.1,1.4-0.2,2.8,0.2,4.2c0.2,0.6,0.2,1.2,0.1,1.7c-0.1,0.7,0.3,1,0.7,1.3c1.6,1,3.2,2,4.7,3
	c1,0.6,1.9,1.3,2.9,1.9c0.4,0.3,0.6,0.7,1,1c0.1,0.1,0.3,0.3,0.4,0.4c0.6,0.6,1.2,1.1,1.7,1.7c0.7,0.8,1.5,1.6,2.1,2.4
	c0.8,1.1,1.6,2.3,2.4,3.4c0.6,1,1.3,2,1.9,2.9c0.1,0.2,0.1,0.4,0.2,0.5c0.3,0.5,0.5,1,0.9,1.7c0.5-0.5,0.9-0.8,1.2-1.2
	s0.7-0.7,0.9-1.2c0.3-0.7,0.8-1.3,1.3-2c0.2-0.2,0.4-0.5,0.4-0.8c0.1-0.9,0.7-1.5,1.1-2.2c0.3-0.5,0.6-1,0.6-1.7
	c0-0.5,0.4-1,0.5-1.5c0.2-0.9,0.3-1.9,0.5-2.9c0-0.1,0-0.1-0.1-0.2c-0.9-1.8-1.8-3.6-3-5.3c-0.9-1.2-1.7-2.5-2.8-3.5
	c-1-1.1-2.2-2.1-3.4-3c-0.9-0.7-1.6-1.6-2.4-2.5c-0.3-0.4-0.7-0.8-1.2-1.1c-0.8-0.5-1.8-1-2.6-1.5c-0.9-0.6-1.8-1.3-2.6-2
	c-0.7-0.6-0.5-1.4,0.3-1.9c1-0.6,1.9-0.2,2.7,0.2s1.6,0.6,2.4,0.9c0.6,0.2,1.3,0.5,1.8,0.9c1,0.7,2.1,0.8,3.1,1.3
	c0.9,0.4,1.6,0.8,2.4,1.4c1,0.8,2,1.6,2.8,2.6c0.2,0.2,0.4,0.3,0.8,0.4c-0.1-0.4-0.2-0.7-0.3-1.1s-0.3-0.7-0.5-1.1
	c-0.4-1.2-0.8-2.5-1.2-3.7l-0.1-0.1c-0.3-1.8-1.5-3.2-2.4-4.7c-0.1-0.2-0.4-0.4-0.6-0.6c-1.1-1.4-2.2-2.8-3.3-4.2
	c-0.2-0.3-0.5-0.5-0.3-0.9c0.3-0.4,0.6-0.4,1.1-0.4c1.1,0.2,2.1,0.8,3,1.5s1.7,1.6,2.5,2.3c0.4,0.4,1.1,0.6,1.3,1.2
	c0.1,0.3,0.3,0.6,0.5,1c0.3,0.5,0.7,1.1,1.1,1.5c1,1.2,2.1,2.3,3.1,3.5c0.4,0.6,0.8,1.3,1,2c0.2,0.6,0.5,1.2,0.7,1.7s0.5,1,0.5,1.7
	c0,0.9,0.5,1.8,0.9,2.6c0.7,1.4,0.8,2.9,0.8,4.4c0,0.7-0.1,1.5-0.1,2.2c0,0.3,0.3,0.6,0.3,0.9c0.2,1.8,0,3.6-0.4,5.4
	c-0.1,0.6-0.4,1.2-0.3,1.8c0,1.3-0.7,2.3-1,3.4c-0.4,1.4-1.3,2.5-1.8,3.8c0,1.4-0.3,2.2-1,2.7c-0.2,0.1-0.3,0.4-0.4,0.6
	c-0.3,0.6-0.6,1.2-1.2,1.6c-0.3,0.2-0.5,0.6-0.6,0.9c-0.3,0.7-0.7,1.4-1.5,1.7c-0.3,0.1-0.6,0.4-0.8,0.7c-0.3,0.5-0.7,0.9-1.3,1.1
	c-0.9,0.3-1.6,1.1-2.2,1.9c-0.7,0.9-1.4,1.8-2.3,2.4c-0.6,0.5-1.3,0.8-1.8,1.4c-0.2,0.2-0.6,0.2-0.8,0.4c-0.7,0.4-1.4,1-2.1,1.2
	c-1.3,0.4-2.5,0.9-3.7,1.5c-0.4,0.2-1,0.3-1.4,0.2c-1.2-0.1-2.3,0.3-3.4,0.3c-0.5,0-1,0.1-1.4,0.2c-1.7,0.5-3.4,0.2-5.1,0.2
	c-0.2,0-0.5-0.1-0.7,0c-1.2,0.2-2.3-0.2-3.4-0.7C25,63.8,24,63.7,23,63.5c-2-0.4-4-1-5.9-2c-0.8-0.4-1.7-0.8-2.6-1.2
	c-0.1-0.1-0.3-0.1-0.4-0.1c-1.9-0.1-2.8-1.4-3.3-2.9c-0.3-1-0.9-1.8-1.7-2.5c-0.4-0.4-0.8-0.9-1.2-1.4c-0.4-0.5-0.8-1-1.2-1.5
	c-0.7-0.8-1.5-1.6-2.2-2.4c-0.4-0.6-0.8-1.3-1-2c-0.5-1.5-0.7-3-1.4-4.4c-0.9-1.7-1.2-3.6-1.9-5.4C0,36.9,0,36.1,0,35.3
	c0-1.1,0.1-2.3,0.1-3.4c0-0.7,0-1.5,0-2.2s0.4-1.5,0.5-2.2c0.2-1.1,0.3-2.1,0.6-3.2c0.1-0.6,0.5-1.2,0.4-1.9c0-0.2,0.1-0.4,0.1-0.6
	c0.6-1.6,1.2-3.2,2-4.8c0.4-0.8,0.9-1.6,1.5-2.1c1-0.9,1.6-2.2,2.4-3.2c0.5-0.7,0.8-1.4,1.5-1.9c0.6-0.5,1-1.2,1.6-1.8
	c0.7-0.7,1.4-1.2,2.2-1.8c1-0.7,1.9-1.4,2.9-2C15.9,4.1,16.1,4,16.2,4c0.7,0.2,1.1-0.3,1.7-0.5c1.5-0.4,2.7-1.5,4.3-1.7
	c0.1,0,0.1,0,0.2-0.1c1.6-1,3.4-1.1,5.2-1.3c0.5-0.1,0.9-0.2,1.4-0.3c2.2-0.3,4.3,0,6.4,0.3c0.3,0,0.6,0.3,0.8,0.5
	c0.4,0.4,0.2,1.1-0.3,1.2c-1.3,0.3-2.7,0.6-4,0.9c-1.5,0.3-2.9,0.7-4.2,1.6c-1.3,0.9-2.6,1.7-4,2.5c-1.3,0.7-2.7,1.4-4,2.1
	c-1,0.6-1.2,1.2-1.1,2.4c0,0.7-0.3,1.5-0.4,2.2c-0.1,0.6-0.1,1.3-0.6,1.9c-0.1,0.2,0.1,0.6,0.1,0.8c0.1,2.2,0.3,4.3,0.5,6.4
	c0.1,1,0.3,2,0.5,2.9C18.7,26.4,18.6,26.7,18.6,27.1z M30.4,34.4c-0.9,0.8-1.7,1.4-2.3,2.2c-0.6,0.6-1.2,1-1.9,1.4
	c-1.2,0.7-2.6,1.1-3.7,1.9c-1.1,0.7-2.2,1.1-3.4,1.4c-0.9,0.2-1.7,0.6-2.6,0.8c-1,0.3-2,0.7-3,1c-0.1,0-0.2,0-0.3,0
	c-0.5-0.4-0.9-0.2-1.4,0.1c-0.2,0.1-0.5,0.1-0.8,0.1c-0.8-0.1-1.5,0.2-2.4,0.3c0.4,1,0.7,1.9,1,2.7c0.1,0.3,0.4,0.6,0.7,0.8
	c0.6,0.6,1.2,1.2,1.7,1.8c1,1.4,2.3,2.5,3.8,3.2c0.4,0.2,0.9,0.4,1.5,0.7c0.9-0.4,1.8-0.9,2.7-1.4c0.1-0.1,0.3-0.2,0.5-0.2
	c1.8-0.4,3.2-1.6,4.9-2.2c0.1-0.1,0.2-0.2,0.4-0.4c0.6-0.5,1.2-1.1,1.9-1.5c1.1-0.6,2.2-1.3,3.2-2.1c0.9-0.6,1.8-1.2,2.7-1.8
	c0.6-0.4,1.3-0.8,1.9-1.3c1-0.7,2-1.5,3-2.2c0-0.1,0-0.1-0.1-0.2c-1.1-0.8-2.2-1.6-3.3-2.3c-0.5-0.4-0.9-0.8-1.4-1.1
	c-0.7-0.4-1.4-0.7-2-1.3C31.4,34.8,30.8,34.6,30.4,34.4z M41.1,42.7c-0.6,0.8-1,1.4-1.5,2c-1,1.2-2.2,2.3-3.2,3.5
	c-0.9,1.2-2.1,2-3.3,2.9c-1.4,1-2.9,1.9-4.4,2.8c-0.2,0.1-0.3,0.2-0.4,0.4c-0.2,0.5-0.6,0.5-1,0.5c-0.3,0-0.7,0.1-0.8,0.2
	c-0.2,0.8-0.7,0.3-1.1,0.3c0.1,0.5,0.1,0.8,0.7,1c0.9,0.3,1.8,0.8,2.8,0.7c0.4,0,0.8,0,1.2,0.2c1.4,0.5,2.7,0.4,4.1,0.3
	c0.4-0.1,0.8-0.1,1.2-0.1c0.7-0.1,1.5-0.2,2.2-0.4c1-0.3,2-0.8,2.9-1.1c1.2-0.5,2.4-0.9,3.5-1.4c0.7-0.3,1.4-0.7,2.1-1.1
	c0.6-0.3,0.7-0.6,0.5-1.3c-0.5-1.5-1.2-2.9-2.2-4.2c-0.3-0.4-0.8-0.8-0.9-1.3C43.3,45,41.8,44.3,41.1,42.7z M18.2,35.3
	c-0.1-0.1-0.1-0.2-0.1-0.2c-1.8-1.6-2.7-3.8-3.9-5.9c-0.3-0.4-0.5-1-0.4-1.5c0.1-0.3,0-0.6-0.1-0.9c-0.5-1.3-1-2.5-1.5-3.7
	c-0.3-0.7-0.6-1.5,0.1-2.2c-0.8-0.5-0.8-0.5-0.7-1.6c0-0.4,0-0.7-0.1-1.3c-0.5,1-0.8,1.8-1.3,2.5c-1,1.7-1.7,3.5-1.8,5.5
	c0,0.5-0.1,1-0.4,1.5c-0.7,1.1-0.9,2.3-0.8,3.6c0.1,1-0.2,2.1-0.3,3.1c0,0.4,0.1,0.7,0,1.1c-0.2,1,0.2,1.8,0.5,2.5
	c1.6-0.2,3.1-0.4,4.5-0.7c1-0.2,2-0.4,3-0.7s2-0.7,2.9-1C18,35.5,18.1,35.4,18.2,35.3z"/>
</svg>
