<svg width="65" height="65" viewBox="0 0 65 65" fill="none" xmlns="http://www.w3.org/2000/svg">
<path d="M18.641 27.0842C19.7183 29.2719 20.257 31.6536 20.8675 34.2118C21.5678 33.3297 22.6451 33.312 23.3993 32.5358C24.3868 31.5125 25.6437 30.7362 26.8109 29.8717C27.1341 29.6247 27.1879 29.3777 27.1341 29.0073C27.0443 28.3016 27.0443 27.5959 26.9725 26.9078C26.9006 26.1844 26.7929 25.4611 26.6852 24.7378C26.6313 24.3143 26.4877 23.8909 26.5056 23.4675C26.5774 22.5677 26.7211 21.668 26.8647 20.7858C26.9904 20.0978 27.2059 19.4097 27.3316 18.7216C27.4752 17.8042 27.6009 16.8868 27.6548 15.9694C27.7087 15.052 28.1216 14.2934 28.4808 13.4994C28.7501 12.8996 29.0374 12.335 29.1631 11.647C29.3426 10.659 30.025 9.90037 30.6714 9.14174C31.1562 8.57718 31.4075 7.90676 31.7487 7.27163C31.9283 6.95406 32.2515 6.70706 32.5567 6.37186C33.0954 7.04227 33.1493 7.73033 33.1672 8.38311C33.1852 9.7063 33.1493 11.0118 33.0954 12.335C33.0595 13.0055 32.8979 13.6582 32.844 14.3286C32.7901 15.052 32.8261 15.793 32.7901 16.5163C32.7542 17.275 32.6824 18.0336 32.6465 18.7922C32.6285 18.9863 32.6285 19.198 32.6824 19.3921C32.9158 20.38 32.8081 21.368 32.7183 22.3737C32.6106 23.7851 32.5388 25.1788 32.9338 26.5726C33.0954 27.1371 33.1672 27.7546 33.0774 28.3192C32.9517 29.0249 33.3468 29.3072 33.8136 29.6071C35.3758 30.6127 36.9738 31.6007 38.536 32.6063C39.5056 33.2238 40.4752 33.859 41.4089 34.5294C41.786 34.794 42.0553 35.1998 42.3785 35.535C42.5042 35.6761 42.6479 35.8173 42.7915 35.9408C43.3661 36.5053 43.9587 37.0346 44.5153 37.6168C45.2515 38.3931 46.0056 39.1694 46.652 40.0162C47.4959 41.1101 48.2501 42.2745 49.0401 43.4212C49.6866 44.3916 50.315 45.3795 50.9435 46.3675C51.0512 46.5263 51.0512 46.738 51.141 46.9145C51.3924 47.4084 51.6617 47.9201 52.0028 48.5905C52.4877 48.1141 52.8647 47.7789 53.1879 47.4261C53.5111 47.0556 53.8882 46.7733 54.0857 46.2617C54.373 45.556 54.9117 44.9385 55.3426 44.2857C55.5042 44.0387 55.7736 43.7917 55.7915 43.5271C55.8633 42.6273 56.5277 42.0451 56.8868 41.3041C57.1562 40.7748 57.4794 40.2985 57.5332 39.6457C57.5691 39.1517 57.9283 38.6754 58.036 38.1814C58.2515 37.2463 58.3772 36.276 58.5388 35.3233C58.5567 35.2704 58.5028 35.1998 58.4669 35.1292C57.5512 33.3297 56.6714 31.4949 55.4863 29.8541C54.6064 28.6368 53.7446 27.4018 52.7211 26.3079C51.6796 25.2141 50.4946 24.2438 49.2915 23.3264C48.3758 22.6207 47.6755 21.7385 46.9393 20.874C46.5982 20.4683 46.2031 20.0625 45.7542 19.7626C44.9103 19.2156 43.9946 18.8099 43.1506 18.2453C42.2349 17.6454 41.3551 16.9927 40.5291 16.287C39.8288 15.6695 40.0263 14.8932 40.8523 14.4169C41.8399 13.8523 42.7736 14.1699 43.5995 14.6286C44.3537 15.0696 45.1796 15.2461 45.9697 15.5636C46.5982 15.8106 47.2446 16.0753 47.7832 16.4634C48.7349 17.1338 49.8661 17.2926 50.9075 17.716C51.7694 18.0689 52.5415 18.5276 53.2777 19.0921C54.3191 19.8861 55.2708 20.7329 56.0968 21.7209C56.2584 21.9149 56.5277 22.0384 56.9227 22.0914C56.815 21.7385 56.7432 21.368 56.5995 21.0152C56.4738 20.6447 56.2584 20.3095 56.1327 19.939C55.7197 18.704 55.3247 17.4514 54.9117 16.2164C54.8937 16.1811 54.8578 16.1635 54.8578 16.1282C54.5346 14.311 53.3136 12.9525 52.4697 11.3823C52.344 11.1353 52.0388 10.9942 51.8592 10.7649C50.7459 9.37109 49.6506 7.97733 48.5553 6.56592C48.3578 6.30129 48.0346 6.05429 48.268 5.66615C48.5194 5.26037 48.9145 5.22509 49.3454 5.29566C50.4946 5.50737 51.4642 6.10722 52.362 6.75999C53.2777 7.43041 54.0319 8.31254 54.8937 9.05352C55.3426 9.44166 55.9531 9.61809 56.1866 10.2532C56.3122 10.5884 56.5277 10.8883 56.7252 11.2059C57.0664 11.7176 57.3896 12.2645 57.8026 12.7408C58.8261 13.9229 59.9214 15.0167 60.891 16.234C61.3399 16.7986 61.6631 17.5219 61.8426 18.21C62.0042 18.8275 62.3095 19.3744 62.5429 19.939C62.7584 20.4859 63.0277 20.9446 63.0636 21.615C63.0995 22.5148 63.5305 23.4146 63.9255 24.2614C64.6078 25.6728 64.6796 27.1901 64.7515 28.7073C64.7874 29.4307 64.6437 30.1717 64.6437 30.895C64.6437 31.1949 64.8951 31.4772 64.9131 31.7948C65.0747 33.612 64.931 35.4291 64.5001 37.1934C64.3564 37.7756 64.141 38.3755 64.1589 38.9753C64.1589 40.2456 63.4227 41.2688 63.1175 42.4156C62.7404 43.8094 61.7708 44.8856 61.304 46.2088C61.0167 47.0203 60.7114 47.7613 60.0111 48.3259C59.8316 48.467 59.7418 48.714 59.652 48.9257C59.4006 49.5608 59.0774 50.1254 58.4849 50.5488C58.1796 50.7605 58.018 51.1134 57.8564 51.4839C57.5691 52.1719 57.1562 52.8423 56.3661 53.1952C56.0429 53.3363 55.7556 53.6363 55.5761 53.9362C55.2528 54.4831 54.8758 54.8007 54.2294 55.0477C53.3136 55.3829 52.6493 56.1768 52.0208 56.9707C51.3385 57.8352 50.6382 58.7702 49.7584 59.4054C49.1299 59.8641 48.4656 60.1993 47.9987 60.8521C47.8371 61.0638 47.4421 61.0814 47.1907 61.2402C46.4725 61.6283 45.8081 62.1929 45.054 62.4046C43.7611 62.7575 42.5761 63.2691 41.391 63.8689C40.978 64.0807 40.4393 64.1689 39.9904 64.1159C38.8053 63.9748 37.728 64.4335 36.5788 64.4511C36.112 64.4511 35.6272 64.5394 35.1783 64.6981C33.4904 65.2451 31.7667 64.8746 30.0609 64.9099C29.8274 64.9099 29.5761 64.8393 29.3426 64.8746C28.1037 65.0686 27.0084 64.7158 25.8951 64.2218C24.9973 63.8337 23.9918 63.6925 23.0401 63.4985C20.9932 63.075 19.0001 62.4752 17.1506 61.4872C16.3067 61.0461 15.4269 60.658 14.565 60.2522C14.4393 60.1993 14.3136 60.1464 14.17 60.1287C12.2667 60.0229 11.4048 58.7702 10.8841 57.2001C10.5609 56.1944 9.96833 55.4182 9.19623 54.7301C8.74733 54.3243 8.37026 53.8303 7.97523 53.3716C7.56225 52.8953 7.18518 52.3836 6.75424 51.9073C6.01805 51.0957 5.21004 50.3371 4.54567 49.4726C4.09678 48.8904 3.79153 48.1847 3.55811 47.479C3.05534 46.0147 2.83987 44.4445 2.15755 43.0684C1.29568 41.3218 0.918603 39.434 0.29015 37.6345C0.0387693 36.8935 0.0208135 36.0643 0.00285766 35.2704C-0.0150981 34.1236 0.0567251 32.9945 0.0746809 31.8477C0.0926367 31.1067 0.0746809 30.3657 0.0567251 29.6424C0.0387693 28.9014 0.415841 28.1604 0.559487 27.4018C0.774957 26.3432 0.900648 25.267 1.15203 24.2261C1.29568 23.591 1.6907 23.0088 1.5291 22.3031C1.49319 22.1267 1.58297 21.8973 1.65479 21.7209C2.3012 20.133 2.89374 18.5099 3.62993 16.9574C4.007 16.1811 4.52772 15.4048 5.17413 14.8403C6.21556 13.9052 6.79015 12.6879 7.5802 11.5941C8.04706 10.9413 8.38822 10.2003 9.08849 9.67101C9.71694 9.19466 10.1299 8.45368 10.7045 7.90676C11.3868 7.25398 12.141 6.67178 12.8951 6.10722C13.8468 5.40152 14.8164 4.74874 15.786 4.07832C15.8937 4.00775 16.0553 3.9019 16.1451 3.91954C16.8454 4.14889 17.2763 3.58433 17.8509 3.42555C19.3592 3.03741 20.5622 1.89065 22.1783 1.73186C22.2501 1.73186 22.3219 1.71422 22.3758 1.67894C23.9738 0.708595 25.8053 0.585097 27.6009 0.373386C28.0678 0.320459 28.5346 0.161676 29.0194 0.108748C31.1741 -0.15589 33.2929 0.108748 35.4117 0.408671C35.7169 0.443957 36.0222 0.708595 36.2377 0.937948C36.6147 1.36137 36.4352 2.03179 35.8965 2.15528C34.5857 2.47285 33.239 2.71985 31.9283 3.01977C30.4379 3.35498 28.9835 3.74311 27.7087 4.64289C26.4158 5.54266 25.0692 6.35421 23.7045 7.14813C22.4117 7.88912 21.0291 8.52425 19.7183 9.24759C18.6948 9.81215 18.5332 10.412 18.5692 11.6117C18.5871 12.3527 18.3178 13.0937 18.1741 13.8347C18.0484 14.4698 18.0484 15.1402 17.6175 15.7224C17.4918 15.8988 17.7073 16.287 17.7073 16.5693C17.7611 18.7216 18.0484 20.874 18.21 23.0088C18.2819 24.0144 18.5512 24.9671 18.7128 25.9551C18.7128 26.3609 18.641 26.7314 18.641 27.0842ZM30.402 34.4412C29.5042 35.2704 28.7321 35.8879 28.1037 36.6112C27.5471 37.2463 26.8647 37.6521 26.1645 38.0402C24.9435 38.693 23.5968 39.1694 22.4296 39.9104C21.3523 40.5984 20.2211 41.0218 19.0001 41.3394C18.1382 41.5688 17.2943 41.904 16.4324 42.1862C15.4448 42.5215 14.4393 42.839 13.4518 43.1566C13.362 43.1919 13.2183 43.1742 13.1465 43.1213C12.6437 42.7508 12.2128 42.9449 11.7459 43.2272C11.5484 43.3507 11.2073 43.3154 10.9559 43.2801C10.1658 43.1742 9.44761 43.4742 8.58573 43.6153C8.94485 44.5856 9.25009 45.4854 9.62716 46.3322C9.77081 46.6498 10.0581 46.9145 10.2915 47.1791C10.8661 47.7966 11.5305 48.3435 12.0153 49.0139C13.0208 50.443 14.2777 51.5015 15.8578 52.2425C16.3067 52.4542 16.7736 52.6836 17.3302 52.9482C18.1921 52.5071 19.1258 52.0308 20.0774 51.5544C20.2211 51.4839 20.3827 51.3957 20.5443 51.3604C22.3399 51.0075 23.7404 49.7902 25.4283 49.1727C25.5719 49.1198 25.6617 48.9257 25.8053 48.8198C26.4338 48.3082 27.0084 47.6907 27.7087 47.3026C28.8399 46.6851 29.9172 45.9794 30.9587 45.2208C31.8385 44.5856 32.7722 44.0034 33.67 43.4212C34.3164 42.9978 34.9808 42.592 35.6092 42.151C36.6147 41.4276 37.5843 40.669 38.5719 39.928C38.554 39.8751 38.554 39.7869 38.5001 39.7692C37.4048 38.9929 36.3095 38.2167 35.2321 37.4404C34.7473 37.0875 34.3164 36.6641 33.8136 36.3642C33.1313 35.9584 32.4131 35.6585 31.8026 35.1116C31.3896 34.794 30.7971 34.6352 30.402 34.4412ZM41.1037 42.7155C40.5111 43.5271 40.1341 44.1622 39.6493 44.7268C38.6078 45.9088 37.4227 47.0027 36.4531 48.2376C35.5374 49.4373 34.3343 50.2489 33.1313 51.0957C31.7128 52.1014 30.2045 52.9835 28.7321 53.9362C28.5705 54.042 28.391 54.1832 28.3192 54.3596C28.1216 54.8183 27.7087 54.836 27.3136 54.9065C27.0443 54.9418 26.5774 54.9595 26.5595 55.0653C26.3979 55.8239 25.8413 55.3652 25.4642 55.4005C25.536 55.8769 25.5899 56.2121 26.1465 56.3709C27.0802 56.6355 27.96 57.1295 28.9835 57.0942C29.3785 57.0766 29.8095 57.1118 30.1866 57.253C31.5512 57.747 32.9338 57.6764 34.3343 57.5176C34.7473 57.4647 35.1603 57.4471 35.5553 57.3765C36.2915 57.253 37.0457 57.1824 37.7639 56.9531C38.7694 56.6355 39.7211 56.1944 40.7087 55.8239C41.8758 55.3652 43.0609 54.9418 44.228 54.4478C44.9462 54.1479 45.6285 53.7598 46.2929 53.3893C46.8495 53.0893 46.9752 52.7541 46.7598 52.1366C46.257 50.637 45.5926 49.208 44.6051 47.9377C44.2819 47.5143 43.833 47.1085 43.7073 46.6145C43.2943 45.0443 41.786 44.2857 41.1037 42.7155ZM18.21 35.288C18.1562 35.1645 18.1562 35.0763 18.1023 35.041C16.3067 33.4002 15.373 31.2126 14.2059 29.1837C13.9545 28.7603 13.7211 28.231 13.8468 27.6488C13.9006 27.3841 13.8109 27.0489 13.7031 26.7667C13.2183 25.514 12.7156 24.279 12.2308 23.0441C11.9435 22.3031 11.6203 21.5797 12.3205 20.874C11.4946 20.3271 11.5125 20.3448 11.5843 19.3038C11.6023 18.951 11.5484 18.5981 11.5125 18.0336C11.0098 19.0392 10.6866 19.8331 10.2556 20.5741C9.25009 22.2854 8.56777 24.0673 8.40617 26.0609C8.37026 26.5549 8.26252 27.1019 8.01114 27.5253C7.34678 28.672 7.13131 29.8541 7.22109 31.1596C7.29291 32.1829 7.04153 33.2238 6.96971 34.2471C6.9338 34.6176 7.05949 34.9881 6.98766 35.3409C6.79015 36.3113 7.20313 37.1052 7.50838 37.8462C9.08849 37.6168 10.5788 37.4228 12.0512 37.1581C13.0567 36.9817 14.0443 36.77 15.0139 36.4877C16.0015 36.2054 16.9711 35.8349 17.9407 35.4997C18.0305 35.4997 18.1023 35.3939 18.21 35.288Z" fill="#2E5785"/>
</svg>
