<svg width="75" height="73" viewBox="0 0 75 73" fill="none" xmlns="http://www.w3.org/2000/svg">
<path d="M27.4099 56.813C27.3293 56.6036 27.2649 56.4426 27.1522 56.1205C27.0395 56.4426 26.9751 56.5875 26.9106 56.7486C25.8961 56.201 24.9782 55.4925 23.9959 54.8966C22.5143 53.9948 20.9361 53.1252 19.9055 51.6759C19.2291 50.7418 18.3112 49.985 17.8925 48.8577C17.7798 48.5678 17.4255 48.3746 17.2323 48.1008C16.9263 47.6821 16.6847 47.2312 16.411 46.7964C16.3949 46.7642 16.3949 46.732 16.3788 46.7159C15.4286 45.6208 15.3964 44.252 15.2676 42.9154C15.2515 42.8349 15.2515 42.7221 15.2032 42.6577C14.2692 41.4177 14.7201 39.9362 14.4946 38.5835C14.4624 38.3741 14.6234 38.1487 14.6718 37.9715C14.559 37.7622 14.3658 37.5689 14.3497 37.3757C14.0759 35.3466 14.3819 33.3014 14.1886 31.2723C14.1564 30.9825 14.2853 30.6604 14.3819 30.3705C14.8489 28.9534 15.3159 27.5363 16.4593 26.4573C16.8297 26.103 17.0873 25.6199 17.2806 25.1368C17.5865 24.396 18.1019 23.8324 18.7138 23.3976C19.519 22.8179 20.1792 22.1093 20.8395 21.4007C21.4514 20.7566 22.1278 20.2412 22.933 19.8386C23.5933 19.5005 24.173 19.0174 24.7527 18.5826C25.6867 17.874 26.5886 17.1493 27.8125 16.94C28.215 16.8755 28.4727 16.3441 28.9719 16.473C29.8737 15.8288 30.9527 15.9254 31.9672 15.7805C32.4664 15.7 32.869 15.3779 33.4649 15.555C33.8675 15.6839 34.3828 15.3457 34.8498 15.2813C35.8482 15.1524 36.8628 15.1524 37.829 15.5389C38.0545 15.6356 38.3121 15.6195 38.5537 15.6678C38.9402 15.7483 39.3106 15.8449 39.6971 15.9254C40.003 15.9898 40.2929 16.0382 40.5989 16.1026C40.9854 16.1992 41.3557 16.2958 41.7261 16.4085C41.9033 16.4569 42.0804 16.5696 42.2576 16.5535C43.1916 16.4569 43.9485 16.8594 44.7536 17.2459C45.1401 17.4392 45.6716 17.3748 46.0419 17.5841C48.0227 18.647 49.778 20.0319 51.3562 21.6262C52.2097 22.4958 53.0149 23.4137 53.7396 24.4121C54.3515 25.2495 55.0279 26.0386 55.6398 26.9082C56.3967 27.9872 56.912 29.1466 57.3629 30.3544C57.6528 31.1435 58.1198 31.8682 58.5063 32.6251C58.8123 33.2048 58.8767 33.8167 58.8284 34.477C58.7801 35.1695 58.8606 35.8619 58.925 36.5544C59.0055 37.4079 59.1827 38.2453 59.2149 39.0827C59.2471 39.8879 59.3437 40.677 58.925 41.4822C58.5224 42.2551 58.4097 43.173 58.152 44.0104C57.8138 45.0572 57.4595 46.0556 56.8315 46.9897C55.9619 48.2941 55.044 49.5502 54.0133 50.7257C53.3692 51.4826 52.4513 51.9335 51.9037 52.7709C51.2757 52.7065 51.0502 53.4634 50.39 53.4956C50.084 53.5117 49.6653 53.8499 49.2949 54.0592C49.1339 54.1558 49.005 54.2847 48.844 54.333C47.7328 54.5745 46.7666 55.2187 45.6877 55.5086C45.1884 55.6374 44.5926 55.8628 44.029 55.5569C43.9001 55.4925 43.6908 55.5569 43.5137 55.573C42.3059 55.7018 41.082 55.8306 39.8742 55.5086C39.4877 55.4119 39.0851 55.428 38.6825 55.3636C38.0223 55.2509 37.3298 55.3314 36.7178 54.9449C36.5407 54.8322 36.2508 54.8966 36.0093 54.8644C35.7677 54.8322 35.5101 54.8483 35.3007 54.7517C34.8337 54.5423 34.4311 54.3652 33.8353 54.4457C33.3361 54.5101 32.7724 54.1075 32.2571 53.8499C31.8867 53.6566 31.5324 53.399 31.2104 53.1252C30.0187 52.1429 28.8592 51.1283 27.9574 49.8722C27.3293 49.0026 26.7818 48.0525 26.3631 47.0541C26.0732 46.3455 25.8156 45.6369 25.3808 45.0089C24.8171 44.2198 24.6722 43.2536 24.4629 42.3518C24.2696 41.466 23.8026 40.6287 23.9153 39.6785C23.9475 39.4692 23.867 39.2276 23.9314 39.0344C24.2535 38.1165 24.1247 37.1663 24.173 36.2323C24.173 36.1035 24.1569 35.9747 24.2052 35.878C25.0748 33.9939 25.8478 32.0614 27.4582 30.6121C28.1184 30.0163 28.666 29.3238 29.2618 28.6635C29.3262 28.5991 29.3423 28.4864 29.4228 28.4381C30.534 27.7939 31.6129 27.037 32.7885 26.57C33.9802 26.0869 35.2685 25.8454 36.5246 25.5877C37.2976 25.4428 38.1028 25.33 38.8919 25.6682C39.3589 25.8615 39.9225 25.8293 40.3895 26.0225C41.2108 26.3768 41.9999 26.8116 42.7729 27.2786C44.1256 28.0999 45.3978 29.0339 46.5573 30.129C47.4913 30.9986 47.9422 32.1097 48.2643 33.3014C48.5219 34.2354 48.7313 35.2017 48.9567 36.1518C49.1017 36.8121 48.9406 38.1165 48.6669 38.6801C48.5863 38.8411 48.5219 39.0183 48.5058 39.1954C48.4414 40.3388 47.9422 41.305 47.2819 42.1907C46.7505 42.8993 46.1869 43.5756 45.6071 44.2359C45.4139 44.4453 45.1079 44.558 44.8503 44.7029C42.7246 45.9751 40.47 46.5065 38.0062 45.9751C37.4586 45.8624 36.8789 45.8463 36.3153 45.7658C35.4779 45.653 34.8659 45.2021 34.3506 44.5419C33.7064 43.7206 33.0623 42.9154 32.6597 41.9492C32.3376 41.1762 32.0478 40.371 31.935 39.5497C31.8223 38.7445 31.9511 37.9071 31.9833 37.0697C32.0316 36.1196 32.402 35.3144 33.1106 34.6219C33.8997 33.849 34.8498 33.5591 36.1381 33.9134C35.9771 34.1227 35.8805 34.3321 35.7194 34.477C35.188 34.9923 35.0108 35.5882 35.0753 36.3128C35.1236 36.7798 35.027 37.263 34.9947 37.7622C35.2202 38.0359 35.5262 38.358 35.7838 38.7284C36.5085 39.7913 37.5875 40.4032 38.763 40.677C39.536 40.8541 40.4539 40.8058 41.2108 40.5642C41.9677 40.3227 42.7085 39.8235 43.1755 39.0988C43.3687 38.7928 43.5137 38.4385 43.5942 38.1004C43.9162 36.6993 43.5298 35.3466 43.2238 34.01C43.1755 33.8328 42.9983 33.6557 42.8373 33.5269C42.3864 33.1404 42.0321 32.7056 41.8872 32.1097C41.7422 31.4978 41.243 31.2079 40.776 30.8536C39.4877 29.8713 38.0223 29.4365 36.4441 29.2916C36.3153 29.2755 36.2025 29.2594 36.0737 29.2755C34.6405 29.4687 33.175 29.4848 31.8706 30.2256C31.0171 30.7087 30.3407 31.4173 29.8415 32.2869C29.4389 32.9793 29.1008 33.704 28.666 34.3804C27.9252 35.5237 28.0379 36.7959 27.9574 38.052C27.9413 38.2936 28.0057 38.5513 27.9574 38.7928C27.8125 39.7752 28.215 40.677 28.4405 41.5949C28.5854 42.1746 28.7948 42.8349 29.1813 43.2697C29.9704 44.1393 30.1958 45.2988 30.9205 46.1684C31.6613 47.0702 32.708 47.5211 33.6581 48.1008C35.3007 49.1154 37.1043 49.5502 39.0046 49.7595C39.7937 49.84 40.5506 50.0977 41.3235 50.2748C41.4202 50.2909 41.5007 50.3392 41.5973 50.3231C42.7407 50.1943 43.884 50.0494 45.0274 49.9528C46.203 49.8561 47.0887 49.2603 47.9422 48.5195C48.216 48.278 48.5541 48.1008 48.8762 47.9398C49.4076 47.666 49.8424 47.36 50.1001 46.7642C50.2772 46.3777 50.6959 46.0717 51.018 45.7497C51.8554 44.9284 52.4513 43.9782 52.9505 42.8993C53.3692 41.9975 53.4336 41.0957 53.5946 40.1616C53.8684 38.5674 53.9489 36.9731 53.6429 35.3949C53.3853 34.0744 53.031 32.7861 52.3224 31.6105C52.0487 31.1435 51.8554 30.6282 51.6139 30.129C51.5333 29.9679 51.4528 29.8069 51.3401 29.6781C50.8409 29.0983 50.39 28.4703 49.8263 27.9711C49.4398 27.6168 49.3915 27.0048 48.8601 26.7955C48.538 25.7648 47.8134 25.1046 46.9438 24.5249C45.8487 23.8002 44.7858 23.0594 43.6908 22.3186C43.5781 22.2381 43.417 22.2059 43.2882 22.1576C43.0305 22.0771 42.7246 22.061 42.4991 21.9321C41.8711 21.594 41.1786 21.5457 40.5183 21.3524C39.6971 21.127 38.8758 21.4007 38.0706 21.1108C37.2815 20.821 36.3958 20.821 35.5423 20.7244C35.2363 20.6921 34.9142 20.7888 34.6244 20.7244C33.9963 20.5794 33.6903 21.3041 33.0784 21.2558C32.547 21.2075 31.9833 21.2397 31.4519 21.3041C31.1781 21.3363 30.9205 21.5457 30.6628 21.6745C30.3891 21.8194 30.1314 21.9643 29.8576 22.0932C29.3745 22.3508 28.8109 22.5119 28.4244 22.8662C28.0701 23.2043 27.6997 23.3976 27.2488 23.5103C26.9267 23.5908 26.6852 23.7197 26.4275 23.9773C25.9444 24.4765 25.3325 24.8952 24.7205 25.2012C24.0442 25.5394 23.6255 26.0708 23.239 26.6667C22.9974 27.0532 22.7881 27.4557 22.2566 27.5524C22.1439 27.5685 22.0151 27.649 21.9507 27.7456C21.3065 28.7279 20.2598 29.4526 20.0987 30.7409C20.0665 31.063 19.8572 31.4173 19.6317 31.6749C19.2452 32.1258 19.6156 32.5929 19.519 33.0438C19.4224 33.543 19.3257 34.0583 19.2452 34.5736C19.1647 35.0889 19.0842 35.6043 19.0842 36.1196C19.0681 36.5061 19.1647 36.9087 19.213 37.2952C19.2613 37.7622 19.2935 38.2131 19.3257 38.6801C19.4063 39.7107 19.4868 40.7414 19.5512 41.772C19.5995 42.4484 19.6961 43.1086 19.6639 43.785C19.6317 44.2681 19.9216 44.6868 19.7606 45.2343C19.6478 45.5886 20.0987 46.1039 20.292 46.5387C21.0166 48.2296 21.9668 49.7756 23.1746 51.1444C24.479 52.6421 25.7512 54.1881 27.4582 55.267C28.0218 55.7179 28.0057 56.1688 27.4099 56.813Z" fill="#F0AD1C"/>
<path d="M65.7217 10.6918C66.1565 10.9333 66.1726 11.3037 65.9793 11.819C65.5928 12.8175 65.303 13.8481 64.9487 14.8627C64.7232 15.4907 64.4978 16.151 64.1596 16.7146C63.9019 17.1494 63.5154 17.5681 63.0967 17.858C62.4043 18.325 62.0822 18.953 61.889 19.7099C61.6313 20.6761 60.8583 21.2559 60.0531 21.594C59.264 21.9322 58.3622 21.6424 57.6376 21.1753C56.6391 20.5151 56.2365 18.953 56.7035 17.8419C56.8807 17.4232 57.1061 17.0206 57.3638 16.6341C57.8791 15.845 58.2978 14.9271 59.0064 14.3312C60.3269 13.204 61.7762 12.2699 63.5476 11.8996C64.2884 11.7385 64.9326 11.1588 65.7217 10.6918Z" fill="#F0AD1C"/>
<path d="M51.8714 58.198C52.8859 58.4073 53.8199 58.8583 54.5285 59.6795C55.0438 60.2915 55.5591 60.8873 56.0583 61.4832C56.7508 62.3206 57.3144 63.3029 57.5882 64.398C57.6204 64.5429 57.6526 64.6878 57.717 64.8167C58.1679 65.6863 58.6511 66.5398 59.0859 67.4255C59.4079 68.0857 59.1986 68.7138 58.6027 69.0036C58.4095 69.1003 58.1196 69.1486 57.9103 69.0842C57.4272 68.9231 56.9441 68.7299 56.5254 68.4561C55.4303 67.7315 54.3352 66.9746 53.2885 66.1694C52.8215 65.799 52.4511 65.2837 52.0807 64.8167C51.4043 63.9793 50.7119 63.158 50.0999 62.2884C49.3914 61.2899 49.488 60.1305 50.2449 59.1803C50.4381 58.9388 50.5669 58.6167 50.8085 58.4879C51.0823 58.3107 51.4688 58.2785 51.8714 58.198Z" fill="#F0AD1C"/>
<path d="M37.6679 71.4191C37.7323 71.7251 37.9095 72.0472 37.829 72.2565C37.5874 72.9329 37.0077 72.9651 36.4923 72.4659C35.7194 71.7251 35.5583 70.6783 35.1235 69.7765C34.882 69.2934 34.737 68.7781 34.5599 68.2628C34.4794 68.0051 34.415 67.7313 34.3988 67.4576C34.3505 66.8456 34.3988 66.2176 34.2539 65.6378C34.0607 64.8327 34.2056 64.0436 34.2539 63.2545C34.27 62.9324 34.5116 62.562 34.7531 62.3205C35.3812 61.7246 35.9609 61.0966 36.8144 60.7584C37.9739 60.3075 39.4554 61.467 39.5199 62.2722C39.5843 62.9968 39.8258 63.7054 39.6809 64.5106C39.5038 65.5573 39.6326 66.6524 39.6004 67.7313C39.5682 68.8908 39.0367 69.9054 38.5214 70.9038C38.3765 71.1292 37.9739 71.2259 37.6679 71.4191Z" fill="#F0AD1C"/>
<path d="M69.5211 35.5238C69.3923 35.3627 69.2796 35.2178 69.1186 35.0085C69.0219 35.2822 68.9414 35.4755 68.877 35.6365C68.7804 35.6526 68.716 35.6848 68.6676 35.6848C68.0396 35.5399 67.4921 35.6687 66.9606 36.023C66.8157 36.1196 66.6064 36.2484 66.4614 36.2001C65.769 36.0069 65.0282 35.9747 64.4162 35.5077C63.7882 35.0246 63.4983 34.3482 63.289 33.6557C63.2085 33.3981 63.3212 33.0438 63.4339 32.77C63.8043 31.8682 64.384 31.1757 65.3825 30.8859C66.3487 30.6121 67.2666 30.1773 68.2328 29.9519C68.716 29.8391 69.2796 29.9358 69.7627 30.0646C70.6323 30.29 71.5019 30.1773 72.3232 30.0002C73.1123 29.823 73.8209 30.129 74.5616 30.1773C74.9642 30.2095 75.1414 30.8215 74.8676 31.2241C74.6422 31.5461 74.3684 31.8682 74.0463 32.0776C73.4022 32.5124 72.7419 32.9311 72.0333 33.237C71.0027 33.6718 70.1492 34.2516 69.6983 35.3144C69.6822 35.3788 69.6017 35.4433 69.5211 35.5238Z" fill="#F0AD1C"/>
<path d="M23.0458 13.1396C23.4645 14.138 22.3855 14.6855 22.3211 15.4907C22.3211 15.539 22.2567 15.5873 22.2084 15.6034C21.5642 15.7645 21.0328 16.3603 20.3081 16.1671C19.5673 15.9738 18.7782 15.8128 18.279 15.1847C17.4416 14.138 16.8458 12.9946 16.5881 11.6097C16.2661 9.95101 16.2661 8.2118 15.5736 6.61753C15.5092 6.47259 15.4931 6.31156 15.477 6.16662C15.4609 5.57078 15.9279 5.24871 16.3788 5.60299C17.1035 6.18273 17.9892 6.56922 18.585 7.3583C19.0842 8.01856 19.6156 8.67881 20.5497 8.87206C20.8234 8.93648 21.0328 9.37128 21.2421 9.64504C21.371 9.82219 21.371 10.1604 21.5159 10.2087C22.4499 10.563 22.4016 11.5131 22.7881 12.1894C22.933 12.4954 22.9652 12.8336 23.0458 13.1396Z" fill="#F0AD1C"/>
<path d="M59.295 52.4811C58.4093 51.8531 59.0373 50.8224 58.6508 50.0978C58.6347 50.0656 58.6508 49.9689 58.6831 49.9367C59.1501 49.4697 59.2789 48.6806 59.9875 48.4552C60.7121 48.2297 61.469 47.9399 62.2259 48.1975C63.4981 48.6484 64.6093 49.2926 65.5594 50.3232C66.7189 51.5632 67.6529 53.0287 69.07 54.011C69.1988 54.0915 69.2955 54.2203 69.3921 54.3492C69.7142 54.8323 69.5048 55.3798 68.9251 55.2993C67.9911 55.1866 67.0409 55.3315 66.123 54.9772C65.35 54.6874 64.5448 54.3975 63.643 54.7357C63.3854 54.8323 62.9667 54.5746 62.6446 54.4458C62.4513 54.3653 62.2581 54.0754 62.1132 54.1076C61.1308 54.317 60.6638 53.4796 59.9875 53.1092C59.7459 52.9804 59.5366 52.6905 59.295 52.4811Z" fill="#F0AD1C"/>
<path d="M34.8029 6.00553C34.8512 6.698 34.9317 7.39046 34.9317 8.06682C34.9156 8.79149 34.8995 9.53227 34.7385 10.2408C34.5452 11.0943 33.4824 11.5936 32.6289 11.3037C31.9847 11.0782 31.3889 10.8206 31.0185 10.1764C30.8414 9.87045 31.1473 9.40344 30.6642 9.2424C30.7447 8.34059 29.9557 7.69643 29.9557 6.79462C29.9395 5.94112 29.6819 5.08762 29.698 4.23412C29.7302 2.97802 29.9718 1.73803 30.4549 0.578555C30.7608 -0.16222 31.8559 -0.194427 32.4839 0.498036C33.0798 1.14219 33.6112 1.83465 34.1748 2.52711C34.2715 2.63984 34.3359 2.80088 34.3681 2.94581C34.5613 3.96035 34.7385 4.991 34.9156 6.00553C34.8512 6.00553 34.8351 6.00553 34.8029 6.00553Z" fill="#F0AD1C"/>
<path d="M4.96229 55.5569C4.41476 55.4442 3.99606 55.2348 3.77061 54.8C3.54515 54.333 3.3358 53.8016 3.70619 53.3185C4.41476 52.3522 5.23605 51.4826 6.2989 50.8868C6.42773 50.8063 6.60488 50.7902 6.7015 50.6936C7.45838 49.9528 8.19915 49.1959 8.95603 48.4551C9.02045 48.3907 9.10096 48.3263 9.18148 48.2941C10.2282 47.9398 11.3072 47.7788 12.4022 47.8754C12.8693 47.9076 13.0303 48.3424 13.0947 48.6484C13.2235 49.3408 13.61 49.9689 13.4168 50.7741C13.3041 51.225 13.2074 51.5954 12.8854 51.8369C11.5809 52.8193 10.1638 53.6083 8.60175 54.0915C8.08643 54.2525 7.61941 54.5585 7.10409 54.7517C6.37942 55.0416 5.67086 55.2992 4.96229 55.5569Z" fill="#F0AD1C"/>
<path d="M9.74393 27.1176C8.55224 27.0371 7.60212 26.5862 6.81303 25.8454C6.04005 25.1207 5.25097 24.4121 4.57461 23.607C3.83383 22.7213 3.14137 21.755 2.54553 20.7566C2.09462 20.0158 2.49722 19.42 3.38292 19.3878C4.1398 19.3556 4.89668 19.3395 5.60525 19.8065C6.08836 20.1285 6.71641 20.2413 7.28004 20.4345C7.45719 20.4989 7.63433 20.5472 7.79537 20.6439C8.3429 20.982 8.92263 21.2719 9.38964 21.6906C9.93717 22.1737 10.6779 22.3831 11.1611 22.8984C11.6764 23.4459 12.2239 24.0901 12.1595 24.9436C12.1273 25.314 11.9985 25.7488 11.773 26.0386C11.5637 26.3124 11.3704 26.7633 10.8551 26.6506C10.7585 26.6345 10.5813 26.6989 10.5491 26.7794C10.3398 27.2142 9.98548 27.0854 9.74393 27.1176Z" fill="#F0AD1C"/>
<path d="M47.5724 1.2876C47.7173 1.48084 47.975 1.67409 48.0394 1.91565C48.3293 2.94629 48.7641 3.96083 48.5547 5.05589C48.3454 6.15094 48.442 7.2299 48.603 8.32496C48.6513 8.71145 48.5869 9.11404 48.5547 9.50053C48.5386 9.74209 48.442 9.98365 48.442 10.2091C48.4903 11.2236 48.0233 12.0127 47.0732 12.3348C46.4129 12.5603 45.7849 12.8179 44.9958 12.5925C43.7075 12.2221 43.4176 11.5779 43.2888 10.2896C43.2083 9.45222 43.1921 8.59872 43.8685 7.87405C44.3355 7.35873 44.6415 6.69847 44.9958 6.08653C45.1407 5.82887 45.334 5.5229 45.334 5.23303C45.3501 4.10576 46.0908 3.23616 46.3324 2.18941C46.4612 1.64188 46.6706 1.57747 47.5724 1.2876Z" fill="#F0AD1C"/>
<path d="M14.8817 67.2161C14.8656 66.9745 14.7529 66.6686 14.8334 66.4431C15.1555 65.4286 15.3487 64.3335 16.1217 63.5283C16.9108 62.7231 17.41 61.773 17.877 60.7746C18.0381 60.4203 18.3279 60.1304 18.5695 59.8245C18.7144 59.6312 18.9238 59.4863 19.0526 59.293C19.5679 58.4234 20.3892 58.0208 21.3554 58.2624C22.0318 58.4395 22.7082 58.5684 23.2396 59.1964C24.1092 60.211 23.9965 60.9195 23.4006 62.0629C23.0141 62.8037 22.5471 63.5283 21.597 63.7699C20.9206 63.947 20.3087 64.3335 19.6806 64.6395C19.4069 64.7683 19.1009 64.9294 18.9399 65.1709C18.3118 66.1049 17.2007 66.427 16.4277 67.1678C16.009 67.5382 15.7996 67.4738 14.8817 67.2161Z" fill="#F0AD1C"/>
<path d="M6.68471 39.8073C6.58809 40.3066 6.15328 40.3388 5.71848 40.3066C4.62342 40.1938 3.51226 40.3388 2.44941 39.8879C1.91798 39.6624 1.30604 39.6624 0.774615 39.4692C0.420331 39.3403 -0.0305751 39.131 0.00163252 38.6479C0.0499439 38.1164 0.24319 37.6333 0.774615 37.3596C2.24006 36.6027 3.6894 35.7975 5.18706 35.1211C6.81354 34.3965 8.45613 34.4448 9.92157 35.572C10.147 35.7492 10.2759 36.1357 10.3081 36.4417C10.3403 36.8442 10.2436 37.2629 10.1953 37.6816C10.1148 38.6318 9.1969 39.6141 8.15015 39.7751C7.69925 39.8718 7.23224 39.8073 6.68471 39.8073Z" fill="#F0AD1C"/>
</svg>
