<svg width="65" height="79" viewBox="0 0 65 79" fill="none" xmlns="http://www.w3.org/2000/svg">
<path d="M58.4027 36.3044C58.5526 36.3231 58.7025 36.3606 58.7588 36.3606C59.0024 37.2227 59.2648 38.0473 59.4897 38.8906C59.5646 39.153 59.5459 39.4529 59.4897 39.7153C59.3585 40.4462 59.5272 41.1021 59.7146 41.8143C59.9395 42.7701 60.0332 43.7634 60.1081 44.7566C60.2768 46.6682 59.8645 48.5236 59.6771 50.4165C59.6021 51.0724 59.3585 51.7284 59.0961 52.3468C58.6651 53.3401 58.1778 54.2959 57.6905 55.2705C57.5968 55.4579 57.4469 55.6078 57.297 55.7765C57.0346 56.0763 56.6785 56.4324 56.3037 56.17C56.06 56.0201 55.8726 55.5703 55.8914 55.2517C55.9101 54.6707 55.479 54.0523 56.0225 53.5088C56.0788 53.4338 55.9288 53.1902 55.9288 53.0215C55.8726 51.5972 55.7976 50.1729 56.0225 48.7485C56.0975 48.2425 56.0413 47.699 56.0413 47.1555C54.6544 47.2492 53.3426 47.3242 52.0494 47.4366C51.6933 47.4554 51.356 47.6053 50.9999 47.624C50.4377 47.6803 49.8567 47.6803 49.2945 47.699C48.4698 47.7178 48.1512 46.4621 48.7135 45.9561C49.3694 45.3564 50.194 44.9628 51.0561 44.4193C51.0749 44.3256 51.0749 43.9883 51.2435 43.7821C51.9182 42.9013 52.4805 41.9267 53.4925 41.327C54.3546 40.821 54.3171 40.7835 53.9798 39.7902C53.886 39.4904 53.8673 39.1718 53.7174 38.9281C53.1551 38.1785 52.6116 37.4101 52.0307 36.6792C51.6184 36.1544 51.2248 35.5922 50.7563 35.1424C49.1258 33.6431 47.514 32.1251 45.8086 30.7007C44.403 29.52 42.885 28.4893 41.1795 27.7584C40.1113 27.2898 39.0992 26.6526 38.0685 26.0717C37.6187 25.8093 37.2064 25.6593 36.6629 25.6781C35.6883 25.7156 34.6763 25.7718 33.7205 25.397C33.5143 25.3033 33.2332 25.3782 32.9521 25.3782C32.596 26.6526 32.2587 27.8896 31.8651 29.1265C31.6402 29.8574 31.3591 30.5883 31.003 31.2817C30.8344 31.5816 30.4595 31.7877 30.1784 32.0126C29.2976 31.1693 29.2976 31.1693 29.5037 30.1947C29.1664 30.0448 28.829 29.8761 28.8853 29.3701C28.904 29.164 28.7353 28.9016 28.5854 28.6954C27.817 27.5709 26.9549 26.5027 26.805 25.0971C25.4556 24.816 24.2374 24.9472 23.0193 25.322C22.7569 25.397 22.4758 25.5282 22.1947 25.5469C20.6579 25.6406 19.3272 26.3528 17.9404 26.8963C17.7155 26.99 17.4531 27.1212 17.3219 27.3086C16.8159 28.077 16.0288 28.4518 15.2229 28.8266C14.3421 29.2577 14.2859 29.9323 15.0355 30.5695C15.9726 31.3754 16.741 32.3125 17.0783 33.2683C17.172 33.5307 17.3219 33.7181 17.4719 33.943C18.2965 35.0674 19.0461 36.2481 18.8962 37.7099C18.2215 38.3097 17.5843 38.3846 16.8722 37.8599C16.6285 37.6912 16.2537 37.5788 15.9538 37.6162C15.1292 37.7099 14.5295 37.2602 13.9298 36.8291C12.9927 36.1544 12.0931 35.4235 11.1561 34.7114C10.5001 35.1799 9.88168 35.5734 9.60056 36.3418C9.39441 36.9041 8.9821 37.3913 8.6635 37.8974C8.10126 38.7969 7.8014 39.7715 7.63273 40.8022C7.63273 40.8397 7.63273 40.8772 7.61399 40.9147C6.97679 41.6831 7.12672 42.6951 6.77064 43.5759C6.58323 44.0445 6.73316 44.6629 6.73316 45.2627C8.86965 45.0565 10.6876 45.6375 12.393 46.7245C12.5054 46.7994 12.6366 46.8931 12.7491 46.8744C13.555 46.8182 14.061 47.3429 14.7731 47.8302C13.4613 48.7298 12.1494 49.367 10.7813 49.9292C9.39441 50.4914 8.0263 51.0349 6.527 51.6347C6.62071 52.1032 6.77064 52.6279 6.78938 53.134C6.8456 54.6333 7.50154 55.9826 7.74518 57.4444C7.95133 58.6814 8.62602 59.8433 9.11329 61.024C9.22574 61.2677 9.43189 61.4738 9.6193 61.6987C9.86294 61.9986 10.1628 62.2609 10.3877 62.5795C10.7813 63.1043 10.9499 63.198 11.4934 62.8794C12.2618 62.4296 13.0115 61.9423 13.7424 61.4551C15.1105 60.4993 16.6285 59.9183 18.2403 59.5622C18.5026 59.506 18.8962 59.7309 19.1211 59.9558C19.4772 60.2931 19.5334 60.7804 19.3272 61.2489C19.0461 61.8674 18.8212 62.5046 18.4839 63.1043C17.7342 64.4537 17.2845 65.9904 16.1038 67.0962C15.9351 67.2461 15.8601 67.5085 15.7664 67.6959C16.3474 68.4268 17.1158 68.5767 17.8467 68.8391C18.4464 69.0453 19.0086 69.3451 19.5896 69.6075C20.0769 69.8324 20.5454 70.0948 21.0327 70.2822C22.2134 70.7507 23.3754 71.2755 24.5935 71.5941C25.793 71.9127 26.0366 71.6128 26.3739 70.3946C26.6363 69.4763 27.0674 68.5955 27.4047 67.6959C27.7233 66.8713 28.0232 66.0279 28.3418 65.222C28.6229 64.5286 28.9228 63.8352 29.2414 63.1605C29.2976 63.0293 29.5225 62.9918 29.7474 62.8606C29.9535 63.704 30.9281 64.2288 30.3658 65.297C30.9093 65.6531 31.1342 66.1778 31.153 66.89C31.1717 67.471 31.4716 68.052 31.6215 68.6329C31.8651 69.5138 32.09 70.3946 32.4086 71.5378C32.6523 71.7252 33.177 71.6878 33.7018 71.5378C34.3202 71.3692 34.9387 71.1443 35.5759 71.0131C37.1501 70.6945 38.7244 70.4321 40.2799 70.1322C40.711 70.0385 41.142 69.8886 41.5543 69.7762C41.217 69.1764 40.8984 68.6704 40.6173 68.1644C40.5423 68.052 40.4486 67.8458 40.5048 67.7709C40.8609 67.1899 40.4486 66.6651 40.3549 66.1404C40.2612 65.5781 40.0175 65.0534 39.9051 64.4911C39.7364 63.6478 39.6052 62.8044 39.9238 61.9423C40.2424 61.024 40.9171 60.6492 41.8167 60.9865C42.154 61.1177 42.4539 61.3051 42.735 61.53C43.9907 62.4858 45.0589 63.629 46.0335 64.866C46.4458 65.3907 46.7456 66.0279 47.0268 66.6276C47.3266 67.2648 47.514 67.3773 48.1887 67.0587C48.601 66.8713 48.9758 66.5714 49.3882 66.3653C49.8379 66.1404 50.2877 65.9155 50.7563 65.7843C50.9812 65.7281 51.431 65.803 51.5247 65.9529C51.6558 66.1778 51.6558 66.6276 51.5247 66.8338C51.0936 67.4897 50.6063 68.1269 50.0628 68.6704C48.8821 69.8511 47.6452 70.9943 46.3896 72.1001C45.1901 73.1496 43.9719 74.2178 42.6413 75.0987C41.8542 75.6234 40.8422 75.7921 39.9426 76.1107C39.4366 76.2794 38.9118 76.4293 38.4058 76.598C37.1501 77.029 35.932 77.6287 34.6576 77.8724C33.1583 78.1722 31.6215 78.1535 30.0847 78.2847C29.7099 78.3222 29.3163 78.3222 28.9415 78.3409C28.7541 78.3409 28.5667 78.4159 28.4167 78.3596C26.7113 77.8724 24.9309 78.3034 23.2067 77.9098C22.4758 77.7412 21.7449 77.6287 20.9952 77.4788C20.8265 77.4413 20.6391 77.3476 20.4705 77.3851C19.0461 77.6662 17.9966 76.8603 16.9096 76.1669C15.9538 75.5485 14.998 74.9487 14.0422 74.349C13.8923 74.2553 13.7424 74.1803 13.5737 74.1054C11.6621 73.3745 9.9379 72.3624 8.3449 71.0506C7.78266 70.5633 7.40784 70.0948 7.03301 69.4576C6.60197 68.7079 5.8898 68.1082 5.29008 67.4522C5.19638 67.3585 4.99022 67.3023 4.97148 67.1899C4.72785 66.0092 3.67834 65.2595 3.45344 64.0414C3.30351 63.198 2.72254 62.4483 2.32897 61.6612C2.08533 61.1552 1.80422 60.6492 1.63555 60.1244C1.39191 59.3373 1.22324 58.5314 1.05457 57.7256C0.979603 57.3507 0.904638 56.9572 0.885897 56.5636C0.810932 55.3829 0.529814 54.2397 0.211213 53.0965C-0.0511635 52.1594 0.00506013 51.1099 0.00506013 50.1166C0.0238013 48.7298 0.136249 47.3617 0.248696 45.9748C0.30492 45.2627 0.379884 44.5505 0.548555 43.8571C0.848415 42.6576 0.92338 41.402 1.59806 40.2962C1.76673 40.0339 1.87918 39.6403 1.82296 39.3779C1.54184 38.216 2.29149 37.4476 2.70379 36.5293C2.96617 35.9483 3.17233 35.3111 3.49093 34.7488C3.94072 33.9242 4.46547 33.1558 4.91526 32.35C5.5712 31.1693 6.09595 29.9136 6.82686 28.8079C7.57651 27.7021 8.23245 26.4652 9.56308 25.8655C9.82546 25.7531 10.0504 25.5469 10.2378 25.3407C11.1748 24.235 12.4305 23.5228 13.5737 22.6795C14.8856 21.7237 16.4224 21.1802 17.8654 20.4868C19.0836 19.8871 20.5454 19.8308 21.8386 19.3436C23.2816 18.8001 24.7809 18.9313 26.2615 18.7438C27.4422 18.5939 28.6604 18.6689 29.8598 18.6501C29.991 18.6501 30.1034 18.7626 30.2346 18.8001C30.7594 18.9687 31.2279 19.1936 31.8839 19.025C32.4461 18.875 33.1395 19.0624 33.7205 19.2873C34.2078 19.4747 34.8262 19.2873 35.2011 19.7933C35.2573 19.8871 35.5384 19.8121 35.7071 19.8308C36.6629 19.9245 37.6562 19.9433 38.5745 20.1682C39.1929 20.3181 39.8676 20.2619 40.4861 20.6367C40.711 20.7679 41.0296 20.6742 41.0483 21.1052C41.0483 21.1615 41.2732 21.2739 41.4044 21.2926C43.0349 21.4613 43.3347 21.63 44.6654 22.7732C45.0964 23.148 45.7149 23.148 46.1647 23.6166C46.6332 24.1226 47.2891 24.4412 47.8514 24.8347C47.9826 24.9284 48.1138 25.0971 48.2637 25.1158C48.8072 25.1721 49.0321 25.5844 49.2945 25.9592C49.4631 26.2216 49.5381 26.3715 49.9504 26.4652C50.4564 26.5777 50.9062 27.0837 51.3185 27.496C51.8058 27.9458 52.1431 28.6017 52.6866 28.9203C53.2488 29.2577 53.6424 29.7824 54.1859 30.1385C54.973 30.6632 55.5728 31.5066 56.1725 32.275C56.7909 33.0809 57.2969 33.9804 57.8967 34.7863C58.3465 35.1799 58.4964 35.7046 58.4027 36.3044Z" fill="#2F5784"/>
<path d="M38.3679 2.06417C37.8994 3.00123 37.1497 3.13242 36.3251 3.31983C35.1257 3.60095 33.9637 4.1257 32.783 4.53801C32.427 4.66919 32.0334 4.74416 31.6586 4.83787C31.5649 4.85661 31.3962 4.83787 31.3775 4.89409C30.9464 5.81241 30.0468 5.66248 29.2784 5.75618C28.4726 5.86863 27.5355 5.68122 26.8421 6.01856C25.8863 6.48709 24.9867 6.07478 24.0122 6.2622C24.0684 6.9931 24.3308 7.61156 24.9117 8.21128C25.6614 8.08009 26.486 7.79898 27.2544 7.8552C28.3601 7.94891 29.4096 7.49912 30.4779 7.70527C31.5461 7.89268 32.6331 8.08009 33.7014 8.32373C34.5822 8.52988 35.4443 8.56737 36.3064 8.52988C36.5125 7.96765 36.7187 7.48038 36.8311 6.9931C36.9623 6.41213 37.2622 5.98108 37.8619 5.90611C38.5553 5.83115 39.2675 5.86863 39.7173 6.48709C39.9984 6.88066 40.2046 7.36793 40.2608 7.83646C40.3545 8.4924 40.317 9.18583 40.2608 9.86051C40.2233 10.5165 39.7735 10.8913 39.2113 11.0974C38.1243 11.4723 37.056 11.9783 35.9503 12.1282C34.5635 12.3156 33.3828 12.9715 32.1458 13.4401C30.8152 13.9461 29.4846 14.1897 28.079 14.2647C26.4673 14.3397 24.8743 14.2272 23.3 13.9086C22.9064 13.8336 22.4566 13.9086 22.0443 13.8899C21.3884 13.8711 20.8636 13.665 20.3201 13.2527C18.8396 12.1282 18.7646 10.5727 18.6897 8.96093C18.6709 8.30499 18.5397 7.6303 18.5585 6.97436C18.5772 5.55003 18.6147 4.1257 18.7084 2.70137C18.7271 2.28906 18.952 1.87675 19.1207 1.48319C19.5143 0.639834 19.7954 0.527387 20.7324 0.621093C21.5571 0.696058 22.3817 0.696058 23.1875 0.677317C23.4312 0.677317 23.6936 0.583611 23.881 0.433681C24.4057 0.0588567 24.9867 -0.0161081 25.6239 0.00263306C27.1045 0.0401155 28.6038 -0.0161081 30.0843 0.0401155C30.6091 0.0588567 31.1526 0.190045 31.6586 0.358716C33.0642 0.845987 34.5072 0.995917 35.9691 0.977176C36.9811 0.977176 37.6932 1.42696 38.3679 2.06417Z" fill="#2F5784"/>
<path d="M40.2239 39.0968C40.5987 39.9964 40.0927 40.6523 39.5304 41.1958C38.4997 42.1891 37.5813 43.2386 36.9254 44.5318C36.7567 44.8691 36.4194 45.1127 36.157 45.4126C36.0446 45.5438 35.8384 45.6562 35.8197 45.8062C35.7072 46.5745 35.0888 47.0243 34.6577 47.5491C33.6644 48.8048 32.5587 49.9855 31.5279 51.2224C31.378 51.4098 31.2843 51.6534 31.1344 51.8408C29.8412 53.2839 28.698 53.8836 26.8239 52.8154C24.6686 51.5785 24.7061 49.2733 25.2309 47.4366C25.4558 46.6495 25.9618 45.8624 26.8051 45.3189C27.8547 44.6255 28.7167 43.6134 29.71 42.8263C31.1531 41.6831 32.6899 40.6523 34.3579 39.8465C34.7139 39.659 35.0325 39.3404 35.3137 39.0406C35.726 38.5908 36.1195 38.1223 36.4943 37.6537C36.9067 37.129 37.4689 36.8666 38.0499 36.548C38.7808 36.1732 39.343 35.461 39.924 34.8426C40.5425 34.2054 41.2734 33.8305 42.1355 33.6993C42.9976 33.5869 43.3162 33.8493 43.3536 34.7301C43.3911 35.6859 42.9413 36.4543 42.4353 37.1852C42.1729 37.56 41.8543 37.9161 41.6107 38.3097C41.1047 39.1155 41.1234 39.1343 40.2239 39.0968Z" fill="#2F5784"/>
<path d="M56.1723 17.1508C56.6971 17.5444 57.1281 17.863 57.5404 18.2003C57.934 18.5377 58.3275 18.5564 58.6836 18.2191C59.1334 17.8068 59.5832 17.3945 59.9768 16.9259C60.5578 16.2513 60.2766 15.4266 60.2204 14.6583C60.1829 14.2085 60.0517 13.7587 59.958 13.3464C61.12 12.9528 61.551 13.3276 61.9071 14.3209C62.1508 14.9956 62.3569 15.8202 63.3689 15.9889C63.7063 16.0451 64.0998 16.4387 64.2498 17.0196C64.3997 17.6194 65.0182 18.0879 64.9994 18.8188C64.9619 20.0182 64.9994 21.2364 63.8187 22.0236C63.7063 22.0985 63.5751 22.211 63.5376 22.3234C63.2377 22.9981 62.6755 23.2792 62.057 23.6353C60.539 24.5161 58.9273 24.7785 57.2406 24.7223C55.835 24.6848 54.5231 24.2912 53.586 23.1105C53.1175 22.5296 52.6115 21.9861 52.1617 21.4051C51.993 21.1802 51.8243 20.8991 51.8056 20.6367C51.7869 20.2431 52.068 19.7559 51.8993 19.4747C51.6557 19.0437 51.7119 18.6876 51.7869 18.2566C51.8618 17.7693 51.7119 17.2445 51.8431 16.776C52.1617 15.6328 52.7427 14.602 53.6985 13.8524C54.3544 13.3276 54.9916 13.4963 55.4227 14.2272C56.0036 15.1455 56.2285 16.1201 56.1723 17.1508Z" fill="#2F5784"/>
</svg>
