<svg width="65" height="67" viewBox="0 0 65 67" fill="none" xmlns="http://www.w3.org/2000/svg">
<path d="M18.641 27.5029C19.7183 29.7244 20.257 32.143 20.8675 34.7407C21.5678 33.845 22.6451 33.827 23.3993 33.0388C24.3868 31.9997 25.6437 31.2114 26.8109 30.3336C27.1341 30.0827 27.1879 29.8319 27.1341 29.4557C27.0443 28.7391 27.0443 28.0225 26.9725 27.3238C26.9006 26.5893 26.7929 25.8547 26.6852 25.1202C26.6313 24.6902 26.4877 24.2603 26.5056 23.8303C26.5774 22.9166 26.7211 22.0029 26.8647 21.1072C26.9904 20.4085 27.2059 19.7098 27.3316 19.0111C27.4752 18.0795 27.6009 17.1479 27.6548 16.2163C27.7087 15.2847 28.1216 14.5143 28.4808 13.7082C28.7501 13.099 29.0374 12.5257 29.1631 11.827C29.3426 10.8238 30.025 10.0534 30.6714 9.28307C31.1562 8.70978 31.4075 8.029 31.7487 7.38405C31.9283 7.06157 32.2515 6.81076 32.5567 6.47037C33.0954 7.15115 33.1493 7.84984 33.1672 8.51271C33.1852 9.85636 33.1493 11.1821 33.0954 12.5257C33.0595 13.2065 32.8979 13.8694 32.844 14.5502C32.7901 15.2847 32.8261 16.0371 32.7901 16.7717C32.7542 17.542 32.6824 18.3124 32.6465 19.0827C32.6285 19.2798 32.6285 19.4948 32.6824 19.6919C32.9158 20.6951 32.8081 21.6984 32.7183 22.7196C32.6106 24.1528 32.5388 25.5681 32.9338 26.9834C33.0954 27.5567 33.1672 28.1837 33.0774 28.757C32.9517 29.4736 33.3468 29.7603 33.8136 30.0648C35.3758 31.086 36.9738 32.0893 38.536 33.1104C39.5056 33.7375 40.4752 34.3824 41.4089 35.0632C41.786 35.3319 42.0553 35.744 42.3785 36.0844C42.5042 36.2277 42.6479 36.371 42.7915 36.4964C43.3661 37.0697 43.9587 37.6072 44.5153 38.1984C45.2515 38.9867 46.0056 39.7749 46.652 40.6349C47.4959 41.7456 48.2501 42.928 49.0401 44.0925C49.6866 45.0779 50.315 46.0811 50.9435 47.0844C51.0512 47.2456 51.0512 47.4606 51.141 47.6398C51.3924 48.1414 51.6617 48.6609 52.0028 49.3417C52.4877 48.858 52.8647 48.5176 53.1879 48.1593C53.5111 47.7831 53.8882 47.4964 54.0857 46.9769C54.373 46.2603 54.9117 45.6332 55.3426 44.9704C55.5042 44.7196 55.7736 44.4687 55.7915 44.2C55.8633 43.2863 56.5277 42.6951 56.8868 41.9427C57.1562 41.4052 57.4794 40.9215 57.5332 40.2586C57.5691 39.757 57.9283 39.2733 58.036 38.7717C58.2515 37.8222 58.3772 36.8368 58.5388 35.8694C58.5567 35.8156 58.5028 35.744 58.4669 35.6723C57.5512 33.845 56.6714 31.9818 55.4863 30.3156C54.6064 29.0795 53.7446 27.8254 52.7211 26.7147C51.6796 25.6039 50.4946 24.6186 49.2915 23.687C48.3758 22.9704 47.6755 22.0746 46.9393 21.1968C46.5982 20.7847 46.2031 20.3726 45.7542 20.0681C44.9103 19.5127 43.9946 19.1007 43.1506 18.5274C42.2349 17.9182 41.3551 17.2554 40.5291 16.5388C39.8288 15.9117 40.0263 15.1235 40.8523 14.6397C41.8399 14.0665 42.7736 14.3889 43.5995 14.8547C44.3537 15.3026 45.1796 15.4818 45.9697 15.8042C46.5982 16.0551 47.2446 16.3238 47.7832 16.7179C48.7349 17.3987 49.8661 17.5599 50.9075 17.9899C51.7694 18.3482 52.5415 18.814 53.2777 19.3873C54.3191 20.1935 55.2708 21.0534 56.0968 22.0567C56.2584 22.2538 56.5277 22.3792 56.9227 22.4329C56.815 22.0746 56.7432 21.6984 56.5995 21.3401C56.4738 20.9639 56.2584 20.6235 56.1327 20.2472C55.7197 18.9932 55.3247 17.7212 54.9117 16.4671C54.8937 16.4313 54.8578 16.4134 54.8578 16.3775C54.5346 14.5323 53.3136 13.1528 52.4697 11.5583C52.344 11.3075 52.0388 11.1642 51.8592 10.9313C50.7459 9.51597 49.6506 8.10066 48.5553 6.66743C48.3578 6.3987 48.0346 6.14789 48.268 5.75375C48.5194 5.3417 48.9145 5.30587 49.3454 5.37753C50.4946 5.59251 51.4642 6.20163 52.362 6.8645C53.2777 7.54528 54.0319 8.44105 54.8937 9.19349C55.3426 9.58763 55.9531 9.76678 56.1866 10.4117C56.3122 10.7521 56.5277 11.0567 56.7252 11.3792C57.0664 11.8987 57.3896 12.4541 57.8026 12.9378C58.8261 14.1381 59.9214 15.2489 60.891 16.485C61.3399 17.0583 61.6631 17.7928 61.8426 18.4915C62.0042 19.1186 62.3095 19.674 62.5429 20.2472C62.7584 20.8026 63.0277 21.2684 63.0636 21.9492C63.0995 22.8629 63.5305 23.7766 63.9255 24.6365C64.6078 26.0697 64.6796 27.6104 64.7515 29.1511C64.7874 29.8857 64.6437 30.6381 64.6437 31.3726C64.6437 31.6772 64.8951 31.9639 64.9131 32.2863C65.0747 34.1316 64.931 35.9769 64.5001 37.7684C64.3564 38.3596 64.141 38.9687 64.1589 39.5779C64.1589 40.8678 63.4227 41.9069 63.1175 43.0713C62.7404 44.4867 61.7708 45.5795 61.304 46.9231C61.0167 47.7472 60.7114 48.4997 60.0111 49.073C59.8316 49.2163 59.7418 49.4671 59.652 49.6821C59.4006 50.327 59.0774 50.9003 58.4849 51.3303C58.1796 51.5453 58.018 51.9036 57.8564 52.2798C57.5691 52.9785 57.1562 53.6593 56.3661 54.0176C56.0429 54.1609 55.7556 54.4655 55.5761 54.77C55.2528 55.3254 54.8758 55.6479 54.2294 55.8987C53.3136 56.2391 52.6493 57.0453 52.0208 57.8515C51.3385 58.7293 50.6382 59.6788 49.7584 60.3238C49.1299 60.7896 48.4656 61.13 47.9987 61.7929C47.8371 62.0078 47.4421 62.0257 47.1907 62.187C46.4725 62.5811 45.8081 63.1544 45.054 63.3694C43.7611 63.7277 42.5761 64.2472 41.391 64.8564C40.978 65.0714 40.4393 65.1609 39.9904 65.1072C38.8053 64.9639 37.728 65.4297 36.5788 65.4476C36.112 65.4476 35.6272 65.5371 35.1783 65.6984C33.4904 66.2538 31.7667 65.8775 30.0609 65.9134C29.8274 65.9134 29.5761 65.8417 29.3426 65.8775C28.1037 66.0746 27.0084 65.7163 25.8951 65.2147C24.9973 64.8205 23.9918 64.6772 23.0401 64.4801C20.9932 64.0502 19.0001 63.4411 17.1506 62.4378C16.3067 61.9899 15.4269 61.5958 14.565 61.1837C14.4393 61.13 14.3136 61.0762 14.17 61.0583C12.2667 60.9508 11.4048 59.6788 10.8841 58.0844C10.5609 57.0632 9.96833 56.2749 9.19623 55.5762C8.74733 55.1642 8.37026 54.6626 7.97523 54.1968C7.56225 53.713 7.18518 53.1935 6.75424 52.7098C6.01805 51.8857 5.21004 51.1153 4.54567 50.2375C4.09678 49.6463 3.79153 48.9297 3.55811 48.213C3.05534 46.7261 2.83987 45.1316 2.15755 43.7342C1.29568 41.9606 0.918603 40.0437 0.29015 38.2163C0.0387693 37.4639 0.0208135 36.6218 0.00285766 35.8156C-0.0150981 34.6511 0.0567251 33.5046 0.0746809 32.3401C0.0926367 31.5876 0.0746809 30.8352 0.0567251 30.1007C0.0387693 29.3482 0.415841 28.5958 0.559487 27.8254C0.774957 26.7505 0.900648 25.6577 1.15203 24.6007C1.29568 23.9557 1.6907 23.3645 1.5291 22.6479C1.49319 22.4687 1.58297 22.2358 1.65479 22.0567C2.3012 20.4443 2.89374 18.7961 3.62993 17.2196C4.007 16.4313 4.52772 15.643 5.17413 15.0697C6.21556 14.1202 6.79015 12.884 7.5802 11.7733C8.04706 11.1104 8.38822 10.358 9.08849 9.82053C9.71694 9.33681 10.1299 8.58437 10.7045 8.029C11.3868 7.36613 12.141 6.77493 12.8951 6.20164C13.8468 5.48502 14.8164 4.82216 15.786 4.14137C15.8937 4.06971 16.0553 3.96222 16.1451 3.98014C16.8454 4.21304 17.2763 3.63975 17.8509 3.47851C19.3592 3.08437 20.5622 1.91988 22.1783 1.75864C22.2501 1.75864 22.3219 1.74072 22.3758 1.70489C23.9738 0.71955 25.8053 0.594143 27.6009 0.379159C28.0678 0.325413 28.5346 0.164175 29.0194 0.110429C31.1741 -0.1583 33.2929 0.110429 35.4117 0.41499C35.7169 0.45082 36.0222 0.71955 36.2377 0.952449C36.6147 1.38242 36.4352 2.0632 35.8965 2.18861C34.5857 2.51108 33.239 2.7619 31.9283 3.06646C30.4379 3.40685 28.9835 3.80098 27.7087 4.71466C26.4158 5.62835 25.0692 6.45245 23.7045 7.25864C22.4117 8.01108 21.0291 8.65603 19.7183 9.39056C18.6948 9.96385 18.5332 10.573 18.5692 11.7912C18.5871 12.5437 18.3178 13.2961 18.1741 14.0485C18.0484 14.6935 18.0484 15.3743 17.6175 15.9655C17.4918 16.1446 17.7073 16.5388 17.7073 16.8254C17.7611 19.0111 18.0484 21.1968 18.21 23.3645C18.2819 24.3857 18.5512 25.3531 18.7128 26.3564C18.7128 26.7684 18.641 27.1446 18.641 27.5029ZM30.402 34.9736C29.5042 35.8156 28.7321 36.4427 28.1037 37.1772C27.5471 37.8222 26.8647 38.2342 26.1645 38.6283C24.9435 39.2912 23.5968 39.7749 22.4296 40.5274C21.3523 41.2261 20.2211 41.656 19.0001 41.9785C18.1382 42.2114 17.2943 42.5518 16.4324 42.8384C15.4448 43.1788 14.4393 43.5013 13.4518 43.8238C13.362 43.8596 13.2183 43.8417 13.1465 43.788C12.6437 43.4117 12.2128 43.6088 11.7459 43.8955C11.5484 44.0209 11.2073 43.985 10.9559 43.9492C10.1658 43.8417 9.44761 44.1463 8.58573 44.2896C8.94485 45.2749 9.25009 46.1886 9.62716 47.0485C9.77081 47.371 10.0581 47.6398 10.2915 47.9085C10.8661 48.5355 11.5305 49.0909 12.0153 49.7717C13.0208 51.2228 14.2777 52.2977 15.8578 53.0502C16.3067 53.2652 16.7736 53.4981 17.3302 53.7668C18.1921 53.3189 19.1258 52.8352 20.0774 52.3515C20.2211 52.2798 20.3827 52.1902 20.5443 52.1544C22.3399 51.7961 23.7404 50.5599 25.4283 49.9329C25.5719 49.8792 25.6617 49.6821 25.8053 49.5746C26.4338 49.0551 27.0084 48.428 27.7087 48.0339C28.8399 47.4069 29.9172 46.6902 30.9587 45.9199C31.8385 45.2749 32.7722 44.6837 33.67 44.0925C34.3164 43.6626 34.9808 43.2505 35.6092 42.8026C36.6147 42.0681 37.5843 41.2977 38.5719 40.5453C38.554 40.4915 38.554 40.402 38.5001 40.384C37.4048 39.5958 36.3095 38.8075 35.2321 38.0192C34.7473 37.6609 34.3164 37.231 33.8136 36.9264C33.1313 36.5143 32.4131 36.2098 31.8026 35.6544C31.3896 35.3319 30.7971 35.1707 30.402 34.9736ZM41.1037 43.3759C40.5111 44.2 40.1341 44.845 39.6493 45.4183C38.6078 46.6186 37.4227 47.7293 36.4531 48.9834C35.5374 50.2016 34.3343 51.0257 33.1313 51.8857C31.7128 52.9069 30.2045 53.8026 28.7321 54.77C28.5705 54.8775 28.391 55.0209 28.3192 55.2C28.1216 55.6658 27.7087 55.6837 27.3136 55.7554C27.0443 55.7912 26.5774 55.8091 26.5595 55.9166C26.3979 56.687 25.8413 56.2212 25.4642 56.257C25.536 56.7407 25.5899 57.0811 26.1465 57.2424C27.0802 57.5111 27.96 58.0127 28.9835 57.9769C29.3785 57.959 29.8095 57.9948 30.1866 58.1381C31.5512 58.6398 32.9338 58.5681 34.3343 58.4069C34.7473 58.3531 35.1603 58.3352 35.5553 58.2635C36.2915 58.1381 37.0457 58.0665 37.7639 57.8336C38.7694 57.5111 39.7211 57.0632 40.7087 56.687C41.8758 56.2212 43.0609 55.7912 44.228 55.2896C44.9462 54.985 45.6285 54.5909 46.2929 54.2147C46.8495 53.9101 46.9752 53.5697 46.7598 52.9427C46.257 51.4199 45.5926 49.9687 44.6051 48.6788C44.2819 48.2489 43.833 47.8368 43.7073 47.3352C43.2943 45.7407 41.786 44.9704 41.1037 43.3759ZM18.21 35.8336C18.1562 35.7082 18.1562 35.6186 18.1023 35.5827C16.3067 33.9166 15.373 31.6951 14.2059 29.6349C13.9545 29.2049 13.7211 28.6674 13.8468 28.0762C13.9006 27.8075 13.8109 27.4671 13.7031 27.1805C13.2183 25.9085 12.7156 24.6544 12.2308 23.4003C11.9435 22.6479 11.6203 21.9134 12.3205 21.1968C11.4946 20.6414 11.5125 20.6593 11.5843 19.6023C11.6023 19.244 11.5484 18.8857 11.5125 18.3124C11.0098 19.3336 10.6866 20.1397 10.2556 20.8922C9.25009 22.63 8.56777 24.4394 8.40617 26.4639C8.37026 26.9655 8.26252 27.5209 8.01114 27.9508C7.34678 29.1153 7.13131 30.3156 7.22109 31.6414C7.29291 32.6805 7.04153 33.7375 6.96971 34.7766C6.9338 35.1528 7.05949 35.529 6.98766 35.8873C6.79015 36.8727 7.20313 37.6788 7.50838 38.4313C9.08849 38.1984 10.5788 38.0013 12.0512 37.7326C13.0567 37.5534 14.0443 37.3384 15.0139 37.0518C16.0015 36.7652 16.9711 36.3889 17.9407 36.0485C18.0305 36.0485 18.1023 35.9411 18.21 35.8336Z" fill="#A61421"/>
</svg>
