<svg viewBox="0 0 66 67" fill="none" xmlns="http://www.w3.org/2000/svg">
<path d="M18.6741 28.4641C19.7514 30.6856 20.2901 33.1042 20.9006 35.7019C21.6009 34.8061 22.6782 34.7882 23.4323 34C24.4199 32.9609 25.6768 32.1726 26.8439 31.2947C27.1672 31.0439 27.221 30.7931 27.1672 30.4169C27.0774 29.7003 27.0774 28.9837 27.0055 28.285C26.9337 27.5504 26.826 26.8159 26.7183 26.0814C26.6644 25.6514 26.5207 25.2215 26.5387 24.7915C26.6105 23.8778 26.7542 22.9641 26.8978 22.0684C27.0235 21.3697 27.239 20.671 27.3647 19.9723C27.5083 19.0407 27.634 18.1091 27.6879 17.1775C27.7417 16.2459 28.1547 15.4755 28.5138 14.6693C28.7832 14.0602 29.0705 13.4869 29.1962 12.7882C29.3757 11.785 30.058 11.0146 30.7044 10.2443C31.1892 9.67096 31.4406 8.99018 31.7818 8.34523C31.9613 8.02275 32.2846 7.77194 32.5898 7.43155C33.1285 8.11233 33.1823 8.81103 33.2003 9.47389C33.2183 10.8175 33.1823 12.1433 33.1285 13.4869C33.0926 14.1677 32.931 14.8306 32.8771 15.5114C32.8232 16.2459 32.8591 16.9983 32.8232 17.7329C32.7873 18.5032 32.7155 19.2736 32.6796 20.0439C32.6616 20.241 32.6616 20.456 32.7155 20.653C32.9489 21.6563 32.8412 22.6596 32.7514 23.6807C32.6437 25.114 32.5718 26.5293 32.9669 27.9446C33.1285 28.5179 33.2003 29.1449 33.1105 29.7182C32.9848 30.4348 33.3799 30.7215 33.8467 31.026C35.4089 32.0472 37.0069 33.0504 38.5691 34.0716C39.5387 34.6987 40.5083 35.3436 41.442 36.0244C41.8191 36.2931 42.0884 36.7052 42.4116 37.0456C42.5373 37.1889 42.681 37.3322 42.8246 37.4576C43.3992 38.0309 43.9917 38.5684 44.5484 39.1596C45.2845 39.9478 46.0387 40.7361 46.6851 41.596C47.529 42.7068 48.2832 43.8892 49.0732 45.0537C49.7196 46.039 50.3481 47.0423 50.9765 48.0456C51.0843 48.2068 51.0843 48.4218 51.1741 48.6009C51.4254 49.1026 51.6948 49.6221 52.0359 50.3029C52.5207 49.8192 52.8978 49.4788 53.221 49.1205C53.5442 48.7443 53.9213 48.4576 54.1188 47.9381C54.4061 47.2215 54.9448 46.5944 55.3757 45.9316C55.5373 45.6807 55.8066 45.4299 55.8246 45.1612C55.8964 44.2475 56.5608 43.6563 56.9199 42.9039C57.1892 42.3664 57.5125 41.8827 57.5663 41.2198C57.6022 40.7182 57.9613 40.2345 58.0691 39.7329C58.2845 38.7833 58.4102 37.798 58.5718 36.8306C58.5898 36.7768 58.5359 36.7052 58.5 36.6335C57.5843 34.8061 56.7044 32.943 55.5194 31.2768C54.6395 30.0407 53.7776 28.7866 52.7542 27.6758C51.7127 26.5651 50.5276 25.5798 49.3246 24.6482C48.4089 23.9315 47.7086 23.0358 46.9724 22.1579C46.6312 21.7459 46.2362 21.3338 45.7873 21.0293C44.9434 20.4739 44.0276 20.0618 43.1837 19.4886C42.268 18.8794 41.3881 18.2166 40.5622 17.5C39.8619 16.8729 40.0594 16.0846 40.8854 15.6009C41.8729 15.0276 42.8066 15.3501 43.6326 15.8159C44.3868 16.2638 45.2127 16.4429 46.0028 16.7654C46.6312 17.0162 47.2776 17.285 47.8163 17.6791C48.768 18.3599 49.8992 18.5211 50.9406 18.9511C51.8025 19.3094 52.5746 19.7752 53.3108 20.3485C54.3522 21.1547 55.3039 22.0146 56.1299 23.0179C56.2915 23.2149 56.5608 23.3403 56.9558 23.3941C56.8481 23.0358 56.7763 22.6596 56.6326 22.3013C56.5069 21.925 56.2915 21.5846 56.1658 21.2084C55.7528 19.9543 55.3578 18.6824 54.9448 17.4283C54.9268 17.3925 54.8909 17.3745 54.8909 17.3387C54.5677 15.4934 53.3467 14.114 52.5028 12.5195C52.3771 12.2687 52.0718 12.1254 51.8923 11.8925C50.779 10.4771 49.6837 9.06184 48.5884 7.62861C48.3909 7.35989 48.0677 7.10907 48.3011 6.71493C48.5525 6.30288 48.9475 6.26705 49.3785 6.33871C50.5276 6.5537 51.4973 7.16282 52.395 7.82568C53.3108 8.50646 54.0649 9.40223 54.9268 10.1547C55.3757 10.5488 55.9862 10.728 56.2196 11.3729C56.3453 11.7133 56.5608 12.0179 56.7583 12.3403C57.0995 12.8599 57.4227 13.4153 57.8357 13.899C58.8591 15.0993 59.9544 16.21 60.924 17.4462C61.3729 18.0195 61.6962 18.754 61.8757 19.4527C62.0373 20.0798 62.3426 20.6351 62.576 21.2084C62.7915 21.7638 63.0608 22.2296 63.0967 22.9104C63.1326 23.8241 63.5636 24.7377 63.9586 25.5977C64.6409 27.0309 64.7127 28.5716 64.7845 30.1123C64.8205 30.8469 64.6768 31.5993 64.6768 32.3338C64.6768 32.6384 64.9282 32.925 64.9462 33.2475C65.1077 35.0928 64.9641 36.9381 64.5332 38.7296C64.3895 39.3208 64.174 39.9299 64.192 40.539C64.192 41.8289 63.4558 42.868 63.1506 44.0325C62.7735 45.4478 61.8039 46.5407 61.337 47.8843C61.0497 48.7084 60.7445 49.4609 60.0442 50.0342C59.8647 50.1775 59.7749 50.4283 59.6851 50.6433C59.4337 51.2882 59.1105 51.8615 58.518 52.2915C58.2127 52.5065 58.0511 52.8648 57.8895 53.241C57.6022 53.9397 57.1892 54.6205 56.3992 54.9788C56.076 55.1221 55.7887 55.4267 55.6091 55.7312C55.2859 56.2866 54.9089 56.6091 54.2625 56.8599C53.3467 57.2003 52.6823 58.0065 52.0539 58.8127C51.3716 59.6905 50.6713 60.64 49.7915 61.285C49.163 61.7508 48.4986 62.0912 48.0318 62.754C47.8702 62.969 47.4752 62.9869 47.2238 63.1482C46.5055 63.5423 45.8412 64.1156 45.087 64.3306C43.7942 64.6889 42.6091 65.2084 41.4241 65.8175C41.0111 66.0325 40.4724 66.1221 40.0235 66.0684C38.8384 65.925 37.7611 66.3908 36.6119 66.4088C36.145 66.4088 35.6602 66.4983 35.2113 66.6596C33.5235 67.2149 31.7997 66.8387 30.0939 66.8745C29.8605 66.8745 29.6091 66.8029 29.3757 66.8387C28.1368 67.0358 27.0415 66.6775 25.9282 66.1758C25.0304 65.7817 24.0249 65.6384 23.0732 65.4413C21.0263 65.0114 19.0332 64.4022 17.1837 63.399C16.3398 62.9511 15.46 62.557 14.5981 62.1449C14.4724 62.0912 14.3467 62.0374 14.2031 62.0195C12.2997 61.912 11.4379 60.64 10.9172 59.0456C10.5939 58.0244 10.0014 57.2361 9.22931 56.5374C8.78041 56.1254 8.40334 55.6237 8.00831 55.1579C7.59533 54.6742 7.21826 54.1547 6.78732 53.671C6.05113 52.8469 5.24312 52.0765 4.57876 51.1987C4.12986 50.6074 3.82461 49.8908 3.59119 49.1742C3.08842 47.6873 2.87295 46.0928 2.19063 44.6954C1.32876 42.9218 0.951684 41.0048 0.323231 39.1775C0.0718503 38.425 0.0538945 37.583 0.0359387 36.7768C0.0179829 35.6123 0.0898061 34.4658 0.107762 33.3013C0.125718 32.5488 0.107762 31.7964 0.0898061 31.0618C0.0718503 30.3094 0.448922 29.557 0.592568 28.7866C0.808038 27.7117 0.933729 26.6188 1.18511 25.5618C1.32876 24.9169 1.72378 24.3257 1.56218 23.6091C1.52627 23.4299 1.61605 23.197 1.68787 23.0179C2.33428 21.4055 2.92682 19.7573 3.66301 18.1807C4.04008 17.3925 4.5608 16.6042 5.20721 16.0309C6.24864 15.0814 6.82323 13.8452 7.61329 12.7345C8.08014 12.0716 8.4213 11.3192 9.12157 10.7817C9.75002 10.298 10.163 9.54555 10.7376 8.99018C11.4199 8.32731 12.1741 7.73611 12.9282 7.16282C13.8799 6.4462 14.8495 5.78334 15.8191 5.10256C15.9268 5.03089 16.0884 4.9234 16.1782 4.94132C16.8785 5.17422 17.3094 4.60093 17.884 4.43969C19.3923 4.04555 20.5953 2.88106 22.2113 2.71982C22.2832 2.71982 22.355 2.7019 22.4089 2.66607C24.0069 1.68073 25.8384 1.55532 27.634 1.34034C28.1009 1.28659 28.5677 1.12536 29.0525 1.07161C31.2072 0.802881 33.326 1.07161 35.4448 1.37617C35.75 1.412 36.0553 1.68073 36.2707 1.91363C36.6478 2.3436 36.4683 3.02438 35.9296 3.14979C34.6188 3.47226 33.2721 3.72308 31.9613 4.02764C30.471 4.36803 29.0166 4.76217 27.7417 5.67585C26.4489 6.58953 25.1022 7.41363 23.7376 8.21982C22.4448 8.97226 21.0622 9.61722 19.7514 10.3517C18.7279 10.925 18.5663 11.5342 18.6022 12.7524C18.6202 13.5048 18.3509 14.2573 18.2072 15.0097C18.0815 15.6547 18.0815 16.3355 17.6506 16.9267C17.5249 17.1058 17.7404 17.5 17.7404 17.7866C17.7942 19.9723 18.0815 22.1579 18.2431 24.3257C18.3149 25.3469 18.5843 26.3143 18.7459 27.3175C18.7459 27.7296 18.6741 28.1058 18.6741 28.4641ZM30.4351 35.9348C29.5373 36.7768 28.7652 37.4039 28.1368 38.1384C27.5801 38.7833 26.8978 39.1954 26.1975 39.5895C24.9765 40.2524 23.6299 40.7361 22.4627 41.4886C21.3854 42.1873 20.2542 42.6172 19.0332 42.9397C18.1713 43.1726 17.3274 43.513 16.4655 43.7996C15.4779 44.14 14.4724 44.4625 13.4848 44.785C13.3951 44.8208 13.2514 44.8029 13.1796 44.7491C12.6768 44.3729 12.2459 44.57 11.779 44.8566C11.5815 44.982 11.2404 44.9462 10.989 44.9104C10.1989 44.8029 9.48069 45.1074 8.61881 45.2508C8.97793 46.2361 9.28317 47.1498 9.66025 48.0097C9.80389 48.3322 10.0912 48.6009 10.3246 48.8697C10.8992 49.4967 11.5636 50.0521 12.0484 50.7329C13.0539 52.184 14.3108 53.2589 15.8909 54.0114C16.3398 54.2263 16.8067 54.4592 17.3633 54.728C18.2252 54.2801 19.1589 53.7964 20.1105 53.3127C20.2542 53.241 20.4158 53.1514 20.5774 53.1156C22.373 52.7573 23.7735 51.5211 25.4613 50.8941C25.605 50.8403 25.6948 50.6433 25.8384 50.5358C26.4669 50.0162 27.0415 49.3892 27.7417 48.9951C28.873 48.368 29.9503 47.6514 30.9917 46.8811C31.8716 46.2361 32.8053 45.6449 33.7031 45.0537C34.3495 44.6237 35.0138 44.2117 35.6423 43.7638C36.6478 43.0293 37.6174 42.2589 38.605 41.5065C38.587 41.4527 38.587 41.3631 38.5332 41.3452C37.4379 40.557 36.3426 39.7687 35.2652 38.9804C34.7804 38.6221 34.3495 38.1921 33.8467 37.8876C33.1644 37.4755 32.4462 37.171 31.8357 36.6156C31.4227 36.2931 30.8301 36.1319 30.4351 35.9348ZM41.1368 44.3371C40.5442 45.1612 40.1671 45.8061 39.6823 46.3794C38.6409 47.5798 37.4558 48.6905 36.4862 49.9446C35.5705 51.1628 34.3674 51.9869 33.1644 52.8469C31.7459 53.868 30.2376 54.7638 28.7652 55.7312C28.6036 55.8387 28.4241 55.982 28.3522 56.1612C28.1547 56.627 27.7417 56.6449 27.3467 56.7166C27.0774 56.7524 26.6105 56.7703 26.5926 56.8778C26.431 57.6482 25.8743 57.1824 25.4973 57.2182C25.5691 57.7019 25.623 58.0423 26.1796 58.2035C27.1133 58.4723 27.9931 58.9739 29.0166 58.9381C29.4116 58.9202 29.8426 58.956 30.2196 59.0993C31.5843 59.6009 32.9669 59.5293 34.3674 59.368C34.7804 59.3143 35.1934 59.2964 35.5884 59.2247C36.3246 59.0993 37.0788 59.0276 37.797 58.7947C38.8025 58.4723 39.7542 58.0244 40.7417 57.6482C41.9089 57.1824 43.0939 56.7524 44.2611 56.2508C44.9793 55.9462 45.6616 55.5521 46.326 55.1758C46.8826 54.8713 47.0083 54.5309 46.7928 53.9039C46.2901 52.3811 45.6257 50.9299 44.6381 49.64C44.3149 49.2101 43.866 48.798 43.7404 48.2964C43.3274 46.7019 41.8191 45.9315 41.1368 44.3371ZM18.2431 36.7947C18.1893 36.6693 18.1893 36.5798 18.1354 36.5439C16.3398 34.8778 15.4061 32.6563 14.239 30.596C13.9876 30.1661 13.7542 29.6286 13.8799 29.0374C13.9337 28.7687 13.8439 28.4283 13.7362 28.1416C13.2514 26.8697 12.7486 25.6156 12.2638 24.3615C11.9765 23.6091 11.6533 22.8745 12.3536 22.1579C11.5277 21.6026 11.5456 21.6205 11.6174 20.5635C11.6354 20.2052 11.5815 19.8469 11.5456 19.2736C11.0428 20.2947 10.7196 21.1009 10.2887 21.8534C9.28317 23.5912 8.60085 25.4006 8.43925 27.425C8.40334 27.9267 8.29561 28.482 8.04422 28.912C7.37986 30.0765 7.16439 31.2768 7.25417 32.6026C7.32599 33.6416 7.07461 34.6987 7.00279 35.7377C6.96688 36.114 7.09257 36.4902 7.02074 36.8485C6.82323 37.8338 7.23621 38.64 7.54146 39.3925C9.12157 39.1596 10.6119 38.9625 12.0843 38.6938C13.0898 38.5146 14.0774 38.2996 15.047 38.013C16.0346 37.7263 17.0042 37.3501 17.9738 37.0097C18.0636 37.0097 18.1354 36.9022 18.2431 36.7947Z" fill="#A61421"/>
</svg>
