<?xml version="1.0" encoding="utf-8"?>
<!-- Generator: Adobe Illustrator 24.1.0, SVG Export Plug-In . SVG Version: 6.00 Build 0)  -->
<svg version="1.1" id="Layer_1" xmlns="http://www.w3.org/2000/svg" xmlns:xlink="http://www.w3.org/1999/xlink" x="0px" y="0px"
	 viewBox="0 0 1077 229" style="enable-background:new 0 0 1077 229;" xml:space="preserve">
<style type="text/css">
	.st0{opacity:0.1;}
	.st1{fill:#FFFFFF;enable-background:new    ;}
</style>
<g class="st0">
	<path class="st1" d="M135.8,110.1c0.2-0.7,0.5-1.5,0.7-2.5c0.5-1.2,0.8-2.5,1.1-3.9c0.2-1.4,0.6-2.8,1.1-4.2
		c0.5-1.4,0.8-2.8,1.1-4.2c0.5-1.6,0.9-3.3,1.4-4.9c1.2-3.8,2.4-7.4,3.5-11c1.4-3.5,2.8-7.1,4.2-10.6c0.9-1.9,1.4-3.4,1.4-4.6
		c0.5-2.1,0.9-4.1,1.4-6c0.7-2.1,1.5-4.1,2.5-6c1.2-2.4,2.5-4.6,3.9-6.7c0.5-0.5,0.6-0.8,0.4-1.1c-0.2-0.5-0.2-0.9,0-1.4
		c0.2-0.7,0.5-1.3,0.7-1.8c0.5-1.4,0.4-2.4-0.4-2.8c0,0,0-0.4,0-1.1c0.5-0.9,0.6-1.8,0.4-2.5c-0.2-0.9-0.1-1.8,0.4-2.5
		c0-0.2-0.1-0.4-0.4-0.4c0,0,0-0.1,0-0.4c-0.9-0.2-1.4-1.1-1.4-2.5c-0.7-0.2-1.4-0.2-2.1,0c-0.5,0-0.9-0.1-1.4-0.4
		c-0.9,0-1.6,0.1-2.1,0.4c-2.1,0.9-4,2.5-5.7,4.6c-1.4,1.9-2.7,3.8-3.9,5.7c-0.9,1.6-2,3.4-3.2,5.3c-1.2,2.4-2.4,4.7-3.5,7.1
		c-1.2,2.1-2.2,4.4-3.2,6.7c-1.9,4.7-3.7,9.5-5.3,14.5c-1.4,4.9-2.8,9.8-4.2,14.5c-0.9,2.6-1.8,5.3-2.5,8.1
		c-0.7,2.8-1.4,5.5-2.1,8.1c-0.2,0.9-0.8,2.1-1.8,3.5c-0.5,1.2-0.9,2.4-1.4,3.5c-0.5,1.2-0.8,2.4-1.1,3.5c-0.2,1.4-0.5,2.8-0.7,4.2
		c-0.2,1.2-0.5,2.4-0.7,3.5c-0.5,2.6-1.1,5.1-1.8,7.4c-0.7,2.1-1.4,4.4-2.1,6.7c-1.2,4.5-2.5,9-3.9,13.4c-1.4,4.5-2.8,9.1-4.2,13.8
		c-0.5,0.9-0.8,1.9-1.1,2.8c0,0.9-0.2,1.9-0.7,2.8c-0.2,0-0.4-0.4-0.4-1.1c0.2-1.9,0.5-3.7,0.7-5.3s0.5-3.4,0.7-5.3
		c0.2-0.9,0.4-1.8,0.4-2.5c0-0.9,0.2-1.9,0.7-2.8c0.2-0.9,0.4-1.8,0.4-2.5c0.2-0.7,0.4-1.5,0.4-2.5c0.5-2.1,0.7-4.2,0.7-6.4
		c0.2-2.4,0.5-4.6,0.7-6.7c0.2-2.8,0.5-5.5,0.7-8.1c0.2-2.8,0.4-5.7,0.4-8.5c0.2-0.5,0.2-0.9,0-1.4c0-0.5,0.1-0.9,0.4-1.4
		c0.2-2.6,0.4-5.1,0.4-7.4c0.2-2.6,0.5-5.2,0.7-7.8c0-3.5-0.1-7.1-0.4-10.6c0-3.8,0.2-7.4,0.7-11c0.2-1.6,0.4-3.3,0.4-4.9
		s0.1-3.3,0.4-4.9c0-2.1,0.1-4.2,0.4-6.4c0.2-2.1,0.5-4.2,0.7-6.4c0.2-1.6,0.4-3.2,0.4-4.6c0-1.6,0.2-3.2,0.7-4.6
		c0.5-1.9,0.7-3.8,0.7-5.7c0.2-1.9,0.6-3.8,1.1-5.7c0.2-0.7,0.4-1.9,0.4-3.5c0-5.2-1.2-10-3.5-14.5c-1.2-1.9-2.5-3.4-3.9-4.6
		c-1.4-1.4-3.1-2.7-4.9-3.9c-2.4-1.6-4.9-1.9-7.8-0.7c-0.7,0.2-1.5,0.5-2.5,0.7c-0.7,0-1.3,0.5-1.8,1.4c-1.4,2.1-2.9,3.7-4.6,4.6
		c-0.9,0.2-1.6,0.9-2.1,2.1C79.7,17,79,18,78.3,19c-0.5,0.9-0.9,2-1.4,3.2c-2.4,4.7-4.6,9.5-6.7,14.5c-2.1,4.9-4.4,9.8-6.7,14.5
		c-2.6,5.9-5.1,11.8-7.4,17.7c-2.4,5.9-4.5,11.9-6.4,18c-2.6,7.5-5.1,15-7.4,22.3c-2.4,7.3-4.6,14.7-6.7,22.3
		c-0.2,1.6-0.8,3.5-1.8,5.7c-0.2-0.2-0.4-0.7-0.4-1.4c-0.2-1.7-0.2-3.1,0-4.2c0.5-1.4,0.7-2.8,0.7-4.2c0.5-3.1,0.7-6,0.7-8.8
		c0-3.1,0-6.1,0-9.2c0.2-2.1,0.2-4.1,0-6c0-2.1,0.1-4.1,0.4-6c0-2.1-0.1-4.2-0.4-6.4c0-2.1,0.1-4.2,0.4-6.4c0.2-1.6,0.4-3.2,0.4-4.6
		c0-1.6,0-3.4,0-5.3c0-1.2,0-2.5,0-3.9s0.2-2.8,0.7-4.2c0.2-0.7,0.4-1.9,0.4-3.5c0.2-3.3,0.2-6.6,0-9.9c0-3.5,0.2-7,0.7-10.3
		c0-2.1,0.1-3.8,0.4-4.9c0.5-2.8,0.9-5.5,1.4-8.1c0.7-2.6,1.2-5.2,1.4-7.8c0.2-1.4,0.4-2.8,0.4-4.2c0-1.4-0.2-2.7-0.7-3.9
		c-0.7-1.2-1.3-2.4-1.8-3.5C38,9.3,37.2,8.4,36,7.7c-1,0-1.5-0.6-2-1.6c-1.2-1.4-2.4-2.5-3.5-3.2c-0.9-0.2-2.1-0.8-3.5-1.8
		c-0.2,0-0.5,0-0.7,0c0-0.2-0.1-0.4-0.4-0.4c-1.2,0.2-2.2,0.4-3.2,0.4c-0.9-0.2-1.9-0.1-2.8,0.4C17.3,2.3,16,4,16,6.9
		c-0.2,1.4-0.5,2.8-0.7,4.2c0,1.2-0.2,2.5-0.7,3.9c-1.4,6.4-2.5,12.7-3.2,19.1c-0.5,3.3-0.9,6.5-1.4,9.5c-0.2,2.8-0.6,5.8-1.1,8.8
		c-0.5,2.8-0.8,5.8-1.1,8.8c-0.2,2.8-0.6,5.7-1.1,8.5c-0.2,2.6-0.5,5.1-0.7,7.4c0,2.4-0.2,4.8-0.7,7.4C5.1,87.8,4.8,91,4.6,94
		c-0.2,2.8-0.5,5.9-0.7,9.2c-0.2,1.9-0.4,3.9-0.4,6c0,1.9-0.1,3.9-0.4,6c-0.2,3.3-0.4,6.6-0.4,9.9c-0.2,3.1-0.5,6.2-0.7,9.5v9.5
		c-0.2,2.6-0.4,5.3-0.4,8.1c0,2.6-0.1,5.2-0.4,7.8c-0.2,2.4-0.4,4.7-0.4,7.1c0,2.1-0.1,4.2-0.4,6.4c-0.2,4.7,0,10,0.7,15.9
		c0.2,1.9,0.8,3.3,1.8,4.2c0.7,0.9,1.8,1.6,3.2,2.1c2.4,0.5,4,1.2,4.9,2.1c0.2,0.2,0.7,0.4,1.4,0.4c0.9-0.2,1.5-0.5,1.8-0.7
		c0.7-1.2,1.9-1.5,3.5-1.1c2.8,0.7,5.2-0.1,7.1-2.5c1.2-0.9,2.2-2.5,3.2-4.6c1.4-2.8,2.7-5.7,3.9-8.5c1.2-3.1,2.4-6,3.5-8.8
		c1.2-2.6,2.2-5.3,3.2-8.1c1.2-2.8,2.4-5.5,3.5-8.1c0.9-2.1,1.9-4.1,2.8-6c1.2-1.9,2.1-3.9,2.8-6c0.5-1.2,0.9-2.4,1.4-3.5
		c0.5-1.4,0.9-2.7,1.4-3.9c0.7-1.9,1.3-3.9,1.8-6s0.9-4.1,1.4-6c1.2-4.5,2.6-8.6,4.2-12.4c1.2-2.6,2.4-5.2,3.5-7.8
		c1.2-2.6,2.4-5.2,3.5-7.8c0.7-1.2,1.4-2.4,2.1-3.5c0.7-1.2,1.2-2.5,1.4-3.9c0.5-2.4,1.1-4.5,1.8-6.4c0.9-2.1,1.6-4.4,2.1-6.7
		c0.5-0.5,0.7-0.7,0.7-0.7c0.2,0.2,0.2,0.5,0,0.7c-0.2,1.9-0.4,3.9-0.4,6c0,1.9,0,3.8,0,5.7c-0.2,3.8-0.5,7.5-0.7,11.3
		c0,3.5,0,7.3,0,11.3c0.2,1.9,0.4,3.7,0.4,5.3c0,1.7,0,3.4,0,5.3c-0.2,2.1-0.4,4.4-0.4,6.7c0,2.1-0.1,4.2-0.4,6.4
		c-0.2,4-0.5,8.1-0.7,12.4c-0.2,4-0.5,8-0.7,12c-0.7,7.8-1.1,15.6-1.1,23.3V201c0,1.4,0,2.8,0,4.2s-0.1,2.8-0.4,4.2
		c-0.2,1.9-0.1,3.7,0.4,5.3s1.4,3.1,2.8,4.2l0.4,0.4c1.2,1.2,2.2,2.1,3.2,2.8c0.9,0.7,2,1.3,3.2,1.8c0.2,0,0.6,0.5,1.1,1.4
		c0,0.9,0.4,1.1,1.1,0.4c0.5-0.5,0.7-0.9,0.7-1.4c0.2-0.9,0.9-1.2,2.1-0.7c0.5,0,0.9,0.2,1.4,0.7c2.1,1.4,4.1,1.8,6,1.1
		c0.5-0.2,1.1-0.6,1.8-1.1c0.7-0.2,1.3-0.4,1.8-0.4c1.6,0,3.2-0.9,4.6-2.8c1.9-1.9,3.2-4.2,3.9-7.1c1.2-2.6,2.1-5.4,2.8-8.5
		c0.7-2.8,1.4-5.7,2.1-8.5c0.5-0.9,0.8-1.9,1.1-2.8c0.2-0.9,0.7-1.8,1.4-2.5c0.5-0.7,0.9-2,1.4-3.9c1.2-2.6,2.1-5.3,2.8-8.1
		c0.9-2.8,1.9-5.5,2.8-8.1c0.9-2.8,1.7-5.5,2.1-8.1c0.7-2.8,1.4-5.7,2.1-8.5c0-0.9,0.2-1.9,0.7-2.8c1.2-2.4,2.1-4.6,2.8-6.7
		c0.9-2.4,1.9-4.8,2.8-7.4c1.2-4.2,2.4-8.5,3.5-12.7c1.4-4.2,2.6-8.6,3.5-13.1C135.8,111.6,135.8,110.8,135.8,110.1z"/>
	<path class="st1" d="M240,137.3c-1.7,0-2.9,0.7-3.9,2.1c-0.7,1.2-1.5,2.5-2.5,3.9c-0.7,1.2-1.5,2.4-2.5,3.5
		c-2.1,2.8-4.2,5.7-6.4,8.5c-2.1,2.6-4.2,5.2-6.4,7.8c-1.4,1.9-2.9,3.7-4.6,5.3c-1.4,1.7-2.9,3.3-4.6,5c-1.6,1.9-3.3,3.8-4.9,5.7
		c-1.4,1.7-2.9,3.4-4.6,5.3c-1.2,1.2-2.4,2.5-3.5,3.9c-0.9,1.2-2,2.4-3.2,3.5c-2.8,3.3-6,6.1-9.5,8.5c-3.5,2.1-7.1,4.2-10.6,6.4
		c-1.9,1.4-3.7,1.3-5.3-0.4v-0.4c-0.2-0.2-0.5-0.4-0.7-0.4c0-0.2-0.2-0.6-0.7-1.1c-0.9-1.4-1.6-2.4-2.1-2.8v-0.4
		c-0.7-1.6-1.1-3.4-1.1-5.3c0-1.4,0-2.8,0-4.2s-0.1-2.8-0.4-4.2c-0.5-2.6-0.5-5.1,0-7.4c0.5-2.6,0.8-5.2,1.1-7.8
		c0.2-3.5,2.2-5.4,6-5.7c0.5,0,0.7,0,0.7,0c0-0.2,0.2-0.5,0.7-0.7c1.9-1.6,3.8-3.2,5.7-4.6c1.9-1.6,3.9-3.1,6-4.2
		c1.4-0.9,2.8-1.8,4.2-2.5c1.4-0.9,2.7-2,3.9-3.2c2.6-2.4,4.9-4.7,7.1-7.1c2.1-2.6,4.4-5.2,6.7-7.8c1.9-2.4,3.7-4.7,5.3-7.1
		c1.9-2.4,3.8-4.7,5.7-7.1c0.5-0.7,1.1-1.4,1.8-2.1s1.2-1.5,1.4-2.5c0.5-1.7,1.2-3.1,2.1-4.2c0.9-1.2,1.9-2.4,2.8-3.5
		c0.5-0.9,0.7-1.4,0.7-1.4c1.6-3.1,3.2-6,4.6-8.8c1.4-2.8,3.1-5.7,5-8.5c0.5-0.5,0.7-0.9,0.7-1.4c0.5-1.2,0.7-2.2,0.7-3.2
		c0.2-0.9,0.6-2,1.1-3.2c0.7-1.6,0.9-3.1,0.7-4.2c-0.5-1.4-0.7-2.8-0.7-4.2c0.2-1.4,0.2-2.8,0-4.2c-0.2-1.2-0.5-2.4-0.7-3.5
		c-0.2-1.2-0.7-2.4-1.4-3.5c-0.7-1.2-1.5-2.2-2.5-3.2c-0.7-0.9-1.3-2-1.8-3.2c-0.9-1.4-2.1-2.5-3.5-3.2c-1.2-0.7-2.4-1.4-3.5-2.1
		c-1.9-1.2-4-1.6-6.4-1.4c-2.1,0-4.2-0.2-6.4-0.7c-0.9-0.2-2.2,0-3.9,0.7c-4.7,2.1-9.2,5.1-13.4,8.8c-0.9,0.7-1.8,1.5-2.5,2.5
		c-0.7,0.7-1.5,1.4-2.5,2.1c-5.9,4.7-11.2,10.6-15.9,17.7c-3.5,5.4-7,10.8-10.3,16.3c-3.1,5.2-5.9,10.7-8.5,16.6
		c-3.5,7.8-6.7,15.7-9.5,23.7c-3.1,8-5.5,16.3-7.4,24.7c-1.2,5-1.9,9.9-2.1,14.8c-0.2,4.9,0,10,0.7,15.2c0.5,3.8,1.4,7.3,2.8,10.6
		c1.2,3.5,3.2,6.6,6,9.2c1.4,1.2,2.9,2.6,4.6,4.2c1.9,1.9,3.9,3.5,6,5c2.1,1.6,4.2,2.9,6.4,3.9c2.1,0.9,4.1,1.3,6,1.1
		c1.2-0.2,2.1-0.2,2.8,0c0.9,0.2,1.9,0.5,2.8,0.7c0.7,0.2,1.4,0.4,2.1,0.4c0.7,0,1.4,0.1,2.1,0.4c2.1,0,4.2-0.8,6.4-2.5
		c0.7-0.5,1.3-1.1,1.8-1.8c0.7-0.5,1.5-0.8,2.5-1.1c2.1-0.5,4-1.4,5.7-2.8c1.6-1.2,3.1-2.6,4.2-4.2c2.6-3.1,5-6,7.1-8.8
		c2.4-2.8,4.5-5.9,6.4-9.2c0.9-1.4,1.7-2.7,2.1-3.9c0.7-1.4,1.5-2.7,2.5-3.9c1.9-2.6,3.7-5.1,5.3-7.4c1.9-2.6,3.8-5.2,5.7-7.8
		c0.2-0.5,0.5-0.8,0.7-1.1c0.2-0.5,0.5-0.9,0.7-1.4c0.5-1.2,1.1-2.5,1.8-3.9c0.7-1.6,1.4-3.1,2.1-4.2c0.5-1.2,0.9-2.1,1.4-2.8
		c0.5-0.9,0.9-1.9,1.4-2.8c0.5-0.7,0.9-1.4,1.4-2.1c0.5-0.7,0.9-1.5,1.4-2.5c0.5-0.9,0.8-1.8,1.1-2.5c0.5-0.9,0.9-2,1.4-3.2
		s0.8-2.4,1.1-3.5c0.2-1.2,0.7-2.4,1.4-3.5C243.3,138.7,242.6,137.3,240,137.3z M180.2,122.5c0.7-1.6,1.3-3.3,1.8-4.9
		c0.5-1.2,1.1-2.4,1.8-3.5c0.7-1.2,1.3-2.4,1.8-3.5c0.5-0.9,0.8-1.8,1.1-2.5c0.2-0.9,0.5-2,0.7-3.2c0.7-3.1,2-5.7,3.9-7.8
		c1.4-1.9,2.7-3.7,3.9-5.3c1.2-1.6,2.4-3.4,3.5-5.3c1.2-1.6,2.2-3.3,3.2-4.9c1.2-1.9,2.5-3.7,3.9-5.3c0.9-1.2,1.9-2.1,2.8-2.8
		c1.2-0.9,2.4-1.9,3.5-2.8c0,0,0.4,0,1.1,0c0,1.4-0.2,2.8-0.7,4.2c-0.5,1.4-0.9,2.8-1.4,4.2c-0.7,2.1-1.5,4.1-2.5,6
		c-0.9,1.9-1.9,3.9-2.8,6c-1.9,4.7-4.4,9.2-7.4,13.4c-3.1,4.2-6.2,8.4-9.5,12.4c-1.7,1.9-3.4,3.7-5.3,5.3c-1.6,1.6-3.4,3.4-5.3,5.3
		C179.1,125.8,179.8,124.1,180.2,122.5z"/>
	<path class="st1" d="M542,92.4c1.2-1.2,2.2-2,3.2-2.5c0.9-0.7,2-1.3,3.2-1.8c1.6-0.9,3.3-1.8,4.9-2.5c1.7-0.7,3.3-1.4,4.9-2.1
		c1.9-1.2,3.7-2.4,5.3-3.5c1.9-1.2,3.8-2.2,5.7-3.2c2.1-0.9,2.6-3.5,1.4-7.8c-0.7-2.1-2.2-2.9-4.6-2.5c-1.6,0.5-3.3,0.8-5,1.1
		c-1.4,0-2.8,0.5-4.2,1.4c-1.4,0.7-2.9,1.1-4.6,1.1c-2.1,0-4.2,0.4-6.4,1.1c-2.8,0.9-5.5,2.1-8.1,3.5c-2.6,1.2-5.2,2.6-7.8,4.2
		c-3.1,1.9-6.1,3.9-9.2,6c-2.8,2.1-5.8,4.1-8.8,6c-2.6,1.6-5.2,3.5-7.8,5.7c-2.4,1.9-4.8,3.8-7.4,5.7c-0.5,0.5-0.9,1.1-1.4,1.8
		c-0.3,0.3-0.8,0.6-1.3,0.8c0.1-0.3,0.2-0.5,0.3-0.8c-0.2-0.1-0.4-0.3-0.6-0.4c0.2-0.6,0.2-1.2,0.2-1.8c0.2-1.2,0.6-2.4,1.1-3.5
		c0.9-2.1,1.6-4.4,2.1-6.7c0.7-2.4,1.6-4.6,2.8-6.7c0.2-0.5,0.4-1.3,0.4-2.5c0-0.7,0-1.3,0-1.8c0.2-0.7,0.5-1.4,0.7-2.1
		c0.5-1.6,0.2-3.7-0.7-6c-0.7-2.6-1.6-4.5-2.8-5.7c-0.9-0.5-1.5-0.9-1.8-1.4c-1.4-2.1-3.2-3.4-5.3-3.9c-2.1-0.5-4.1-0.9-6-1.4
		c-0.2,0-0.4,0-0.4,0c-1.2,0.5-2.4,1.1-3.5,1.8c-0.9,0.7-1.6,1.8-2.1,3.2c0,0.5-0.1,0.8-0.4,1.1c-0.2,0.2-0.4,0.6-0.4,1.1
		c-1.2,2.8-2.4,5.7-3.5,8.5c-1.2,2.6-2.4,5.3-3.5,8.1c-1.4,4-2.8,8-4.2,12c-1.2,3.8-2.4,7.7-3.5,11.7c-2.6,8.2-4.9,15.4-7.1,21.6
		c-0.5,1.7-1,3.3-1.5,4.8c-0.1,0.1-0.2,0.1-0.3,0.2c-1.9,2.4-3.9,4.5-6,6.4c-1.9,1.9-3.8,3.9-5.7,6c-1.9,2.1-3.9,4.4-6,6.7
		c-1.9,2.1-3.8,4.4-5.7,6.7c-1.4,1.7-2.4,2.7-2.8,3.2c-1.9,1.2-2.8,2.5-2.8,3.9c-1.9,0-3.2,0.2-3.9,0.7c-0.5,0.5-0.9,1.4-1.4,2.8
		c0,0,0.5-0.2,1.4-0.7c0,0.9-0.6,1.7-1.8,2.1v-0.4c0-0.2-0.1-0.4-0.4-0.4c0,0,0-0.1,0-0.4c-0.2,0.2-0.5,0.5-0.7,0.7
		c-0.2,0-0.5,0.1-0.7,0.4c-0.5,0.9-0.9,1.9-1.4,2.8c-0.2,0.9-0.6,1.7-1.1,2.1c-0.7,0.2-1.5,0.6-2.5,1.1c-0.5,0.2-0.9,0.5-1.4,0.7
		c-0.2,0.2,0.1,0.8,1.1,1.8c-1.2-0.2-2.2,0-3.2,0.7c-0.7,0.7-1.4,1.4-2.1,2.1c-0.9,1.2-1.9,2.2-2.8,3.2c-0.7,0.7-1.5,1.5-2.5,2.5
		c-1.2,0-2-0.2-2.5-0.7c0.2,0,0.2-0.1,0-0.4c-0.9-1.4-1.3-3.1-1.1-4.9c0.2-2.1,0.7-4.8,1.4-8.1c0.9-4,1.6-7,2.1-8.8
		c0.7-2.1,2-5.1,3.9-8.8c1.2-2.6,1.9-4.5,2.1-5.7s0.8-3.2,1.8-6c0.5-1.2,0.9-2.9,1.4-5.3c0.7-2.4,2.4-6.4,4.9-12
		c0.7-1.7,1.3-3.2,1.8-4.6c0.5-1.7,1.7-4.1,3.5-7.4c0.5-0.9,1.3-2.7,2.5-5.3c1.4-2.6,2.4-4.5,2.8-5.7c0.5-1.4,1.1-2.7,1.8-3.9
		c0.7-1.4,1.3-2.8,1.8-4.2c0.5-1.6,0.9-3.2,1.4-4.6s0.5-3.1,0-4.9c-0.7-1.4-1.1-2.8-1.1-4.2c0-0.9-0.6-1.4-1.8-1.4
		c-1.4-0.5-2.2-1.1-2.5-1.8c-0.7-1.2-1.8-1.8-3.2-1.8c-0.9,0-2.2-0.6-3.9-1.8c-0.2,2.1-1.4,3.7-3.5,4.6c0.7-0.9,1.1-1.5,1.1-1.8
		c0.2-0.5,0.5-0.8,0.7-1.1c0.5-0.2,0.5-0.6,0-1.1c-0.2-0.2-0.6-0.2-1.1,0s-0.8,0.6-1.1,1.1c-0.2,0.5-0.5,1.1-0.7,1.8
		c-0.2,0.7-0.5,1.3-0.7,1.8c-0.5,0.5-0.8,0.9-1.1,1.4c0,0.5-0.2,0.9-0.7,1.4c-5.7,5.7-10.5,11.3-14.5,17c-0.5,0.5-1.1,0.9-1.8,1.4
		c-0.7,0.5-1.3,1.1-1.8,1.8c-2.6,3.8-5.4,7.3-8.5,10.6c-2.8,3.3-5.3,7-7.4,11c-0.7,1.6-1.6,3.2-2.8,4.6c-0.9,1.4-1.9,2.8-2.8,4.2
		c-5.2,7.3-10.5,14.6-15.9,21.9c-5.2,7.1-10.5,14.1-15.9,21.2c-1.4,1.9-2.6,3.2-3.5,3.9v-1.1c0.7-3.1,1.6-5.9,2.8-8.5
		c1.4-2.8,2.9-5.5,4.6-8.1c2.6-4.7,5.2-9.3,7.8-13.8c2.8-4.7,5.8-9.3,8.8-13.8c1.6-2.4,3.3-4.6,4.9-6.7c1.7-2.1,3.1-4.5,4.2-7.1
		c2.8-4.7,6-8.4,9.5-11c0.5-0.5,0.9-1.1,1.4-1.8c0.7-0.7,1.3-1.3,1.8-1.8c1.6-2.6,3.3-4.8,4.9-6.7c1.7-2.1,3.3-4.4,5-6.7
		c1.2-1.6,2.2-3.2,3.2-4.6c0.9-1.4,1.9-2.9,2.8-4.6c1.2-2.8,1.7-5.2,1.4-7.1c0-2.1-0.9-4.1-2.8-6l-1.1-1.1c-1.2-0.9-2.4-1.6-3.5-2.1
		c-0.9-0.7-2-1.4-3.2-2.1c-0.5-0.5-1.2-0.8-2.1-1.1c-0.7-0.5-1.6-0.5-2.8,0c-1.4,0.7-2.9,1.5-4.6,2.5c-1.4,0.7-2.7,1.6-3.9,2.8
		c-2.4,2.1-4.7,4.2-7.1,6.4c-2.1,2.1-4.4,4.4-6.7,6.7c-5.4,5.9-10.6,12-15.6,18.4c-4.7,6.1-9.3,12.6-13.8,19.4
		c-1.2,1.9-2.5,3.8-3.9,5.7c-1.2,1.9-2.5,3.8-3.9,5.7c-0.9,1.2-1.9,2.4-2.8,3.5c-0.9,1.2-1.9,2.4-2.8,3.5
		c-7.5,13.7-11.9,25.1-13.1,34.3c-1.4,9-1.9,15.7-1.4,20.2c0.7,0,1.2,0.4,1.4,1.1c0.7,2.4,2,4.5,3.9,6.4c0.5,0.7,1.1,1.4,1.8,2.1
		c0.5,0.7,0.9,1.4,1.4,2.1c1.4,2.1,3.7,3.5,6.7,4.2c3.3,0.9,5.9,0.9,7.8,0c2.4-0.7,4-1.9,4.9-3.5c0.7-1.2,1.3-1.1,1.8,0.4
		c0.9,2.1,2.6,2.7,4.9,1.8c1.6-0.9,3.1-2.1,4.2-3.5c1.4-1.4,3.1-2.6,4.9-3.5l0.4-0.4c0.5-1.2,1.1-2.1,1.8-2.8
		c0.7-0.9,1.3-1.9,1.8-2.8c0.2-0.9,1.1-1.9,2.5-2.8c1.9-1.6,3.3-3.3,4.2-4.9c1.6-3.1,3.4-5.9,5.3-8.5c1.9-2.8,3.8-5.5,5.7-8.1
		c0.7-0.7,1.5-0.9,2.5-0.7c0.5,0.2,0.6,0.5,0.4,0.7c0,0.2,0,0.6,0,1.1c0.2,0.7,0.2,1.4,0,2.1c0,0.7,0,1.4,0,2.1c0,0-0.5,0.2-1.4,0.7
		c0.5,1.9,0.7,3.8,0.7,5.7c0.2,1.9,0.5,3.8,0.7,5.7c0.2,0.9,0.4,1.9,0.4,2.8c0,0.7,0.1,1.5,0.4,2.5c0.5,1.2,0.9,2.1,1.4,2.8
		s0.9,1.5,1.4,2.5c0.2,0,0.4,0.1,0.4,0.4c0,0,0.1,0,0.4,0c1.4,1.4,2.6,2.4,3.5,2.8c5.7,3.8,11.8,4.9,18.4,3.5
		c6.4-1.6,12.1-5.1,17.3-10.3c1.2-1.2,2.4-2.4,3.5-3.5c1.4-1.4,2.9-2.7,4.6-3.9c0.7-0.7,1.4-1.4,2.1-2.1c0.7-0.7,1.3-1.5,1.8-2.5
		c1.2-2.4,2.5-4.1,3.9-5.3c1.2-1.2,2.4-2.4,3.5-3.5c1.4-1.4,2.6-2.9,3.5-4.6c0.2-0.2,0.4-0.5,0.4-0.7c0.2-0.2,0.5-0.5,0.7-0.7
		c1.3-1.4,2.4-2.9,3.6-4.3c-0.2,1-0.5,1.9-0.7,2.9c-0.5,1.9-0.8,3.9-1.1,6c0,1.2,0,2.2,0,3.2c0,0.9-0.2,2-0.7,3.2
		c-0.7,2.6-0.2,4.9,1.4,7.1c0.5,0.5,0.9,1.4,1.4,2.8c0.5,1.2,1.2,2.1,2.1,2.8c0.7,0.5,1.5,1.2,2.5,2.1c0,0,0.5,0,1.4,0s1.8,0,2.5,0
		c0.9,0,1.9,0.2,2.8,0.7c0.5,0.5,1.1,0.7,1.8,0.7c0.9-0.2,1.8-0.4,2.5-0.4c0.9,0,1.7-0.5,2.1-1.4c1.2-1.9,2.2-3.7,3.2-5.3
		c1.2-1.6,2.2-3.4,3.2-5.3c0.9-1.7,1.8-3.2,2.5-4.6c0.7-1.4,1.5-2.9,2.5-4.6c0.9-1.6,1.9-3.1,2.8-4.2c1.2-1.4,2-3.1,2.5-4.9
		c0.5-0.7,0.8-1.4,1.1-2.1c0.5-0.9,0.9-1.8,1.4-2.5c0.9-2.1,1.9-4.1,2.8-6c1.2-2.1,2-4.4,2.5-6.7c0.5-0.9,0.7-1.4,0.7-1.4
		c1.2-1.4,2.2-2.8,3.2-4.2c0.9-1.7,2-3.3,3.2-5c0.7-1.2,1.4-2.2,2.1-3.2c0.9-1.2,1.8-2.4,2.5-3.5c0.2-0.7,0.8-1.5,1.8-2.5
		c1.2-1.2,2.4-2.4,3.5-3.5c1.4-1.2,2.4-2.7,2.8-4.6c0.5-1.4,1.1-2.6,1.8-3.5c0.9-0.9,1.9-1.8,2.8-2.5c0.5-0.5,0.9-0.8,1.4-1.1
		c0.5-0.5,0.9-0.9,1.4-1.4c1.9-1.6,3.8-3.3,5.7-4.9c1.9-1.9,3.9-3.5,6-4.9c2.4-1.2,4.6-2.5,6.7-3.9c2.1-1.6,4.4-3.2,6.7-4.6
		C540.6,93.6,541.5,92.9,542,92.4z"/>
	<path class="st1" d="M639.8,137.3c-1.6,0-2.9,0.7-3.9,2.1c-0.7,1.2-1.5,2.5-2.5,3.9c-0.7,1.2-1.5,2.4-2.5,3.5
		c-2.1,2.8-4.2,5.7-6.4,8.5c-2.1,2.6-4.2,5.2-6.4,7.8c-1.4,1.9-2.9,3.7-4.6,5.3c-1.4,1.7-2.9,3.3-4.6,5c-1.6,1.9-3.3,3.8-4.9,5.7
		c-1.4,1.7-2.9,3.4-4.6,5.3c-1.2,1.2-2.4,2.5-3.5,3.9c-0.9,1.2-2,2.4-3.2,3.5c-2.8,3.3-6,6.1-9.5,8.5c-3.5,2.1-7.1,4.2-10.6,6.4
		c-1.9,1.4-3.7,1.3-5.3-0.4v-0.4c-0.2-0.2-0.5-0.4-0.7-0.4c0-0.2-0.2-0.6-0.7-1.1c-0.9-1.4-1.7-2.4-2.1-2.8v-0.4
		c-0.7-1.6-1.1-3.4-1.1-5.3c0-1.4,0-2.8,0-4.2s-0.1-2.8-0.4-4.2c-0.5-2.6-0.5-5.1,0-7.4c0.5-2.6,0.8-5.2,1.1-7.8
		c0.2-3.5,2.2-5.4,6-5.7c0.5,0,0.7,0,0.7,0c0-0.2,0.2-0.5,0.7-0.7c1.9-1.6,3.8-3.2,5.7-4.6c1.9-1.6,3.9-3.1,6-4.2
		c1.4-0.9,2.8-1.8,4.2-2.5c1.4-0.9,2.7-2,3.9-3.2c2.6-2.4,4.9-4.7,7.1-7.1c2.1-2.6,4.4-5.2,6.7-7.8c1.9-2.4,3.7-4.7,5.3-7.1
		c1.9-2.4,3.8-4.7,5.7-7.1c0.5-0.7,1.1-1.4,1.8-2.1s1.2-1.5,1.4-2.5c0.5-1.7,1.2-3.1,2.1-4.2c0.9-1.2,1.9-2.4,2.8-3.5
		c0.5-0.9,0.7-1.4,0.7-1.4c1.6-3.1,3.2-6,4.6-8.8c1.4-2.8,3.1-5.7,4.9-8.5c0.5-0.5,0.7-0.9,0.7-1.4c0.5-1.2,0.7-2.2,0.7-3.2
		c0.2-0.9,0.6-2,1.1-3.2c0.7-1.6,0.9-3.1,0.7-4.2c-0.5-1.4-0.7-2.8-0.7-4.2c0.2-1.4,0.2-2.8,0-4.2c-0.2-1.2-0.5-2.4-0.7-3.5
		c-0.2-1.2-0.7-2.4-1.4-3.5c-0.7-1.2-1.5-2.2-2.5-3.2c-0.7-0.9-1.3-2-1.8-3.2c-0.9-1.4-2.1-2.5-3.5-3.2c-1.2-0.7-2.4-1.4-3.5-2.1
		c-1.9-1.2-4-1.6-6.4-1.4c-2.1,0-4.2-0.2-6.4-0.7c-0.9-0.2-2.2,0-3.9,0.7c-4.7,2.1-9.2,5.1-13.4,8.8c-0.9,0.7-1.8,1.5-2.5,2.5
		c-0.7,0.7-1.5,1.4-2.5,2.1c-5.9,4.7-11.2,10.6-15.9,17.7c-3.5,5.4-7,10.8-10.3,16.3c-3.1,5.2-5.9,10.7-8.5,16.6
		c-3.5,7.8-6.7,15.7-9.5,23.7c-3.1,8-5.5,16.3-7.4,24.7c-1.2,5-1.9,9.9-2.1,14.8c-0.2,4.9,0,10,0.7,15.2c0.5,3.8,1.4,7.3,2.8,10.6
		c1.2,3.5,3.2,6.6,6,9.2c1.4,1.2,2.9,2.6,4.6,4.2c1.9,1.9,3.9,3.5,6,5c2.1,1.6,4.2,2.9,6.4,3.9c2.1,0.9,4.1,1.3,6,1.1
		c1.2-0.2,2.1-0.2,2.8,0c0.9,0.2,1.9,0.5,2.8,0.7c0.7,0.2,1.4,0.4,2.1,0.4c0.7,0,1.4,0.1,2.1,0.4c2.1,0,4.2-0.8,6.4-2.5
		c0.7-0.5,1.3-1.1,1.8-1.8c0.7-0.5,1.5-0.8,2.5-1.1c2.1-0.5,4-1.4,5.7-2.8c1.6-1.2,3.1-2.6,4.2-4.2c2.6-3.1,4.9-6,7.1-8.8
		c2.4-2.8,4.5-5.9,6.4-9.2c0.9-1.4,1.7-2.7,2.1-3.9c0.7-1.4,1.5-2.7,2.5-3.9c1.9-2.6,3.7-5.1,5.3-7.4c1.9-2.6,3.8-5.2,5.7-7.8
		c0.2-0.5,0.5-0.8,0.7-1.1c0.2-0.5,0.5-0.9,0.7-1.4c0.5-1.2,1.1-2.5,1.8-3.9c0.7-1.6,1.4-3.1,2.1-4.2c0.5-1.2,0.9-2.1,1.4-2.8
		c0.5-0.9,0.9-1.9,1.4-2.8c0.5-0.7,0.9-1.4,1.4-2.1c0.5-0.7,0.9-1.5,1.4-2.5c0.5-0.9,0.8-1.8,1.1-2.5c0.5-0.9,0.9-2,1.4-3.2
		s0.8-2.4,1.1-3.5c0.2-1.2,0.7-2.4,1.4-3.5C643.1,138.7,642.4,137.3,639.8,137.3z M580,122.5c0.7-1.6,1.3-3.3,1.8-4.9
		c0.5-1.2,1.1-2.4,1.8-3.5c0.7-1.2,1.3-2.4,1.8-3.5c0.5-0.9,0.8-1.8,1.1-2.5c0.2-0.9,0.5-2,0.7-3.2c0.7-3.1,2-5.7,3.9-7.8
		c1.4-1.9,2.7-3.7,3.9-5.3c1.2-1.6,2.4-3.4,3.5-5.3c1.2-1.6,2.2-3.3,3.2-4.9c1.2-1.9,2.5-3.7,3.9-5.3c0.9-1.2,1.9-2.1,2.8-2.8
		c1.2-0.9,2.4-1.9,3.5-2.8c0,0,0.4,0,1.1,0c0,1.4-0.2,2.8-0.7,4.2c-0.5,1.4-0.9,2.8-1.4,4.2c-0.7,2.1-1.5,4.1-2.5,6
		c-0.9,1.9-1.9,3.9-2.8,6c-1.9,4.7-4.4,9.2-7.4,13.4c-3.1,4.2-6.2,8.4-9.5,12.4c-1.6,1.9-3.4,3.7-5.3,5.3c-1.7,1.6-3.4,3.4-5.3,5.3
		C578.8,125.8,579.5,124.1,580,122.5z"/>
	<path class="st1" d="M1073.7,137.3c-1.7,0-2.9,0.7-3.9,2.1c-0.7,1.2-1.5,2.5-2.5,3.9c-0.7,1.2-1.5,2.4-2.5,3.5
		c-2.1,2.8-4.2,5.7-6.4,8.5c-2.1,2.6-4.2,5.2-6.4,7.8c-1.4,1.9-2.9,3.7-4.6,5.3c-1.4,1.7-2.9,3.3-4.6,5c-1.7,1.9-3.3,3.8-4.9,5.7
		c-1.4,1.7-2.9,3.4-4.6,5.3c-1.2,1.2-2.4,2.5-3.5,3.9c-0.9,1.2-2,2.4-3.2,3.5c-2.8,3.3-6,6.1-9.5,8.5c-3.5,2.1-7.1,4.2-10.6,6.4
		c-1.9,1.4-3.7,1.3-5.3-0.4v-0.4c-0.2-0.2-0.5-0.4-0.7-0.4c0-0.2-0.2-0.6-0.7-1.1c-0.9-1.4-1.6-2.4-2.1-2.8v-0.4
		c-0.7-1.6-1.1-3.4-1.1-5.3c0-1.4,0-2.8,0-4.2s-0.1-2.8-0.4-4.2c-0.5-2.6-0.5-5.1,0-7.4c0.5-2.6,0.8-5.2,1.1-7.8
		c0.2-3.5,2.2-5.4,6-5.7c0.5,0,0.7,0,0.7,0c0-0.2,0.2-0.5,0.7-0.7c1.9-1.6,3.8-3.2,5.7-4.6c1.9-1.6,3.9-3.1,6-4.2
		c1.4-0.9,2.8-1.8,4.2-2.5c1.4-0.9,2.7-2,3.9-3.2c2.6-2.4,5-4.7,7.1-7.1c2.1-2.6,4.4-5.2,6.7-7.8c1.9-2.4,3.7-4.7,5.3-7.1
		c1.9-2.4,3.8-4.7,5.7-7.1c0.5-0.7,1.1-1.4,1.8-2.1c0.7-0.7,1.2-1.5,1.4-2.5c0.5-1.7,1.2-3.1,2.1-4.2c0.9-1.2,1.9-2.4,2.8-3.5
		c0.5-0.9,0.7-1.4,0.7-1.4c1.6-3.1,3.2-6,4.6-8.8s3.1-5.7,4.9-8.5c0.5-0.5,0.7-0.9,0.7-1.4c0.5-1.2,0.7-2.2,0.7-3.2
		c0.2-0.9,0.6-2,1.1-3.2c0.7-1.6,1-3.1,0.7-4.2c-0.5-1.4-0.7-2.8-0.7-4.2c0.2-1.4,0.2-2.8,0-4.2c-0.2-1.2-0.5-2.4-0.7-3.5
		c-0.2-1.2-0.7-2.4-1.4-3.5c-0.7-1.2-1.5-2.2-2.5-3.2c-0.7-0.9-1.3-2-1.8-3.2c-0.9-1.4-2.1-2.5-3.5-3.2c-1.2-0.7-2.4-1.4-3.5-2.1
		c-1.9-1.2-4-1.6-6.4-1.4c-2.1,0-4.2-0.2-6.4-0.7c-0.9-0.2-2.2,0-3.9,0.7c-4.7,2.1-9.2,5.1-13.4,8.8c-0.9,0.7-1.8,1.5-2.5,2.5
		c-0.7,0.7-1.5,1.4-2.5,2.1c-5.9,4.7-11.2,10.6-15.9,17.7c-3.5,5.4-7,10.8-10.2,16.3c-3.1,5.2-5.9,10.7-8.5,16.6
		c-1.7,3.8-3.4,7.6-4.9,11.5c-1.8,1.3-3.6,2.8-5.2,4.4c-3.1,2.6-5.9,5.4-8.5,8.5c-2.6,2.8-5.5,5.3-8.8,7.4c-2.6,1.9-5.1,3.8-7.4,5.7
		c-2.1,1.9-4.5,3.8-7.1,5.7c-2.6,1.6-4.8,2.8-6.7,3.5c-1.4,0.5-2.2,0.7-2.5,0.7c0.2-1.4,0.5-2.7,0.7-3.9s0.4-2,0.4-2.5
		c0.5-2.1,0.9-4.1,1.4-6c0.5-2.1,0.8-4.2,1.1-6.4c0.9-7.5,2.4-15.6,4.2-24c2.1-8.5,2.9-17.6,2.5-27.2c-0.5-1.9-0.9-3.3-1.4-4.2
		c-1.2-1.9-2.6-3.3-4.2-4.2c-1.4-0.9-2.9-1.9-4.6-2.8c-3.3-1.9-7.1-2.5-11.3-1.8l-8.5,1.1c-4.2,0-7.8,1.1-10.6,3.2
		c-2.6,1.9-4.8,3.8-6.7,5.7c-0.9,1.2-1.8,2.2-2.5,3.2c-0.7,0.9-1.6,1.9-2.8,2.8c-3.5,3.3-6.8,7-9.9,11c-3.1,3.8-5.9,7.7-8.5,11.7
		c-1.4,2.6-2.9,4.5-4.6,5.7v-1.1c0.9-3.5,1.5-7.1,1.8-10.6c0.5-3.5,0.9-7.1,1.4-10.6c0.5-3.3-0.6-5.7-3.2-7.1
		c-1.2-0.9-2.2-2-3.2-3.2c-0.7-1.2-1.4-2.4-2.1-3.5c-0.5-1.2-1.4-1.9-2.8-2.1c-1.4,0-2.1-0.6-2.1-1.8c0.2-1.4,0.1-2.2-0.4-2.5
		c-0.2-0.5-1.1-0.6-2.5-0.4c-0.5,0-0.9,0.2-1.4,0.7c-0.5,0.2-0.9,0.1-1.4-0.4c-0.5-0.7-0.9-0.9-1.4-0.7c-0.5,0-0.9,0.1-1.4,0.4
		c-0.5,0.5-0.9,0.9-1.4,1.4c-0.5,0.2-0.9,0.4-1.4,0.4l-5.4,17.4c-4.4,1.8-8.7,3.7-13.1,5.5c-6.1,2.4-12.1,5.2-18,8.5
		c-1.6,0.9-3.3,1.9-4.9,2.8c-1.6,0.7-3.4,1.5-5.3,2.5c-2.1,1.2-4.2,2.5-6.4,3.9c-2.1,1.4-4.4,2.7-6.7,3.9v-9.5V114
		c-0.5-4-1.5-7.8-3.2-11.3c-1.2-2.6-2.5-4.9-3.9-7.1c-1.4-2.4-2.7-4.8-3.9-7.4c-0.9-1.6-2.5-3.1-4.6-4.2c-1.7-0.9-3.3-1.8-4.9-2.5
		c-1.4-0.7-2.9-1.5-4.6-2.5c-1.4-0.9-3.2-1.2-5.3-0.7c-4.2,0.7-8,2.2-11.3,4.6c-3.1,2.4-6,4.9-8.8,7.8c-3.3,3.5-6.2,7.4-8.8,11.7
		c-2.6,4-4.9,8.2-7.1,12.7c-0.2,0.5-0.7,1.1-1.4,1.8v1.4c0,0-0.6,1.4-1.8,4.2c-1.2,2.8-2.6,6.6-4.2,11.3c-1.7,4.5-3.4,9.9-5.3,16.3
		c-1.9,6.1-3.7,12.7-5.3,19.8v1.4c-0.5,4-0.4,7.9,0.4,11.7c0.7,3.5,2,7,3.9,10.3c0.5,0.9,0.9,1.8,1.4,2.5c0.2,0.7,0.6,1.5,1.1,2.5
		c2.1,6.1,6.4,10.5,12.7,13.1c0.5,0.2,0.8,0.4,1.1,0.4c0.5,0.2,0.9,0.6,1.4,1.1c2.1,0.9,4.1,1.9,6,2.8c2.1,1.2,4.4,2,6.7,2.5
		c1.4,0.2,2.8,0.5,4.2,0.7c1.6,0.5,3.2,0.5,4.6,0c2.4-0.5,4.6-1.3,6.7-2.5c2.4-0.9,4.5-2.2,6.4-3.9c1.2-1.2,2.2-2.5,3.2-3.9
		c1.2-1.2,2-2.7,2.5-4.6c0-0.9,0.5-1.4,1.4-1.4c1.2-0.2,1.9-0.6,2.1-1.1c0.2-0.7,0.5-1.5,0.7-2.5c1.2-4.7,2.7-9.2,4.6-13.4
		c1.9-4.2,3.4-8.6,4.6-13.1c1.2-4.2,2.4-8.5,3.5-12.7c1.2-4.5,2.1-8.8,2.8-13.1c0.5-0.5,1.2-0.9,2.1-1.4c2.1-0.9,4.1-2.1,6-3.5
		c2.1-1.4,4.1-2.9,6-4.6c3.3-2.6,6.7-5.1,10.3-7.4c3.8-2.4,7.5-4.6,11.3-6.7c4-2.4,7.9-4.4,11.7-6c1.8-0.8,3.5-1.8,5.2-2.8
		l-9.3,29.7c-0.5,1.9-1.1,3.8-1.8,5.7s-1.3,3.8-1.8,5.7c-1.4,4.2-2.4,8.6-2.8,13.1c-0.7,4.2-1.5,8.6-2.5,13.1
		c-1.2,4.5-1.4,8.7-0.7,12.7c0.2,1.9,0.7,3.5,1.4,4.9c0.5,1.4,1.5,2.6,3.2,3.5c1.2,0.7,2.1,1.6,2.8,2.8l1.8,1.8
		c2.1,1.2,4.7,1.5,7.8,1.1c3.1-0.5,5.5-1.6,7.4-3.5s3.5-3.8,4.9-5.7c1.7-2.1,3.3-4.1,5-6c1.2-1.9,2.2-3.7,3.2-5.3
		c1.2-1.6,2.4-3.4,3.5-5.3c1.2-2.1,2.6-4,4.2-5.7c1.9-1.9,3.5-3.9,4.9-6c1.9-2.1,3.7-4.2,5.3-6.4c1.6-2.4,3.1-4.8,4.2-7.4
		c0.9-3.1,2.7-5.9,5.3-8.5c1.2-1.4,2.2-2.8,3.2-4.2c1.2-1.7,2.4-3.2,3.5-4.6c1.2-1.9,2.4-3.7,3.5-5.3c1.2-1.9,2.5-3.7,3.9-5.3
		c2.8-2.8,5.3-6,7.4-9.5c0.9-1.4,1.9-2.8,2.8-4.2c0.9-1.7,2.2-3.1,3.9-4.2c0.2,0.9,0.1,2.1-0.4,3.5c-0.5,1.9-0.8,3.9-1.1,6
		c-0.2,1.9-0.4,3.9-0.4,6v2.5c-0.5,2.8-1.1,5.7-1.8,8.5c-0.5,2.8-0.7,4.8-0.7,6c-0.5,1.9-0.8,3.8-1.1,5.7c0,1.9-0.1,3.8-0.4,5.7
		c-0.2,1.7-0.5,3.3-0.7,5c0,1.4,0.2,2.9,0.7,4.6c0.2,1.2,0.4,2.2,0.4,3.2c0.2,0.9,0.6,1.9,1.1,2.8c1.2,3.3,2.7,6.4,4.6,9.2
		c2.1,2.6,4.8,4.6,8.1,6c1.2,0.5,2.7,0.9,4.6,1.4c1.7,0.5,3.2,0.7,4.6,0.7s2.7-0.6,3.9-1.8c0.2-0.2,0.5-0.4,0.7-0.4s0.5-0.1,0.7-0.4
		c2.4-1.2,4.6-2.4,6.7-3.5c2.4-1.4,4.5-3.2,6.4-5.3c0.5-0.5,0.9-0.9,1.4-1.4s0.9-0.9,1.4-1.4c2.6-2.6,5.1-5.2,7.4-7.8
		c2.4-2.6,4.7-5.3,7.1-8.1c2.1-2.6,4.3-5.1,6.7-7.7c-1.4,4.5-2.6,9.1-3.6,13.7c-1.2,5-1.9,9.9-2.1,14.8c-0.2,4.9,0,10,0.7,15.2
		c0.5,3.8,1.4,7.3,2.8,10.6c1.2,3.5,3.2,6.6,6,9.2c1.4,1.2,2.9,2.6,4.6,4.2c1.9,1.9,3.9,3.5,6,5c2.1,1.6,4.2,2.9,6.4,3.9
		c2.1,0.9,4.1,1.3,6,1.1c1.2-0.2,2.1-0.2,2.8,0c0.9,0.2,1.9,0.5,2.8,0.7c0.7,0.2,1.4,0.4,2.1,0.4c0.7,0,1.4,0.1,2.1,0.4
		c2.1,0,4.2-0.8,6.4-2.5c0.7-0.5,1.3-1.1,1.8-1.8c0.7-0.5,1.5-0.8,2.5-1.1c2.1-0.5,4-1.4,5.7-2.8c1.7-1.2,3.1-2.6,4.2-4.2
		c2.6-3.1,5-6,7.1-8.8c2.4-2.8,4.5-5.9,6.4-9.2c0.9-1.4,1.7-2.7,2.1-3.9c0.7-1.4,1.5-2.7,2.5-3.9c1.9-2.6,3.7-5.1,5.3-7.4
		c1.9-2.6,3.8-5.2,5.7-7.8c0.2-0.5,0.5-0.8,0.7-1.1c0.2-0.5,0.5-0.9,0.7-1.4c0.5-1.2,1.1-2.5,1.8-3.9c0.7-1.6,1.4-3.1,2.1-4.2
		c0.5-1.2,0.9-2.1,1.4-2.8c0.5-0.9,0.9-1.9,1.4-2.8c0.5-0.7,0.9-1.4,1.4-2.1c0.5-0.7,0.9-1.5,1.4-2.5c0.5-0.9,0.8-1.8,1.1-2.5
		c0.5-0.9,0.9-2,1.4-3.2s0.8-2.4,1.1-3.5c0.2-1.2,0.7-2.4,1.4-3.5C1077,138.7,1076.3,137.3,1073.7,137.3z M1014,122.5
		c0.7-1.6,1.3-3.3,1.8-4.9c0.5-1.2,1.1-2.4,1.8-3.5c0.7-1.2,1.3-2.4,1.8-3.5c0.5-0.9,0.8-1.8,1.1-2.5c0.2-0.9,0.5-2,0.7-3.2
		c0.7-3.1,2-5.7,3.9-7.8c1.4-1.9,2.7-3.7,3.9-5.3c1.2-1.6,2.4-3.4,3.5-5.3c1.2-1.6,2.2-3.3,3.2-4.9c1.2-1.9,2.5-3.7,3.9-5.3
		c0.9-1.2,1.9-2.1,2.8-2.8c1.2-0.9,2.4-1.9,3.5-2.8c0,0,0.3,0,1.1,0c0,1.4-0.2,2.8-0.7,4.2c-0.5,1.4-0.9,2.8-1.4,4.2
		c-0.7,2.1-1.5,4.1-2.5,6c-0.9,1.9-1.9,3.9-2.8,6c-1.9,4.7-4.4,9.2-7.4,13.4c-3.1,4.2-6.2,8.4-9.5,12.4c-1.6,1.9-3.4,3.7-5.3,5.3
		c-1.6,1.6-3.4,3.4-5.3,5.3C1012.8,125.8,1013.5,124.1,1014,122.5z M762.6,114.7c-0.2,1.4-0.4,2.7-0.4,3.9c-0.2,2.6-0.5,5.3-0.7,8.1
		c0,2.8-0.4,5.5-1.1,8.1c-0.5,2.8-1.2,5.7-2.1,8.5c-0.7,2.8-1.5,5.5-2.5,8.1c-0.7,2.1-1.4,4.2-2.1,6.4c-0.7,1.9-0.8,3.9-0.4,6
		c0,0.7-0.2,1.5-0.7,2.5c-0.9,2.4-1.4,4.1-1.4,5.3c-0.2,1.4-0.7,2.7-1.4,3.9c-0.7,0.9-1.4,2-2.1,3.2c-1.2,1.7-2.4,3.3-3.5,5
		c-1.2,1.6-2.6,3.1-4.2,4.2c-2.1,2.1-3.7,1.6-4.6-1.4c-1.2-4-1.9-8-2.1-12c0-1.7,0.1-2.8,0.4-3.5c0.5-1.9,0.9-3.7,1.4-5.3
		s0.9-3.4,1.4-5.3c0.5-1.9,0.9-3.5,1.4-4.9c0.7-1.7,1.3-3.4,1.8-5.3c0.5-1.9,1.1-3.7,1.8-5.3c0.9-1.9,1.7-3.8,2.1-5.7
		c1.2-3.1,2.5-5.9,3.9-8.5c1.4-2.8,2.8-5.7,4.2-8.5c1.2-2.4,2.4-4.5,3.5-6.4c1.4-1.9,3.3-3.4,5.7-4.6c0.5-0.5,0.9-0.6,1.4-0.4
		C762.7,112,762.8,113.3,762.6,114.7z"/>
</g>
</svg>
