<svg width="190" height="55" viewBox="0 0 190 55" fill="none" xmlns="http://www.w3.org/2000/svg">
<path d="M24.6867 55L23.2412 53.8954C22.8609 53.6288 21.0731 52.2576 19.8939 51.2673C14.036 50.6579 8.97698 48.2964 5.62963 44.6018C2.43443 41.0976 0.836837 36.5651 0.836837 31.1565C0.836837 29.2902 1.55956 26.0526 2.35836 22.5866C2.85285 20.3774 3.4995 17.597 3.4995 16.7209C3.34735 16.0353 2.13013 13.0263 0.608609 9.90305L0 8.60803L5.02102 1.56163L8.33033 2.70429C10.5746 3.27562 12.971 3.77078 15.2913 3.77078C17.8779 3.77078 20.1221 3.12327 22.0621 1.75208L24.6867 0L27.2733 1.75208C29.2513 3.12327 31.4575 3.77078 34.0821 3.77078C36.4404 3.77078 38.7988 3.27562 41.043 2.70429L44.3524 1.56163L49.3734 8.64612L48.7648 9.90305C47.2432 13.0263 46.026 16.0353 45.8739 16.7209C45.9119 17.635 46.5205 20.4155 47.0531 22.6247C47.8138 26.0907 48.5746 29.3283 48.5746 31.1565C48.5746 36.527 46.9389 41.0976 43.7437 44.6399C40.3964 48.3345 35.3373 50.696 29.4795 51.3054C28.1862 52.3719 26.1702 53.8954 26.1321 53.9335L24.6867 55Z" fill="#D3D4D4"/>
<path d="M47.9281 8.72232L43.8961 3.04711L41.4236 3.88506C39.0652 4.45639 36.5928 4.98963 34.0822 4.98963C31.2294 4.98963 28.7569 4.26594 26.5888 2.7424L24.6868 1.48547L22.823 2.78049C20.6548 4.30403 18.1823 5.02772 15.3295 5.02772C12.857 5.02772 10.3465 4.49448 7.98815 3.92315L5.51568 3.04711L1.48364 8.7604L1.78795 9.36982C3.19535 12.3026 4.75491 15.9211 4.79295 16.6448C4.79295 17.6351 4.18434 20.3013 3.61377 22.8913C2.89105 26.1288 2.13029 29.4806 2.13029 31.1946C2.13029 36.2604 3.65181 40.4882 6.61878 43.802C9.81397 47.3442 14.7209 49.5914 20.4646 50.0866C21.6438 51.115 23.9641 52.829 24.0782 52.9051L24.7629 53.4003L25.4476 52.9051C25.5617 52.829 27.844 51.0769 29.0612 50.0866C34.7669 49.5914 39.6738 47.3442 42.9071 43.802C45.9121 40.4882 47.3956 36.2604 47.3956 31.1946C47.3956 29.5187 46.6348 26.1669 45.9121 22.9294C45.3415 20.3394 44.7329 17.6351 44.7329 16.6448C44.7709 15.883 46.3305 12.2646 47.7379 9.33173L47.9281 8.72232Z" fill="#0D2A3A"/>
<path d="M62.9529 36.0319H65.6536L67.6316 41.5547L69.6095 36.0319H72.2722L68.7347 44.8303H66.4904L62.9529 36.0319Z" fill="#0D2A3A"/>
<path d="M76.1902 40.4121C76.1902 37.8982 78.2062 35.8414 80.9069 35.8414C83.6076 35.8414 85.5856 37.8601 85.5856 40.3359V40.374C85.5856 42.8878 83.5696 44.9065 80.8689 44.9065C78.1682 44.9446 76.1902 42.9259 76.1902 40.4121ZM83.1131 40.4121C83.1131 39.1171 82.2002 38.0506 80.8689 38.0506C79.5375 38.0506 78.6627 39.1171 78.6627 40.374V40.4121C78.6627 41.669 79.5756 42.7736 80.9069 42.7736C82.2002 42.7736 83.1131 41.669 83.1131 40.4121Z" fill="#0D2A3A"/>
<path d="M90.8728 36.0319H93.2692V42.6593H97.4914V44.7923H90.8728V36.0319Z" fill="#0D2A3A"/>
<path d="M103.159 36.0319H105.555V42.6593H109.778V44.7923H103.159V36.0319Z" fill="#0D2A3A"/>
<path d="M115.407 36.0319H122.406V38.0886H117.804V39.4218H121.988V41.3262H117.804V42.6974H122.483V44.7542H115.407V36.0319Z" fill="#0D2A3A"/>
<path d="M130.851 41.5166L127.542 36.0699H130.28L132.068 39.2313L133.856 36.0699H136.557L133.247 41.4785V44.7922H130.851V41.5166Z" fill="#0D2A3A"/>
<path d="M141.806 36.0319H146.256C147.359 36.0319 148.12 36.2985 148.614 36.8317C148.957 37.1745 149.185 37.6316 149.185 38.241V38.2791C149.185 39.2694 148.614 39.8788 147.854 40.2216C148.919 40.5644 149.565 41.1738 149.565 42.3546V42.3927C149.565 43.8781 148.348 44.7923 146.256 44.7923H141.768V36.0319H141.806ZM145.647 39.536C146.37 39.536 146.789 39.2694 146.789 38.7742V38.7362C146.789 38.2791 146.408 37.9744 145.685 37.9744H144.126V39.4979H145.647V39.536ZM145.99 42.8116C146.713 42.8116 147.131 42.5069 147.131 42.0118V41.9737C147.131 41.5166 146.751 41.1738 145.952 41.1738H144.126V42.7736H145.99V42.8116Z" fill="#0D2A3A"/>
<path d="M158.048 35.9938H160.368L164.058 44.7923H161.471L160.825 43.2306H157.477L156.869 44.7923H154.32L158.048 35.9938ZM160.14 41.3262L159.151 38.8504L158.162 41.3262H160.14Z" fill="#0D2A3A"/>
<path d="M169.231 36.0319H171.628V42.6593H175.85V44.7923H169.231V36.0319Z" fill="#0D2A3A"/>
<path d="M181.518 36.0319H183.914V42.6593H188.136V44.7923H181.518V36.0319Z" fill="#0D2A3A"/>
<path d="M64.4744 28.2618C63.029 27.4619 61.8878 26.3573 61.089 24.91C60.2902 23.5007 59.8718 21.901 59.8718 20.1489C59.8718 18.1683 60.3663 16.4162 61.3173 14.9308C62.2682 13.4453 63.5996 12.2645 65.2352 11.4647C66.9089 10.6648 68.7347 10.2458 70.7507 10.2458C71.5495 10.2458 72.3103 10.2839 72.995 10.3982C73.6796 10.5125 74.4024 10.6648 75.1631 10.8934V14.8546L75.087 14.8927C74.4024 14.4356 73.6036 14.0547 72.6907 13.75C71.8158 13.4834 70.9029 13.331 69.99 13.331C68.9249 13.331 67.9359 13.5977 67.061 14.169C66.1861 14.7403 65.5015 15.5021 65.007 16.4543C64.5125 17.4446 64.2462 18.5492 64.2462 19.768C64.2462 20.9488 64.4744 22.0533 64.9689 23.0055C65.4634 23.9578 66.1101 24.7576 66.9849 25.2909C67.8218 25.8622 68.8108 26.1288 69.8378 26.1288C70.9789 26.1288 72.082 25.9384 73.071 25.5194C74.06 25.1385 74.8969 24.6053 75.5435 23.9197L75.6196 23.9578L75.4294 27.9952C73.7557 28.9474 71.7777 29.4044 69.4574 29.4044C67.5936 29.4806 65.9199 29.0616 64.4744 28.2618Z" fill="#0D2A3A"/>
<path d="M79.3091 26.8144C79.4233 26.0145 79.4993 25.0242 79.4993 23.8816V15.883C79.4993 14.7403 79.4233 13.75 79.3091 12.9501C79.195 12.1503 78.9668 11.3123 78.6625 10.5125H84.3682C84.0639 11.3504 83.8357 12.1503 83.7216 12.9501C83.6074 13.75 83.5314 14.7403 83.5314 15.883V26.205C84.7486 26.0907 86.0799 25.8241 87.4493 25.4432C88.8567 25.0623 89.9218 24.6814 90.6825 24.2244L90.7206 24.2625L88.6665 29.214H78.5864C78.9288 28.4141 79.157 27.6143 79.3091 26.8144Z" fill="#0D2A3A"/>
<path d="M124.08 21.2154C124.575 21.939 124.841 22.777 124.841 23.7292C124.841 24.7957 124.498 25.7479 123.852 26.5859C123.205 27.4238 122.33 28.0713 121.227 28.5284C120.124 28.9854 118.907 29.214 117.614 29.214H111.832C112.136 28.376 112.364 27.5762 112.478 26.7763C112.593 25.9764 112.669 24.9861 112.669 23.8435V15.8449C112.669 14.7022 112.593 13.7119 112.478 12.912C112.364 12.1122 112.136 11.2742 111.832 10.4744H117.537C118.793 10.4744 119.934 10.7029 120.885 11.1219C121.836 11.5408 122.597 12.1503 123.129 12.912C123.662 13.6738 123.928 14.5118 123.928 15.5021C123.928 16.2258 123.738 16.9113 123.357 17.5208C122.977 18.1683 122.406 18.7015 121.722 19.1967C122.787 19.8061 123.586 20.4917 124.08 21.2154ZM116.701 19.1205C117.69 18.892 118.45 18.473 119.021 17.8636C119.592 17.2161 119.896 16.5305 119.896 15.7306C119.896 15.1974 119.744 14.7022 119.439 14.2451C119.135 13.7881 118.717 13.4072 118.222 13.1025C117.728 12.7978 117.233 12.6835 116.701 12.6835V19.1205ZM118.793 26.5859C119.401 26.2812 119.896 25.8622 120.238 25.3289C120.581 24.7957 120.771 24.2625 120.771 23.653C120.771 22.6627 120.39 21.7867 119.63 20.9868C118.869 20.2251 117.918 19.6918 116.701 19.5014V27.0429C117.499 27.0429 118.184 26.8906 118.793 26.5859Z" fill="#0D2A3A"/>
<path d="M148.386 11.4266C149.946 12.1884 151.163 13.2929 152.076 14.7022C152.989 16.1115 153.446 17.7493 153.446 19.5395C153.446 21.4439 152.989 23.1198 152.076 24.6434C151.163 26.1669 149.946 27.3477 148.348 28.1856C146.789 29.0236 145.039 29.4425 143.137 29.4425C141.121 29.4425 139.371 28.9855 137.85 28.1094C136.328 27.2334 135.149 26.0526 134.312 24.6053C133.476 23.1579 133.057 21.5963 133.057 19.9585C133.057 18.1683 133.514 16.5686 134.388 15.045C135.301 13.5596 136.519 12.3788 138.078 11.4647C139.638 10.5887 141.349 10.1316 143.213 10.1316C145.115 10.2459 146.827 10.6267 148.386 11.4266ZM140.056 14.0928C139.295 14.5499 138.687 15.1974 138.23 16.0353C137.774 16.8733 137.546 17.8636 137.546 18.9301C137.546 20.2251 137.812 21.4058 138.382 22.5485C138.915 23.6912 139.714 24.6053 140.665 25.2909C141.654 25.9765 142.757 26.3193 144.05 26.3193C145.039 26.3193 145.914 26.0526 146.675 25.5575C147.436 25.0623 148.044 24.3767 148.463 23.5007C148.881 22.6247 149.109 21.7105 149.109 20.6821C149.109 19.3871 148.805 18.2064 148.234 17.1018C147.664 15.9972 146.865 15.0831 145.838 14.4356C144.849 13.7881 143.746 13.4453 142.529 13.4453C141.654 13.4072 140.817 13.6357 140.056 14.0928Z" fill="#0D2A3A"/>
<path d="M173.72 23.1198C173.72 24.4148 173.796 25.5194 173.91 26.4716C174.024 27.4238 174.214 28.3379 174.442 29.214H169.041C168.927 28.6807 168.47 27.8809 167.634 26.7001L161.129 17.635V23.0817C161.129 24.491 161.205 25.6336 161.319 26.5097C161.433 27.3857 161.662 28.2999 161.966 29.214H156.488C156.793 28.2999 157.021 27.3857 157.135 26.5097C157.249 25.6336 157.325 24.491 157.325 23.0817V13.2929C156.831 12.6835 156.412 12.1884 156.032 11.8075C155.652 11.4266 155.195 11.0076 154.701 10.5886V10.5125H161.091C161.243 11.0076 161.433 11.4647 161.662 11.8836C161.89 12.3026 162.308 12.912 162.879 13.75L169.954 23.6149V16.6066C169.954 15.2354 169.878 14.0928 169.764 13.2167C169.65 12.3407 169.421 11.4266 169.117 10.5125H174.595C174.252 11.4266 174.024 12.3407 173.91 13.2167C173.796 14.0928 173.72 15.2354 173.72 16.6066V23.1198Z" fill="#0D2A3A"/>
<path d="M178.322 26.8144C178.436 26.0145 178.512 25.0242 178.512 23.8816V15.883C178.512 14.7403 178.436 13.75 178.322 12.9501C178.208 12.1503 177.98 11.3123 177.675 10.5125H189.049L187.147 14.626C185.93 13.7881 184.408 13.3691 182.544 13.2929V18.2444H188.44L186.234 21.9771C185.245 21.482 184.028 21.2154 182.582 21.1392V26.2431C184.066 26.2431 185.397 26.1288 186.538 25.9003C187.717 25.6717 188.858 25.2908 189.962 24.7957L190 24.8338L188.212 29.2521H177.675C177.98 28.4141 178.208 27.6143 178.322 26.8144Z" fill="#0D2A3A"/>
<path d="M100.535 29.4044C103.73 29.4044 106.507 28.0332 107.267 26.1669C107.762 24.9861 108.028 23.5388 108.028 21.7486V15.883C108.028 14.7403 108.104 13.75 108.218 12.9501C108.332 12.1503 108.561 11.3123 108.865 10.5125H103.159C103.464 11.3504 103.692 12.1503 103.806 12.9501C103.92 13.75 103.996 14.7403 103.996 15.883V21.8248C103.996 22.3961 103.958 22.8913 103.844 23.3483C103.768 23.653 103.616 23.9577 103.464 24.2244C103.121 24.7957 102.665 25.2528 102.056 25.5575C101.562 25.8241 101.067 25.8622 100.497 25.9003C99.964 25.8622 99.4315 25.8241 98.937 25.5575C98.3664 25.2528 97.91 24.7957 97.5296 24.2244C97.3774 23.9577 97.2253 23.653 97.1492 23.3483C97.0731 22.8913 96.997 22.3961 96.997 21.8248V15.883C96.997 14.7403 97.0731 13.75 97.1872 12.9501C97.3014 12.1503 97.5296 11.3123 97.8339 10.5125H92.1282C92.4325 11.3504 92.6607 12.1503 92.7748 12.9501C92.8889 13.75 92.965 14.7403 92.965 15.883V21.7867C92.965 23.5769 93.2693 25.0242 93.7258 26.205C94.5626 28.0713 97.3394 29.4044 100.535 29.4044Z" fill="#0D2A3A"/>
<path d="M24.2682 26.243L23.9639 27.0048L24.7627 27.2333C29.5555 28.6426 33.7396 29.1378 35.7937 29.2901L36.2502 29.3282L36.4784 28.9092C38.3803 25.4432 40.5865 22.5484 42.9449 20.0727C42.6405 18.5872 42.4123 17.3684 42.4123 16.6066C42.4123 15.3116 44.2762 11.198 45.3412 8.95079L43.097 5.78943C31.3052 11.8074 25.8658 22.5103 24.2682 26.243Z" fill="#2F5785"/>
<path d="M25.3334 4.64676L24.7248 4.22778L24.1162 4.64676C22.4425 5.78942 20.6547 6.55119 18.6768 6.93208L20.2744 11.8455L28.1102 11.9217L21.8339 16.9494L23.6978 23.2721C25.8279 19.0443 30.0882 12.1883 37.5817 7.00825C36.4405 7.1987 35.2613 7.27487 34.0822 7.27487C30.7729 7.27487 27.882 6.39884 25.3334 4.64676Z" fill="#2F5785"/>
<path d="M10.0801 19.5775C10.0801 19.5775 11.3734 20.7202 12.2482 21.3296L13.4655 17.0256L7.18919 12.0741L14.987 11.8836L16.4705 7.2368C16.0901 7.27489 15.7097 7.27489 15.2913 7.27489C12.5526 7.27489 9.88989 6.70356 7.37938 6.09414L7.3033 6.05605L6.35235 5.71326L4.07007 8.95079C4.83083 10.5886 6.04805 13.2167 6.65666 15.045C6.69469 15.1212 6.73273 15.1592 6.77077 15.2354C7.34134 16.6447 8.74875 18.3587 10.0801 19.5775Z" fill="#2F5785"/>
<path d="M14.3403 22.7389C16.5085 24.072 18.9429 25.2527 21.6436 26.243L22.2903 26.4716L22.5565 25.8241C22.7467 25.4051 22.9369 24.8719 23.2032 24.3005L17.6496 20.225L14.3403 22.7389Z" fill="#2F5785"/>
<path d="M43.6677 23.3864C43.5916 22.9675 43.4775 22.5866 43.4014 22.2057C41.2713 24.5672 39.4455 27.1191 38 29.8234L37.8098 30.2043L38.038 30.5471C39.027 32.1468 40.967 35.7652 42.2222 41.0215C44.1622 38.3172 45.1131 35.0797 45.1131 31.1565C45.0751 29.7092 44.3143 26.3574 43.6677 23.3864Z" fill="#A51E24"/>
<path d="M36.4784 31.4232L36.2883 31.1184L35.9079 31.0804C33.5495 30.928 27.6536 30.2805 21.3393 28.0333C21.4915 28.4522 21.6056 28.9474 21.6056 29.4425C21.6056 30.0139 21.5675 30.5852 21.4915 31.0804C21.4534 31.2708 21.4534 31.4612 21.4534 31.6136C21.4534 31.6898 21.4154 31.766 21.4154 31.8802C21.3773 32.0326 21.3393 32.1849 21.3013 32.3373C22.1761 32.4515 22.7087 33.0991 22.9369 33.3657C23.0891 33.518 23.2032 33.7085 23.3173 33.8608C24.8008 32.7943 27.007 32.8324 28.3763 33.937C29.3653 34.7369 29.7457 35.8795 29.3653 37.0222C29.3653 37.0603 29.3653 37.0603 29.3273 37.0984C29.3653 37.0603 29.4034 36.9841 29.4414 36.946C30.5825 35.3082 31.8758 34.0894 33.3974 33.2895C34.8808 32.4896 36.3643 32.4896 37.5055 33.2514C37.049 32.4135 36.7067 31.804 36.4784 31.4232Z" fill="#EFAF1E"/>
<path d="M6.35229 34.813C5.70565 34.356 5.059 33.8608 4.41235 33.3657C4.60254 35.1558 5.02096 36.7936 5.66761 38.2791C5.70565 36.9841 5.97191 35.8414 6.35229 34.813Z" fill="#EFAF1E"/>
<path d="M13.3517 33.7465C12.3627 35.1177 11.716 36.3747 11.2976 37.6316C12.1725 37.0983 12.9332 36.3366 13.656 35.3082C14.3407 34.3179 14.9112 33.2133 15.5198 32.0706C15.71 31.6898 15.9002 31.3089 16.1284 30.928C16.0904 30.928 16.0904 30.9661 16.0524 30.9661C15.0253 31.5755 14.2646 32.5277 13.3517 33.7465Z" fill="#EFAF1E"/>
<path d="M10.879 28.795L11.0311 28.6808C11.944 27.8809 12.895 27.081 14.0742 26.4716C14.7588 26.1288 15.4055 25.8622 16.0141 25.7479C13.8459 24.6434 11.7538 23.3103 9.8139 21.7105C8.67276 20.7583 7.64573 19.768 6.73282 18.7015C6.50459 19.9966 6.12421 21.5963 5.74383 23.3864C5.09719 26.205 4.37446 29.3664 4.33643 30.928C5.24934 31.7279 6.20029 32.4515 7.15124 33.1371C8.2163 31.2708 9.66175 29.8615 10.879 28.795Z" fill="#EFAF1E"/>
<path d="M38.9511 36.6413C38.875 37.4412 38.6088 38.2029 38.0762 38.8124C37.848 39.079 37.6198 39.3456 37.3535 39.6503C37.5437 39.7265 37.6959 39.8407 37.848 39.9931L38.0002 40.1455C38.5327 40.6787 38.6848 41.5547 38.3045 42.2022C38.3045 42.2403 38.2664 42.2784 38.2664 42.3165C38.875 42.2784 39.4076 42.2403 39.826 42.2022L40.6248 42.088L40.4346 41.2881C39.9781 39.536 39.4456 37.9744 38.9511 36.6413Z" fill="#EFAF1E"/>
<path d="M21.3395 47.9155L21.6057 48.1821C22.2904 48.7916 23.8119 49.9723 24.6868 50.6198C25.5617 49.9342 27.0832 48.7916 27.7679 48.1821L28.0342 47.9155H28.2244C27.0832 47.0395 26.3985 45.8587 26.2844 44.6018C25.3335 44.8684 24.4586 44.7161 23.6218 44.1447C22.9371 43.6496 22.4426 42.9259 22.2524 42.088C21.9861 42.3546 21.7199 42.6212 21.4536 42.8878C21.0352 43.2687 20.6548 43.6877 20.2364 44.0686C19.3995 44.9065 17.9921 45.4778 16.6228 44.5637C15.7098 43.9543 15.2153 43.0402 15.2153 42.0499C14.2264 42.8116 13.1613 43.4591 11.9441 43.9924C11.4115 44.2209 10.9551 44.3733 10.5747 44.4114C13.3134 46.392 16.889 47.6108 20.9211 47.9155H21.3395Z" fill="#EFAF1E"/>
<path d="M37.0111 43.9924C36.2884 44.8303 35.5276 45.6683 34.7668 46.4681C36.4786 45.8206 38.0001 44.9827 39.3314 43.9162C38.6848 43.9924 37.924 44.0305 37.0111 43.9924Z" fill="#EFAF1E"/>
<path d="M19.6655 31.4231C18.5244 36.4127 15.9378 40.1835 11.2591 42.3546C9.5474 43.0402 8.48233 41.4404 8.21607 41.0977C7.53138 40.3359 7.37923 39.3837 7.41727 38.3553C7.53138 34.813 9.47132 32.2611 12.0199 30.09C12.9328 29.3283 13.8457 28.4903 14.8727 27.9571C15.9758 27.3857 17.2311 27.0049 18.4863 27.4238C19.2851 27.6905 19.8177 28.4141 19.8177 29.3664C19.8177 30.1281 19.7416 30.8137 19.6655 31.4231ZM17.8397 29.633C17.7256 28.795 17.3452 28.5284 16.5084 28.795C16.0139 28.9474 15.5574 29.214 15.101 29.4806C13.8077 30.3186 12.8567 31.4993 11.9438 32.7182C10.6505 34.5083 9.66151 36.4127 9.28113 38.6219C9.0529 39.9931 9.35721 40.2216 10.6505 39.8026C12.5904 39.1551 13.9978 37.822 15.0629 36.2223C16.2041 34.5083 17.0789 32.6039 18.106 30.8137C18.4103 30.3947 17.8777 29.8615 17.8397 29.633Z" fill="white"/>
<path d="M36.0979 41.4785C35.5654 41.9356 35.0709 42.4688 34.5383 42.8878C33.3972 43.7257 32.218 44.5256 31.0008 45.2874C30.4302 45.6302 30.0118 45.3254 30.0879 44.6779C30.1259 44.1066 30.2781 43.4972 30.4302 42.9259C30.4683 42.7354 30.7345 42.5831 30.9247 42.4688C31.8376 41.9356 32.8647 41.5547 33.6635 40.9072C34.8046 39.9549 35.7936 38.8123 36.7826 37.7077C37.4292 36.9459 37.3532 35.5747 36.7446 34.9272C36.1359 34.2797 35.223 34.2797 34.196 34.813C32.7886 35.5748 31.7235 36.6793 30.8487 37.9362C30.24 38.8123 29.5554 39.4979 28.6425 39.993C27.8437 40.4501 27.0449 40.831 26.208 41.25C26.17 41.1738 26.1319 41.1357 26.0939 41.0595C26.17 40.8691 26.2461 40.6405 26.3221 40.4501C26.7786 39.117 27.235 37.7839 27.6915 36.4508C27.8437 35.9556 27.6535 35.5747 27.2731 35.27C26.4743 34.6225 25.1049 34.6225 24.23 35.3081C23.4312 35.9175 22.6705 36.5651 21.8336 37.2507C21.9097 37.0221 21.9097 36.8317 22.0238 36.6793C22.4803 35.8414 22.214 35.1558 21.6435 34.4702C21.1109 33.8608 20.8447 33.8608 20.4643 34.5464C19.5894 36.1842 18.7526 37.7839 17.9157 39.4217C17.5734 40.1073 17.3452 40.7929 17.1169 41.5166C16.8887 42.1641 17.193 42.6973 17.6875 43.0782C18.182 43.421 18.6765 43.1925 19.0949 42.7735C20.1219 41.7451 21.149 40.7167 22.176 39.7264C23.0889 38.8504 24.0018 38.0124 24.9528 37.1364C24.7245 38.1648 24.4202 39.1551 24.1159 40.1454C23.8116 41.2119 24.0399 42.1641 24.6865 42.6212C25.5994 43.2306 26.3221 42.7354 27.0449 42.2403C27.6535 41.8213 28.224 41.3642 28.8326 40.9072C28.6044 41.7451 28.3001 42.545 28.148 43.3829C27.8817 44.6779 28.4142 45.7444 29.4032 46.4681C29.8597 46.8109 30.5444 47.0394 31.0769 46.9252C31.6855 46.8109 32.3702 46.43 32.8266 45.973C34.0439 44.7541 35.185 43.4591 36.2881 42.1641C36.5163 41.8975 36.6304 41.5547 36.7826 41.25C36.7446 41.2119 36.6685 41.1357 36.6304 41.0976C36.4403 41.288 36.2501 41.3642 36.0979 41.4785ZM32.3702 39.3074C32.9788 37.9743 33.9297 36.8317 35.2991 35.9175C35.3371 35.9175 35.3371 35.9175 35.3752 35.9175C35.4132 35.9175 35.4132 35.9556 35.3752 35.9937C34.7285 37.4792 33.7395 38.6218 32.4082 39.3836H32.3702H32.3321C32.3702 39.3455 32.3702 39.3074 32.3702 39.3074Z" fill="white"/>
<path d="M23.4694 13.5595L19.9319 16.3781L21.2252 20.8345L17.6116 18.1682L14.074 20.8725L15.3293 16.3781L11.7917 13.5976L16.2042 13.4833L17.6116 9.06506L19.057 13.4453L23.4694 13.5595Z" fill="white"/>
</svg>
