<svg width="5" height="14" viewBox="0 0 5 14" fill="none" xmlns="http://www.w3.org/2000/svg">
<path d="M2.476 0.670167C1.558 0.670166 0.784 1.44417 0.784 2.36217C0.784 3.28017 1.558 4.05417 2.476 4.05417C3.394 4.05417 4.168 3.28017 4.168 2.36217C4.168 1.44417 3.394 0.670167 2.476 0.670167ZM2.476 5.52173C1.558 5.52173 0.784 6.29573 0.784 7.21373C0.784 8.13173 1.558 8.90573 2.476 8.90573C3.394 8.90573 4.168 8.13173 4.168 7.21373C4.168 6.29573 3.394 5.52173 2.476 5.52173ZM2.476 10.3733C1.558 10.3733 0.784 11.1473 0.784 12.0653C0.784 12.9833 1.558 13.7573 2.476 13.7573C3.394 13.7573 4.168 12.9833 4.168 12.0653C4.168 11.1473 3.394 10.3733 2.476 10.3733Z" fill="#0D293B"/>
</svg>
