<svg viewBox="0 0 84 82" fill="none" xmlns="http://www.w3.org/2000/svg">
<path d="M30.6624 63.5538C30.5723 63.3196 30.5003 63.1394 30.3742 62.7791C30.2481 63.1394 30.176 63.3016 30.104 63.4817C28.9691 62.8692 27.9422 62.0766 26.8434 61.41C25.186 60.4012 23.4206 59.4285 22.2677 57.8072C21.5111 56.7623 20.4843 55.9156 20.0159 54.6546C19.8898 54.3304 19.4935 54.1142 19.2773 53.808C18.935 53.3396 18.6648 52.8352 18.3586 52.3488C18.3405 52.3128 18.3405 52.2767 18.3225 52.2587C17.2597 51.0337 17.2236 49.5025 17.0795 48.0073C17.0615 47.9172 17.0615 47.7911 17.0075 47.7191C15.9626 46.3319 16.467 44.6746 16.2148 43.1614C16.1788 42.9272 16.3589 42.675 16.413 42.4769C16.2869 42.2427 16.0707 42.0265 16.0527 41.8103C15.7465 39.5405 16.0887 37.2527 15.8726 34.9828C15.8365 34.6586 15.9806 34.2983 16.0887 33.974C16.6111 32.3888 17.1336 30.8035 18.4126 29.5965C18.8269 29.2002 19.1152 28.6598 19.3313 28.1193C19.6736 27.2907 20.2501 26.6602 20.9346 26.1738C21.8353 25.5253 22.5739 24.7326 23.3125 23.94C23.9971 23.2194 24.7537 22.6429 25.6544 22.1926C26.393 21.8143 27.0415 21.2738 27.69 20.7875C28.7349 19.9948 29.7437 19.1842 31.1128 18.95C31.5631 18.8779 31.8514 18.2834 32.4098 18.4276C33.4186 17.707 34.6256 17.8151 35.7605 17.6529C36.319 17.5629 36.7693 17.2026 37.4359 17.4007C37.8862 17.5449 38.4627 17.1666 38.9851 17.0945C40.102 16.9504 41.2369 16.9504 42.3178 17.3827C42.57 17.4908 42.8582 17.4728 43.1284 17.5268C43.5608 17.6169 43.9751 17.725 44.4074 17.8151C44.7497 17.8871 45.074 17.9412 45.4163 18.0132C45.8486 18.1213 46.2629 18.2294 46.6773 18.3555C46.8754 18.4095 47.0736 18.5356 47.2717 18.5176C48.3166 18.4095 49.1633 18.8599 50.064 19.2923C50.4963 19.5084 51.0908 19.4364 51.5051 19.6706C53.7209 20.8595 55.6845 22.4088 57.4499 24.1922C58.4047 25.165 59.3054 26.1918 60.1161 27.3087C60.8006 28.2454 61.5572 29.1281 62.2418 30.1009C63.0884 31.3079 63.6649 32.6049 64.1693 33.956C64.4936 34.8387 65.016 35.6494 65.4483 36.4961C65.7906 37.1446 65.8627 37.8291 65.8086 38.5677C65.7546 39.3423 65.8447 40.117 65.9167 40.8916C66.0068 41.8464 66.2049 42.7831 66.241 43.7199C66.277 44.6206 66.3851 45.5033 65.9167 46.404C65.4663 47.2687 65.3402 48.2955 65.052 49.2323C64.6737 50.4032 64.2774 51.5201 63.5748 52.5649C62.602 54.0241 61.5752 55.4292 60.4223 56.7443C59.7017 57.591 58.6749 58.0954 58.0624 59.0321C57.3598 58.9601 57.1076 59.8068 56.369 59.8428C56.0268 59.8608 55.5584 60.2391 55.1441 60.4733C54.9639 60.5814 54.8198 60.7255 54.6397 60.7795C53.3967 61.0498 52.3158 61.7703 51.1088 62.0946C50.5504 62.2387 49.8838 62.4909 49.2533 62.1486C49.1092 62.0766 48.875 62.1486 48.6769 62.1667C47.3258 62.3108 45.9567 62.4549 44.6056 62.0946C44.1733 61.9865 43.7229 62.0045 43.2725 61.9325C42.5339 61.8064 41.7593 61.8964 41.0748 61.4641C40.8766 61.338 40.5524 61.41 40.2821 61.374C40.0119 61.338 39.7237 61.356 39.4895 61.2479C38.9671 61.0137 38.5167 60.8156 37.8502 60.9056C37.2917 60.9777 36.6612 60.5273 36.0848 60.2391C35.6704 60.0229 35.2741 59.7347 34.9138 59.4285C33.5808 58.3296 32.2837 57.1947 31.2749 55.7895C30.5724 54.8168 29.9599 53.7539 29.4915 52.637C29.1672 51.8444 28.879 51.0517 28.3926 50.3492C27.7621 49.4665 27.6 48.3856 27.3658 47.3768C27.1496 46.386 26.6272 45.4492 26.7533 44.3864C26.7893 44.1522 26.6992 43.882 26.7713 43.6658C27.1316 42.639 26.9875 41.5761 27.0415 40.5313C27.0415 40.3872 27.0235 40.2431 27.0775 40.135C28.0503 38.0273 28.915 35.8656 30.7165 34.2443C31.4551 33.5777 32.0675 32.8031 32.7341 32.0645C32.8061 31.9924 32.8242 31.8663 32.9142 31.8123C34.1572 31.0917 35.3642 30.245 36.6793 29.7226C38.0123 29.1822 39.4535 28.912 40.8586 28.6237C41.7233 28.4616 42.624 28.3355 43.5067 28.7138C44.0291 28.93 44.6597 28.894 45.1821 29.1101C46.1008 29.5065 46.9835 29.9928 47.8482 30.5153C49.3614 31.434 50.7846 32.4788 52.0816 33.7038C53.1264 34.6766 53.6309 35.9196 53.9911 37.2527C54.2794 38.2975 54.5136 39.3784 54.7658 40.4412C54.9279 41.1798 54.7477 42.639 54.4415 43.2695C54.3514 43.4496 54.2794 43.6478 54.2614 43.846C54.1893 45.125 53.6309 46.2058 52.8923 47.1966C52.2978 47.9893 51.6673 48.7459 51.0188 49.4845C50.8026 49.7187 50.4603 49.8448 50.1721 50.0069C47.7942 51.43 45.2721 52.0245 42.5159 51.43C41.9034 51.3039 41.2549 51.2859 40.6244 51.1959C39.6877 51.0698 39.0031 50.5653 38.4267 49.8268C37.7061 48.908 36.9855 48.0073 36.5351 46.9264C36.1748 46.0617 35.8506 45.161 35.7245 44.2423C35.5984 43.3416 35.7425 42.4048 35.7785 41.468C35.8326 40.4052 36.2469 39.5045 37.0395 38.7299C37.9222 37.8652 38.9851 37.5409 40.4263 37.9372C40.2461 38.1714 40.138 38.4056 39.9579 38.5677C39.3634 39.1442 39.1652 39.8107 39.2373 40.6214C39.2913 41.1438 39.1833 41.6842 39.1472 42.2427C39.3994 42.5489 39.7417 42.9092 40.0299 43.3235C40.8406 44.5125 42.0476 45.197 43.3626 45.5033C44.2273 45.7014 45.2541 45.6474 46.1008 45.3772C46.9475 45.107 47.7762 44.5485 48.2986 43.7379C48.5147 43.3956 48.6769 42.9993 48.7669 42.621C49.1272 41.0537 48.6949 39.5405 48.3526 38.0453C48.2986 37.8471 48.1004 37.649 47.9203 37.5049C47.4159 37.0725 47.0195 36.5861 46.8574 35.9196C46.6953 35.235 46.1368 34.9108 45.6144 34.5145C44.1733 33.4156 42.5339 32.9292 40.7685 32.7671C40.6244 32.7491 40.4983 32.731 40.3542 32.7491C38.7509 32.9652 37.1116 32.9832 35.6524 33.8119C34.6977 34.3523 33.9411 35.145 33.3826 36.1178C32.9322 36.8924 32.5539 37.703 32.0676 38.4596C31.2389 39.7387 31.365 41.1618 31.2749 42.5669C31.2569 42.8371 31.329 43.1254 31.2749 43.3956C31.1128 44.4945 31.5631 45.5033 31.8153 46.5301C31.9775 47.1786 32.2117 47.9172 32.644 48.4036C33.5267 49.3764 33.7789 50.6734 34.5896 51.6462C35.4182 52.655 36.5892 53.1594 37.652 53.808C39.4895 54.9429 41.5071 55.4292 43.6328 55.6634C44.5155 55.7535 45.3622 56.0417 46.2269 56.2399C46.335 56.2579 46.4251 56.312 46.5332 56.2939C47.8122 56.1498 49.0912 55.9877 50.3702 55.8796C51.6853 55.7715 52.6761 55.105 53.6309 54.2763C53.9371 54.0061 54.3154 53.808 54.6757 53.6278C55.2702 53.3216 55.7566 52.9793 56.0448 52.3127C56.2429 51.8804 56.7113 51.5381 57.0716 51.1778C58.0084 50.2591 58.6749 49.1962 59.2333 47.9893C59.7017 46.9805 59.7738 45.9717 59.9539 44.9268C60.2602 43.1434 60.3502 41.36 60.008 39.5945C59.7197 38.1174 59.3234 36.6762 58.5308 35.3611C58.2245 34.8387 58.0084 34.2623 57.7381 33.7038C57.6481 33.5237 57.558 33.3435 57.4319 33.1994C56.8734 32.5509 56.369 31.8483 55.7385 31.2899C55.3062 30.8936 55.2521 30.209 54.6577 29.9748C54.2974 28.8219 53.4867 28.0833 52.514 27.4348C51.289 26.6241 50.1 25.7955 48.875 24.9668C48.7489 24.8767 48.5688 24.8407 48.4247 24.7867C48.1364 24.6966 47.7942 24.6786 47.542 24.5345C46.8394 24.1562 46.0648 24.1021 45.3262 23.8859C44.4074 23.6337 43.4887 23.94 42.588 23.6157C41.7053 23.2915 40.7145 23.2915 39.7597 23.1834C39.4174 23.1473 39.0572 23.2554 38.7329 23.1834C38.0303 23.0212 37.6881 23.8319 37.0035 23.7779C36.409 23.7238 35.7785 23.7598 35.1841 23.8319C34.8778 23.8679 34.5896 24.1021 34.3013 24.2462C33.9951 24.4084 33.7069 24.5705 33.4006 24.7146C32.8602 25.0028 32.2297 25.183 31.7973 25.5793C31.401 25.9576 30.9867 26.1738 30.4823 26.2999C30.122 26.39 29.8518 26.5341 29.5635 26.8223C29.0231 27.3807 28.3386 27.8491 27.654 28.1914C26.8974 28.5697 26.429 29.1642 25.9967 29.8307C25.7265 30.2631 25.4923 30.7134 24.8978 30.8215C24.7717 30.8395 24.6276 30.9296 24.5555 31.0377C23.8349 32.1366 22.664 32.9472 22.4839 34.3884C22.4478 34.7487 22.2136 35.145 21.9614 35.4332C21.5291 35.9376 21.9434 36.46 21.8353 36.9644C21.7273 37.5229 21.6192 38.0993 21.5291 38.6758C21.439 39.2523 21.3489 39.8287 21.3489 40.4052C21.3309 40.8375 21.439 41.2879 21.4931 41.7203C21.5471 42.2427 21.5831 42.7471 21.6192 43.2695C21.7092 44.4224 21.7993 45.5753 21.8714 46.7283C21.9254 47.4849 22.0335 48.2235 21.9975 48.9801C21.9614 49.5205 22.2857 49.9889 22.1056 50.6014C21.9795 50.9977 22.4839 51.5742 22.7 52.0605C23.5107 53.9521 24.5735 55.6815 25.9246 57.2127C27.3838 58.888 28.8069 60.6174 30.7165 61.8244C31.347 62.3288 31.329 62.8332 30.6624 63.5538Z" fill="#F0AD1C"/>
<path d="M73.5188 11.9602C74.0052 12.2304 74.0232 12.6448 73.807 13.2212C73.3747 14.3381 73.0504 15.491 72.6541 16.6259C72.4019 17.3285 72.1497 18.0671 71.7714 18.6976C71.4832 19.184 71.0508 19.6524 70.5825 19.9766C69.8078 20.4991 69.4475 21.2016 69.2314 22.0483C68.9431 23.1292 68.0784 23.7777 67.1777 24.156C66.295 24.5343 65.2862 24.21 64.4756 23.6876C63.3587 22.949 62.9083 21.2016 63.4307 19.9586C63.6289 19.4902 63.8811 19.0399 64.1693 18.6075C64.7458 17.7248 65.2141 16.698 66.0068 16.0315C67.484 14.7705 69.1053 13.7256 71.0869 13.3113C71.9155 13.1311 72.6361 12.4826 73.5188 11.9602Z" fill="#F0AD1C"/>
<path d="M58.0264 65.103C59.1613 65.3372 60.2061 65.8416 60.9988 66.7604C61.5752 67.4449 62.1517 68.1114 62.7101 68.778C63.4848 69.7147 64.1153 70.8136 64.4215 72.0386C64.4576 72.2007 64.4936 72.3629 64.5656 72.507C65.07 73.4797 65.6105 74.4345 66.0969 75.4253C66.4572 76.1639 66.223 76.8665 65.5564 77.1907C65.3403 77.2988 65.016 77.3529 64.7818 77.2808C64.2414 77.1007 63.7009 76.8845 63.2326 76.5782C62.0076 75.7676 60.7826 74.9209 59.6117 74.0202C59.0892 73.6058 58.6749 73.0294 58.2606 72.507C57.504 71.5702 56.7294 70.6515 56.0448 69.6787C55.2522 68.5618 55.3603 67.2648 56.2069 66.2019C56.4231 65.9317 56.5672 65.5714 56.8374 65.4273C57.1437 65.2291 57.576 65.1931 58.0264 65.103Z" fill="#F0AD1C"/>
<path d="M42.1376 79.8927C42.2097 80.235 42.4079 80.5953 42.3178 80.8295C42.0476 81.5861 41.399 81.6221 40.8226 81.0637C39.9579 80.235 39.7777 79.064 39.2914 78.0552C39.0211 77.5148 38.859 76.9383 38.6608 76.3619C38.5708 76.0736 38.4987 75.7674 38.4807 75.4612C38.4267 74.7766 38.4807 74.074 38.3186 73.4255C38.1024 72.5248 38.2645 71.6421 38.3186 70.7594C38.3366 70.3991 38.6068 69.9848 38.877 69.7145C39.5796 69.048 40.2281 68.3454 41.1829 67.9671C42.4799 67.4627 44.1372 68.7598 44.2093 69.6605C44.2814 70.4712 44.5516 71.2638 44.3894 72.1645C44.1913 73.3355 44.3354 74.5604 44.2994 75.7674C44.2633 77.0644 43.6689 78.1994 43.0924 79.3162C42.9303 79.5684 42.4799 79.6765 42.1376 79.8927Z" fill="#F0AD1C"/>
<path d="M77.7702 39.7386C77.6261 39.5585 77.5 39.3963 77.3199 39.1621C77.2118 39.4684 77.1217 39.6846 77.0496 39.8647C76.9416 39.8827 76.8695 39.9188 76.8154 39.9188C76.1129 39.7566 75.5004 39.9007 74.9059 40.2971C74.7438 40.4051 74.5096 40.5493 74.3475 40.4952C73.5728 40.279 72.7442 40.243 72.0596 39.7206C71.3571 39.1802 71.0328 38.4236 70.7986 37.6489C70.7085 37.3607 70.8346 36.9644 70.9607 36.6581C71.3751 35.6493 72.0236 34.8747 73.1405 34.5505C74.2214 34.2442 75.2482 33.7578 76.3291 33.5056C76.8695 33.3795 77.5 33.4876 78.0404 33.6317C79.0132 33.8839 79.986 33.7578 80.9047 33.5597C81.7874 33.3615 82.5801 33.7038 83.4087 33.7578C83.8591 33.7938 84.0573 34.4784 83.751 34.9288C83.4988 35.289 83.1926 35.6493 82.8323 35.8835C82.1117 36.3699 81.3731 36.8383 80.5805 37.1806C79.4275 37.667 78.4728 38.3155 77.9684 39.5044C77.9504 39.5765 77.8603 39.6485 77.7702 39.7386Z" fill="#F0AD1C"/>
<path d="M25.7805 14.6985C26.2489 15.8154 25.0419 16.4278 24.9699 17.3286C24.9699 17.3826 24.8978 17.4367 24.8438 17.4547C24.1232 17.6348 23.5287 18.3014 22.7181 18.0852C21.8894 17.869 21.0067 17.6889 20.4482 16.9863C19.5115 15.8154 18.8449 14.5363 18.5567 12.9871C18.1964 11.1316 18.1964 9.18604 17.4218 7.40261C17.3497 7.24048 17.3317 7.06033 17.3137 6.8982C17.2957 6.23167 17.8181 5.87138 18.3225 6.2677C19.1332 6.91622 20.124 7.34856 20.7905 8.23127C21.349 8.96987 21.9434 9.70846 22.9883 9.92463C23.2945 9.99669 23.5287 10.4831 23.7629 10.7893C23.907 10.9875 23.907 11.3658 24.0691 11.4198C25.114 11.8161 25.0599 12.879 25.4923 13.6356C25.6544 13.9779 25.6904 14.3562 25.7805 14.6985Z" fill="#F0AD1C"/>
<path d="M66.331 58.7077C65.3402 58.0051 66.0428 56.8522 65.6105 56.0415C65.5924 56.0055 65.6105 55.8974 65.6465 55.8614C66.1689 55.339 66.313 54.4563 67.1057 54.2041C67.9163 53.9518 68.763 53.6276 69.6097 53.9158C71.0328 54.4202 72.2758 55.1408 73.3387 56.2937C74.6357 57.6808 75.6805 59.3202 77.2658 60.419C77.4099 60.5091 77.518 60.6532 77.6261 60.7973C77.9864 61.3378 77.7522 61.9503 77.1037 61.8602C76.0588 61.7341 74.996 61.8962 73.9692 61.4999C73.1045 61.1756 72.2038 60.8514 71.1949 61.2297C70.9067 61.3378 70.4383 61.0495 70.078 60.9054C69.8619 60.8154 69.6457 60.4911 69.4836 60.5271C68.3847 60.7613 67.8623 59.8246 67.1057 59.4102C66.8354 59.2661 66.6013 58.9419 66.331 58.7077Z" fill="#F0AD1C"/>
<path d="M38.9311 6.71807C38.9851 7.49269 39.0752 8.26731 39.0752 9.02392C39.0572 9.83457 39.0391 10.6632 38.859 11.4559C38.6428 12.4106 37.4539 12.9691 36.4991 12.6448C35.7785 12.3926 35.112 12.1044 34.6977 11.3838C34.4995 11.0415 34.8418 10.5191 34.3013 10.339C34.3914 9.33016 33.5087 8.60959 33.5087 7.60078C33.4907 6.64601 33.2025 5.69124 33.2205 4.73648C33.2565 3.33135 33.5267 1.94424 34.0672 0.647198C34.4094 -0.181467 35.6344 -0.217496 36.337 0.557126C37.0035 1.2777 37.598 2.05233 38.2285 2.82695C38.3366 2.95305 38.4086 3.13319 38.4447 3.29532C38.6608 4.43023 38.859 5.58316 39.0572 6.71807C38.9851 6.71807 38.9671 6.71807 38.9311 6.71807Z" fill="#F0AD1C"/>
<path d="M5.55028 62.1484C4.93779 62.0223 4.46942 61.7882 4.21721 61.3018C3.96501 60.7793 3.73082 60.1849 4.14516 59.6444C4.93779 58.5636 5.85653 57.5908 7.04548 56.9243C7.1896 56.8342 7.38776 56.8162 7.49584 56.7081C8.34252 55.8794 9.17119 55.0327 10.0179 54.2041C10.0899 54.132 10.18 54.06 10.2701 54.0239C11.441 53.6276 12.648 53.4475 13.873 53.5556C14.3954 53.5916 14.5755 54.078 14.6476 54.4202C14.7917 55.1949 15.224 55.8974 15.0079 56.7982C14.8818 57.3026 14.7737 57.7169 14.4134 57.9871C12.9542 59.086 11.369 59.9687 9.62155 60.5091C9.04509 60.6893 8.52267 61.0315 7.9462 61.2477C7.13555 61.572 6.34292 61.8602 5.55028 62.1484Z" fill="#F0AD1C"/>
<path d="M10.9006 30.3349C9.56751 30.2449 8.50465 29.7405 7.62195 28.9118C6.75725 28.1012 5.87454 27.3085 5.11794 26.4078C4.28927 25.417 3.51465 24.3361 2.84812 23.2192C2.34371 22.3906 2.79407 21.724 3.78487 21.688C4.63155 21.652 5.47823 21.634 6.27086 22.1564C6.8113 22.5167 7.51386 22.6428 8.14436 22.8589C8.34252 22.931 8.54068 22.985 8.72083 23.0931C9.33332 23.4714 9.98184 23.7957 10.5043 24.2641C11.1167 24.8045 11.9454 25.0387 12.4858 25.6152C13.0623 26.2276 13.6748 26.9482 13.6027 27.903C13.5667 28.3173 13.4226 28.8037 13.1704 29.128C12.9362 29.4342 12.72 29.9386 12.1436 29.8125C12.0355 29.7945 11.8373 29.8666 11.8013 29.9566C11.5671 30.443 11.1708 30.2989 10.9006 30.3349Z" fill="#F0AD1C"/>
<path d="M53.2165 1.43994C53.3787 1.65611 53.6669 1.87229 53.739 2.14251C54.0632 3.29543 54.5496 4.43034 54.3154 5.65532C54.0812 6.88031 54.1893 8.08728 54.3695 9.31226C54.4235 9.74461 54.3514 10.195 54.3154 10.6273C54.2974 10.8975 54.1893 11.1677 54.1893 11.4199C54.2434 12.5549 53.7209 13.4376 52.6581 13.7979C51.9195 14.0501 51.2169 14.3383 50.3342 14.0861C48.8931 13.6718 48.5688 12.9512 48.4247 11.51C48.3346 10.5733 48.3166 9.6185 49.0732 8.80785C49.5956 8.23139 49.9379 7.4928 50.3342 6.80825C50.4964 6.52002 50.7125 6.17774 50.7125 5.85348C50.7305 4.59247 51.5592 3.61969 51.8294 2.44875C51.9735 1.83626 52.2077 1.7642 53.2165 1.43994Z" fill="#F0AD1C"/>
<path d="M16.6472 75.1911C16.6292 74.9208 16.5031 74.5786 16.5931 74.3264C16.9534 73.1914 17.1696 71.9665 18.0343 71.0657C18.917 70.165 19.4754 69.1022 19.9979 67.9853C20.178 67.589 20.5023 67.2647 20.7725 66.9224C20.9346 66.7062 21.1688 66.5441 21.3129 66.3279C21.8894 65.3552 22.8081 64.9048 23.889 65.175C24.6456 65.3732 25.4022 65.5173 25.9967 66.2199C26.9695 67.3548 26.8434 68.1474 26.1768 69.4264C25.7445 70.2551 25.2221 71.0657 24.1592 71.336C23.4026 71.5341 22.718 71.9665 22.0155 72.3087C21.7092 72.4529 21.367 72.633 21.1868 72.9032C20.4843 73.9481 19.2413 74.3083 18.3766 75.137C17.9082 75.5513 17.674 75.4793 16.6472 75.1911Z" fill="#F0AD1C"/>
<path d="M7.47782 44.5304C7.36974 45.0888 6.88335 45.1248 6.39696 45.0888C5.17197 44.9627 3.92898 45.1248 2.74002 44.6204C2.14555 44.3682 1.461 44.3682 0.86652 44.1521C0.470202 44.0079 -0.0342027 43.7738 0.00182622 43.2333C0.0558696 42.6388 0.272043 42.0984 0.86652 41.7922C2.50584 40.9455 4.12714 40.0448 5.80248 39.2882C7.62194 38.4775 9.45941 38.5315 11.0987 39.7926C11.3509 39.9907 11.495 40.4231 11.5311 40.7653C11.5671 41.2157 11.459 41.6841 11.405 42.1525C11.3149 43.2153 10.2881 44.3142 9.11714 44.4943C8.61273 44.6024 8.09032 44.5304 7.47782 44.5304Z" fill="#F0AD1C"/>
</svg>
