<svg width="85" height="65" viewBox="0 0 85 65" fill="none" xmlns="http://www.w3.org/2000/svg">
<path d="M23.2379 0.704613C9.16607 10.7559 0.320945 25.0287 0.320945 41.5128C0.320945 56.1877 9.97018 64.8318 20.8256 64.8318C30.8768 64.8318 39.3199 56.3887 39.3199 46.1364C39.3199 36.2861 32.284 29.6523 23.8409 29.6523C21.8307 29.6523 20.0215 30.0544 19.2174 30.2554C21.2276 23.0185 29.6707 14.3744 36.1035 11.1579L23.2379 0.704613ZM68.4686 0.704613C54.3968 10.7559 45.5517 25.0287 45.5517 41.5128C45.5517 56.1877 55.402 64.8318 66.2574 64.8318C76.1076 64.8318 84.5507 56.3887 84.5507 46.1364C84.5507 36.2861 77.7158 29.6523 69.0717 29.6523C67.0615 29.6523 65.2522 30.0544 64.4481 30.2554C66.6594 23.0185 74.9015 14.3744 81.3343 11.1579L68.4686 0.704613Z" fill="#A61421"/>
</svg>
