<svg width="86" height="65" viewBox="0 0 86 65" fill="none" xmlns="http://www.w3.org/2000/svg">
<path d="M62.2758 64.2954C76.3476 54.2441 85.1927 39.9713 85.1927 23.4872C85.1927 8.81231 75.5435 0.168207 64.6881 0.168206C54.6368 0.168205 46.1938 8.61128 46.1938 18.8636C46.1938 28.7138 53.2297 35.3477 61.6727 35.3477C63.683 35.3477 65.4922 34.9456 66.2963 34.7446C64.2861 41.9815 55.843 50.6256 49.4102 53.8421L62.2758 64.2954ZM17.045 64.2954C31.1168 54.2441 39.962 39.9713 39.962 23.4872C39.962 8.8123 30.1117 0.168203 19.2563 0.168202C9.40606 0.168201 0.962988 8.61128 0.962987 18.8636C0.962986 28.7138 7.79786 35.3477 16.442 35.3477C18.4522 35.3477 20.2614 34.9456 21.0655 34.7446C18.8543 41.9815 10.6122 50.6256 4.17939 53.842L17.045 64.2954Z" fill="#A61421"/>
</svg>
