<svg width="605" height="704" viewBox="0 0 605 704" fill="none" xmlns="http://www.w3.org/2000/svg">
<path d="M110.81 293.343C122.3 317.037 128.045 342.833 134.556 370.54C142.025 360.986 153.515 360.795 161.558 352.387C172.091 341.305 185.496 332.897 197.944 323.534C201.391 320.859 201.965 318.184 201.391 314.171C200.433 306.528 200.433 298.884 199.667 291.432C198.901 283.598 197.752 275.763 196.603 267.929C196.029 263.343 194.497 258.757 194.688 254.171C195.454 244.426 196.986 234.681 198.518 225.126C199.859 217.674 202.157 210.222 203.497 202.77C205.029 192.834 206.37 182.897 206.944 172.961C207.519 163.025 211.923 154.808 215.753 146.209C218.626 139.713 221.69 133.598 223.031 126.146C224.946 115.445 232.223 107.229 239.117 99.012C244.287 92.8974 246.968 85.6363 250.607 78.7573C252.522 75.3178 255.969 72.6427 259.225 69.0121C264.97 76.2732 265.544 83.7254 265.736 90.7955C265.927 105.127 265.544 119.267 264.97 133.598C264.587 140.859 262.863 147.929 262.289 155.19C261.714 163.025 262.097 171.05 261.714 178.885C261.331 187.101 260.565 195.318 260.182 203.534C259.991 205.636 259.991 207.929 260.565 210.031C263.055 220.732 261.906 231.432 260.948 242.324C259.799 257.61 259.033 272.706 263.246 287.802C264.97 293.916 265.736 300.604 264.778 306.719C263.438 314.362 267.651 317.419 272.63 320.668C289.29 331.559 306.334 342.26 322.995 353.152C333.336 359.84 343.677 366.719 353.635 373.98C357.657 376.846 360.529 381.241 363.976 384.871C365.317 386.4 366.849 387.929 368.381 389.266C374.509 395.381 380.829 401.113 386.765 407.419C394.617 415.827 402.66 424.234 409.554 433.406C418.555 445.253 426.598 457.865 435.024 470.285C441.918 480.795 448.62 491.495 455.323 502.196C456.472 503.916 456.472 506.209 457.43 508.12C460.111 513.47 462.983 519.011 466.622 526.272C471.792 521.113 475.814 517.483 479.261 513.661C482.708 509.648 486.729 506.591 488.836 501.05C491.9 493.406 497.645 486.718 502.241 479.648C503.965 476.973 506.837 474.298 507.029 471.432C507.795 461.687 514.88 455.381 518.71 447.355C521.583 441.623 525.03 436.464 525.605 429.394C525.988 424.043 529.818 418.884 530.967 413.534C533.265 403.406 534.605 392.897 536.329 382.578C536.52 382.005 535.946 381.241 535.563 380.477C525.796 360.986 516.412 341.114 503.773 323.343C494.39 310.158 485.197 296.782 474.282 284.935C463.175 273.088 450.536 262.579 437.705 252.642C427.938 244.999 420.47 235.445 412.618 226.082C408.98 221.687 404.766 217.292 399.979 214.044C390.978 208.12 381.212 203.725 372.211 197.611C362.444 191.114 353.061 184.044 344.252 176.4C336.783 169.713 338.89 161.305 347.699 156.146C358.231 150.031 368.189 153.471 376.999 158.439C385.042 163.216 393.851 165.127 402.277 168.566C408.98 171.241 415.874 174.107 421.619 178.311C431.768 185.572 443.833 187.292 454.94 191.878C464.132 195.7 472.367 200.668 480.218 206.783C491.326 215.381 501.475 224.553 510.284 235.254C512.008 237.356 514.88 238.693 519.093 239.267C517.944 235.445 517.178 231.432 515.646 227.611C514.306 223.598 512.008 219.967 510.667 215.954C506.263 202.579 502.05 189.012 497.645 175.636C497.454 175.254 497.071 175.063 497.071 174.681C493.624 154.999 480.601 140.286 471.601 123.28C470.26 120.604 467.005 119.076 465.09 116.592C453.217 101.496 441.535 86.4006 429.853 71.114C427.747 68.2478 424.3 65.5726 426.789 61.3688C429.47 56.9739 433.683 56.5917 438.279 57.3561C450.536 59.6491 460.877 66.1459 470.452 73.2159C480.218 80.477 488.262 90.0312 497.454 98.0566C502.241 102.26 508.752 104.171 511.242 111.05C512.582 114.681 514.88 117.929 516.987 121.369C520.625 126.91 524.073 132.834 528.477 137.993C539.393 150.795 551.074 162.643 561.415 175.827C566.203 181.942 569.65 189.776 571.565 197.228C573.289 203.916 576.544 209.84 579.034 215.954C581.332 221.878 584.204 226.846 584.587 234.107C584.97 243.853 589.566 253.598 593.779 262.77C601.057 278.056 601.823 294.489 602.589 310.922C602.971 318.757 601.44 326.782 601.44 334.617C601.44 337.865 604.121 340.922 604.312 344.362C606.036 364.043 604.504 383.725 599.907 402.833C598.375 409.139 596.077 415.636 596.269 422.132C596.269 435.89 588.417 446.973 585.162 459.394C581.14 474.489 570.799 486.145 565.82 500.476C562.756 509.266 559.5 517.292 552.032 523.406C550.117 524.935 549.159 527.61 548.202 529.903C545.521 536.782 542.074 542.897 535.754 547.483C532.499 549.776 530.775 553.597 529.052 557.61C525.988 565.062 521.583 572.323 513.157 576.145C509.71 577.674 506.646 580.922 504.731 584.17C501.284 590.094 497.262 593.533 490.368 596.209C480.601 599.839 473.516 608.438 466.813 617.037C459.536 626.4 452.068 636.527 442.684 643.406C435.981 648.374 428.896 652.005 423.917 659.075C422.193 661.368 417.98 661.559 415.299 663.279C407.639 667.482 400.553 673.597 392.51 675.89C378.722 679.712 366.083 685.253 353.444 691.75C349.039 694.043 343.294 694.998 338.507 694.425C325.867 692.896 314.377 697.864 302.121 698.056C297.142 698.056 291.971 699.011 287.184 700.731C269.183 706.654 250.798 702.642 232.606 703.024C230.116 703.024 227.435 702.259 224.946 702.642C211.732 704.743 200.05 700.922 188.177 695.571C178.602 691.368 167.878 689.839 157.728 687.737C135.897 683.151 114.64 676.654 94.9154 665.954C85.9148 661.177 76.5311 656.973 67.339 652.578C65.9985 652.005 64.658 651.431 63.126 651.24C42.8267 650.094 33.6346 636.527 28.081 619.521C24.6339 608.629 18.3144 600.221 10.0798 592.769C5.29221 588.374 1.27065 583.024 -2.94241 578.056C-7.34697 572.896 -11.3685 567.355 -15.9646 562.196C-23.8162 553.406 -32.4338 545.19 -39.5194 535.827C-44.3069 529.521 -47.5625 521.878 -50.052 514.234C-55.4141 498.374 -57.7121 481.368 -64.9892 466.464C-74.1813 447.546 -78.2029 427.101 -84.9055 407.61C-87.5865 399.585 -87.778 390.604 -87.9695 382.005C-88.161 369.585 -87.395 357.356 -87.2035 344.935C-87.012 336.91 -87.2035 328.884 -87.395 321.05C-87.5865 313.024 -83.565 304.999 -82.0329 296.782C-79.7349 285.317 -78.3944 273.661 -75.7134 262.388C-74.1813 255.509 -69.9683 249.203 -71.6918 241.56C-72.0748 239.649 -71.1173 237.165 -70.3513 235.254C-63.4572 218.056 -57.1376 200.477 -49.286 183.662C-45.2645 175.254 -39.7109 166.846 -32.8168 160.732C-21.7097 150.604 -15.5816 137.42 -7.15546 125.572C-2.1764 118.502 1.46215 110.477 8.93075 104.745C15.6333 99.5853 20.0379 91.5598 26.166 85.6363C33.4431 78.5662 41.4862 72.2605 49.5293 66.1459C59.6789 58.5026 70.0201 51.4325 80.3612 44.1714C81.5102 43.407 83.2337 42.2606 84.1912 42.4516C91.6598 44.9357 96.2559 38.8211 102.384 37.1013C118.47 32.8975 131.301 20.4772 148.536 18.7574C149.302 18.7574 150.068 18.5663 150.643 18.1842C167.686 7.67463 187.22 6.33705 206.37 4.04406C211.349 3.47081 216.328 1.75107 221.499 1.17783C244.479 -1.68841 267.076 1.17782 289.673 4.42623C292.929 4.80839 296.185 7.67463 298.483 10.1587C302.504 14.7447 300.589 22.0058 294.844 23.3434C280.864 26.7829 266.502 29.458 252.522 32.7064C236.627 36.337 221.116 40.5408 207.519 50.286C193.731 60.0312 179.368 68.821 164.814 77.4197C151.026 85.4452 136.28 92.3242 122.3 100.159C111.385 106.273 109.661 112.77 110.044 125.764C110.236 133.789 107.363 141.814 105.831 149.84C104.491 156.719 104.491 163.98 99.8945 170.286C98.5539 172.197 100.852 176.4 100.852 179.458C101.426 202.77 104.491 226.082 106.214 249.203C106.98 260.095 109.853 270.413 111.576 281.114C111.576 285.509 110.81 289.521 110.81 293.343ZM236.244 373.024C226.669 382.005 218.435 388.693 211.732 396.527C205.795 403.406 198.518 407.801 191.05 412.005C178.027 419.075 163.665 424.234 151.217 432.26C139.727 439.712 127.662 444.298 114.64 447.738C105.448 450.222 96.4474 453.852 87.2553 456.909C76.7226 460.54 65.9985 463.98 55.4659 467.419C54.5083 467.801 52.9763 467.61 52.2103 467.037C46.8483 463.024 42.2522 465.126 37.2731 468.183C35.1666 469.521 31.528 469.139 28.847 468.757C20.4209 467.61 12.7608 470.858 3.56868 472.387C7.39873 482.897 10.6543 492.642 14.6758 501.814C16.2078 505.253 19.2719 508.12 21.7614 510.986C27.8895 517.674 34.9751 523.597 40.1457 530.858C50.8698 546.336 64.275 557.801 81.1272 565.826C85.9148 568.119 90.8938 570.604 96.8304 573.47C106.023 568.693 115.981 563.534 126.13 558.374C127.662 557.61 129.386 556.655 131.109 556.272C150.26 552.451 165.197 539.266 183.198 532.578C184.73 532.005 185.688 529.903 187.22 528.756C193.922 523.215 200.05 516.527 207.519 512.323C219.584 505.635 231.074 497.992 242.181 489.776C251.564 482.897 261.523 476.591 271.098 470.285C277.992 465.699 285.077 461.304 291.78 456.527C302.504 448.693 312.845 440.476 323.378 432.451C323.186 431.878 323.186 430.922 322.612 430.731C310.93 422.324 299.249 413.916 287.758 405.508C282.588 401.687 277.992 397.101 272.63 393.852C265.353 389.457 257.693 386.209 251.181 380.285C246.777 376.846 240.457 375.126 236.244 373.024ZM350.38 462.642C344.06 471.432 340.039 478.311 334.868 484.425C323.761 497.228 311.122 509.075 300.781 522.451C291.014 535.444 278.183 544.234 265.353 553.406C250.224 564.298 234.138 573.852 218.435 584.17C216.711 585.317 214.796 586.846 214.03 588.756C211.923 593.724 207.519 593.916 203.306 594.68C200.433 595.062 195.454 595.253 195.263 596.4C193.539 604.616 187.603 599.648 183.581 600.03C184.347 605.189 184.922 608.82 190.858 610.54C200.816 613.406 210.2 618.756 221.116 618.374C225.329 618.183 229.925 618.565 233.946 620.094C248.5 625.444 263.246 624.68 278.183 622.96C282.588 622.387 286.992 622.196 291.205 621.431C299.057 620.094 307.1 619.33 314.76 616.846C325.484 613.406 335.634 608.629 346.167 604.616C358.614 599.648 371.254 595.062 383.701 589.712C391.361 586.463 398.638 582.26 405.724 578.247C411.661 574.998 413.001 571.368 410.703 564.68C405.341 548.438 398.255 532.96 387.723 519.202C384.276 514.616 379.488 510.221 378.148 504.871C373.743 487.865 357.657 479.648 350.38 462.642ZM106.214 382.196C105.64 380.859 105.64 379.903 105.065 379.521C85.9148 361.75 75.9566 338.056 63.509 316.082C60.8279 311.496 58.3384 305.763 59.6789 299.458C60.2534 296.591 59.2959 292.961 58.1469 289.903C52.9763 276.337 47.6143 262.961 42.4437 249.585C39.3797 241.56 35.9326 233.725 43.4012 226.082C34.5921 220.158 34.7836 220.349 35.5496 209.076C35.7411 205.254 35.1666 201.432 34.7836 195.318C29.4215 206.209 25.9745 214.808 21.3784 222.833C10.6543 241.368 3.37717 260.668 1.65365 282.26C1.27065 287.61 0.121628 293.534 -2.5594 298.12C-9.645 310.54 -11.943 323.343 -10.9855 337.483C-10.2195 348.566 -12.9005 359.84 -13.6665 370.922C-14.0496 374.935 -12.709 378.948 -13.4751 382.77C-15.5816 393.279 -11.177 401.878 -7.92147 409.903C8.93075 407.419 24.8255 405.317 40.5287 402.451C51.2528 400.54 61.7854 398.247 72.1266 395.19C82.6592 392.133 93.0004 388.12 103.341 384.489C104.299 384.489 105.065 383.343 106.214 382.196Z" fill="white"/>
</svg>
