<svg width="55" height="64" viewBox="0 0 55 64" fill="none" xmlns="http://www.w3.org/2000/svg">
<path d="M49.4177 29.6436C49.5445 29.6589 49.6714 29.6895 49.719 29.6895C49.9251 30.3934 50.1471 31.0667 50.3374 31.7554C50.4008 31.9696 50.385 32.2144 50.3374 32.4287C50.2264 33.0255 50.3691 33.5611 50.5277 34.1426C50.718 34.923 50.7973 35.7341 50.8607 36.5451C51.0035 38.106 50.6546 39.621 50.496 41.1665C50.4326 41.7021 50.2264 42.2377 50.0044 42.7427C49.6397 43.5538 49.2274 44.3342 48.8151 45.1299C48.7358 45.283 48.6089 45.4054 48.482 45.5431C48.26 45.788 47.9587 46.0787 47.6416 45.8645C47.4354 45.7421 47.2768 45.3748 47.2927 45.1146C47.3085 44.6403 46.9438 44.1353 47.4037 43.6915C47.4513 43.6303 47.3244 43.4313 47.3244 43.2936C47.2768 42.1306 47.2134 40.9676 47.4037 39.8046C47.4671 39.3914 47.4196 38.9476 47.4196 38.5039C46.2461 38.5804 45.136 38.6416 44.0418 38.7334C43.7405 38.7487 43.4551 38.8711 43.1538 38.8864C42.678 38.9323 42.1864 38.9323 41.7107 38.9476C41.0129 38.9629 40.7434 37.9377 41.2191 37.5245C41.7741 37.0348 42.4719 36.7134 43.2013 36.2697C43.2172 36.1931 43.2172 35.9177 43.3599 35.7494C43.9308 35.0301 44.4065 34.2344 45.2629 33.7447C45.9923 33.3315 45.9606 33.3009 45.6752 32.4899C45.5959 32.245 45.58 31.9849 45.4532 31.786C44.9774 31.1738 44.5175 30.5464 44.026 29.9496C43.6771 29.5212 43.3441 29.0621 42.9476 28.6948C41.568 27.4706 40.2042 26.2311 38.7611 25.0681C37.5718 24.104 36.2873 23.2623 34.8442 22.6655C33.9403 22.283 33.084 21.7627 32.2118 21.2883C31.8312 21.074 31.4823 20.9516 31.0224 20.9669C30.1978 20.9975 29.3415 21.0434 28.5327 20.7374C28.3583 20.6609 28.1204 20.7221 27.8826 20.7221C27.5813 21.7627 27.2958 22.7726 26.9628 23.7826C26.7725 24.3794 26.5346 24.9762 26.2333 25.5424C26.0906 25.7873 25.7734 25.9556 25.5356 26.1392C24.7903 25.4506 24.7903 25.4506 24.9647 24.6549C24.6792 24.5325 24.3938 24.3947 24.4414 23.9816C24.4572 23.8132 24.3145 23.599 24.1877 23.4307C23.5375 22.5125 22.808 21.6402 22.6811 20.4925C21.5394 20.263 20.5086 20.3701 19.4778 20.6762C19.2558 20.7374 19.018 20.8445 18.7801 20.8598C17.4797 20.9363 16.3538 21.5178 15.1803 21.9616C14.99 22.0381 14.768 22.1452 14.657 22.2983C14.2289 22.9257 13.5628 23.2317 12.8809 23.5378C12.1356 23.8897 12.088 24.4406 12.7224 24.9609C13.5153 25.619 14.1654 26.3841 14.4509 27.1645C14.5302 27.3788 14.657 27.5318 14.7839 27.7154C15.4816 28.6336 16.116 29.5977 15.9891 30.7913C15.4182 31.281 14.879 31.3422 14.2764 30.9137C14.0703 30.776 13.7531 30.6842 13.4994 30.7148C12.8016 30.7913 12.2942 30.424 11.7867 30.0721C10.9938 29.5212 10.2327 28.9243 9.43976 28.3428C8.88473 28.7254 8.36142 29.0468 8.12355 29.6742C7.94911 30.1333 7.60024 30.5311 7.33065 30.9443C6.85492 31.6788 6.60119 32.4746 6.45847 33.3162C6.45847 33.3468 6.45847 33.3774 6.44261 33.408C5.90344 34.0355 6.0303 34.8618 5.729 35.581C5.57042 35.9636 5.69729 36.4686 5.69729 36.9583C7.50509 36.79 9.04331 37.2643 10.4864 38.1519C10.5815 38.2131 10.6925 38.2896 10.7877 38.2743C11.4696 38.2284 11.8977 38.6569 12.5003 39.0548C11.3903 39.7893 10.2802 40.3096 9.1226 40.7687C7.94911 41.2277 6.79148 41.6715 5.52285 42.1612C5.60214 42.5438 5.729 42.9723 5.74486 43.3854C5.79243 44.6097 6.34746 45.7115 6.55361 46.9051C6.72805 47.915 7.29894 48.8638 7.71125 49.8279C7.80639 50.0268 7.98083 50.1952 8.13941 50.3788C8.34556 50.6236 8.59929 50.8379 8.78959 51.098C9.1226 51.5265 9.26532 51.603 9.7252 51.3429C10.3754 50.9756 11.0097 50.5777 11.6282 50.1799C12.7858 49.3994 14.0703 48.925 15.4341 48.6343C15.6561 48.5884 15.9891 48.772 16.1794 48.9556C16.4807 49.2311 16.5283 49.629 16.3538 50.0115C16.116 50.5165 15.9257 51.0368 15.6402 51.5265C15.0059 52.6283 14.6253 53.8831 13.6263 54.786C13.4835 54.9084 13.4201 55.1226 13.3408 55.2757C13.8324 55.8725 14.4826 55.9949 15.101 56.2091C15.6085 56.3775 16.0842 56.6223 16.5758 56.8365C16.9881 57.0202 17.3846 57.2344 17.7969 57.3874C18.796 57.77 19.7791 58.1985 20.8099 58.4586C21.8248 58.7188 22.031 58.4739 22.3164 57.4793C22.5384 56.7294 22.9032 56.0102 23.1886 55.2757C23.4582 54.6024 23.7119 53.9137 23.9815 53.2557C24.2194 52.6895 24.4731 52.1233 24.7427 51.5724C24.7903 51.4653 24.9806 51.4347 25.1708 51.3276C25.3453 52.0162 26.1699 52.4447 25.6942 53.3169C26.154 53.6077 26.3443 54.0361 26.3602 54.6177C26.3761 55.092 26.6298 55.5664 26.7566 56.0408C26.9628 56.76 27.1531 57.4793 27.4227 58.4127C27.6288 58.5658 28.0729 58.5352 28.5169 58.4127C29.0402 58.275 29.5635 58.0914 30.1027 57.9843C31.4347 57.7241 32.7668 57.5099 34.083 57.265C34.4477 57.1885 34.8125 57.0661 35.1614 56.9743C34.8759 56.4846 34.6063 56.0714 34.3685 55.6582C34.305 55.5664 34.2257 55.3981 34.2733 55.3369C34.5746 54.8625 34.2257 54.434 34.1464 54.0055C34.0672 53.5465 33.861 53.118 33.7659 52.6589C33.6231 51.9703 33.5121 51.2817 33.7817 50.5777C34.0513 49.8279 34.6222 49.5218 35.3834 49.7973C35.6688 49.9044 35.9225 50.0574 36.1604 50.2411C37.2229 51.0215 38.1268 51.955 38.9514 52.965C39.3003 53.3934 39.554 53.9137 39.7919 54.4034C40.0456 54.9237 40.2042 55.0155 40.7751 54.7554C41.1239 54.6024 41.4411 54.3575 41.79 54.1892C42.1706 54.0055 42.5512 53.8219 42.9476 53.7148C43.1379 53.6689 43.5185 53.7301 43.5978 53.8525C43.7088 54.0361 43.7088 54.4034 43.5978 54.5717C43.2331 55.1073 42.8207 55.6276 42.3609 56.0714C41.3618 57.0355 40.3152 57.969 39.2527 58.8718C38.2378 59.7288 37.207 60.601 36.0811 61.3203C35.4151 61.7487 34.5588 61.8865 33.7976 62.1466C33.3694 62.2843 32.9254 62.4068 32.4972 62.5445C31.4347 62.8964 30.404 63.3861 29.3256 63.5851C28.057 63.8299 26.7566 63.8146 25.4563 63.9217C25.1391 63.9523 24.8061 63.9523 24.489 63.9676C24.3304 63.9676 24.1718 64.0288 24.0449 63.9829C22.6019 63.5851 21.0954 63.937 19.6364 63.6157C19.018 63.4779 18.3995 63.3861 17.7652 63.2637C17.6225 63.2331 17.4639 63.1566 17.3212 63.1872C16.116 63.4167 15.2279 62.7587 14.3082 62.1925C13.4994 61.6875 12.6906 61.1978 11.8819 60.7081C11.755 60.6316 11.6282 60.5704 11.4854 60.5092C9.86793 59.9124 8.409 59.0861 7.06107 58.0149C6.58533 57.617 6.26817 57.2344 5.95101 56.7141C5.58628 56.102 4.98368 55.6123 4.47622 55.0767C4.39693 55.0002 4.2225 54.9543 4.20664 54.8625C4.00049 53.8984 3.11244 53.2863 2.92214 52.2916C2.79528 51.603 2.30368 50.9909 1.97067 50.3482C1.76451 49.935 1.52664 49.5218 1.38392 49.0934C1.17777 48.4506 1.03505 47.7926 0.892327 47.1346C0.828895 46.8286 0.765463 46.5072 0.749605 46.1858C0.686173 45.2218 0.448304 44.2883 0.178719 43.3548C-0.0432922 42.5897 0.00428164 41.7327 0.00428164 40.9217C0.0201396 39.7893 0.115287 38.6722 0.210435 37.5398C0.258009 36.9583 0.321441 36.3768 0.464162 35.8106C0.717889 34.8312 0.781321 33.8059 1.35221 32.9031C1.49493 32.6888 1.59008 32.3675 1.5425 32.1532C1.30463 31.2045 1.93895 30.577 2.28783 29.8272C2.50984 29.3528 2.68428 28.8325 2.95386 28.3734C3.33445 27.7001 3.77847 27.0727 4.15906 26.4147C4.71409 25.4506 5.15812 24.4253 5.77658 23.5225C6.41089 22.6196 6.96592 21.6096 8.09184 21.1199C8.31385 21.0281 8.50414 20.8598 8.66272 20.6915C9.45562 19.7886 10.5181 19.2071 11.4854 18.5185C12.5955 17.738 13.8958 17.2943 15.1169 16.7281C16.1477 16.2384 17.3846 16.1925 18.4788 15.7946C19.6999 15.3508 20.9685 15.4579 22.2213 15.3049C23.2203 15.1825 24.2511 15.2437 25.266 15.2284C25.377 15.2284 25.4721 15.3202 25.5832 15.3508C26.0272 15.4885 26.4236 15.6722 26.9787 15.5344C27.4544 15.412 28.0411 15.565 28.5327 15.7487C28.945 15.9017 29.4684 15.7487 29.7855 16.1619C29.8331 16.2384 30.071 16.1772 30.2137 16.1925C31.0224 16.269 31.8629 16.2843 32.6399 16.4679C33.1633 16.5903 33.7341 16.5444 34.2575 16.8505C34.4477 16.9576 34.7173 16.8811 34.7332 17.233C34.7332 17.279 34.9235 17.3708 35.0345 17.3861C36.4141 17.5238 36.6679 17.6615 37.7938 18.595C38.1585 18.901 38.6818 18.901 39.0624 19.2836C39.4589 19.6968 40.0139 19.9569 40.4896 20.2783C40.6006 20.3548 40.7116 20.4925 40.8385 20.5078C41.2984 20.5537 41.4887 20.8904 41.7107 21.1965C41.8534 21.4107 41.9168 21.5331 42.2657 21.6096C42.6939 21.7015 43.0745 22.1146 43.4233 22.4513C43.8357 22.8186 44.1211 23.3541 44.581 23.6143C45.0567 23.8897 45.3897 24.3182 45.8496 24.609C46.5157 25.0374 47.0231 25.7261 47.5306 26.3535C48.0539 27.0115 48.482 27.746 48.9895 28.4041C49.3701 28.7254 49.4969 29.1539 49.4177 29.6436Z" fill="#EFAF1E"/>
<path d="M32.4646 1.68545C32.0681 2.45059 31.4338 2.55771 30.7361 2.71074C29.7211 2.94028 28.7379 3.36875 27.7389 3.70541C27.4376 3.81253 27.1046 3.87374 26.7874 3.95026C26.7081 3.96556 26.5654 3.95026 26.5496 3.99617C26.1848 4.746 25.4236 4.62358 24.7735 4.70009C24.0916 4.79191 23.2987 4.63888 22.7119 4.91433C21.9032 5.2969 21.142 4.96024 20.3174 5.11327C20.365 5.71007 20.587 6.21506 21.0786 6.70475C21.7129 6.59763 22.4106 6.36809 23.0608 6.414C23.9964 6.49051 24.8845 6.12325 25.7884 6.29158C26.6923 6.44461 27.612 6.59763 28.5159 6.79657C29.2613 6.9649 29.9907 6.9955 30.7202 6.9649C30.8946 6.50582 31.0691 6.10794 31.1642 5.71007C31.2752 5.23569 31.5289 4.88373 32.0364 4.82251C32.6231 4.7613 33.2257 4.79191 33.6063 5.2969C33.8442 5.61826 34.0186 6.01613 34.0662 6.3987C34.1455 6.93429 34.1138 7.50049 34.0662 8.05139C34.0345 8.58699 33.6539 8.89304 33.1782 9.06137C32.2584 9.36743 31.3545 9.7806 30.4189 9.90303C29.2454 10.0561 28.2464 10.5916 27.1997 10.9742C26.0738 11.3874 24.9479 11.5863 23.7586 11.6475C22.3948 11.7087 21.0468 11.6169 19.7148 11.3568C19.3818 11.2956 19.0012 11.3568 18.6523 11.3415C18.0973 11.3262 17.6532 11.1579 17.1934 10.8212C15.9406 9.90303 15.8772 8.6329 15.8137 7.31686C15.7979 6.78127 15.6869 6.23037 15.7027 5.69477C15.7186 4.53176 15.7503 3.36875 15.8296 2.20575C15.8454 1.86908 16.0357 1.53242 16.1785 1.21107C16.5115 0.522443 16.7493 0.430627 17.5422 0.507141C18.24 0.568352 18.9377 0.568352 19.6196 0.553049C19.8258 0.553049 20.0478 0.476535 20.2064 0.354113C20.6504 0.0480582 21.142 -0.0131528 21.6812 0.00214997C22.9339 0.0327555 24.2026 -0.0131528 25.4554 0.0327555C25.8994 0.0480582 26.3593 0.155177 26.7874 0.292902C27.9768 0.690773 29.1978 0.813195 30.4347 0.797893C31.2911 0.797893 31.8937 1.16516 32.4646 1.68545Z" fill="#EFAF1E"/>
<path d="M34.0353 31.9237C34.3524 32.6582 33.9243 33.1938 33.4485 33.6376C32.5763 34.4486 31.7993 35.3056 31.2443 36.3615C31.1015 36.6369 30.8161 36.8359 30.5941 37.0807C30.4989 37.1878 30.3245 37.2796 30.3086 37.4021C30.2135 38.0295 29.6902 38.3967 29.3255 38.8252C28.485 39.8505 27.5494 40.8146 26.6772 41.8246C26.5503 41.9776 26.471 42.1765 26.3442 42.3295C25.25 43.5079 24.2826 43.9975 22.6968 43.1253C20.8732 42.1153 20.9049 40.2331 21.3489 38.7334C21.5392 38.0907 21.9674 37.448 22.681 37.0042C23.569 36.438 24.2985 35.6116 25.139 34.9689C26.36 34.0355 27.6604 33.1938 29.0717 32.5358C29.373 32.3828 29.6426 32.1226 29.8805 31.8778C30.2294 31.5105 30.5624 31.1279 30.8795 30.7454C31.2284 30.3169 31.7041 30.1027 32.1957 29.8425C32.8142 29.5365 33.2899 28.955 33.7815 28.45C34.3049 27.9297 34.9233 27.6236 35.6528 27.5165C36.3822 27.4247 36.6518 27.6389 36.6835 28.3581C36.7153 29.1386 36.3347 29.766 35.9065 30.3628C35.6845 30.6689 35.4149 30.9596 35.2088 31.281C34.7806 31.939 34.7964 31.9543 34.0353 31.9237Z" fill="#EFAF1E"/>
<path d="M47.5307 14.0042C47.9747 14.3255 48.3395 14.5857 48.6883 14.8611C49.0214 15.1366 49.3544 15.1519 49.6557 14.8764C50.0363 14.5398 50.4169 14.2031 50.7499 13.8205C51.2415 13.2696 51.0036 12.5963 50.956 11.9689C50.9243 11.6016 50.8133 11.2344 50.734 10.8977C51.7172 10.5764 52.0819 10.8824 52.3832 11.6935C52.5894 12.2444 52.7638 12.9177 53.6202 13.0554C53.9056 13.1013 54.2386 13.4227 54.3655 13.897C54.4924 14.3867 55.0157 14.7693 54.9998 15.3661C54.9681 16.3455 54.9998 17.3402 54.0008 17.9829C53.9056 18.0441 53.7946 18.1359 53.7629 18.2277C53.5092 18.7786 53.0334 19.0082 52.5101 19.2989C51.2256 20.0181 49.8618 20.2324 48.4346 20.1865C47.2453 20.1559 46.1352 19.8345 45.3423 18.8704C44.9459 18.3961 44.5177 17.9523 44.1371 17.4779C43.9944 17.2943 43.8517 17.0647 43.8358 16.8505C43.82 16.5291 44.0578 16.1313 43.9151 15.9017C43.7089 15.5497 43.7565 15.259 43.82 14.907C43.8834 14.5092 43.7565 14.0807 43.8675 13.6981C44.1371 12.7646 44.6287 11.923 45.4375 11.3109C45.9925 10.8824 46.5317 11.0201 46.8964 11.6169C47.388 12.3668 47.5783 13.1625 47.5307 14.0042Z" fill="#EFAF1E"/>
</svg>
