<svg viewBox="0 0 55 66" fill="none" xmlns="http://www.w3.org/2000/svg">
<path d="M49.1777 30.57C49.304 30.5858 49.4302 30.6173 49.4776 30.6173C49.6827 31.3433 49.9036 32.0376 50.093 32.7478C50.1561 32.9687 50.1404 33.2212 50.093 33.4421C49.9826 34.0576 50.1246 34.6099 50.2824 35.2096C50.4718 36.0144 50.5507 36.8508 50.6138 37.6872C50.7558 39.2969 50.4086 40.8592 50.2508 42.4531C50.1877 43.0054 49.9826 43.5577 49.7616 44.0785C49.3987 44.9149 48.9883 45.7197 48.578 46.5403C48.4991 46.6981 48.3729 46.8244 48.2467 46.9664C48.0257 47.2189 47.7259 47.5188 47.4103 47.2978C47.2051 47.1716 47.0473 46.7928 47.0631 46.5246C47.0789 46.0353 46.7159 45.5146 47.1735 45.0569C47.2209 44.9938 47.0946 44.7886 47.0946 44.6466C47.0473 43.4473 46.9842 42.2479 47.1735 41.0486C47.2367 40.6225 47.1893 40.1648 47.1893 39.7072C46.0215 39.7861 44.9169 39.8492 43.828 39.9439C43.5281 39.9597 43.2441 40.0859 42.9442 40.1017C42.4708 40.149 41.9816 40.149 41.5082 40.1648C40.8138 40.1806 40.5455 39.1233 41.019 38.6972C41.5713 38.1922 42.2657 37.8608 42.9916 37.4032C43.0074 37.3243 43.0074 37.0402 43.1494 36.8666C43.7175 36.1249 44.1909 35.3043 45.0431 34.7993C45.769 34.3732 45.7375 34.3417 45.4534 33.5053C45.3745 33.2528 45.3587 32.9845 45.2325 32.7793C44.7591 32.1481 44.3014 31.5011 43.8122 30.8856C43.465 30.4438 43.1336 29.9703 42.7391 29.5916C41.3661 28.3291 40.009 27.0509 38.5729 25.8515C37.3893 24.8573 36.1111 23.9893 34.675 23.3739C33.7755 22.9794 32.9233 22.4428 32.0554 21.9536C31.6766 21.7327 31.3295 21.6064 30.8718 21.6222C30.0512 21.6538 29.199 21.7011 28.3942 21.3855C28.2206 21.3066 27.9839 21.3697 27.7472 21.3697C27.4473 22.4428 27.1633 23.4844 26.8319 24.5259C26.6425 25.1414 26.4058 25.7568 26.106 26.3407C25.9639 26.5932 25.6483 26.7668 25.4116 26.9562C24.6699 26.246 24.6699 26.246 24.8435 25.4254C24.5594 25.2992 24.2754 25.1571 24.3227 24.7311C24.3385 24.5575 24.1965 24.3365 24.0702 24.1629C23.4232 23.2161 22.6973 22.3166 22.571 21.133C21.4348 20.8963 20.409 21.0067 19.3833 21.3224C19.1623 21.3855 18.9256 21.496 18.6889 21.5117C17.3949 21.5906 16.2744 22.1903 15.1066 22.648C14.9173 22.7269 14.6963 22.8373 14.5859 22.9951C14.1598 23.6422 13.497 23.9578 12.8184 24.2734C12.0767 24.6364 12.0293 25.2045 12.6606 25.741C13.4496 26.4196 14.0967 27.2087 14.3807 28.0135C14.4596 28.2344 14.5859 28.3922 14.7121 28.5816C15.4065 29.5285 16.0377 30.5227 15.9115 31.7536C15.3434 32.2586 14.8068 32.3217 14.2071 31.8798C14.002 31.7378 13.6864 31.6431 13.4339 31.6747C12.7395 31.7536 12.2345 31.3748 11.7295 31.0119C10.9405 30.4438 10.183 29.8283 9.39393 29.2286C8.8416 29.6232 8.32083 29.9545 8.08411 30.6016C7.91052 31.075 7.56334 31.4853 7.29506 31.9114C6.82163 32.6689 6.56914 33.4895 6.42711 34.3574C6.42711 34.389 6.42711 34.4206 6.41133 34.4521C5.87478 35.0991 6.00102 35.9513 5.70119 36.693C5.54338 37.0875 5.66962 37.6083 5.66962 38.1133C7.46865 37.9397 8.99941 38.4289 10.4355 39.3442C10.5302 39.4073 10.6406 39.4862 10.7353 39.4705C11.4139 39.4231 11.84 39.865 12.4397 40.2753C11.335 41.0328 10.2303 41.5693 9.07831 42.0428C7.91052 42.5162 6.75851 42.9738 5.49603 43.4788C5.57494 43.8734 5.70119 44.3152 5.71697 44.7413C5.76431 46.0038 6.31664 47.14 6.5218 48.3709C6.69539 49.4125 7.2635 50.3909 7.67381 51.3851C7.76849 51.5902 7.94208 51.7638 8.09989 51.9532C8.30504 52.2057 8.55754 52.4266 8.74691 52.6949C9.07831 53.1368 9.22034 53.2157 9.67799 52.9474C10.325 52.5687 10.9562 52.1584 11.5717 51.748C12.7237 50.9432 14.002 50.454 15.3591 50.1542C15.5801 50.1068 15.9115 50.2962 16.1008 50.4856C16.4007 50.7696 16.448 51.1799 16.2744 51.5745C16.0377 52.0952 15.8483 52.6318 15.5643 53.1368C14.933 54.273 14.5543 55.567 13.5601 56.4981C13.4181 56.6244 13.3549 56.8453 13.276 57.0031C13.7653 57.6186 14.4123 57.7448 15.0277 57.9657C15.5327 58.1393 16.0062 58.3918 16.4954 58.6128C16.9057 58.8021 17.3002 59.0231 17.7105 59.1809C18.7047 59.5754 19.6831 60.0173 20.7089 60.2855C21.7189 60.5538 21.924 60.3013 22.2081 59.2756C22.429 58.5023 22.792 57.7606 23.076 57.0031C23.3443 56.3087 23.5968 55.5986 23.8651 54.92C24.1018 54.3361 24.3543 53.7522 24.6226 53.1841C24.6699 53.0736 24.8593 53.0421 25.0486 52.9316C25.2222 53.6418 26.0428 54.0836 25.5694 54.9831C26.0271 55.283 26.2164 55.7248 26.2322 56.3245C26.248 56.8137 26.5005 57.3029 26.6267 57.7922C26.8319 58.5339 27.0213 59.2756 27.2895 60.2382C27.4947 60.396 27.9366 60.3645 28.3784 60.2382C28.8992 60.0962 29.42 59.9068 29.9565 59.7963C31.2821 59.5281 32.6077 59.3071 33.9175 59.0546C34.2805 58.9757 34.6435 58.8495 34.9906 58.7548C34.7066 58.2498 34.4383 57.8237 34.2016 57.3976C34.1385 57.3029 34.0596 57.1294 34.1069 57.0662C34.4067 56.577 34.0596 56.1352 33.9807 55.6933C33.9018 55.2199 33.6966 54.778 33.6019 54.3046C33.4599 53.5944 33.3494 52.8843 33.6177 52.1584C33.886 51.3851 34.4541 51.0695 35.2116 51.3535C35.4956 51.464 35.7481 51.6218 35.9848 51.8112C37.0422 52.616 37.9417 53.5786 38.7623 54.6202C39.1095 55.062 39.362 55.5986 39.5987 56.1036C39.8512 56.6401 40.009 56.7348 40.5771 56.4666C40.9243 56.3087 41.2399 56.0562 41.5871 55.8827C41.9658 55.6933 42.3446 55.5039 42.7391 55.3934C42.9285 55.3461 43.3072 55.4092 43.3861 55.5355C43.4966 55.7248 43.4966 56.1036 43.3861 56.2772C43.0232 56.8295 42.6128 57.3661 42.1552 57.8237C41.161 58.8179 40.1195 59.7806 39.0621 60.7116C38.0521 61.5954 37.0264 62.4949 35.9059 63.2366C35.2431 63.6785 34.391 63.8205 33.6335 64.0888C33.2074 64.2308 32.7655 64.357 32.3394 64.4991C31.2821 64.862 30.2564 65.367 29.1832 65.5722C27.9208 65.8247 26.6267 65.8089 25.3327 65.9193C25.0171 65.9509 24.6857 65.9509 24.3701 65.9667C24.2122 65.9667 24.0544 66.0298 23.9282 65.9825C22.4921 65.5722 20.9929 65.9351 19.5411 65.6037C18.9256 65.4617 18.3102 65.367 17.6789 65.2408C17.5369 65.2092 17.3791 65.1303 17.2371 65.1619C16.0377 65.3986 15.154 64.72 14.2387 64.1361C13.4339 63.6153 12.629 63.1103 11.8242 62.6053C11.698 62.5264 11.5717 62.4633 11.4297 62.4002C9.82002 61.7847 8.36817 60.9326 7.02679 59.8279C6.55336 59.4176 6.23774 59.0231 5.92212 58.4865C5.55916 57.8553 4.95948 57.3503 4.45449 56.798C4.37559 56.719 4.202 56.6717 4.18621 56.577C3.98106 55.5828 3.09733 54.9516 2.90796 53.9258C2.78171 53.2157 2.2925 52.5844 1.9611 51.9216C1.75595 51.4956 1.51923 51.0695 1.3772 50.6276C1.17205 49.9648 1.03002 49.2862 0.887994 48.6076C0.824871 48.292 0.761747 47.9606 0.745966 47.6292C0.682842 46.635 0.446128 45.6724 0.177851 44.7097C-0.043082 43.9207 0.00426086 43.037 0.00426086 42.2006C0.0200418 41.0328 0.114728 39.8808 0.209413 38.713C0.256756 38.1133 0.31988 37.5136 0.461909 36.9297C0.714404 35.9197 0.777528 34.8624 1.34564 33.9313C1.48767 33.7104 1.58236 33.379 1.53501 33.1581C1.2983 32.1797 1.92954 31.5326 2.27672 30.7594C2.49765 30.2702 2.67124 29.7336 2.93952 29.2602C3.31826 28.5658 3.76013 27.9188 4.13887 27.2402C4.69121 26.246 5.13307 25.1887 5.74853 24.2576C6.37977 23.3265 6.9321 22.285 8.05255 21.78C8.27348 21.6853 8.46285 21.5117 8.62066 21.3381C9.40971 20.4071 10.467 19.8074 11.4297 19.0973C12.5343 18.2924 13.8284 17.8348 15.0435 17.2509C16.0693 16.7459 17.3002 16.6985 18.3891 16.2882C19.6042 15.8306 20.8667 15.9411 22.1134 15.7833C23.1076 15.657 24.1333 15.7201 25.1433 15.7043C25.2538 15.7043 25.3485 15.799 25.4589 15.8306C25.9008 15.9726 26.2953 16.162 26.8477 16.02C27.3211 15.8937 27.905 16.0515 28.3942 16.2409C28.8045 16.3987 29.3253 16.2409 29.6409 16.667C29.6882 16.7459 29.925 16.6828 30.067 16.6985C30.8718 16.7775 31.7082 16.7932 32.4815 16.9826C33.0022 17.1089 33.5704 17.0615 34.0911 17.3771C34.2805 17.4876 34.5488 17.4087 34.5646 17.7717C34.5646 17.819 34.7539 17.9137 34.8644 17.9295C36.2373 18.0715 36.4898 18.2135 37.6103 19.1762C37.9732 19.4918 38.494 19.4918 38.8728 19.8863C39.2673 20.3124 39.8196 20.5807 40.293 20.9121C40.4035 20.991 40.514 21.133 40.6402 21.1488C41.0979 21.1961 41.2872 21.5433 41.5082 21.8589C41.6502 22.0799 41.7133 22.2061 42.0605 22.285C42.4866 22.3797 42.8653 22.8058 43.2125 23.153C43.6228 23.5317 43.9069 24.084 44.3645 24.3523C44.838 24.6364 45.1694 25.0782 45.627 25.3781C46.2898 25.8199 46.7948 26.5301 47.2998 27.1771C47.8206 27.8557 48.2466 28.6132 48.7516 29.2917C49.1304 29.6231 49.2566 30.065 49.1777 30.57Z" fill="#2F5784"/>
<path d="M32.3079 1.73812C31.9134 2.52717 31.2821 2.63764 30.5878 2.79545C29.5778 3.03216 28.5994 3.47403 27.6052 3.82121C27.3053 3.93168 26.9739 3.9948 26.6583 4.0737C26.5794 4.08948 26.4374 4.0737 26.4216 4.12105C26.0586 4.89431 25.3011 4.76807 24.6541 4.84697C23.9755 4.94166 23.1865 4.78385 22.6026 5.0679C21.7978 5.46243 21.0403 5.11525 20.2197 5.27306C20.267 5.88851 20.488 6.40929 20.9772 6.91428C21.6084 6.80381 22.3028 6.56709 22.9498 6.61444C23.8809 6.69334 24.7646 6.3146 25.6641 6.48819C26.5636 6.646 27.4789 6.80381 28.3784 7.00896C29.1201 7.18255 29.8461 7.21411 30.572 7.18255C30.7456 6.70912 30.9192 6.29882 31.0139 5.88851C31.1243 5.3993 31.3768 5.03634 31.8818 4.97322C32.4657 4.91009 33.0654 4.94166 33.4441 5.46243C33.6808 5.79383 33.8544 6.20413 33.9018 6.59866C33.9807 7.15099 33.9491 7.73489 33.9018 8.303C33.8702 8.85533 33.4915 9.17095 33.018 9.34454C32.1027 9.66016 31.2032 10.0862 30.2722 10.2125C29.1044 10.3703 28.1102 10.9226 27.0686 11.3172C25.9482 11.7432 24.8277 11.9484 23.6441 12.0115C22.287 12.0746 20.9456 11.98 19.62 11.7117C19.2886 11.6486 18.9099 11.7117 18.5627 11.6959C18.0103 11.6801 17.5685 11.5065 17.1108 11.1594C15.8641 10.2125 15.801 8.90268 15.7379 7.54551C15.7221 6.99318 15.6116 6.42507 15.6274 5.87273C15.6432 4.67338 15.6748 3.47403 15.7537 2.27467C15.7695 1.92749 15.9588 1.58031 16.1009 1.24891C16.4323 0.53877 16.669 0.444084 17.458 0.522989C18.1524 0.586113 18.8467 0.586112 19.5253 0.570332C19.7305 0.570332 19.9514 0.491427 20.1092 0.365179C20.5511 0.04956 21.0403 -0.0135638 21.5768 0.00221716C22.8235 0.0337791 24.086 -0.0135638 25.3327 0.0337791C25.7746 0.04956 26.2322 0.160027 26.6583 0.302055C27.8419 0.71236 29.057 0.838608 30.2879 0.822827C31.1401 0.822827 31.7398 1.20157 32.3079 1.73812Z" fill="#2F5784"/>
<path d="M33.8702 32.9213C34.1858 33.6788 33.7597 34.2311 33.2863 34.6888C32.4183 35.5251 31.6451 36.4089 31.0927 37.4978C30.9507 37.7818 30.6666 37.987 30.4457 38.2395C30.351 38.3499 30.1774 38.4446 30.1617 38.5709C30.067 39.2179 29.5462 39.5966 29.1832 40.0385C28.3468 41.0958 27.4158 42.09 26.5478 43.1316C26.4216 43.2894 26.3427 43.4945 26.2164 43.6523C25.1275 44.8675 24.1649 45.3725 22.5868 44.4729C20.772 43.4314 20.8035 41.4903 21.2454 39.9438C21.4348 39.281 21.8609 38.6182 22.571 38.1606C23.4547 37.5767 24.1807 36.7245 25.0171 36.0617C26.2322 35.0991 27.5262 34.2311 28.9307 33.5525C29.2306 33.3947 29.4989 33.1264 29.7356 32.8739C30.0827 32.4952 30.4141 32.1007 30.7298 31.7062C31.0769 31.2643 31.5504 31.0434 32.0396 30.7751C32.655 30.4595 33.1285 29.8598 33.6177 29.339C34.1385 28.8025 34.7539 28.4868 35.4798 28.3764C36.2058 28.2817 36.474 28.5026 36.5056 29.2443C36.5372 30.0492 36.1584 30.6962 35.7323 31.3116C35.5114 31.6272 35.2431 31.9271 35.038 32.2585C34.6119 32.9371 34.6277 32.9528 33.8702 32.9213Z" fill="#2F5784"/>
<path d="M47.2998 14.4417C47.7417 14.7731 48.1046 15.0414 48.4518 15.3254C48.7832 15.6095 49.1146 15.6253 49.4144 15.3412C49.7932 14.994 50.1719 14.6468 50.5033 14.2523C50.9925 13.6842 50.7558 12.9898 50.7085 12.3428C50.6769 11.9641 50.5664 11.5853 50.4875 11.2382C51.466 10.9068 51.8289 11.2224 52.1288 12.0588C52.3339 12.6269 52.5075 13.3212 53.3597 13.4633C53.6437 13.5106 53.9751 13.842 54.1014 14.3312C54.2276 14.8362 54.7484 15.2307 54.7326 15.8462C54.7011 16.8562 54.7326 17.8819 53.7384 18.5447C53.6437 18.6079 53.5333 18.7025 53.5017 18.7972C53.2492 19.3653 52.7758 19.6021 52.255 19.9019C50.9768 20.6436 49.6196 20.8645 48.1993 20.8172C47.0157 20.7856 45.9111 20.4542 45.122 19.46C44.7275 18.9708 44.3014 18.5132 43.9227 18.024C43.7806 17.8346 43.6386 17.5979 43.6228 17.3769C43.607 17.0455 43.8438 16.6352 43.7017 16.3985C43.4966 16.0356 43.5439 15.7357 43.607 15.3728C43.6702 14.9625 43.5439 14.5206 43.6544 14.1261C43.9227 13.1634 44.4119 12.2955 45.2167 11.6642C45.769 11.2224 46.3056 11.3644 46.6686 11.9799C47.1578 12.7531 47.3471 13.5737 47.2998 14.4417Z" fill="#2F5784"/>
</svg>
