<svg viewBox="0 0 1624 340" fill="none" xmlns="http://www.w3.org/2000/svg">
<path d="M146.842 251.124C147.543 249.722 147.893 248.321 147.893 246.919C148.244 245.518 148.769 244.116 149.47 242.715C151.572 235.707 153.674 228.875 155.776 222.218C157.879 215.561 159.806 208.904 161.558 202.247C162.609 198.744 163.66 195.415 164.711 192.262C165.762 188.758 166.638 185.079 167.339 181.225C167.689 179.473 168.039 177.722 168.39 175.97C168.74 173.867 169.09 171.765 169.441 169.663C169.791 167.911 170.317 166.159 171.017 164.408C171.718 162.656 172.419 160.904 173.12 159.152C174.521 157.05 175.397 155.298 175.747 153.896C176.799 150.042 177.85 146.013 178.901 141.809C179.952 137.604 181.178 133.575 182.58 129.721C184.682 122.714 186.784 115.531 188.886 108.173C191.339 100.816 193.967 93.6332 196.77 86.6258C198.171 83.1221 199.748 79.7936 201.499 76.6403C203.251 73.1366 205.003 69.6329 206.755 66.1293C208.507 63.3263 210.084 60.6986 211.485 58.246C213.237 55.443 215.164 52.6401 217.266 49.8372C219.719 46.6838 222.522 44.4064 225.675 43.005C226.376 42.6546 227.427 42.4794 228.828 42.4794C229.529 42.8298 230.23 43.005 230.93 43.005C231.982 42.6546 233.033 42.6546 234.084 43.005C234.084 45.1072 234.784 46.3335 236.186 46.6838C236.186 47.0342 236.186 47.2094 236.186 47.2094C236.536 47.2094 236.711 47.3846 236.711 47.7349C236.011 48.786 235.836 50.0123 236.186 51.4138C236.536 52.4649 236.361 53.6912 235.66 55.0927C235.66 56.1438 235.66 56.6693 235.66 56.6693C236.711 57.3701 236.887 58.7715 236.186 60.8737C235.836 61.5745 235.485 62.4504 235.135 63.5015C234.784 64.2022 234.784 64.903 235.135 65.6037C235.485 65.9541 235.31 66.4796 234.609 67.1804C232.507 70.3337 230.58 73.6622 228.828 77.1659C227.427 79.9688 226.2 82.9469 225.149 86.1003C224.449 88.9032 223.748 91.8813 223.047 95.0346C223.047 96.7865 222.346 99.0639 220.945 101.867C218.843 107.122 216.741 112.378 214.638 117.633C212.886 122.889 211.135 128.32 209.383 133.926C208.682 136.378 207.981 138.831 207.281 141.283C206.93 143.385 206.405 145.488 205.704 147.59C205.003 149.692 204.478 151.794 204.127 153.896C203.777 155.999 203.251 157.926 202.551 159.678C202.2 161.079 201.85 162.305 201.499 163.356C201.499 164.408 201.499 165.634 201.499 167.035C200.098 173.692 198.346 180.174 196.244 186.481C194.492 192.787 192.74 199.094 190.988 205.401C189.587 209.255 188.186 212.934 186.784 216.437C185.733 219.591 184.331 222.919 182.58 226.423C181.879 227.824 181.529 229.226 181.529 230.627C180.477 234.832 179.426 239.036 178.375 243.24C177.674 247.094 176.623 251.124 175.222 255.328C173.82 259.182 172.419 263.211 171.017 267.416C169.966 271.62 168.565 275.649 166.813 279.503C166.112 282.306 165.412 284.233 164.711 285.285C163.66 286.336 162.959 287.562 162.609 288.963C162.258 290.365 161.733 291.766 161.032 293.168C159.981 297.372 158.93 301.577 157.879 305.781C156.828 310.336 155.426 314.54 153.674 318.394C152.623 322.599 150.696 326.102 147.893 328.905C145.791 331.708 143.514 333.11 141.061 333.11C140.36 333.11 139.484 333.285 138.433 333.635C137.382 334.336 136.506 334.862 135.805 335.212C133.003 336.263 130.024 335.738 126.871 333.635C126.17 332.935 125.47 332.584 124.769 332.584C123.017 331.884 121.966 332.234 121.616 333.635C121.616 334.336 121.265 335.037 120.564 335.738C119.513 336.789 118.988 336.613 118.988 335.212C118.287 333.811 117.762 333.11 117.411 333.11C115.659 332.409 114.083 331.533 112.681 330.482C111.28 329.431 109.703 328.029 107.951 326.278L107.426 325.752C105.323 324 103.922 321.898 103.221 319.445C102.52 316.993 102.345 314.365 102.696 311.562C103.046 309.46 103.221 307.358 103.221 305.256C103.221 303.153 103.221 301.051 103.221 298.949V270.044C103.221 258.481 103.747 246.919 104.798 235.357C105.148 229.401 105.499 223.445 105.849 217.488C106.199 211.182 106.55 205.05 106.9 199.094C107.25 195.941 107.426 192.787 107.426 189.634C107.426 186.13 107.601 182.802 107.951 179.649C107.951 176.846 107.951 174.218 107.951 171.765C107.951 169.313 107.776 166.685 107.426 163.882C107.426 157.926 107.426 152.32 107.426 147.064C107.776 141.458 108.126 135.853 108.477 130.247C108.477 127.444 108.477 124.641 108.477 121.838C108.477 118.684 108.652 115.706 109.002 112.903C109.353 112.553 109.353 112.203 109.002 111.852C109.002 111.852 108.652 112.203 107.951 112.903C107.25 116.407 106.199 119.736 104.798 122.889C103.747 125.692 102.871 128.845 102.17 132.349C101.82 134.451 101.119 136.378 100.068 138.13C99.0168 139.882 97.9657 141.634 96.9146 143.385C95.1628 147.239 93.4109 151.094 91.6591 154.948C89.9072 158.802 88.1554 162.656 86.4036 166.51C83.951 172.116 81.8488 178.247 80.0969 184.904C79.3962 187.707 78.6955 190.685 77.9947 193.838C77.294 196.992 76.4181 199.97 75.367 202.773C74.6662 204.525 73.9655 206.452 73.2647 208.554C72.564 210.306 71.8633 212.058 71.1625 213.809C70.1114 216.963 68.71 219.941 66.9581 222.744C65.5567 225.547 64.1552 228.525 62.7537 231.678C61.0019 235.532 59.25 239.561 57.4982 243.766C56.0967 247.97 54.5201 252 52.7682 255.854C51.0164 260.058 49.2645 264.438 47.5127 268.992C45.7608 273.197 43.8338 277.401 41.7316 281.606C40.3301 284.759 38.7535 287.036 37.0016 288.438C34.1987 291.942 30.695 293.168 26.4906 292.117C24.038 291.416 22.2862 291.942 21.2351 293.693C20.8847 294.044 20.0088 294.394 18.6073 294.744C17.5562 294.744 16.8555 294.569 16.5051 294.219C15.1036 292.817 12.6511 291.766 9.14738 291.066C7.04517 290.365 5.46851 289.314 4.41741 287.912C3.01594 286.511 2.14002 284.409 1.78965 281.606C0.738543 272.846 0.388175 264.963 0.738543 257.956C1.08891 254.803 1.2641 251.649 1.2641 248.496C1.2641 244.992 1.43928 241.489 1.78965 237.985C2.14002 234.131 2.3152 230.277 2.3152 226.423C2.3152 222.218 2.49038 218.189 2.84075 214.335V200.145C3.19112 195.24 3.54149 190.51 3.89186 185.955C3.89186 181.05 4.06704 176.145 4.41741 171.24C4.76778 168.086 4.94296 165.108 4.94296 162.305C4.94296 159.152 5.11814 156.174 5.46851 153.371C5.81888 148.466 6.16925 143.911 6.51962 139.707C6.86999 135.152 7.22035 130.422 7.57072 125.517C8.27146 121.663 8.62183 117.984 8.62183 114.48C8.97219 110.976 9.32256 107.298 9.67293 103.443C10.3737 99.2391 10.8992 95.0346 11.2496 90.8302C11.6 86.2754 12.1255 81.8958 12.8262 77.6914C13.527 73.1366 14.0525 68.757 14.4029 64.5526C15.1036 59.9978 15.8044 55.2679 16.5051 50.3627C17.5562 40.9028 19.1329 31.4428 21.2351 21.9829C21.9358 19.8807 22.2862 17.9536 22.2862 16.2018C22.6366 14.0996 22.9869 11.9974 23.3373 9.89517C23.3373 5.69076 25.2643 3.06301 29.1184 2.01189C30.5198 1.31117 31.9213 1.13599 33.3228 1.48635C34.7243 1.48635 36.3009 1.31117 38.0527 0.960804C38.4031 0.960804 38.5783 1.13599 38.5783 1.48635C38.9287 1.48635 39.279 1.48635 39.6294 1.48635C41.7316 2.88782 43.4835 3.76374 44.8849 4.11411C46.6368 5.16522 48.3886 6.74188 50.1405 8.84408C50.8412 10.2456 51.5419 11.1215 52.2427 11.4718C53.9945 12.5229 55.2208 13.9244 55.9215 15.6763C56.6223 17.4281 57.4982 19.1799 58.5493 20.9318C59.25 22.6836 59.6004 24.6106 59.6004 26.7128C59.6004 28.8151 59.4252 30.9173 59.0748 33.0195C58.7245 36.8735 58.0237 40.7276 56.9726 44.5816C56.2719 48.4357 55.5712 52.4649 54.8704 56.6693C54.5201 58.4212 54.3449 60.8737 54.3449 64.0271C53.6441 68.9322 53.2938 74.0125 53.2938 79.2681C53.6441 84.1732 53.6441 89.0784 53.2938 93.9835C53.2938 96.4361 53.1186 98.1879 52.7682 99.2391C52.0675 101.341 51.7171 103.443 51.7171 105.546C51.7171 107.648 51.7171 109.575 51.7171 111.327C51.7171 114.13 51.7171 116.757 51.7171 119.21C51.7171 121.312 51.5419 123.59 51.1916 126.042C50.8412 129.196 50.666 132.349 50.666 135.502C51.0164 138.655 51.1916 141.809 51.1916 144.962C50.8412 147.765 50.666 150.743 50.666 153.896C51.0164 156.699 51.0164 159.678 50.666 162.831C50.666 167.386 50.666 171.94 50.666 176.495C50.666 180.7 50.3156 185.079 49.6149 189.634C49.6149 191.736 49.2645 193.838 48.5638 195.941C48.2134 197.693 48.2134 199.795 48.5638 202.247C48.5638 203.298 48.739 203.999 49.0893 204.349C50.4908 201.196 51.3667 198.393 51.7171 195.941C54.8704 184.729 58.1989 173.692 61.7026 162.831C65.2063 151.969 68.8851 140.933 72.7392 129.721C75.5421 120.612 78.6955 111.677 82.1991 102.918C85.7028 94.1587 89.3817 85.3995 93.2357 76.6403C96.7394 69.6329 100.068 62.4504 103.221 55.0927C106.375 47.7349 109.703 40.5524 113.207 33.545C113.907 31.7932 114.608 30.2165 115.309 28.8151C116.36 27.4136 117.411 25.8369 118.462 24.0851C119.163 22.3332 120.214 21.2821 121.616 20.9318C124.068 19.5303 126.346 17.2529 128.448 14.0996C129.148 12.6981 130.024 11.9974 131.075 11.9974C132.477 11.647 133.703 11.2967 134.754 10.9463C138.959 9.19445 142.813 9.54482 146.317 11.9974C149.119 13.7492 151.572 15.6763 153.674 17.7785C155.776 19.5303 157.703 21.8077 159.455 24.6106C162.959 31.2676 164.711 38.4502 164.711 46.1583C164.711 48.6109 164.536 50.3627 164.185 51.4138C163.485 54.2167 162.959 57.0197 162.609 59.8226C162.609 62.6256 162.258 65.4285 161.558 68.2315C160.857 70.3337 160.506 72.6111 160.506 75.0636C160.506 77.1659 160.331 79.4433 159.981 81.8958C159.63 85.0491 159.28 88.2025 158.93 91.3558C158.579 94.5091 158.404 97.6624 158.404 100.816C158.054 103.268 157.879 105.721 157.879 108.173C157.879 110.626 157.703 113.079 157.353 115.531C156.652 120.787 156.302 126.217 156.302 131.823C156.652 137.079 156.828 142.334 156.828 147.59C156.477 151.444 156.127 155.298 155.776 159.152C155.776 162.656 155.601 166.335 155.251 170.189C154.901 170.889 154.725 171.59 154.725 172.291C155.076 172.992 155.076 173.692 154.725 174.393C154.725 178.597 154.55 182.802 154.2 187.006C153.849 190.86 153.499 194.89 153.149 199.094C152.798 202.247 152.448 205.576 152.098 209.079C152.098 212.233 151.747 215.386 151.046 218.539C151.046 219.941 150.871 221.167 150.521 222.218C150.521 223.269 150.346 224.496 149.995 225.897C149.295 227.299 148.944 228.7 148.944 230.102C148.944 231.153 148.769 232.379 148.419 233.78C148.068 236.583 147.718 239.211 147.368 241.664C147.017 244.116 146.667 246.744 146.317 249.547C146.317 250.598 146.492 251.124 146.842 251.124ZM356.316 203.824C360.17 203.824 361.221 205.926 359.469 210.131C358.418 211.882 357.717 213.634 357.367 215.386C357.016 217.138 356.491 218.89 355.79 220.642C355.089 222.393 354.389 223.97 353.688 225.372C353.338 226.423 352.812 227.649 352.111 229.05C351.411 230.452 350.71 231.678 350.009 232.729C349.308 233.78 348.608 234.832 347.907 235.883C347.206 237.284 346.505 238.686 345.805 240.087C345.104 241.138 344.403 242.54 343.702 244.291C342.651 246.043 341.6 248.146 340.549 250.598C339.498 252.7 338.622 254.627 337.921 256.379C337.571 257.08 337.221 257.781 336.87 258.481C336.52 258.832 336.169 259.357 335.819 260.058C333.016 263.912 330.213 267.766 327.41 271.62C324.958 275.124 322.33 278.803 319.527 282.657C318.126 284.409 316.899 286.336 315.848 288.438C315.147 290.19 314.096 292.117 312.695 294.219C309.892 299.124 306.739 303.679 303.235 307.883C300.082 312.088 296.578 316.467 292.724 321.022C290.972 323.475 288.87 325.577 286.417 327.329C283.965 329.431 281.162 330.832 278.008 331.533C276.607 331.884 275.381 332.409 274.33 333.11C273.629 334.161 272.753 335.037 271.702 335.738C268.548 338.19 265.395 339.416 262.242 339.416C261.191 339.066 260.14 338.891 259.089 338.891C258.037 338.891 256.986 338.716 255.935 338.365C254.534 338.015 253.132 337.665 251.731 337.314C250.68 336.964 249.278 336.964 247.526 337.314C244.723 337.665 241.745 337.139 238.592 335.738C235.439 334.336 232.285 332.409 229.132 329.956C225.979 327.854 223.001 325.402 220.198 322.599C217.745 320.146 215.468 318.044 213.365 316.292C209.161 312.438 206.183 307.883 204.431 302.628C202.329 297.723 200.927 292.467 200.227 286.861C199.176 279.153 198.825 271.62 199.176 264.262C199.526 256.905 200.577 249.547 202.329 242.189C205.132 229.576 208.811 217.313 213.365 205.401C217.57 193.488 222.3 181.751 227.555 170.189C231.409 161.429 235.614 153.196 240.169 145.488C245.074 137.429 250.154 129.371 255.41 121.312C262.417 110.801 270.3 102.042 279.059 95.0346C280.461 93.9835 281.687 92.9324 282.738 91.8813C283.789 90.4799 285.016 89.2536 286.417 88.2025C292.724 82.5966 299.381 78.217 306.388 75.0636C308.841 74.0125 310.768 73.6622 312.169 74.0126C315.323 74.7133 318.476 75.0636 321.629 75.0636C325.133 74.7133 328.286 75.414 331.089 77.1659C332.841 78.217 334.593 79.2681 336.345 80.3192C338.447 81.3703 340.199 82.9469 341.6 85.0492C342.301 86.801 343.177 88.3776 344.228 89.7791C345.629 91.1806 346.856 92.7572 347.907 94.5091C348.958 96.2609 349.659 98.0128 350.009 99.7646C350.359 101.516 350.71 103.268 351.06 105.02C351.411 107.122 351.411 109.225 351.06 111.327C351.06 113.429 351.411 115.531 352.111 117.633C352.462 119.385 352.111 121.487 351.06 123.94C350.359 125.692 349.834 127.269 349.483 128.67C349.483 130.071 349.133 131.648 348.432 133.4C348.432 134.101 348.082 134.801 347.381 135.502C344.578 139.707 342.126 143.911 340.024 148.115C337.921 152.32 335.644 156.699 333.191 161.254C333.191 161.254 332.841 161.955 332.14 163.356C330.739 165.108 329.337 166.86 327.936 168.612C326.534 170.364 325.483 172.466 324.783 174.919C324.432 176.32 323.731 177.546 322.68 178.597C321.629 179.649 320.753 180.7 320.053 181.751C317.25 185.254 314.447 188.758 311.644 192.262C309.191 195.765 306.563 199.269 303.76 202.773C300.257 206.627 296.928 210.481 293.775 214.335C290.622 217.839 287.118 221.342 283.264 224.846C281.512 226.598 279.585 228.175 277.483 229.576C275.381 230.627 273.278 231.853 271.176 233.255C268.023 235.007 265.045 237.109 262.242 239.561C259.439 241.664 256.636 243.941 253.833 246.394C253.132 246.744 252.782 247.094 252.782 247.445C252.782 247.445 252.432 247.445 251.731 247.445C246.125 247.795 243.147 250.598 242.796 255.854C242.446 259.708 241.92 263.562 241.22 267.416C240.519 270.919 240.519 274.598 241.22 278.452C241.57 280.555 241.745 282.657 241.745 284.759C241.745 286.861 241.745 288.963 241.745 291.066C241.745 293.869 242.271 296.496 243.322 298.949V299.474C244.023 300.175 245.074 301.577 246.475 303.679C247.176 304.38 247.526 304.905 247.526 305.256C247.877 305.256 248.227 305.431 248.577 305.781V306.307C251.03 308.759 253.658 308.934 256.461 306.832C261.716 303.679 266.972 300.526 272.227 297.372C277.483 293.869 282.213 289.664 286.417 284.759C288.169 283.007 289.746 281.255 291.147 279.503C292.899 277.401 294.651 275.474 296.403 273.722C298.855 270.919 301.133 268.292 303.235 265.839C305.687 263.036 308.14 260.233 310.593 257.43C313.045 254.978 315.323 252.525 317.425 250.073C319.877 247.62 322.155 244.992 324.257 242.189C327.41 238.335 330.564 234.481 333.717 230.627C336.87 226.423 340.024 222.218 343.177 218.014C344.578 216.262 345.805 214.51 346.856 212.758C348.257 210.656 349.483 208.729 350.535 206.977C351.936 204.875 353.863 203.824 356.316 203.824ZM270.125 174.393C269.424 176.846 268.548 179.298 267.497 181.751C266.797 184.203 265.746 186.656 264.344 189.108C267.147 186.306 269.775 183.678 272.227 181.225C275.03 178.773 277.658 176.145 280.111 173.342C285.016 167.386 289.746 161.254 294.301 154.948C298.855 148.641 302.534 141.984 305.337 134.977C306.739 131.823 308.14 128.845 309.542 126.042C310.943 123.239 312.169 120.261 313.22 117.108C313.921 115.006 314.622 112.903 315.323 110.801C316.023 108.699 316.374 106.597 316.374 104.495C315.323 104.495 314.797 104.495 314.797 104.495C313.045 105.896 311.293 107.298 309.542 108.699C308.14 109.75 306.739 111.152 305.337 112.903C303.235 115.356 301.308 117.984 299.556 120.787C298.155 123.239 296.578 125.692 294.826 128.144C293.074 130.947 291.322 133.575 289.571 136.028C287.819 138.48 285.892 141.108 283.789 143.911C280.987 147.064 279.059 150.918 278.008 155.473C277.658 157.225 277.308 158.802 276.957 160.203C276.607 161.254 276.081 162.481 275.381 163.882C274.68 165.634 273.804 167.386 272.753 169.137C271.702 170.889 270.826 172.641 270.125 174.393ZM732.783 159.678C731.732 159.327 730.681 159.152 729.63 159.152C728.579 159.152 727.528 158.977 726.477 158.626C725.426 160.028 725.426 161.079 726.477 161.78C727.528 162.13 728.229 162.831 728.579 163.882C726.827 165.984 725.075 168.262 723.324 170.714C721.572 173.167 719.469 175.444 717.017 177.546C714.564 179.298 712.287 181.4 710.185 183.853C708.433 186.306 706.681 188.758 704.929 191.211C702.126 194.714 699.499 198.218 697.046 201.722C694.593 204.875 691.966 208.204 689.163 211.707C685.659 215.561 682.33 219.591 679.177 223.795C676.024 227.999 672.695 232.029 669.192 235.883C666.739 238.686 664.287 241.489 661.834 244.291C659.732 247.094 657.454 249.897 655.002 252.7C654.651 253.051 654.301 253.401 653.951 253.751C653.951 254.102 653.775 254.452 653.425 254.803C652.024 257.255 650.272 259.532 648.17 261.635C646.418 263.387 644.666 265.138 642.914 266.89C640.812 268.642 638.885 271.27 637.133 274.773C636.432 276.175 635.556 277.401 634.505 278.452C633.454 279.503 632.403 280.555 631.352 281.606C628.899 283.358 626.622 285.285 624.52 287.387C622.768 289.139 621.016 290.89 619.264 292.642C611.556 300.35 602.972 305.431 593.512 307.883C583.702 309.985 574.592 308.234 566.183 302.628C564.782 301.927 563.03 300.526 560.928 298.423C560.578 298.423 560.402 298.423 560.402 298.423C560.402 298.073 560.227 297.898 559.877 297.898C559.176 296.496 558.475 295.27 557.775 294.219C557.074 293.168 556.373 291.766 555.672 290.015C555.322 288.613 555.147 287.387 555.147 286.336C555.147 284.934 554.972 283.533 554.621 282.131C554.271 279.328 553.921 276.525 553.57 273.722C553.57 270.919 553.22 268.117 552.519 265.314C553.921 264.613 554.621 264.262 554.621 264.262C554.621 263.211 554.621 262.16 554.621 261.109C554.972 260.058 554.972 259.007 554.621 257.956C554.621 257.255 554.621 256.73 554.621 256.379C554.972 256.029 554.796 255.678 554.096 255.328C552.694 254.978 551.468 255.328 550.417 256.379C547.614 260.233 544.811 264.262 542.008 268.467C539.205 272.321 536.577 276.525 534.125 281.08C532.723 283.533 530.621 285.985 527.818 288.438C525.716 289.839 524.49 291.241 524.139 292.642C523.439 294.044 522.563 295.445 521.511 296.847C520.46 297.898 519.584 299.299 518.884 301.051L518.358 301.577C515.555 302.978 513.103 304.73 511 306.832C509.249 308.934 507.146 310.686 504.694 312.088C501.19 313.489 498.738 312.613 497.336 309.46C496.635 307.358 495.759 307.183 494.708 308.934C493.307 311.387 490.854 313.139 487.351 314.19C484.548 315.591 480.694 315.591 475.788 314.19C471.234 313.139 467.905 311.037 465.803 307.883C465.102 306.832 464.401 305.781 463.701 304.73C462.65 303.679 461.774 302.628 461.073 301.577C458.27 298.774 456.343 295.62 455.292 292.117C454.942 291.066 454.241 290.54 453.19 290.54C452.489 283.883 453.19 273.898 455.292 260.584C457.044 246.919 463.526 229.926 474.737 209.605C476.139 207.853 477.54 206.101 478.942 204.349C480.343 202.598 481.745 200.846 483.146 199.094C485.248 196.291 487.175 193.488 488.927 190.685C491.029 187.882 492.956 185.079 494.708 182.276C501.365 172.116 508.198 162.481 515.205 153.371C522.563 143.911 530.271 134.801 538.329 126.042C541.833 122.539 545.161 119.21 548.315 116.057C551.818 112.903 555.322 109.75 558.826 106.597C560.578 104.845 562.505 103.443 564.607 102.392C567.059 100.991 569.337 99.7646 571.439 98.7135C573.191 98.0128 574.592 98.0128 575.643 98.7135C577.045 99.0639 578.096 99.5894 578.797 100.29C580.549 101.341 582.125 102.392 583.527 103.443C585.278 104.144 587.03 105.195 588.782 106.597L590.359 108.173C593.162 110.976 594.563 113.955 594.563 117.108C594.914 119.911 594.213 123.414 592.461 127.619C591.06 130.071 589.658 132.349 588.257 134.451C586.855 136.553 585.278 138.831 583.527 141.283C581.074 144.787 578.621 148.115 576.169 151.269C573.716 154.072 571.264 157.4 568.811 161.254C568.11 161.955 567.235 162.831 566.183 163.882C565.483 164.933 564.782 165.809 564.081 166.51C558.826 170.364 554.096 175.794 549.891 182.802C548.139 186.656 546.037 190.16 543.585 193.313C541.132 196.466 538.68 199.795 536.227 203.298C531.672 209.955 527.293 216.788 523.088 223.795C519.234 230.452 515.38 237.284 511.526 244.291C509.073 248.146 506.796 252.175 504.694 256.379C502.942 260.233 501.541 264.438 500.489 268.992V270.569C501.891 269.518 503.643 267.591 505.745 264.788C513.803 254.277 521.687 243.766 529.395 233.255C537.453 222.393 545.337 211.532 553.045 200.671C554.446 198.568 555.848 196.466 557.249 194.364C559.001 192.262 560.402 189.984 561.453 187.532C564.607 181.576 568.286 176.145 572.49 171.24C577.045 166.335 581.249 161.079 585.103 155.473C585.804 154.422 586.68 153.546 587.731 152.845C588.782 152.145 589.658 151.444 590.359 150.743C596.315 142.334 603.498 133.925 611.906 125.517C612.607 124.816 612.958 124.115 612.958 123.414C613.308 122.714 613.833 122.013 614.534 121.312C614.885 120.612 615.235 119.736 615.585 118.684C615.936 117.633 616.286 116.757 616.636 116.057C616.987 115.356 617.512 114.83 618.213 114.48C618.914 114.13 619.439 114.13 619.79 114.48C620.49 115.181 620.49 115.706 619.79 116.057C619.439 116.407 619.089 116.933 618.739 117.633C618.739 117.984 618.213 118.86 617.162 120.261C620.315 118.86 622.067 116.582 622.418 113.429C624.87 115.181 626.797 116.057 628.199 116.057C630.301 116.057 631.877 116.933 632.929 118.684C633.279 119.736 634.505 120.612 636.607 121.312C638.359 121.312 639.235 122.013 639.235 123.414C639.235 125.517 639.761 127.619 640.812 129.721C641.513 132.524 641.513 134.977 640.812 137.079C640.111 139.181 639.41 141.458 638.71 143.911C638.009 146.013 637.133 148.115 636.082 150.218C635.031 151.969 634.155 153.896 633.454 155.999C632.753 157.751 631.352 160.553 629.25 164.408C627.498 168.262 626.272 170.889 625.571 172.291C622.768 177.196 621.016 180.875 620.315 183.327C619.615 185.43 618.739 187.707 617.688 190.16C613.833 198.568 611.381 204.525 610.33 208.028C609.629 211.532 608.928 214.16 608.228 215.912C606.826 220.116 605.95 223.094 605.6 224.846C605.249 226.598 604.198 229.401 602.447 233.255C599.644 238.861 597.717 243.24 596.665 246.394C595.965 249.197 594.914 253.576 593.512 259.532C592.461 264.438 591.76 268.467 591.41 271.62C591.06 274.423 591.585 276.876 592.987 278.978C593.337 279.328 593.337 279.503 592.987 279.503C593.687 280.204 594.914 280.555 596.665 280.555C598.067 279.153 599.293 277.927 600.344 276.876C601.746 275.474 603.147 273.898 604.549 272.146C605.6 271.095 606.651 270.044 607.702 268.992C609.104 267.941 610.68 267.591 612.432 267.941C611.031 266.54 610.505 265.664 610.855 265.314C611.556 264.963 612.257 264.613 612.958 264.262C614.359 263.562 615.585 263.036 616.636 262.686C617.337 261.985 617.863 260.934 618.213 259.532C618.914 258.131 619.615 256.73 620.315 255.328C620.666 254.978 621.016 254.803 621.366 254.803C621.717 254.452 622.067 254.102 622.418 253.751C622.418 254.102 622.418 254.277 622.418 254.277C622.768 254.277 622.943 254.452 622.943 254.803V255.328C624.695 254.627 625.571 253.576 625.571 252.175C624.169 252.875 623.469 253.226 623.469 253.226C624.169 251.124 624.87 249.722 625.571 249.021C626.622 248.321 628.549 247.97 631.352 247.97C631.352 245.868 632.753 243.941 635.556 242.189C636.257 241.489 637.659 239.912 639.761 237.459C642.564 233.956 645.367 230.627 648.17 227.474C651.323 223.97 654.301 220.642 657.104 217.488C659.907 214.335 662.71 211.357 665.513 208.554C668.666 205.751 671.644 202.598 674.447 199.094C675.148 198.744 675.849 198.218 676.549 197.517C678.301 195.765 680.228 194.364 682.33 193.313C684.433 191.911 686.185 189.984 687.586 187.532C689.338 184.379 692.141 183.152 695.995 183.853C695.644 182.101 695.995 180.7 697.046 179.649C698.097 178.597 699.148 177.546 700.199 176.495C701.601 175.094 703.002 173.692 704.404 172.291C706.156 170.889 707.907 169.488 709.659 168.086C711.411 166.335 712.812 165.459 713.864 165.459C715.615 164.758 716.842 163.882 717.542 162.831C718.594 161.78 719.469 160.553 720.17 159.152C720.871 158.101 721.747 157.225 722.798 156.524C724.55 156.174 726.126 155.298 727.528 153.896C728.929 152.145 731.207 152.32 734.36 154.422C733.659 156.524 733.134 158.276 732.783 159.678ZM847.879 102.392C849.631 108.699 848.931 112.553 845.777 113.955C842.974 115.356 840.171 116.933 837.368 118.684C834.916 120.436 832.288 122.188 829.485 123.94C827.033 124.991 824.58 126.042 822.127 127.093C819.675 128.144 817.222 129.371 814.77 130.772C813.018 131.473 811.441 132.349 810.04 133.4C808.638 134.101 807.062 135.327 805.31 137.079C804.609 137.78 803.207 138.831 801.105 140.232C797.602 142.334 794.273 144.612 791.12 147.064C787.966 149.167 784.638 151.094 781.134 152.845C777.981 154.948 775.003 157.4 772.2 160.203C769.397 162.656 766.594 165.108 763.791 167.561C763.09 168.262 762.39 168.962 761.689 169.663C760.988 170.013 760.287 170.539 759.587 171.24C758.185 172.291 756.784 173.517 755.382 174.919C754.331 176.32 753.455 178.072 752.754 180.174C752.054 182.977 750.652 185.254 748.55 187.006C746.798 188.758 745.046 190.51 743.295 192.262C741.893 193.663 741.017 194.89 740.667 195.941C739.616 197.693 738.389 199.444 736.988 201.196C735.937 202.598 734.886 204.174 733.835 205.926C732.083 208.379 730.506 210.831 729.105 213.284C727.703 215.386 726.126 217.488 724.375 219.591C724.375 219.591 724.024 220.291 723.324 221.693C722.623 225.196 721.396 228.525 719.645 231.678C718.243 234.481 716.842 237.459 715.44 240.613C714.74 241.664 714.039 242.89 713.338 244.291C712.988 245.343 712.462 246.394 711.761 247.445C711.061 250.248 709.834 252.7 708.083 254.803C706.681 256.554 705.28 258.657 703.878 261.109C702.477 263.562 701.25 265.839 700.199 267.941C699.148 270.044 697.922 272.321 696.52 274.773C695.119 277.576 693.542 280.204 691.79 282.657C690.389 285.109 688.812 287.737 687.06 290.54C686.36 291.942 685.309 292.642 683.907 292.642C682.856 292.642 681.63 292.817 680.228 293.168C679.177 293.168 678.301 292.817 677.6 292.117C676.199 291.416 674.798 291.066 673.396 291.066C672.345 291.066 671.119 291.066 669.717 291.066C668.316 291.066 667.615 291.066 667.615 291.066C666.214 289.664 664.987 288.613 663.936 287.912C662.535 286.861 661.484 285.46 660.783 283.708C660.082 281.606 659.381 280.204 658.681 279.503C656.228 276.35 655.527 272.846 656.578 268.992C657.279 267.241 657.629 265.664 657.629 264.262C657.629 262.861 657.629 261.284 657.629 259.532C657.98 256.379 658.505 253.401 659.206 250.598C659.907 247.795 660.608 244.992 661.308 242.189C662.009 237.985 663.06 233.956 664.462 230.102C665.863 225.897 667.265 221.868 668.666 218.014C669.016 217.313 669.367 216.612 669.717 215.912C670.068 215.211 670.243 214.335 670.243 213.284C671.995 208.028 674.272 200.846 677.075 191.736C680.228 182.627 683.732 171.94 687.586 159.678C689.338 153.721 691.09 147.94 692.841 142.334C694.944 136.378 697.046 130.422 699.148 124.466C700.9 120.261 702.652 116.232 704.404 112.378C706.155 108.173 707.907 103.969 709.659 99.7646C709.659 99.0639 709.834 98.5383 710.185 98.188C710.535 97.8376 710.71 97.312 710.71 96.6113C711.411 94.5091 712.462 92.9324 713.864 91.8813C715.615 90.8302 717.367 89.9543 719.119 89.2536C719.119 89.2536 719.294 89.2536 719.645 89.2536C722.448 89.9543 725.426 90.655 728.579 91.3558C731.732 92.0565 734.36 93.9835 736.462 97.1369C736.813 97.8376 737.689 98.5383 739.09 99.2391C740.842 100.991 742.243 103.794 743.295 107.648C744.696 111.152 745.046 114.13 744.346 116.582C743.995 117.633 743.645 118.684 743.295 119.736C743.295 120.436 743.295 121.312 743.295 122.363C743.295 124.115 743.119 125.341 742.769 126.042C741.017 129.196 739.616 132.524 738.565 136.028C737.864 139.531 736.813 142.86 735.411 146.013C734.71 147.765 734.185 149.517 733.835 151.269C733.835 152.67 733.484 154.247 732.783 155.999C734.185 155.648 735.236 155.123 735.937 154.422C736.638 153.371 737.338 152.495 738.039 151.794C741.893 148.991 745.572 146.188 749.076 143.385C752.93 140.232 756.784 137.429 760.638 134.977C765.193 132.174 769.572 129.196 773.777 126.042C778.331 122.889 782.886 119.911 787.441 117.108C791.295 114.655 795.149 112.553 799.003 110.801C802.857 108.699 806.886 106.947 811.091 105.546C814.244 104.495 817.397 103.969 820.551 103.969C823.003 103.969 825.281 103.443 827.383 102.392C829.485 100.991 831.587 100.29 833.689 100.29C836.142 99.9398 838.595 99.4142 841.047 98.7135C844.551 98.0128 846.828 99.2391 847.879 102.392ZM950.641 203.824C954.495 203.824 955.546 205.926 953.795 210.131C952.743 211.882 952.043 213.634 951.692 215.386C951.342 217.138 950.816 218.89 950.116 220.642C949.415 222.393 948.714 223.97 948.013 225.372C947.663 226.423 947.138 227.649 946.437 229.05C945.736 230.452 945.035 231.678 944.335 232.729C943.634 233.78 942.933 234.832 942.232 235.883C941.532 237.284 940.831 238.686 940.13 240.087C939.429 241.138 938.729 242.54 938.028 244.291C936.977 246.043 935.926 248.146 934.875 250.598C933.824 252.7 932.948 254.627 932.247 256.379C931.897 257.08 931.546 257.781 931.196 258.481C930.845 258.832 930.495 259.357 930.145 260.058C927.342 263.912 924.539 267.766 921.736 271.62C919.283 275.124 916.656 278.803 913.853 282.657C912.451 284.409 911.225 286.336 910.174 288.438C909.473 290.19 908.422 292.117 907.02 294.219C904.217 299.124 901.064 303.679 897.56 307.883C894.407 312.088 890.903 316.467 887.049 321.022C885.298 323.475 883.195 325.577 880.743 327.329C878.29 329.431 875.487 330.832 872.334 331.533C870.932 331.884 869.706 332.409 868.655 333.11C867.954 334.161 867.078 335.037 866.027 335.738C862.874 338.19 859.721 339.416 856.567 339.416C855.516 339.066 854.465 338.891 853.414 338.891C852.363 338.891 851.312 338.716 850.261 338.365C848.859 338.015 847.458 337.665 846.056 337.314C845.005 336.964 843.604 336.964 841.852 337.314C839.049 337.665 836.071 337.139 832.918 335.738C829.764 334.336 826.611 332.409 823.458 329.956C820.304 327.854 817.326 325.402 814.523 322.599C812.071 320.146 809.793 318.044 807.691 316.292C803.487 312.438 800.508 307.883 798.757 302.628C796.654 297.723 795.253 292.467 794.552 286.861C793.501 279.153 793.151 271.62 793.501 264.262C793.852 256.905 794.903 249.547 796.654 242.189C799.457 229.576 803.136 217.313 807.691 205.401C811.895 193.488 816.625 181.751 821.881 170.189C825.735 161.429 829.939 153.196 834.494 145.488C839.399 137.429 844.48 129.371 849.735 121.312C856.743 110.801 864.626 102.042 873.385 95.0346C874.787 93.9835 876.013 92.9324 877.064 91.8813C878.115 90.4799 879.341 89.2536 880.743 88.2025C887.049 82.5966 893.706 78.217 900.714 75.0636C903.166 74.0125 905.093 73.6622 906.495 74.0126C909.648 74.7133 912.801 75.0636 915.955 75.0636C919.458 74.7133 922.612 75.414 925.415 77.1659C927.167 78.217 928.918 79.2681 930.67 80.3192C932.772 81.3703 934.524 82.9469 935.926 85.0492C936.627 86.801 937.502 88.3776 938.554 89.7791C939.955 91.1806 941.181 92.7572 942.232 94.5091C943.284 96.2609 943.984 98.0128 944.335 99.7646C944.685 101.516 945.035 103.268 945.386 105.02C945.736 107.122 945.736 109.225 945.386 111.327C945.386 113.429 945.736 115.531 946.437 117.633C946.787 119.385 946.437 121.487 945.386 123.94C944.685 125.692 944.159 127.269 943.809 128.67C943.809 130.071 943.459 131.648 942.758 133.4C942.758 134.101 942.408 134.801 941.707 135.502C938.904 139.707 936.451 143.911 934.349 148.115C932.247 152.32 929.97 156.699 927.517 161.254C927.517 161.254 927.167 161.955 926.466 163.356C925.064 165.108 923.663 166.86 922.261 168.612C920.86 170.364 919.809 172.466 919.108 174.919C918.758 176.32 918.057 177.546 917.006 178.597C915.955 179.649 915.079 180.7 914.378 181.751C911.575 185.254 908.772 188.758 905.969 192.262C903.517 195.765 900.889 199.269 898.086 202.773C894.582 206.627 891.254 210.481 888.101 214.335C884.947 217.839 881.444 221.342 877.589 224.846C875.838 226.598 873.911 228.175 871.808 229.576C869.706 230.627 867.604 231.853 865.502 233.255C862.348 235.007 859.37 237.109 856.567 239.561C853.764 241.664 850.962 243.941 848.159 246.394C847.458 246.744 847.107 247.094 847.107 247.445C847.107 247.445 846.757 247.445 846.056 247.445C840.45 247.795 837.472 250.598 837.122 255.854C836.772 259.708 836.246 263.562 835.545 267.416C834.845 270.919 834.845 274.598 835.545 278.452C835.896 280.555 836.071 282.657 836.071 284.759C836.071 286.861 836.071 288.963 836.071 291.066C836.071 293.869 836.596 296.496 837.648 298.949V299.474C838.348 300.175 839.399 301.577 840.801 303.679C841.502 304.38 841.852 304.905 841.852 305.256C842.202 305.256 842.553 305.431 842.903 305.781V306.307C845.356 308.759 847.983 308.934 850.786 306.832C856.042 303.679 861.297 300.526 866.553 297.372C871.808 293.869 876.538 289.664 880.743 284.759C882.495 283.007 884.071 281.255 885.473 279.503C887.225 277.401 888.976 275.474 890.728 273.722C893.181 270.919 895.458 268.292 897.56 265.839C900.013 263.036 902.466 260.233 904.918 257.43C907.371 254.978 909.648 252.525 911.75 250.073C914.203 247.62 916.48 244.992 918.583 242.189C921.736 238.335 924.889 234.481 928.042 230.627C931.196 226.423 934.349 222.218 937.502 218.014C938.904 216.262 940.13 214.51 941.181 212.758C942.583 210.656 943.809 208.729 944.86 206.977C946.262 204.875 948.189 203.824 950.641 203.824ZM864.451 174.393C863.75 176.846 862.874 179.298 861.823 181.751C861.122 184.203 860.071 186.656 858.67 189.108C861.473 186.306 864.1 183.678 866.553 181.225C869.356 178.773 871.984 176.145 874.436 173.342C879.341 167.386 884.071 161.254 888.626 154.948C893.181 148.641 896.86 141.984 899.663 134.977C901.064 131.823 902.466 128.845 903.867 126.042C905.269 123.239 906.495 120.261 907.546 117.108C908.247 115.006 908.947 112.903 909.648 110.801C910.349 108.699 910.699 106.597 910.699 104.495C909.648 104.495 909.123 104.495 909.123 104.495C907.371 105.896 905.619 107.298 903.867 108.699C902.466 109.75 901.064 111.152 899.663 112.903C897.56 115.356 895.633 117.984 893.882 120.787C892.48 123.239 890.903 125.692 889.152 128.144C887.4 130.947 885.648 133.575 883.896 136.028C882.144 138.48 880.217 141.108 878.115 143.911C875.312 147.064 873.385 150.918 872.334 155.473C871.984 157.225 871.633 158.802 871.283 160.203C870.932 161.254 870.407 162.481 869.706 163.882C869.005 165.634 868.13 167.386 867.078 169.137C866.027 170.889 865.151 172.641 864.451 174.393ZM1279.28 137.079C1280.33 140.933 1279.46 143.736 1276.66 145.488C1275.96 146.188 1275.08 146.714 1274.03 147.064C1272.98 147.064 1272.1 147.415 1271.4 148.115C1270.7 148.816 1270 149.342 1269.3 149.692C1268.95 149.692 1268.6 150.042 1268.25 150.743C1266.85 153.546 1264.92 155.824 1262.47 157.575C1260.01 158.977 1257.74 160.553 1255.63 162.305C1250.73 166.51 1245.3 170.013 1239.34 172.816C1233.74 175.269 1227.95 178.247 1222 181.751C1216.39 184.904 1210.79 188.233 1205.18 191.736C1199.93 195.24 1194.85 198.919 1189.94 202.773C1187.14 205.225 1184.16 207.503 1181.01 209.605C1178.2 211.707 1175.22 213.459 1172.07 214.861C1170.67 215.561 1169.62 216.262 1168.92 216.963C1167.87 223.269 1166.47 229.751 1164.71 236.408C1162.96 242.715 1161.21 249.021 1159.46 255.328C1157.71 261.985 1155.43 268.467 1152.63 274.773C1149.82 281.08 1147.55 287.737 1145.79 294.744C1145.44 296.146 1145.09 297.372 1144.74 298.423C1144.39 299.124 1143.34 299.65 1141.59 300C1140.19 300 1139.49 300.701 1139.49 302.102C1138.79 304.905 1137.56 307.183 1135.81 308.934C1134.41 311.037 1132.83 312.964 1131.08 314.715C1128.28 317.168 1125.12 319.095 1121.62 320.497C1118.46 322.248 1115.14 323.475 1111.63 324.175C1109.53 324.876 1107.25 324.876 1104.8 324.175C1102.7 323.825 1100.6 323.475 1098.49 323.124C1094.99 322.424 1091.66 321.197 1088.51 319.445C1085.71 318.044 1082.73 316.642 1079.57 315.241C1078.87 314.54 1078.17 314.015 1077.47 313.664C1077.12 313.664 1076.6 313.489 1075.9 313.139C1066.44 309.285 1060.13 302.803 1056.98 293.693C1056.27 292.292 1055.75 291.066 1055.4 290.015C1054.7 288.963 1054 287.737 1053.3 286.336C1050.49 281.43 1048.57 276.35 1047.52 271.095C1046.46 265.489 1046.29 259.708 1046.99 253.751V251.649C1049.44 241.138 1052.07 231.328 1054.87 222.218C1057.68 212.758 1060.3 204.7 1062.76 198.043C1065.21 191.036 1067.31 185.43 1069.06 181.225C1070.81 177.021 1071.69 174.919 1071.69 174.919V172.816C1072.74 171.765 1073.44 170.889 1073.79 170.189C1076.95 163.532 1080.45 157.225 1084.3 151.269C1088.16 144.962 1092.54 139.181 1097.44 133.926C1101.65 129.721 1106.03 125.867 1110.58 122.363C1115.49 118.86 1121.09 116.582 1127.4 115.531C1130.55 114.83 1133.18 115.181 1135.28 116.582C1137.74 117.984 1140.01 119.21 1142.11 120.261C1144.57 121.312 1147.02 122.539 1149.47 123.94C1152.63 125.692 1154.9 127.794 1156.3 130.247C1158.06 134.101 1159.98 137.78 1162.09 141.283C1164.19 144.437 1166.11 147.94 1167.87 151.794C1170.32 157.05 1171.9 162.656 1172.6 168.612V173.867V188.057C1176.1 186.306 1179.43 184.379 1182.58 182.276C1185.74 180.174 1188.89 178.247 1192.04 176.495C1194.85 175.094 1197.47 173.867 1199.93 172.816C1202.38 171.415 1204.83 170.013 1207.28 168.612C1216.04 163.707 1224.98 159.502 1234.09 155.999C1243.2 152.145 1252.31 148.291 1261.42 144.437C1263.87 143.736 1266.15 143.035 1268.25 142.334C1270.7 141.634 1272.8 140.407 1274.55 138.655C1275.25 137.955 1275.96 137.604 1276.66 137.604C1277.71 137.604 1278.58 137.429 1279.28 137.079ZM1132.65 175.97C1132.65 174.218 1132.83 172.291 1133.18 170.189C1133.53 168.086 1133.36 166.159 1132.65 164.408C1131.95 164.057 1131.25 164.232 1130.55 164.933C1127.05 166.685 1124.25 168.962 1122.14 171.765C1120.39 174.568 1118.64 177.722 1116.89 181.225C1114.79 185.43 1112.68 189.634 1110.58 193.838C1108.48 197.693 1106.55 201.897 1104.8 206.452C1104.1 209.255 1103.05 212.058 1101.65 214.861C1100.6 217.313 1099.72 219.941 1099.02 222.744C1098.32 225.547 1097.44 228.175 1096.39 230.627C1095.69 232.729 1094.99 235.182 1094.29 237.985C1093.59 240.788 1092.89 243.416 1092.19 245.868C1091.49 248.321 1090.79 250.948 1090.09 253.751C1089.73 254.803 1089.56 256.554 1089.56 259.007C1089.91 264.963 1090.96 270.919 1092.71 276.876C1094.11 281.43 1096.39 282.131 1099.54 278.978C1102 277.226 1104.1 275.124 1105.85 272.671C1107.6 270.219 1109.36 267.766 1111.11 265.314C1112.16 263.562 1113.21 261.985 1114.26 260.584C1115.31 258.832 1116.01 256.905 1116.36 254.803C1116.36 253.051 1117.06 250.423 1118.46 246.919C1119.17 245.518 1119.52 244.291 1119.52 243.24C1118.82 240.087 1118.99 237.109 1120.04 234.306C1121.09 231.153 1122.14 227.999 1123.19 224.846C1124.6 220.992 1125.82 216.963 1126.87 212.758C1128.28 208.554 1129.33 204.349 1130.03 200.145C1131.08 196.291 1131.6 192.262 1131.6 188.057C1131.95 183.853 1132.3 179.824 1132.65 175.97ZM1482.37 175.97C1481.67 177.021 1481.32 178.247 1481.32 179.649C1481.67 181.05 1481.15 182.276 1479.75 183.327C1478.69 184.028 1477.64 184.904 1476.59 185.955C1475.89 187.006 1475.19 188.057 1474.49 189.108C1473.44 190.16 1472.39 191.211 1471.34 192.262C1470.64 193.313 1469.76 194.364 1468.71 195.415C1466.96 196.817 1465.73 199.094 1465.03 202.247C1464.68 203.999 1463.63 205.751 1461.88 207.503C1460.12 209.255 1458.37 210.831 1456.62 212.233C1455.22 213.284 1453.82 214.685 1452.42 216.437C1446.81 222.043 1441.73 227.649 1437.18 233.255C1433.67 237.459 1430.17 241.489 1426.66 245.343C1423.16 249.197 1419.48 253.051 1415.63 256.905C1414.93 257.605 1414.23 258.306 1413.53 259.007C1412.82 259.708 1412.12 260.408 1411.42 261.109C1408.62 264.262 1405.47 266.89 1401.96 268.992C1398.81 270.744 1395.48 272.496 1391.98 274.248C1391.63 274.598 1391.28 274.773 1390.93 274.773C1390.58 274.773 1390.23 274.949 1389.88 275.299C1388.12 277.051 1386.2 277.927 1384.09 277.927C1381.99 277.927 1379.71 277.576 1377.26 276.876C1374.46 276.175 1372.18 275.474 1370.43 274.773C1365.53 272.671 1361.5 269.693 1358.34 265.839C1355.54 261.635 1353.26 257.08 1351.51 252.175C1350.81 250.773 1350.28 249.372 1349.93 247.97C1349.93 246.569 1349.76 244.992 1349.41 243.24C1348.71 240.788 1348.36 238.51 1348.36 236.408C1348.71 233.956 1349.06 231.503 1349.41 229.05C1349.76 226.248 1349.93 223.445 1349.93 220.642C1350.28 217.839 1350.81 215.036 1351.51 212.233C1351.51 210.481 1351.86 207.503 1352.56 203.298C1353.61 199.094 1354.49 194.89 1355.19 190.685V187.006C1355.19 183.853 1355.36 180.875 1355.71 178.072C1356.07 174.919 1356.59 171.94 1357.29 169.137C1357.99 167.035 1358.17 165.283 1357.82 163.882C1355.36 165.634 1353.44 167.736 1352.04 170.189C1350.63 172.291 1349.23 174.393 1347.83 176.495C1344.68 181.751 1341 186.481 1336.79 190.685C1334.69 193.138 1332.77 195.765 1331.01 198.568C1329.26 201.021 1327.51 203.649 1325.76 206.452C1324.01 208.554 1322.25 210.831 1320.5 213.284C1319.1 215.386 1317.52 217.488 1315.77 219.591C1311.92 223.445 1309.29 227.649 1307.89 232.204C1306.14 236.058 1304.04 239.737 1301.58 243.24C1299.13 246.394 1296.5 249.547 1293.7 252.7C1291.6 255.854 1289.14 258.832 1286.34 261.635C1283.89 264.087 1281.79 266.89 1280.04 270.044C1278.28 272.846 1276.53 275.474 1274.78 277.927C1273.38 280.379 1271.8 283.007 1270.05 285.81C1267.6 288.613 1265.14 291.591 1262.69 294.744C1260.59 297.547 1258.14 300.35 1255.33 303.153C1252.53 305.956 1248.85 307.708 1244.3 308.409C1239.74 309.11 1235.89 308.584 1232.74 306.832L1230.11 304.204C1229.06 302.453 1227.66 301.051 1225.9 300C1223.45 298.599 1221.87 296.847 1221.17 294.744C1220.12 292.642 1219.42 290.19 1219.07 287.387C1218.02 281.43 1218.37 275.124 1220.12 268.467C1221.52 261.81 1222.75 255.328 1223.8 249.021C1224.5 242.364 1225.9 235.883 1228.01 229.576C1228.71 226.773 1229.58 223.97 1230.63 221.167C1231.68 218.364 1232.56 215.561 1233.26 212.758L1261.64 121.838C1262.34 121.838 1263.04 121.663 1263.74 121.312C1264.44 120.612 1265.14 119.911 1265.85 119.21C1266.55 118.86 1267.25 118.684 1267.95 118.684C1268.65 118.334 1269.35 118.684 1270.05 119.736C1270.75 120.436 1271.45 120.612 1272.15 120.261C1272.85 119.56 1273.55 119.21 1274.25 119.21C1276.36 118.86 1277.58 119.035 1277.93 119.736C1278.63 120.086 1278.81 121.312 1278.46 123.414C1278.46 125.166 1279.51 126.042 1281.61 126.042C1283.71 126.393 1285.12 127.444 1285.82 129.196C1286.87 130.947 1287.92 132.699 1288.97 134.451C1290.37 136.203 1291.95 137.78 1293.7 139.181C1297.55 141.283 1299.13 144.787 1298.43 149.692C1297.73 154.948 1297.03 160.203 1296.33 165.459C1295.98 170.714 1295.1 175.97 1293.7 181.225V182.802C1296.15 181.05 1298.43 178.247 1300.53 174.393C1304.39 168.437 1308.59 162.656 1313.14 157.05C1317.7 151.094 1322.6 145.663 1327.86 140.758C1329.61 139.356 1331.01 137.955 1332.06 136.553C1333.12 135.152 1334.34 133.575 1335.74 131.823C1338.55 129.02 1341.88 126.217 1345.73 123.414C1349.93 120.261 1355.19 118.684 1361.5 118.684L1374.11 117.108C1380.42 116.057 1386.02 116.933 1390.93 119.736C1393.38 121.137 1395.66 122.539 1397.76 123.94C1400.21 125.341 1402.31 127.444 1404.07 130.247C1404.77 131.648 1405.47 133.75 1406.17 136.553C1406.87 150.918 1405.64 164.408 1402.49 177.021C1399.69 189.634 1397.58 201.547 1396.18 212.758C1395.83 215.912 1395.31 219.065 1394.61 222.218C1393.9 225.021 1393.2 227.999 1392.5 231.153C1392.5 231.853 1392.33 233.08 1391.98 234.832C1391.63 236.583 1391.28 238.51 1390.93 240.613C1391.28 240.613 1392.5 240.262 1394.61 239.561C1397.41 238.51 1400.74 236.759 1404.59 234.306C1408.45 231.503 1411.95 228.7 1415.1 225.897C1418.61 223.094 1422.28 220.291 1426.14 217.488C1431.04 214.335 1435.42 210.656 1439.28 206.452C1443.13 201.897 1447.34 197.693 1451.89 193.838C1454.69 191.036 1457.67 188.583 1460.83 186.481C1463.98 184.379 1466.96 181.926 1469.76 179.123C1470.46 178.773 1470.99 178.422 1471.34 178.072C1471.69 177.371 1472.21 176.67 1472.91 175.97C1476.07 172.466 1479.22 172.291 1482.37 175.444V175.97ZM1595.78 203.824C1599.63 203.824 1600.68 205.926 1598.93 210.131C1597.88 211.882 1597.18 213.634 1596.83 215.386C1596.48 217.138 1595.95 218.89 1595.25 220.642C1594.55 222.393 1593.85 223.97 1593.15 225.372C1592.8 226.423 1592.27 227.649 1591.57 229.05C1590.87 230.452 1590.17 231.678 1589.47 232.729C1588.77 233.78 1588.07 234.832 1587.37 235.883C1586.67 237.284 1585.97 238.686 1585.27 240.087C1584.57 241.138 1583.86 242.54 1583.16 244.291C1582.11 246.043 1581.06 248.146 1580.01 250.598C1578.96 252.7 1578.08 254.627 1577.38 256.379C1577.03 257.08 1576.68 257.781 1576.33 258.481C1575.98 258.832 1575.63 259.357 1575.28 260.058C1572.48 263.912 1569.67 267.766 1566.87 271.62C1564.42 275.124 1561.79 278.803 1558.99 282.657C1557.59 284.409 1556.36 286.336 1555.31 288.438C1554.61 290.19 1553.56 292.117 1552.16 294.219C1549.35 299.124 1546.2 303.679 1542.7 307.883C1539.54 312.088 1536.04 316.467 1532.19 321.022C1530.43 323.475 1528.33 325.577 1525.88 327.329C1523.43 329.431 1520.62 330.832 1517.47 331.533C1516.07 331.884 1514.84 332.409 1513.79 333.11C1513.09 334.161 1512.21 335.037 1511.16 335.738C1508.01 338.19 1504.86 339.416 1501.7 339.416C1500.65 339.066 1499.6 338.891 1498.55 338.891C1497.5 338.891 1496.45 338.716 1495.4 338.365C1494 338.015 1492.59 337.665 1491.19 337.314C1490.14 336.964 1488.74 336.964 1486.99 337.314C1484.18 337.665 1481.21 337.139 1478.05 335.738C1474.9 334.336 1471.75 332.409 1468.59 329.956C1465.44 327.854 1462.46 325.402 1459.66 322.599C1457.21 320.146 1454.93 318.044 1452.83 316.292C1448.62 312.438 1445.64 307.883 1443.89 302.628C1441.79 297.723 1440.39 292.467 1439.69 286.861C1438.64 279.153 1438.29 271.62 1438.64 264.262C1438.99 256.905 1440.04 249.547 1441.79 242.189C1444.59 229.576 1448.27 217.313 1452.83 205.401C1457.03 193.488 1461.76 181.751 1467.02 170.189C1470.87 161.429 1475.08 153.196 1479.63 145.488C1484.54 137.429 1489.62 129.371 1494.87 121.312C1501.88 110.801 1509.76 102.042 1518.52 95.0346C1519.92 93.9835 1521.15 92.9324 1522.2 91.8813C1523.25 90.4799 1524.48 89.2536 1525.88 88.2025C1532.19 82.5966 1538.84 78.217 1545.85 75.0636C1548.3 74.0125 1550.23 73.6622 1551.63 74.0126C1554.78 74.7133 1557.94 75.0636 1561.09 75.0636C1564.59 74.7133 1567.75 75.414 1570.55 77.1659C1572.3 78.217 1574.05 79.2681 1575.81 80.3192C1577.91 81.3703 1579.66 82.9469 1581.06 85.0492C1581.76 86.801 1582.64 88.3776 1583.69 89.7791C1585.09 91.1806 1586.32 92.7572 1587.37 94.5091C1588.42 96.2609 1589.12 98.0128 1589.47 99.7646C1589.82 101.516 1590.17 103.268 1590.52 105.02C1590.87 107.122 1590.87 109.225 1590.52 111.327C1590.52 113.429 1590.87 115.531 1591.57 117.633C1591.92 119.385 1591.57 121.487 1590.52 123.94C1589.82 125.692 1589.3 127.269 1588.94 128.67C1588.94 130.071 1588.59 131.648 1587.89 133.4C1587.89 134.101 1587.54 134.801 1586.84 135.502C1584.04 139.707 1581.59 143.911 1579.48 148.115C1577.38 152.32 1575.11 156.699 1572.65 161.254C1572.65 161.254 1572.3 161.955 1571.6 163.356C1570.2 165.108 1568.8 166.86 1567.4 168.612C1566 170.364 1564.94 172.466 1564.24 174.919C1563.89 176.32 1563.19 177.546 1562.14 178.597C1561.09 179.649 1560.21 180.7 1559.51 181.751C1556.71 185.254 1553.91 188.758 1551.11 192.262C1548.65 195.765 1546.02 199.269 1543.22 202.773C1539.72 206.627 1536.39 210.481 1533.24 214.335C1530.08 217.839 1526.58 221.342 1522.73 224.846C1520.97 226.598 1519.05 228.175 1516.94 229.576C1514.84 230.627 1512.74 231.853 1510.64 233.255C1507.48 235.007 1504.51 237.109 1501.7 239.561C1498.9 241.664 1496.1 243.941 1493.29 246.394C1492.59 246.744 1492.24 247.094 1492.24 247.445C1492.24 247.445 1491.89 247.445 1491.19 247.445C1485.59 247.795 1482.61 250.598 1482.26 255.854C1481.91 259.708 1481.38 263.562 1480.68 267.416C1479.98 270.919 1479.98 274.598 1480.68 278.452C1481.03 280.555 1481.21 282.657 1481.21 284.759C1481.21 286.861 1481.21 288.963 1481.21 291.066C1481.21 293.869 1481.73 296.496 1482.78 298.949V299.474C1483.48 300.175 1484.54 301.577 1485.94 303.679C1486.64 304.38 1486.99 304.905 1486.99 305.256C1487.34 305.256 1487.69 305.431 1488.04 305.781V306.307C1490.49 308.759 1493.12 308.934 1495.92 306.832C1501.18 303.679 1506.43 300.526 1511.69 297.372C1516.94 293.869 1521.67 289.664 1525.88 284.759C1527.63 283.007 1529.21 281.255 1530.61 279.503C1532.36 277.401 1534.11 275.474 1535.86 273.722C1538.32 270.919 1540.59 268.292 1542.7 265.839C1545.15 263.036 1547.6 260.233 1550.05 257.43C1552.51 254.978 1554.78 252.525 1556.89 250.073C1559.34 247.62 1561.62 244.992 1563.72 242.189C1566.87 238.335 1570.03 234.481 1573.18 230.627C1576.33 226.423 1579.48 222.218 1582.64 218.014C1584.04 216.262 1585.27 214.51 1586.32 212.758C1587.72 210.656 1588.94 208.729 1590 206.977C1591.4 204.875 1593.32 203.824 1595.78 203.824ZM1509.59 174.393C1508.89 176.846 1508.01 179.298 1506.96 181.751C1506.26 184.203 1505.21 186.656 1503.81 189.108C1506.61 186.306 1509.24 183.678 1511.69 181.225C1514.49 178.773 1517.12 176.145 1519.57 173.342C1524.48 167.386 1529.21 161.254 1533.76 154.948C1538.32 148.641 1542 141.984 1544.8 134.977C1546.2 131.823 1547.6 128.845 1549 126.042C1550.4 123.239 1551.63 120.261 1552.68 117.108C1553.38 115.006 1554.08 112.903 1554.78 110.801C1555.48 108.699 1555.84 106.597 1555.84 104.495C1554.78 104.495 1554.26 104.495 1554.26 104.495C1552.51 105.896 1550.75 107.298 1549 108.699C1547.6 109.75 1546.2 111.152 1544.8 112.903C1542.7 115.356 1540.77 117.984 1539.02 120.787C1537.62 123.239 1536.04 125.692 1534.29 128.144C1532.54 130.947 1530.78 133.575 1529.03 136.028C1527.28 138.48 1525.35 141.108 1523.25 143.911C1520.45 147.064 1518.52 150.918 1517.47 155.473C1517.12 157.225 1516.77 158.802 1516.42 160.203C1516.07 161.254 1515.54 162.481 1514.84 163.882C1514.14 165.634 1513.27 167.386 1512.21 169.137C1511.16 170.889 1510.29 172.641 1509.59 174.393ZM1596.98 313.139C1596.28 313.139 1595.75 313.489 1595.4 314.19C1595.4 315.241 1595.05 315.416 1594.35 314.715C1593.3 314.015 1593.12 312.964 1593.82 311.562V309.985C1593.12 309.635 1592.77 309.81 1592.77 310.511C1593.12 311.212 1592.95 311.562 1592.25 311.562C1589.44 309.11 1587.69 306.482 1586.99 303.679C1586.29 301.927 1585.76 300.175 1585.41 298.423C1585.06 296.672 1585.41 294.92 1586.46 293.168C1587.87 290.365 1589.27 287.737 1590.67 285.285C1592.07 282.832 1593.82 280.555 1595.92 278.452C1598.38 276 1601.36 274.248 1604.86 273.197C1605.56 272.846 1606.09 272.846 1606.44 273.197C1606.79 273.547 1607.14 273.722 1607.49 273.722C1609.24 274.423 1610.64 275.299 1611.69 276.35C1613.09 277.401 1614.67 278.277 1616.42 278.978C1617.47 280.029 1618 280.73 1618 281.08C1618 281.781 1618.35 282.482 1619.05 283.182C1620.1 283.883 1620.98 285.46 1621.68 287.912C1623.43 290.365 1623.95 292.817 1623.25 295.27C1622.55 297.372 1621.85 299.474 1621.15 301.577C1619.75 305.08 1617.3 307.358 1613.79 308.409C1610.99 309.11 1608.89 310.336 1607.49 312.088C1606.79 313.139 1606.09 313.314 1605.38 312.613C1605.38 312.613 1604.86 312.613 1603.81 312.613C1603.11 314.015 1602.23 314.365 1601.18 313.664C1601.18 313.314 1600.83 313.489 1600.13 314.19C1598.73 315.241 1597.68 314.891 1596.98 313.139Z" fill="#D1D4D4"/>
</svg>
