<svg width="238" height="458" viewBox="0 0 238 458" fill="none" xmlns="http://www.w3.org/2000/svg">
<path d="M114.699 102.954C114.986 102.379 115.13 101.804 115.13 101.229C115.274 100.655 115.489 100.08 115.777 99.505C116.639 96.631 117.501 93.8289 118.363 91.0986C119.225 88.3683 120.016 85.638 120.734 82.9077C121.165 81.4707 121.596 80.1055 122.027 78.8122C122.459 77.3752 122.818 75.8664 123.105 74.2857C123.249 73.5672 123.393 72.8487 123.536 72.1302C123.68 71.268 123.824 70.4058 123.967 69.5436C124.111 68.8251 124.327 68.1066 124.614 67.3881C124.901 66.6696 125.189 65.9511 125.476 65.2326C126.051 64.3704 126.41 63.6519 126.554 63.0771C126.985 61.4964 127.416 59.8438 127.847 58.1194C128.278 56.395 128.781 54.7425 129.356 53.1618C130.218 50.2878 131.081 47.3419 131.943 44.3242C132.949 41.3065 134.026 38.3607 135.176 35.4867C135.751 34.0497 136.397 32.6845 137.116 31.3912C137.834 29.9542 138.553 28.5172 139.271 27.0802C139.99 25.9306 140.637 24.8529 141.211 23.847C141.93 22.6974 142.72 21.5478 143.582 20.3982C144.588 19.1049 145.738 18.1708 147.031 17.596C147.319 17.4523 147.75 17.3805 148.325 17.3805C148.612 17.5242 148.899 17.596 149.187 17.596C149.618 17.4523 150.049 17.4523 150.48 17.596C150.48 18.4582 150.767 18.9612 151.342 19.1049C151.342 19.2486 151.342 19.3204 151.342 19.3204C151.486 19.3204 151.558 19.3923 151.558 19.536C151.27 19.9671 151.199 20.47 151.342 21.0448C151.486 21.4759 151.414 21.9789 151.127 22.5537C151.127 22.9848 151.127 23.2003 151.127 23.2003C151.558 23.4877 151.63 24.0625 151.342 24.9247C151.199 25.2121 151.055 25.5714 150.911 26.0025C150.767 26.2899 150.767 26.5773 150.911 26.8647C151.055 27.0084 150.983 27.2239 150.696 27.5113C149.833 28.8046 149.043 30.1698 148.325 31.6068C147.75 32.7564 147.247 33.9778 146.816 35.2711C146.528 36.4207 146.241 37.6422 145.954 38.9355C145.954 39.654 145.666 40.588 145.091 41.7376C144.229 43.8931 143.367 46.0486 142.505 48.2041C141.786 50.3596 141.068 52.587 140.349 54.8862C140.062 55.8921 139.774 56.898 139.487 57.9039C139.343 58.7661 139.128 59.6283 138.84 60.4905C138.553 61.3527 138.337 62.2149 138.194 63.0771C138.05 63.9393 137.834 64.7296 137.547 65.4481C137.403 66.0229 137.26 66.5259 137.116 66.957C137.116 67.3881 137.116 67.891 137.116 68.4658C136.541 71.1961 135.823 73.8546 134.96 76.4412C134.242 79.0278 133.523 81.6144 132.805 84.201C132.23 85.7817 131.655 87.2905 131.081 88.7275C130.649 90.0208 130.075 91.386 129.356 92.823C129.069 93.3978 128.925 93.9726 128.925 94.5474C128.494 96.2718 128.063 97.9962 127.632 99.7206C127.344 101.301 126.913 102.954 126.338 104.678C125.764 106.259 125.189 107.911 124.614 109.636C124.183 111.36 123.608 113.013 122.89 114.594C122.602 115.743 122.315 116.533 122.027 116.965C121.596 117.396 121.309 117.899 121.165 118.473C121.022 119.048 120.806 119.623 120.519 120.198C120.088 121.922 119.656 123.647 119.225 125.371C118.794 127.239 118.219 128.964 117.501 130.544C117.07 132.269 116.279 133.706 115.13 134.855C114.268 136.005 113.334 136.58 112.328 136.58C112.04 136.58 111.681 136.652 111.25 136.795C110.819 137.083 110.46 137.298 110.172 137.442C109.023 137.873 107.801 137.657 106.508 136.795C106.22 136.508 105.933 136.364 105.646 136.364C104.927 136.077 104.496 136.22 104.352 136.795C104.352 137.083 104.209 137.37 103.921 137.657C103.49 138.089 103.275 138.017 103.275 137.442C102.987 136.867 102.772 136.58 102.628 136.58C101.909 136.292 101.263 135.933 100.688 135.502C100.113 135.071 99.4666 134.496 98.7481 133.778L98.5325 133.562C97.6703 132.843 97.0955 131.981 96.8081 130.975C96.5207 129.969 96.4489 128.892 96.5926 127.742C96.7363 126.88 96.8081 126.018 96.8081 125.156C96.8081 124.293 96.8081 123.431 96.8081 122.569V110.714C96.8081 105.972 97.0237 101.229 97.4548 96.4873C97.5985 94.0444 97.7422 91.6015 97.8859 89.1586C98.0296 86.572 98.1733 84.0573 98.317 81.6144C98.4607 80.3211 98.5325 79.0278 98.5325 77.7345C98.5325 76.2975 98.6044 74.9323 98.7481 73.639C98.7481 72.4894 98.7481 71.4117 98.7481 70.4058C98.7481 69.3999 98.6762 68.3221 98.5325 67.1725C98.5325 64.7296 98.5325 62.4304 98.5325 60.2749C98.6762 57.9757 98.8199 55.6765 98.9636 53.3773C98.9636 52.2277 98.9636 51.0781 98.9636 49.9285C98.9636 48.6352 99.0355 47.4138 99.1792 46.2642C99.3229 46.1205 99.3229 45.9768 99.1792 45.8331C99.1792 45.8331 99.0355 45.9768 98.7481 46.2642C98.4607 47.7012 98.0296 49.0663 97.4548 50.3596C97.0237 51.5092 96.6644 52.8025 96.377 54.2395C96.2333 55.1017 95.9459 55.8921 95.5148 56.6106C95.0837 57.3291 94.6526 58.0476 94.2215 58.7661C93.503 60.3468 92.7845 61.9275 92.066 63.5082C91.3475 65.0889 90.629 66.6696 89.9105 68.2503C88.9046 70.5495 88.0424 73.0642 87.3239 75.7945C87.0365 76.9441 86.7491 78.1656 86.4617 79.4589C86.1743 80.7522 85.8151 81.9736 85.384 83.1232C85.0966 83.8417 84.8092 84.6321 84.5218 85.4943C84.2344 86.2128 83.947 86.9313 83.6596 87.6498C83.2285 88.9431 82.6537 90.1645 81.9352 91.3141C81.3604 92.4637 80.7856 93.6852 80.2108 94.9785C79.4923 96.5592 78.7738 98.2117 78.0553 99.9361C77.4805 101.661 76.8338 103.313 76.1153 104.894C75.3968 106.618 74.6783 108.414 73.9598 110.283C73.2413 112.007 72.451 113.731 71.5888 115.456C71.014 116.749 70.3673 117.683 69.6488 118.258C68.4992 119.695 67.0622 120.198 65.3378 119.767C64.3319 119.479 63.6134 119.695 63.1823 120.413C63.0386 120.557 62.6794 120.701 62.1046 120.844C61.6735 120.844 61.3861 120.773 61.2424 120.629C60.6676 120.054 59.6617 119.623 58.2247 119.336C57.3625 119.048 56.7158 118.617 56.2847 118.042C55.7099 117.468 55.3507 116.605 55.207 115.456C54.7759 111.863 54.6322 108.63 54.7759 105.756C54.9196 104.463 54.9914 103.169 54.9914 101.876C54.9914 100.439 55.0633 99.0021 55.207 97.5651C55.3507 95.9844 55.4225 94.4037 55.4225 92.823C55.4225 91.0986 55.4944 89.446 55.6381 87.8653V82.0455C55.7818 80.0337 55.9255 78.0937 56.0692 76.2256C56.0692 74.2138 56.141 72.202 56.2847 70.1902C56.4284 68.8969 56.5003 67.6755 56.5003 66.5259C56.5003 65.2326 56.5721 64.0111 56.7158 62.8615C56.8595 60.8497 57.0032 58.9816 57.1469 57.2572C57.2906 55.3891 57.4343 53.4492 57.578 51.4374C57.8654 49.8567 58.0091 48.3478 58.0091 46.9108C58.1528 45.4738 58.2965 43.965 58.4402 42.3843C58.7276 40.6599 58.9432 38.9355 59.0869 37.2111C59.2306 35.343 59.4461 33.5467 59.7335 31.8223C60.0209 29.9542 60.2365 28.158 60.3802 26.4336C60.6676 24.5655 60.955 22.6255 61.2424 20.6137C61.6735 16.7338 62.3201 12.8539 63.1823 8.97404C63.4697 8.11184 63.6134 7.32149 63.6134 6.60299C63.7571 5.7408 63.9008 4.87859 64.0445 4.01639C64.0445 2.29199 64.8349 1.21424 66.4156 0.783141C66.9904 0.495745 67.5652 0.423896 68.14 0.567594C68.7148 0.567594 69.3614 0.495745 70.0799 0.352047C70.2236 0.352047 70.2955 0.423896 70.2955 0.567594C70.4392 0.567594 70.5829 0.567594 70.7266 0.567594C71.5888 1.1424 72.3073 1.50165 72.8821 1.64534C73.6006 2.07645 74.3191 2.7231 75.0376 3.58529C75.325 4.1601 75.6124 4.51934 75.8998 4.66304C76.6183 5.09415 77.1212 5.66895 77.4086 6.38745C77.696 7.10595 78.0553 7.82445 78.4864 8.54294C78.7738 9.26144 78.9175 10.0518 78.9175 10.914C78.9175 11.7762 78.8456 12.6384 78.7019 13.5006C78.5582 15.0813 78.2708 16.662 77.8397 18.2427C77.5523 19.8234 77.2649 21.4759 76.9775 23.2003C76.8338 23.9188 76.762 24.9247 76.762 26.218C76.4746 28.2298 76.3309 30.3135 76.3309 32.469C76.4746 34.4808 76.4746 36.4926 76.3309 38.5044C76.3309 39.5103 76.259 40.2288 76.1153 40.6599C75.8279 41.5221 75.6842 42.3843 75.6842 43.2465C75.6842 44.1087 75.6842 44.899 75.6842 45.6175C75.6842 46.7671 75.6842 47.8449 75.6842 48.8508C75.6842 49.713 75.6124 50.647 75.4687 51.6529C75.325 52.9462 75.2531 54.2395 75.2531 55.5328C75.3968 56.8261 75.4687 58.1194 75.4687 59.4127C75.325 60.5623 75.2531 61.7838 75.2531 63.0771C75.3968 64.2267 75.3968 65.4481 75.2531 66.7414C75.2531 68.6095 75.2531 70.4776 75.2531 72.3457C75.2531 74.0701 75.1094 75.8664 74.822 77.7345C74.822 78.5967 74.6783 79.4589 74.3909 80.3211C74.2472 81.0396 74.2472 81.9018 74.3909 82.9077C74.3909 83.3388 74.4628 83.6262 74.6065 83.7699C75.1813 82.4766 75.5405 81.327 75.6842 80.3211C76.9775 75.7227 78.3427 71.1961 79.7797 66.7414C81.2167 62.2867 82.7255 57.7602 84.3062 53.1618C85.4558 49.4256 86.7491 45.7612 88.1861 42.1687C89.6231 38.5762 91.132 34.9837 92.7127 31.3912C94.1497 28.5172 95.5148 25.5714 96.8081 22.5537C98.1014 19.536 99.4666 16.5901 100.904 13.7161C101.191 12.9976 101.478 12.351 101.766 11.7762C102.197 11.2014 102.628 10.5547 103.059 9.83624C103.346 9.11774 103.778 8.68664 104.352 8.54294C105.358 7.96814 106.292 7.03409 107.155 5.74079C107.442 5.16599 107.801 4.87859 108.232 4.87859C108.807 4.73489 109.31 4.59119 109.741 4.4475C111.466 3.729 113.046 3.87269 114.483 4.87859C115.633 5.59709 116.639 6.38744 117.501 7.24965C118.363 7.96815 119.153 8.90219 119.872 10.0518C121.309 12.7821 122.027 15.7279 122.027 18.8893C122.027 19.8952 121.956 20.6137 121.812 21.0448C121.525 22.1944 121.309 23.344 121.165 24.4936C121.165 25.6432 121.022 26.7928 120.734 27.9424C120.447 28.8046 120.303 29.7387 120.303 30.7446C120.303 31.6068 120.231 32.5408 120.088 33.5467C119.944 34.84 119.8 36.1333 119.656 37.4266C119.513 38.7199 119.441 40.0132 119.441 41.3065C119.297 42.3124 119.225 43.3183 119.225 44.3242C119.225 45.3301 119.153 46.336 119.01 47.3419C118.722 49.4974 118.579 51.7248 118.579 54.024C118.722 56.1795 118.794 58.335 118.794 60.4905C118.651 62.0712 118.507 63.6519 118.363 65.2326C118.363 66.6696 118.291 68.1784 118.148 69.7591C118.004 70.0465 117.932 70.3339 117.932 70.6213C118.076 70.9087 118.076 71.1961 117.932 71.4835C117.932 73.2079 117.86 74.9323 117.716 76.6567C117.573 78.2374 117.429 79.89 117.285 81.6144C117.142 82.9077 116.998 84.2728 116.854 85.7098C116.854 87.0031 116.711 88.2964 116.423 89.5897C116.423 90.1645 116.351 90.6675 116.208 91.0986C116.208 91.5297 116.136 92.0326 115.992 92.6074C115.705 93.1822 115.561 93.757 115.561 94.3318C115.561 94.7629 115.489 95.2659 115.345 95.8407C115.202 96.9903 115.058 98.068 114.914 99.0739C114.771 100.08 114.627 101.158 114.483 102.307C114.483 102.738 114.555 102.954 114.699 102.954ZM200.612 83.5543C202.193 83.5543 202.624 84.4165 201.906 86.1409C201.475 86.8594 201.187 87.5779 201.043 88.2964C200.9 89.0149 200.684 89.7334 200.397 90.4519C200.109 91.1704 199.822 91.8171 199.535 92.3919C199.391 92.823 199.175 93.3259 198.888 93.9007C198.601 94.4755 198.313 94.9785 198.026 95.4096C197.738 95.8407 197.451 96.2718 197.164 96.7029C196.876 97.2777 196.589 97.8525 196.301 98.4273C196.014 98.8584 195.727 99.4332 195.439 100.152C195.008 100.87 194.577 101.732 194.146 102.738C193.715 103.6 193.355 104.391 193.068 105.109C192.924 105.397 192.781 105.684 192.637 105.972C192.493 106.115 192.35 106.331 192.206 106.618C191.056 108.199 189.907 109.78 188.757 111.36C187.751 112.797 186.673 114.306 185.524 115.887C184.949 116.605 184.446 117.396 184.015 118.258C183.728 118.976 183.296 119.767 182.722 120.629C181.572 122.641 180.279 124.509 178.842 126.233C177.548 127.958 176.111 129.754 174.531 131.622C173.812 132.628 172.95 133.49 171.944 134.209C170.938 135.071 169.789 135.646 168.495 135.933C167.921 136.077 167.418 136.292 166.987 136.58C166.699 137.011 166.34 137.37 165.909 137.657C164.615 138.663 163.322 139.166 162.029 139.166C161.598 139.023 161.167 138.951 160.736 138.951C160.304 138.951 159.873 138.879 159.442 138.735C158.867 138.591 158.293 138.448 157.718 138.304C157.287 138.16 156.712 138.16 155.993 138.304C154.844 138.448 153.622 138.232 152.329 137.657C151.036 137.083 149.742 136.292 148.449 135.286C147.156 134.424 145.934 133.418 144.785 132.269C143.779 131.263 142.845 130.401 141.983 129.682C140.258 128.101 139.037 126.233 138.318 124.078C137.456 122.066 136.881 119.91 136.594 117.611C136.163 114.45 136.019 111.36 136.163 108.343C136.307 105.325 136.738 102.307 137.456 99.2895C138.606 94.1163 140.115 89.0868 141.983 84.201C143.707 79.3152 145.647 74.5012 147.803 69.7591C149.383 66.1666 151.108 62.7897 152.976 59.6283C154.988 56.3232 157.071 53.0181 159.227 49.713C162.101 45.402 165.334 41.8095 168.926 38.9355C169.501 38.5044 170.004 38.0733 170.435 37.6422C170.866 37.0674 171.369 36.5644 171.944 36.1333C174.531 33.8341 177.261 32.0379 180.135 30.7446C181.141 30.3135 181.931 30.1698 182.506 30.3135C183.799 30.6009 185.093 30.7446 186.386 30.7446C187.823 30.6009 189.116 30.8883 190.266 31.6068C190.984 32.0379 191.703 32.469 192.421 32.9001C193.284 33.3312 194.002 33.9778 194.577 34.84C194.864 35.5585 195.224 36.2052 195.655 36.78C196.229 37.3548 196.732 38.0014 197.164 38.7199C197.595 39.4384 197.882 40.1569 198.026 40.8754C198.169 41.5939 198.313 42.3124 198.457 43.0309C198.601 43.8931 198.601 44.7553 198.457 45.6175C198.457 46.4797 198.601 47.3419 198.888 48.2041C199.032 48.9226 198.888 49.7848 198.457 50.7907C198.169 51.5092 197.954 52.1559 197.81 52.7307C197.81 53.3055 197.666 53.9521 197.379 54.6706C197.379 54.958 197.235 55.2454 196.948 55.5328C195.798 57.2572 194.792 58.9816 193.93 60.706C193.068 62.4304 192.134 64.2267 191.128 66.0948C191.128 66.0948 190.984 66.3822 190.697 66.957C190.122 67.6755 189.547 68.394 188.973 69.1125C188.398 69.831 187.967 70.6932 187.679 71.6991C187.536 72.2739 187.248 72.7768 186.817 73.2079C186.386 73.639 186.027 74.0701 185.739 74.5012C184.59 75.9382 183.44 77.3752 182.291 78.8122C181.285 80.2492 180.207 81.6862 179.057 83.1232C177.62 84.7039 176.255 86.2846 174.962 87.8653C173.669 89.3023 172.232 90.7393 170.651 92.1763C169.932 92.8948 169.142 93.5415 168.28 94.1163C167.418 94.5474 166.555 95.0503 165.693 95.6251C164.4 96.3436 163.178 97.2058 162.029 98.2117C160.879 99.0739 159.73 100.008 158.58 101.014C158.293 101.158 158.149 101.301 158.149 101.445C158.149 101.445 158.005 101.445 157.718 101.445C155.419 101.589 154.197 102.738 154.053 104.894C153.91 106.474 153.694 108.055 153.407 109.636C153.119 111.073 153.119 112.582 153.407 114.162C153.551 115.025 153.622 115.887 153.622 116.749C153.622 117.611 153.622 118.473 153.622 119.336C153.622 120.485 153.838 121.563 154.269 122.569V122.784C154.556 123.072 154.988 123.647 155.562 124.509C155.85 124.796 155.993 125.012 155.993 125.156C156.137 125.156 156.281 125.227 156.425 125.371V125.587C157.43 126.593 158.508 126.664 159.658 125.802C161.813 124.509 163.969 123.216 166.124 121.922C168.28 120.485 170.22 118.761 171.944 116.749C172.663 116.031 173.309 115.312 173.884 114.594C174.603 113.731 175.321 112.941 176.04 112.222C177.045 111.073 177.98 109.995 178.842 108.989C179.848 107.84 180.854 106.69 181.859 105.54C182.865 104.535 183.799 103.529 184.662 102.523C185.668 101.517 186.602 100.439 187.464 99.2895C188.757 97.7088 190.05 96.1281 191.344 94.5474C192.637 92.823 193.93 91.0986 195.224 89.3742C195.798 88.6557 196.301 87.9372 196.732 87.2187C197.307 86.3565 197.81 85.5661 198.241 84.8476C198.816 83.9854 199.606 83.5543 200.612 83.5543ZM165.262 71.4835C164.975 72.4894 164.615 73.4953 164.184 74.5012C163.897 75.5071 163.466 76.513 162.891 77.5189C164.041 76.3693 165.118 75.2916 166.124 74.2857C167.274 73.2798 168.352 72.202 169.358 71.0524C171.369 68.6095 173.309 66.0948 175.177 63.5082C177.046 60.9216 178.554 58.1913 179.704 55.3173C180.279 54.024 180.854 52.8025 181.428 51.6529C182.003 50.5033 182.506 49.2819 182.937 47.9886C183.225 47.1264 183.512 46.2642 183.799 45.402C184.087 44.5398 184.231 43.6776 184.231 42.8154C183.799 42.8154 183.584 42.8154 183.584 42.8154C182.865 43.3902 182.147 43.965 181.428 44.5398C180.854 44.9709 180.279 45.5457 179.704 46.2642C178.842 47.2701 178.051 48.3478 177.333 49.4974C176.758 50.5033 176.111 51.5092 175.393 52.5151C174.674 53.6647 173.956 54.7425 173.237 55.7484C172.519 56.7543 171.729 57.832 170.866 58.9816C169.717 60.2749 168.926 61.8556 168.495 63.7237C168.352 64.4422 168.208 65.0889 168.064 65.6637C167.921 66.0948 167.705 66.5977 167.418 67.1725C167.13 67.891 166.771 68.6095 166.34 69.328C165.909 70.0465 165.55 70.765 165.262 71.4835ZM138.414 224.448C137.983 224.304 137.552 224.233 137.121 224.233C136.69 224.233 136.259 224.161 135.828 224.017C135.397 224.592 135.397 225.023 135.828 225.31C136.259 225.454 136.546 225.741 136.69 226.173C135.971 227.035 135.253 227.969 134.534 228.975C133.816 229.981 132.954 230.915 131.948 231.777C130.942 232.495 130.008 233.358 129.146 234.363C128.427 235.369 127.709 236.375 126.99 237.381C125.841 238.818 124.763 240.255 123.757 241.692C122.751 242.985 121.673 244.351 120.524 245.788C119.087 247.368 117.722 249.021 116.428 250.745C115.135 252.47 113.77 254.122 112.333 255.703C111.327 256.852 110.321 258.002 109.315 259.152C108.453 260.301 107.519 261.451 106.513 262.6C106.369 262.744 106.226 262.888 106.082 263.032C106.082 263.175 106.01 263.319 105.866 263.463C105.291 264.469 104.573 265.403 103.711 266.265C102.992 266.983 102.274 267.702 101.555 268.42C100.693 269.139 99.9027 270.217 99.1842 271.654C98.8968 272.228 98.5376 272.731 98.1065 273.162C97.6754 273.594 97.2443 274.025 96.8132 274.456C95.8073 275.174 94.8732 275.965 94.011 276.827C93.2925 277.545 92.574 278.264 91.8555 278.982C88.6941 282.144 85.1735 284.227 81.2936 285.233C77.27 286.095 73.5338 285.377 70.085 283.078C69.5102 282.79 68.7917 282.216 67.9295 281.353C67.7858 281.353 67.7139 281.353 67.7139 281.353C67.7139 281.21 67.6421 281.138 67.4984 281.138C67.211 280.563 66.9236 280.06 66.6362 279.629C66.3488 279.198 66.0614 278.623 65.774 277.905C65.6303 277.33 65.5584 276.827 65.5584 276.396C65.5584 275.821 65.4866 275.246 65.3429 274.671C65.1992 273.522 65.0555 272.372 64.9118 271.222C64.9118 270.073 64.7681 268.923 64.4807 267.774C65.0555 267.486 65.3429 267.343 65.3429 267.343C65.3429 266.911 65.3429 266.48 65.3429 266.049C65.4866 265.618 65.4866 265.187 65.3429 264.756C65.3429 264.469 65.3429 264.253 65.3429 264.109C65.4866 263.966 65.4147 263.822 65.1273 263.678C64.5525 263.535 64.0496 263.678 63.6185 264.109C62.4689 265.69 61.3193 267.343 60.1697 269.067C59.0201 270.648 57.9423 272.372 56.9364 274.24C56.3616 275.246 55.4994 276.252 54.3498 277.258C53.4876 277.833 52.9847 278.407 52.841 278.982C52.5536 279.557 52.1943 280.132 51.7632 280.707C51.3321 281.138 50.9729 281.713 50.6855 282.431L50.4699 282.647C49.3203 283.221 48.3144 283.94 47.4522 284.802C46.7337 285.664 45.8715 286.383 44.8656 286.958C43.4286 287.532 42.4227 287.173 41.8479 285.88C41.5605 285.018 41.2013 284.946 40.7702 285.664C40.1954 286.67 39.1895 287.389 37.7525 287.82C36.6029 288.395 35.0222 288.395 33.0104 287.82C31.1423 287.389 29.7771 286.527 28.9149 285.233C28.6275 284.802 28.3401 284.371 28.0527 283.94C27.6216 283.509 27.2624 283.078 26.975 282.647C25.8254 281.497 25.035 280.204 24.6039 278.767C24.4602 278.336 24.1728 278.12 23.7417 278.12C23.4543 275.39 23.7417 271.294 24.6039 265.834C25.3224 260.229 27.9809 253.26 32.5793 244.925C33.1541 244.207 33.7289 243.488 34.3037 242.77C34.8785 242.051 35.4533 241.333 36.0281 240.614C36.8903 239.465 37.6806 238.315 38.3991 237.166C39.2613 236.016 40.0517 234.866 40.7702 233.717C43.5005 229.549 46.3026 225.598 49.1766 221.862C52.1943 217.982 55.3557 214.245 58.6608 210.653C60.0978 209.216 61.463 207.851 62.7563 206.557C64.1933 205.264 65.6303 203.971 67.0673 202.678C67.7858 201.959 68.5761 201.384 69.4383 200.953C70.4442 200.378 71.3783 199.875 72.2405 199.444C72.959 199.157 73.5338 199.157 73.9649 199.444C74.5397 199.588 74.9708 199.804 75.2582 200.091C75.9767 200.522 76.6233 200.953 77.1981 201.384C77.9166 201.672 78.6351 202.103 79.3536 202.678L80.0003 203.324C81.1499 204.474 81.7247 205.695 81.7247 206.989C81.8684 208.138 81.581 209.575 80.8625 211.3C80.2877 212.305 79.7129 213.24 79.1381 214.102C78.5633 214.964 77.9166 215.898 77.1981 216.904C76.1922 218.341 75.1863 219.706 74.1804 220.999C73.1745 222.149 72.1686 223.514 71.1627 225.095C70.8753 225.382 70.5161 225.741 70.085 226.173C69.7976 226.604 69.5102 226.963 69.2228 227.25C67.0673 228.831 65.1273 231.058 63.4029 233.932C62.6844 235.513 61.8222 236.95 60.8163 238.243C59.8104 239.537 58.8045 240.902 57.7986 242.339C55.9305 245.069 54.1343 247.871 52.4099 250.745C50.8292 253.476 49.2485 256.278 47.6678 259.152C46.6619 260.732 45.7278 262.385 44.8656 264.109C44.1471 265.69 43.5723 267.414 43.1412 269.283V269.929C43.716 269.498 44.4345 268.708 45.2967 267.558C48.6018 263.247 51.8351 258.936 54.9965 254.625C58.3016 250.17 61.5348 245.716 64.6962 241.261C65.271 240.399 65.8458 239.537 66.4206 238.674C67.1391 237.812 67.7139 236.878 68.145 235.872C69.4383 233.429 70.9472 231.202 72.6716 229.19C74.5397 227.178 76.2641 225.023 77.8448 222.724C78.1322 222.293 78.4914 221.933 78.9225 221.646C79.3536 221.359 79.7129 221.071 80.0003 220.784C82.4432 217.335 85.389 213.886 88.8378 210.437C89.1252 210.15 89.2689 209.863 89.2689 209.575C89.4126 209.288 89.6282 209 89.9156 208.713C90.0593 208.426 90.203 208.066 90.3467 207.635C90.4904 207.204 90.6341 206.845 90.7778 206.557C90.9215 206.27 91.137 206.055 91.4244 205.911C91.7118 205.767 91.9274 205.767 92.0711 205.911C92.3585 206.198 92.3585 206.414 92.0711 206.557C91.9274 206.701 91.7837 206.917 91.64 207.204C91.64 207.348 91.4244 207.707 90.9933 208.282C92.2866 207.707 93.0051 206.773 93.1488 205.48C94.1547 206.198 94.9451 206.557 95.5199 206.557C96.3821 206.557 97.0287 206.917 97.4598 207.635C97.6035 208.066 98.1065 208.426 98.9687 208.713C99.6872 208.713 100.046 209 100.046 209.575C100.046 210.437 100.262 211.3 100.693 212.162C100.98 213.311 100.98 214.317 100.693 215.179C100.406 216.042 100.118 216.976 99.8309 217.982C99.5435 218.844 99.1842 219.706 98.7531 220.568C98.322 221.287 97.9628 222.077 97.6754 222.939C97.388 223.658 96.8132 224.807 95.951 226.388C95.2325 227.969 94.7295 229.047 94.4421 229.621C93.2925 231.633 92.574 233.142 92.2866 234.148C91.9992 235.01 91.64 235.944 91.2089 236.95C89.6282 240.399 88.6223 242.842 88.1912 244.279C87.9038 245.716 87.6164 246.793 87.329 247.512C86.7542 249.236 86.3949 250.458 86.2512 251.176C86.1075 251.895 85.6764 253.044 84.9579 254.625C83.8083 256.924 83.018 258.721 82.5869 260.014C82.2995 261.163 81.8684 262.96 81.2936 265.403C80.8625 267.414 80.5751 269.067 80.4314 270.36C80.2877 271.51 80.5032 272.516 81.078 273.378C81.2217 273.522 81.2217 273.594 81.078 273.594C81.3654 273.881 81.8684 274.025 82.5869 274.025C83.1617 273.45 83.6646 272.947 84.0957 272.516C84.6705 271.941 85.2453 271.294 85.8201 270.576C86.2512 270.145 86.6823 269.714 87.1134 269.283C87.6882 268.851 88.3349 268.708 89.0534 268.851C88.4786 268.277 88.263 267.917 88.4067 267.774C88.6941 267.63 88.9815 267.486 89.2689 267.343C89.8437 267.055 90.3467 266.84 90.7778 266.696C91.0652 266.409 91.2807 265.977 91.4244 265.403C91.7118 264.828 91.9992 264.253 92.2866 263.678C92.4303 263.535 92.574 263.463 92.7177 263.463C92.8614 263.319 93.0051 263.175 93.1488 263.032C93.1488 263.175 93.1488 263.247 93.1488 263.247C93.2925 263.247 93.3644 263.319 93.3644 263.463V263.678C94.0829 263.391 94.4421 262.96 94.4421 262.385C93.8673 262.672 93.5799 262.816 93.5799 262.816C93.8673 261.954 94.1547 261.379 94.4421 261.092C94.8732 260.804 95.6636 260.661 96.8132 260.661C96.8132 259.798 97.388 259.008 98.5376 258.289C98.825 258.002 99.3998 257.355 100.262 256.35C101.412 254.913 102.561 253.547 103.711 252.254C105.004 250.817 106.226 249.452 107.375 248.159C108.525 246.865 109.674 245.644 110.824 244.494C112.117 243.345 113.339 242.051 114.488 240.614C114.776 240.471 115.063 240.255 115.35 239.968C116.069 239.249 116.859 238.674 117.722 238.243C118.584 237.669 119.302 236.878 119.877 235.872C120.596 234.579 121.745 234.076 123.326 234.363C123.182 233.645 123.326 233.07 123.757 232.639C124.188 232.208 124.619 231.777 125.05 231.346C125.625 230.771 126.2 230.196 126.775 229.621C127.493 229.047 128.212 228.472 128.93 227.897C129.649 227.178 130.223 226.819 130.655 226.819C131.373 226.532 131.876 226.173 132.163 225.741C132.594 225.31 132.954 224.807 133.241 224.233C133.529 223.801 133.888 223.442 134.319 223.155C135.037 223.011 135.684 222.652 136.259 222.077C136.834 221.359 137.768 221.43 139.061 222.293C138.774 223.155 138.558 223.873 138.414 224.448ZM185.62 200.953C186.338 203.54 186.051 205.12 184.758 205.695C183.608 206.27 182.458 206.917 181.309 207.635C180.303 208.354 179.225 209.072 178.076 209.791C177.07 210.222 176.064 210.653 175.058 211.084C174.052 211.515 173.046 212.018 172.04 212.593C171.322 212.88 170.675 213.24 170.1 213.671C169.525 213.958 168.879 214.461 168.16 215.179C167.873 215.467 167.298 215.898 166.436 216.473C164.999 217.335 163.634 218.269 162.34 219.275C161.047 220.137 159.682 220.927 158.245 221.646C156.952 222.508 155.73 223.514 154.581 224.664C153.431 225.67 152.281 226.675 151.132 227.681C150.844 227.969 150.557 228.256 150.27 228.544C149.982 228.687 149.695 228.903 149.407 229.19C148.833 229.621 148.258 230.124 147.683 230.699C147.252 231.274 146.893 231.992 146.605 232.855C146.318 234.004 145.743 234.938 144.881 235.657C144.162 236.375 143.444 237.094 142.725 237.812C142.151 238.387 141.791 238.89 141.648 239.321C141.216 240.04 140.714 240.758 140.139 241.477C139.708 242.051 139.277 242.698 138.845 243.417C138.127 244.422 137.48 245.428 136.905 246.434C136.331 247.296 135.684 248.159 134.966 249.021C134.966 249.021 134.822 249.308 134.534 249.883C134.247 251.32 133.744 252.685 133.026 253.978C132.451 255.128 131.876 256.35 131.301 257.643C131.014 258.074 130.726 258.577 130.439 259.152C130.295 259.583 130.08 260.014 129.792 260.445C129.505 261.595 129.002 262.6 128.283 263.463C127.709 264.181 127.134 265.043 126.559 266.049C125.984 267.055 125.481 267.989 125.05 268.851C124.619 269.714 124.116 270.648 123.541 271.654C122.967 272.803 122.32 273.881 121.601 274.887C121.027 275.893 120.38 276.97 119.661 278.12C119.374 278.695 118.943 278.982 118.368 278.982C117.937 278.982 117.434 279.054 116.859 279.198C116.428 279.198 116.069 279.054 115.782 278.767C115.207 278.479 114.632 278.336 114.057 278.336C113.626 278.336 113.123 278.336 112.548 278.336C111.974 278.336 111.686 278.336 111.686 278.336C111.111 277.761 110.608 277.33 110.177 277.042C109.602 276.611 109.171 276.036 108.884 275.318C108.597 274.456 108.309 273.881 108.022 273.594C107.016 272.3 106.728 270.863 107.16 269.283C107.447 268.564 107.591 267.917 107.591 267.343C107.591 266.768 107.591 266.121 107.591 265.403C107.734 264.109 107.95 262.888 108.237 261.738C108.525 260.589 108.812 259.439 109.1 258.289C109.387 256.565 109.818 254.913 110.393 253.332C110.968 251.607 111.542 249.955 112.117 248.374C112.261 248.087 112.405 247.799 112.548 247.512C112.692 247.225 112.764 246.865 112.764 246.434C113.482 244.279 114.416 241.333 115.566 237.597C116.859 233.86 118.296 229.478 119.877 224.448C120.596 222.005 121.314 219.634 122.033 217.335C122.895 214.892 123.757 212.449 124.619 210.006C125.338 208.282 126.056 206.629 126.775 205.049C127.493 203.324 128.212 201.6 128.93 199.875C128.93 199.588 129.002 199.372 129.146 199.229C129.289 199.085 129.361 198.87 129.361 198.582C129.649 197.72 130.08 197.073 130.655 196.642C131.373 196.211 132.092 195.852 132.81 195.564C132.81 195.564 132.882 195.564 133.026 195.564C134.175 195.852 135.397 196.139 136.69 196.427C137.983 196.714 139.061 197.504 139.923 198.798C140.067 199.085 140.426 199.372 141.001 199.66C141.719 200.378 142.294 201.528 142.725 203.109C143.3 204.546 143.444 205.767 143.156 206.773C143.013 207.204 142.869 207.635 142.725 208.066C142.725 208.354 142.725 208.713 142.725 209.144C142.725 209.863 142.653 210.366 142.51 210.653C141.791 211.946 141.216 213.311 140.785 214.748C140.498 216.185 140.067 217.551 139.492 218.844C139.205 219.562 138.989 220.281 138.845 220.999C138.845 221.574 138.702 222.221 138.414 222.939C138.989 222.796 139.42 222.58 139.708 222.293C139.995 221.862 140.282 221.502 140.57 221.215C142.151 220.065 143.659 218.916 145.096 217.766C146.677 216.473 148.258 215.323 149.838 214.317C151.707 213.168 153.503 211.946 155.227 210.653C157.095 209.36 158.963 208.138 160.832 206.989C162.412 205.983 163.993 205.12 165.574 204.402C167.154 203.54 168.807 202.821 170.531 202.246C171.825 201.815 173.118 201.6 174.411 201.6C175.417 201.6 176.351 201.384 177.213 200.953C178.076 200.378 178.938 200.091 179.8 200.091C180.806 199.947 181.812 199.732 182.818 199.444C184.255 199.157 185.189 199.66 185.62 200.953ZM227.767 242.554C229.347 242.554 229.778 243.417 229.06 245.141C228.629 245.859 228.341 246.578 228.198 247.296C228.054 248.015 227.838 248.733 227.551 249.452C227.264 250.17 226.976 250.817 226.689 251.392C226.545 251.823 226.33 252.326 226.042 252.901C225.755 253.476 225.467 253.978 225.18 254.41C224.893 254.841 224.605 255.272 224.318 255.703C224.03 256.278 223.743 256.852 223.456 257.427C223.168 257.858 222.881 258.433 222.593 259.152C222.162 259.87 221.731 260.732 221.3 261.738C220.869 262.6 220.51 263.391 220.222 264.109C220.079 264.397 219.935 264.684 219.791 264.972C219.648 265.115 219.504 265.331 219.36 265.618C218.211 267.199 217.061 268.78 215.911 270.36C214.905 271.797 213.828 273.306 212.678 274.887C212.103 275.605 211.6 276.396 211.169 277.258C210.882 277.976 210.451 278.767 209.876 279.629C208.726 281.641 207.433 283.509 205.996 285.233C204.703 286.958 203.266 288.754 201.685 290.622C200.967 291.628 200.104 292.49 199.098 293.209C198.093 294.071 196.943 294.646 195.65 294.933C195.075 295.077 194.572 295.292 194.141 295.58C193.853 296.011 193.494 296.37 193.063 296.657C191.77 297.663 190.476 298.166 189.183 298.166C188.752 298.023 188.321 297.951 187.89 297.951C187.459 297.951 187.028 297.879 186.597 297.735C186.022 297.591 185.447 297.448 184.872 297.304C184.441 297.16 183.866 297.16 183.148 297.304C181.998 297.448 180.777 297.232 179.483 296.657C178.19 296.083 176.897 295.292 175.603 294.286C174.31 293.424 173.089 292.418 171.939 291.269C170.933 290.263 169.999 289.401 169.137 288.682C167.413 287.101 166.191 285.233 165.473 283.078C164.61 281.066 164.036 278.91 163.748 276.611C163.317 273.45 163.173 270.36 163.317 267.343C163.461 264.325 163.892 261.307 164.61 258.289C165.76 253.116 167.269 248.087 169.137 243.201C170.861 238.315 172.801 233.501 174.957 228.759C176.537 225.167 178.262 221.79 180.13 218.628C182.142 215.323 184.225 212.018 186.381 208.713C189.255 204.402 192.488 200.809 196.081 197.935C196.656 197.504 197.158 197.073 197.59 196.642C198.021 196.067 198.524 195.564 199.098 195.133C201.685 192.834 204.415 191.038 207.289 189.745C208.295 189.313 209.086 189.17 209.66 189.313C210.954 189.601 212.247 189.745 213.54 189.745C214.977 189.601 216.271 189.888 217.42 190.607C218.139 191.038 218.857 191.469 219.576 191.9C220.438 192.331 221.156 192.978 221.731 193.84C222.019 194.559 222.378 195.205 222.809 195.78C223.384 196.355 223.887 197.001 224.318 197.72C224.749 198.438 225.036 199.157 225.18 199.875C225.324 200.594 225.467 201.312 225.611 202.031C225.755 202.893 225.755 203.755 225.611 204.618C225.611 205.48 225.755 206.342 226.042 207.204C226.186 207.923 226.042 208.785 225.611 209.791C225.324 210.509 225.108 211.156 224.964 211.731C224.964 212.305 224.821 212.952 224.533 213.671C224.533 213.958 224.39 214.245 224.102 214.533C222.953 216.257 221.947 217.982 221.085 219.706C220.222 221.43 219.288 223.227 218.282 225.095C218.282 225.095 218.139 225.382 217.851 225.957C217.276 226.675 216.702 227.394 216.127 228.112C215.552 228.831 215.121 229.693 214.834 230.699C214.69 231.274 214.402 231.777 213.971 232.208C213.54 232.639 213.181 233.07 212.894 233.501C211.744 234.938 210.594 236.375 209.445 237.812C208.439 239.249 207.361 240.686 206.212 242.123C204.775 243.704 203.409 245.285 202.116 246.865C200.823 248.302 199.386 249.739 197.805 251.176C197.087 251.895 196.296 252.541 195.434 253.116C194.572 253.547 193.71 254.05 192.847 254.625C191.554 255.344 190.333 256.206 189.183 257.212C188.034 258.074 186.884 259.008 185.734 260.014C185.447 260.158 185.303 260.301 185.303 260.445C185.303 260.445 185.16 260.445 184.872 260.445C182.573 260.589 181.351 261.738 181.208 263.894C181.064 265.474 180.849 267.055 180.561 268.636C180.274 270.073 180.274 271.582 180.561 273.162C180.705 274.025 180.777 274.887 180.777 275.749C180.777 276.611 180.777 277.473 180.777 278.336C180.777 279.485 180.992 280.563 181.423 281.569V281.784C181.711 282.072 182.142 282.647 182.717 283.509C183.004 283.796 183.148 284.012 183.148 284.156C183.291 284.156 183.435 284.227 183.579 284.371V284.587C184.585 285.593 185.662 285.664 186.812 284.802C188.968 283.509 191.123 282.216 193.279 280.922C195.434 279.485 197.374 277.761 199.098 275.749C199.817 275.031 200.464 274.312 201.038 273.594C201.757 272.731 202.475 271.941 203.194 271.222C204.2 270.073 205.134 268.995 205.996 267.989C207.002 266.84 208.008 265.69 209.014 264.54C210.02 263.535 210.954 262.529 211.816 261.523C212.822 260.517 213.756 259.439 214.618 258.289C215.911 256.709 217.205 255.128 218.498 253.547C219.791 251.823 221.085 250.099 222.378 248.374C222.953 247.656 223.456 246.937 223.887 246.219C224.461 245.356 224.964 244.566 225.396 243.848C225.97 242.985 226.761 242.554 227.767 242.554ZM192.416 230.484C192.129 231.489 191.77 232.495 191.339 233.501C191.051 234.507 190.62 235.513 190.045 236.519C191.195 235.369 192.273 234.292 193.279 233.286C194.428 232.28 195.506 231.202 196.512 230.052C198.524 227.61 200.464 225.095 202.332 222.508C204.2 219.922 205.709 217.191 206.858 214.317C207.433 213.024 208.008 211.803 208.583 210.653C209.157 209.503 209.66 208.282 210.091 206.989C210.379 206.126 210.666 205.264 210.954 204.402C211.241 203.54 211.385 202.678 211.385 201.815C210.954 201.815 210.738 201.815 210.738 201.815C210.02 202.39 209.301 202.965 208.583 203.54C208.008 203.971 207.433 204.546 206.858 205.264C205.996 206.27 205.206 207.348 204.487 208.497C203.912 209.503 203.266 210.509 202.547 211.515C201.829 212.665 201.11 213.742 200.392 214.748C199.673 215.754 198.883 216.832 198.021 217.982C196.871 219.275 196.081 220.856 195.65 222.724C195.506 223.442 195.362 224.089 195.219 224.664C195.075 225.095 194.859 225.598 194.572 226.173C194.284 226.891 193.925 227.61 193.494 228.328C193.063 229.047 192.704 229.765 192.416 230.484ZM96.3812 374.179C96.8123 375.76 96.4531 376.91 95.3035 377.628C95.0161 377.916 94.6568 378.131 94.2257 378.275C93.7946 378.275 93.4354 378.419 93.148 378.706C92.8606 378.993 92.5732 379.209 92.2858 379.353C92.1421 379.353 91.9984 379.496 91.8547 379.784C91.2799 380.933 90.4895 381.867 89.4836 382.586C88.4777 383.161 87.5437 383.807 86.6815 384.526C84.6697 386.25 82.4423 387.687 79.9994 388.837C77.7002 389.843 75.3292 391.064 72.8863 392.501C70.5871 393.795 68.2879 395.16 65.9887 396.597C63.8332 398.034 61.7495 399.543 59.7377 401.123C58.5881 402.129 57.3667 403.063 56.0734 403.925C54.9238 404.788 53.7023 405.506 52.409 406.081C51.8342 406.368 51.4031 406.656 51.1157 406.943C50.6846 409.53 50.1098 412.188 49.3913 414.918C48.6728 417.505 47.9543 420.092 47.2358 422.678C46.5173 425.409 45.5833 428.067 44.4337 430.654C43.2841 433.24 42.35 435.97 41.6315 438.844C41.4878 439.419 41.3441 439.922 41.2004 440.353C41.0567 440.641 40.6256 440.856 39.9071 441C39.3323 441 39.0449 441.287 39.0449 441.862C38.7575 443.012 38.2546 443.946 37.5361 444.664C36.9613 445.527 36.3146 446.317 35.5961 447.035C34.4465 448.041 33.1532 448.832 31.7162 449.406C30.4229 450.125 29.0578 450.628 27.6208 450.915C26.7586 451.203 25.8245 451.203 24.8186 450.915C23.9564 450.772 23.0942 450.628 22.232 450.484C20.795 450.197 19.4299 449.694 18.1366 448.975C16.987 448.401 15.7655 447.826 14.4722 447.251C14.1848 446.964 13.8974 446.748 13.61 446.604C13.4663 446.604 13.2508 446.532 12.9634 446.389C9.08349 444.808 6.49689 442.15 5.20359 438.413C4.91619 437.839 4.70064 437.336 4.55694 436.905C4.26954 436.473 3.98214 435.97 3.69474 435.396C2.54514 433.384 1.75479 431.3 1.32369 429.145C0.892586 426.846 0.820736 424.474 1.10814 422.032V421.169C2.11404 416.858 3.19179 412.835 4.34139 409.099C5.49099 405.219 6.56874 401.914 7.57464 399.183C8.58054 396.309 9.44274 394.01 10.1612 392.286C10.8797 390.561 11.239 389.699 11.239 389.699V388.837C11.6701 388.406 11.9575 388.047 12.1012 387.759C13.3945 385.029 14.8315 382.442 16.4122 379.999C17.9929 377.413 19.7891 375.042 21.8009 372.886C23.5253 371.162 25.3216 369.581 27.1897 368.144C29.2015 366.707 31.5007 365.773 34.0873 365.342C35.3806 365.055 36.4583 365.198 37.3205 365.773C38.3264 366.348 39.2605 366.851 40.1227 367.282C41.1286 367.713 42.1345 368.216 43.1404 368.791C44.4337 369.509 45.3677 370.371 45.9425 371.377C46.661 372.958 47.4514 374.467 48.3136 375.904C49.1758 377.197 49.9661 378.634 50.6846 380.215C51.6905 382.37 52.3372 384.67 52.6246 387.112V389.268V395.088C54.0616 394.369 55.4267 393.579 56.72 392.717C58.0133 391.855 59.3066 391.064 60.5999 390.346C61.7495 389.771 62.8273 389.268 63.8332 388.837C64.8391 388.262 65.845 387.687 66.8509 387.112C70.4434 385.101 74.1077 383.376 77.8439 381.939C81.5801 380.359 85.3163 378.778 89.0525 377.197C90.0584 376.91 90.9925 376.622 91.8547 376.335C92.8606 376.048 93.7228 375.545 94.4413 374.826C94.7287 374.539 95.0161 374.395 95.3035 374.395C95.7346 374.395 96.0938 374.323 96.3812 374.179ZM36.2428 390.13C36.2428 389.412 36.3146 388.621 36.4583 387.759C36.602 386.897 36.5302 386.107 36.2428 385.388C35.9554 385.244 35.668 385.316 35.3806 385.604C33.9436 386.322 32.794 387.256 31.9318 388.406C31.2133 389.555 30.4948 390.849 29.7763 392.286C28.9141 394.01 28.0519 395.734 27.1897 397.459C26.3275 399.04 25.5371 400.764 24.8186 402.632C24.5312 403.782 24.1001 404.931 23.5253 406.081C23.0942 407.087 22.735 408.165 22.4476 409.314C22.1602 410.464 21.8009 411.541 21.3698 412.547C21.0824 413.41 20.795 414.415 20.5076 415.565C20.2202 416.715 19.9328 417.792 19.6454 418.798C19.358 419.804 19.0706 420.882 18.7832 422.032C18.6395 422.463 18.5677 423.181 18.5677 424.187C18.7114 426.63 19.1425 429.073 19.861 431.516C20.4358 433.384 21.3698 433.671 22.6631 432.378C23.669 431.659 24.5312 430.797 25.2497 429.791C25.9682 428.785 26.6867 427.78 27.4052 426.774C27.8363 426.055 28.2674 425.409 28.6985 424.834C29.1296 424.115 29.417 423.325 29.5607 422.463C29.5607 421.744 29.8481 420.666 30.4229 419.229C30.7103 418.655 30.854 418.152 30.854 417.721C30.5666 416.427 30.6385 415.206 31.0696 414.056C31.5007 412.763 31.9318 411.47 32.3629 410.176C32.9377 408.596 33.4406 406.943 33.8717 405.219C34.4465 403.494 34.8776 401.77 35.165 400.045C35.5961 398.465 35.8117 396.812 35.8117 395.088C35.9554 393.363 36.0991 391.711 36.2428 390.13ZM179.676 390.13C179.389 390.561 179.245 391.064 179.245 391.639C179.389 392.214 179.173 392.717 178.598 393.148C178.167 393.435 177.736 393.795 177.305 394.226C177.018 394.657 176.73 395.088 176.443 395.519C176.012 395.95 175.581 396.381 175.15 396.812C174.862 397.243 174.503 397.674 174.072 398.106C173.353 398.68 172.85 399.614 172.563 400.908C172.419 401.626 171.988 402.345 171.27 403.063C170.551 403.782 169.833 404.428 169.114 405.003C168.539 405.434 167.965 406.009 167.39 406.728C165.091 409.027 163.007 411.326 161.139 413.625C159.702 415.35 158.265 417.002 156.828 418.583C155.391 420.163 153.882 421.744 152.301 423.325C152.014 423.612 151.727 423.9 151.439 424.187C151.152 424.474 150.864 424.762 150.577 425.049C149.427 426.343 148.134 427.42 146.697 428.283C145.404 429.001 144.039 429.72 142.602 430.438C142.458 430.582 142.314 430.654 142.17 430.654C142.027 430.654 141.883 430.725 141.739 430.869C141.021 431.588 140.231 431.947 139.368 431.947C138.506 431.947 137.572 431.803 136.566 431.516C135.417 431.228 134.483 430.941 133.764 430.654C131.752 429.791 130.1 428.57 128.806 426.989C127.657 425.265 126.723 423.397 126.004 421.385C125.717 420.81 125.501 420.235 125.358 419.661C125.358 419.086 125.286 418.439 125.142 417.721C124.855 416.715 124.711 415.781 124.711 414.918C124.855 413.913 124.998 412.907 125.142 411.901C125.286 410.751 125.358 409.602 125.358 408.452C125.501 407.302 125.717 406.153 126.004 405.003C126.004 404.285 126.148 403.063 126.435 401.339C126.866 399.614 127.226 397.89 127.513 396.166V394.657C127.513 393.363 127.585 392.142 127.729 390.992C127.872 389.699 128.088 388.478 128.375 387.328C128.663 386.466 128.735 385.747 128.591 385.173C127.585 385.891 126.795 386.753 126.22 387.759C125.645 388.621 125.07 389.484 124.495 390.346C123.202 392.501 121.693 394.441 119.969 396.166C119.107 397.171 118.316 398.249 117.598 399.399C116.879 400.405 116.161 401.482 115.442 402.632C114.724 403.494 114.005 404.428 113.287 405.434C112.712 406.296 112.065 407.159 111.347 408.021C109.766 409.602 108.688 411.326 108.114 413.194C107.395 414.775 106.533 416.284 105.527 417.721C104.521 419.014 103.443 420.307 102.294 421.6C101.432 422.894 100.426 424.115 99.276 425.265C98.2701 426.271 97.4079 427.42 96.6894 428.714C95.9709 429.863 95.2524 430.941 94.5339 431.947C93.9591 432.953 93.3125 434.031 92.594 435.18C91.5881 436.33 90.5822 437.551 89.5763 438.844C88.7141 439.994 87.7082 441.144 86.5586 442.293C85.409 443.443 83.9001 444.161 82.032 444.449C80.1639 444.736 78.5832 444.521 77.2899 443.802L76.2122 442.724C75.7811 442.006 75.2063 441.431 74.4878 441C73.4819 440.425 72.8352 439.707 72.5478 438.844C72.1167 437.982 71.8293 436.976 71.6856 435.827C71.2545 433.384 71.3982 430.797 72.1167 428.067C72.6915 425.337 73.1945 422.678 73.6256 420.092C73.913 417.361 74.4878 414.703 75.35 412.116C75.6374 410.967 75.9966 409.817 76.4277 408.667C76.8588 407.518 77.2181 406.368 77.5055 405.219L89.1452 367.929C89.4326 367.929 89.72 367.857 90.0074 367.713C90.2948 367.426 90.5822 367.138 90.8696 366.851C91.157 366.707 91.4444 366.635 91.7318 366.635C92.0192 366.492 92.3066 366.635 92.594 367.066C92.8814 367.354 93.1688 367.426 93.4562 367.282C93.7436 366.994 94.031 366.851 94.3184 366.851C95.1806 366.707 95.6835 366.779 95.8272 367.066C96.1146 367.21 96.1865 367.713 96.0428 368.575C96.0428 369.294 96.4739 369.653 97.3361 369.653C98.1983 369.797 98.7731 370.228 99.0605 370.946C99.4916 371.665 99.9227 372.383 100.354 373.102C100.929 373.82 101.575 374.467 102.294 375.042C103.874 375.904 104.521 377.341 104.234 379.353C103.946 381.508 103.659 383.664 103.371 385.819C103.228 387.975 102.869 390.13 102.294 392.286V392.932C103.3 392.214 104.234 391.064 105.096 389.484C106.677 387.041 108.401 384.67 110.269 382.37C112.137 379.927 114.149 377.7 116.304 375.688C117.023 375.114 117.598 374.539 118.029 373.964C118.46 373.389 118.963 372.742 119.538 372.024C120.687 370.874 122.052 369.725 123.633 368.575C125.358 367.282 127.513 366.635 130.1 366.635L135.273 365.989C137.859 365.557 140.159 365.917 142.17 367.066C143.176 367.641 144.11 368.216 144.973 368.791C145.979 369.366 146.841 370.228 147.559 371.377C147.847 371.952 148.134 372.814 148.421 373.964C148.709 379.856 148.206 385.388 146.913 390.561C145.763 395.734 144.901 400.62 144.326 405.219C144.182 406.512 143.967 407.805 143.679 409.099C143.392 410.248 143.105 411.47 142.817 412.763C142.817 413.05 142.745 413.553 142.602 414.272C142.458 414.99 142.314 415.781 142.17 416.643C142.314 416.643 142.817 416.499 143.679 416.212C144.829 415.781 146.194 415.062 147.775 414.056C149.355 412.907 150.792 411.757 152.086 410.607C153.523 409.458 155.032 408.308 156.612 407.159C158.624 405.865 160.42 404.356 162.001 402.632C163.582 400.764 165.306 399.04 167.174 397.459C168.324 396.309 169.545 395.303 170.839 394.441C172.132 393.579 173.353 392.573 174.503 391.423C174.79 391.28 175.006 391.136 175.15 390.992C175.293 390.705 175.509 390.418 175.796 390.13C177.09 388.693 178.383 388.621 179.676 389.915V390.13ZM226.188 401.554C227.769 401.554 228.2 402.417 227.481 404.141C227.05 404.859 226.763 405.578 226.619 406.296C226.475 407.015 226.26 407.733 225.972 408.452C225.685 409.17 225.397 409.817 225.11 410.392C224.966 410.823 224.751 411.326 224.463 411.901C224.176 412.476 223.889 412.978 223.601 413.41C223.314 413.841 223.026 414.272 222.739 414.703C222.452 415.278 222.164 415.852 221.877 416.427C221.589 416.858 221.302 417.433 221.015 418.152C220.584 418.87 220.152 419.732 219.721 420.738C219.29 421.6 218.931 422.391 218.644 423.109C218.5 423.397 218.356 423.684 218.212 423.972C218.069 424.115 217.925 424.331 217.781 424.618C216.632 426.199 215.482 427.78 214.333 429.36C213.327 430.797 212.249 432.306 211.099 433.887C210.525 434.605 210.022 435.396 209.59 436.258C209.303 436.976 208.872 437.767 208.297 438.629C207.148 440.641 205.854 442.509 204.417 444.233C203.124 445.958 201.687 447.754 200.106 449.622C199.388 450.628 198.526 451.49 197.52 452.209C196.514 453.071 195.364 453.646 194.071 453.933C193.496 454.077 192.993 454.292 192.562 454.58C192.275 455.011 191.915 455.37 191.484 455.657C190.191 456.663 188.898 457.166 187.604 457.166C187.173 457.023 186.742 456.951 186.311 456.951C185.88 456.951 185.449 456.879 185.018 456.735C184.443 456.591 183.868 456.448 183.293 456.304C182.862 456.16 182.287 456.16 181.569 456.304C180.419 456.448 179.198 456.232 177.905 455.657C176.611 455.083 175.318 454.292 174.025 453.286C172.731 452.424 171.51 451.418 170.36 450.269C169.354 449.263 168.42 448.401 167.558 447.682C165.834 446.101 164.612 444.233 163.894 442.078C163.032 440.066 162.457 437.91 162.169 435.611C161.738 432.45 161.595 429.36 161.738 426.343C161.882 423.325 162.313 420.307 163.032 417.289C164.181 412.116 165.69 407.087 167.558 402.201C169.283 397.315 171.223 392.501 173.378 387.759C174.959 384.167 176.683 380.79 178.551 377.628C180.563 374.323 182.647 371.018 184.802 367.713C187.676 363.402 190.909 359.809 194.502 356.935C195.077 356.504 195.58 356.073 196.011 355.642C196.442 355.067 196.945 354.564 197.52 354.133C200.106 351.834 202.837 350.038 205.711 348.745C206.716 348.313 207.507 348.17 208.082 348.313C209.375 348.601 210.668 348.745 211.962 348.745C213.399 348.601 214.692 348.888 215.841 349.607C216.56 350.038 217.278 350.469 217.997 350.9C218.859 351.331 219.578 351.978 220.152 352.84C220.44 353.559 220.799 354.205 221.23 354.78C221.805 355.355 222.308 356.001 222.739 356.72C223.17 357.438 223.458 358.157 223.601 358.875C223.745 359.594 223.889 360.312 224.032 361.031C224.176 361.893 224.176 362.755 224.032 363.618C224.032 364.48 224.176 365.342 224.463 366.204C224.607 366.923 224.463 367.785 224.032 368.791C223.745 369.509 223.529 370.156 223.386 370.731C223.386 371.305 223.242 371.952 222.955 372.671C222.955 372.958 222.811 373.245 222.523 373.533C221.374 375.257 220.368 376.982 219.506 378.706C218.644 380.43 217.71 382.227 216.704 384.095C216.704 384.095 216.56 384.382 216.273 384.957C215.698 385.675 215.123 386.394 214.548 387.112C213.973 387.831 213.542 388.693 213.255 389.699C213.111 390.274 212.824 390.777 212.393 391.208C211.962 391.639 211.602 392.07 211.315 392.501C210.165 393.938 209.016 395.375 207.866 396.812C206.86 398.249 205.782 399.686 204.633 401.123C203.196 402.704 201.831 404.285 200.537 405.865C199.244 407.302 197.807 408.739 196.226 410.176C195.508 410.895 194.718 411.541 193.855 412.116C192.993 412.547 192.131 413.05 191.269 413.625C189.975 414.344 188.754 415.206 187.604 416.212C186.455 417.074 185.305 418.008 184.156 419.014C183.868 419.158 183.724 419.301 183.724 419.445C183.724 419.445 183.581 419.445 183.293 419.445C180.994 419.589 179.773 420.738 179.629 422.894C179.485 424.474 179.27 426.055 178.982 427.636C178.695 429.073 178.695 430.582 178.982 432.162C179.126 433.025 179.198 433.887 179.198 434.749C179.198 435.611 179.198 436.473 179.198 437.336C179.198 438.485 179.413 439.563 179.845 440.569V440.784C180.132 441.072 180.563 441.647 181.138 442.509C181.425 442.796 181.569 443.012 181.569 443.156C181.713 443.156 181.856 443.227 182 443.371V443.587C183.006 444.593 184.084 444.664 185.233 443.802C187.389 442.509 189.544 441.216 191.7 439.922C193.855 438.485 195.795 436.761 197.52 434.749C198.238 434.031 198.885 433.312 199.46 432.594C200.178 431.731 200.897 430.941 201.615 430.222C202.621 429.073 203.555 427.995 204.417 426.989C205.423 425.84 206.429 424.69 207.435 423.54C208.441 422.535 209.375 421.529 210.237 420.523C211.243 419.517 212.177 418.439 213.039 417.289C214.333 415.709 215.626 414.128 216.919 412.547C218.212 410.823 219.506 409.099 220.799 407.374C221.374 406.656 221.877 405.937 222.308 405.219C222.883 404.356 223.386 403.566 223.817 402.848C224.392 401.985 225.182 401.554 226.188 401.554ZM190.838 389.484C190.55 390.489 190.191 391.495 189.76 392.501C189.472 393.507 189.041 394.513 188.467 395.519C189.616 394.369 190.694 393.292 191.7 392.286C192.849 391.28 193.927 390.202 194.933 389.052C196.945 386.61 198.885 384.095 200.753 381.508C202.621 378.922 204.13 376.191 205.279 373.317C205.854 372.024 206.429 370.803 207.004 369.653C207.579 368.503 208.082 367.282 208.513 365.989C208.8 365.126 209.088 364.264 209.375 363.402C209.662 362.54 209.806 361.678 209.806 360.815C209.375 360.815 209.159 360.815 209.159 360.815C208.441 361.39 207.722 361.965 207.004 362.54C206.429 362.971 205.854 363.546 205.279 364.264C204.417 365.27 203.627 366.348 202.908 367.497C202.334 368.503 201.687 369.509 200.968 370.515C200.25 371.665 199.531 372.742 198.813 373.748C198.094 374.754 197.304 375.832 196.442 376.982C195.292 378.275 194.502 379.856 194.071 381.724C193.927 382.442 193.783 383.089 193.64 383.664C193.496 384.095 193.281 384.598 192.993 385.173C192.706 385.891 192.346 386.61 191.915 387.328C191.484 388.047 191.125 388.765 190.838 389.484ZM226.68 446.389C226.392 446.389 226.177 446.532 226.033 446.82C226.033 447.251 225.889 447.323 225.602 447.035C225.171 446.748 225.099 446.317 225.386 445.742V445.095C225.099 444.952 224.955 445.024 224.955 445.311C225.099 445.598 225.027 445.742 224.74 445.742C223.59 444.736 222.871 443.658 222.584 442.509C222.297 441.79 222.081 441.072 221.937 440.353C221.794 439.635 221.937 438.916 222.369 438.198C222.943 437.048 223.518 435.97 224.093 434.965C224.668 433.959 225.386 433.025 226.248 432.162C227.254 431.157 228.476 430.438 229.913 430.007C230.2 429.863 230.416 429.863 230.559 430.007C230.703 430.151 230.847 430.222 230.991 430.222C231.709 430.51 232.284 430.869 232.715 431.3C233.29 431.731 233.936 432.091 234.655 432.378C235.086 432.809 235.302 433.096 235.302 433.24C235.302 433.528 235.445 433.815 235.733 434.102C236.164 434.39 236.523 435.036 236.81 436.042C237.529 437.048 237.744 438.054 237.457 439.06C237.17 439.922 236.882 440.784 236.595 441.647C236.02 443.084 235.014 444.018 233.577 444.449C232.428 444.736 231.565 445.239 230.991 445.958C230.703 446.389 230.416 446.461 230.128 446.173C230.128 446.173 229.913 446.173 229.482 446.173C229.194 446.748 228.835 446.892 228.404 446.604C228.404 446.461 228.26 446.532 227.973 446.82C227.398 447.251 226.967 447.107 226.68 446.389Z" fill="white"/>
</svg>
