<svg width="1638" height="342" viewBox="0 0 1638 342" fill="none" xmlns="http://www.w3.org/2000/svg">
<g style="mix-blend-mode:multiply" opacity="1">
<path d="M148.404 252.705C149.111 251.292 149.464 249.878 149.464 248.465C149.818 247.051 150.348 245.638 151.054 244.224C153.175 237.157 155.295 230.266 157.415 223.552C159.535 216.838 161.479 210.124 163.246 203.41C164.306 199.876 165.366 196.519 166.426 193.339C167.486 189.805 168.369 186.095 169.076 182.208C169.43 180.441 169.783 178.674 170.136 176.907C170.49 174.787 170.843 172.667 171.196 170.547C171.55 168.78 172.08 167.013 172.787 165.246C173.493 163.479 174.2 161.713 174.907 159.946C176.32 157.825 177.204 156.059 177.557 154.645C178.617 150.758 179.677 146.694 180.737 142.454C181.797 138.213 183.034 134.15 184.448 130.263C186.568 123.195 188.688 115.951 190.808 108.53C193.282 101.11 195.932 93.8657 198.759 86.7983C200.173 83.2646 201.763 79.9076 203.53 76.7273C205.296 73.1936 207.063 69.6599 208.83 66.1262C210.597 63.2992 212.187 60.649 213.601 58.1754C215.367 55.3484 217.311 52.5215 219.431 49.6945C221.905 46.5142 224.732 44.2173 227.912 42.8038C228.619 42.4505 229.679 42.2738 231.092 42.2738C231.799 42.6272 232.506 42.8038 233.213 42.8038C234.273 42.4505 235.333 42.4505 236.393 42.8038C236.393 44.9241 237.1 46.1609 238.513 46.5142C238.513 46.8676 238.513 47.0443 238.513 47.0443C238.867 47.0443 239.043 47.221 239.043 47.5743C238.336 48.6344 238.16 49.8712 238.513 51.2847C238.867 52.3448 238.69 53.5816 237.983 54.9951C237.983 56.0552 237.983 56.5852 237.983 56.5852C239.043 57.292 239.22 58.7054 238.513 60.8257C238.16 61.5324 237.806 62.4158 237.453 63.4759C237.1 64.1827 237.1 64.8894 237.453 65.5961C237.806 65.9495 237.63 66.4796 236.923 67.1863C234.803 70.3666 232.859 73.7236 231.092 77.2573C229.679 80.0843 228.442 83.0879 227.382 86.2682C226.675 89.0952 225.969 92.0988 225.262 95.2791C225.262 97.046 224.555 99.3429 223.142 102.17C221.021 107.47 218.901 112.771 216.781 118.071C215.014 123.372 213.247 128.849 211.48 134.503C210.774 136.977 210.067 139.45 209.36 141.924C209.007 144.044 208.477 146.164 207.77 148.284C207.063 150.405 206.533 152.525 206.18 154.645C205.827 156.765 205.296 158.709 204.59 160.476C204.236 161.889 203.883 163.126 203.53 164.186C203.53 165.246 203.53 166.483 203.53 167.896C202.116 174.61 200.349 181.148 198.229 187.508C196.462 193.869 194.695 200.23 192.929 206.59C191.515 210.477 190.102 214.188 188.688 217.721C187.628 220.902 186.215 224.259 184.448 227.793C183.741 229.206 183.388 230.619 183.388 232.033C182.327 236.273 181.267 240.514 180.207 244.754C179.501 248.641 178.44 252.705 177.027 256.945C175.613 260.833 174.2 264.896 172.787 269.137C171.726 273.377 170.313 277.441 168.546 281.328C167.839 284.155 167.133 286.098 166.426 287.159C165.366 288.219 164.659 289.455 164.306 290.869C163.952 292.282 163.422 293.696 162.716 295.109C161.655 299.35 160.595 303.59 159.535 307.831C158.475 312.424 157.062 316.665 155.295 320.552C154.235 324.792 152.291 328.326 149.464 331.153C147.344 333.98 145.047 335.393 142.573 335.393C141.867 335.393 140.983 335.57 139.923 335.923C138.863 336.63 137.98 337.16 137.273 337.514C134.446 338.574 131.442 338.044 128.262 335.923C127.555 335.217 126.849 334.863 126.142 334.863C124.375 334.157 123.315 334.51 122.961 335.923C122.961 336.63 122.608 337.337 121.901 338.044C120.841 339.104 120.311 338.927 120.311 337.514C119.604 336.1 119.074 335.393 118.721 335.393C116.954 334.687 115.364 333.803 113.951 332.743C112.537 331.683 110.947 330.27 109.18 328.503L108.65 327.973C106.53 326.206 105.116 324.086 104.41 321.612C103.703 319.138 103.526 316.488 103.88 313.661C104.233 311.541 104.41 309.421 104.41 307.301C104.41 305.18 104.41 303.06 104.41 300.94V271.787C104.41 260.126 104.94 248.465 106 236.803C106.353 230.796 106.707 224.789 107.06 218.782C107.413 212.421 107.767 206.237 108.12 200.23C108.473 197.049 108.65 193.869 108.65 190.689C108.65 187.155 108.827 183.798 109.18 180.618C109.18 177.791 109.18 175.141 109.18 172.667C109.18 170.193 109.003 167.543 108.65 164.716C108.65 158.709 108.65 153.055 108.65 147.754C109.003 142.101 109.357 136.447 109.71 130.793C109.71 127.966 109.71 125.139 109.71 122.312C109.71 119.132 109.887 116.128 110.24 113.301C110.594 112.948 110.594 112.594 110.24 112.241C110.24 112.241 109.887 112.594 109.18 113.301C108.473 116.835 107.413 120.192 106 123.372C104.94 126.199 104.056 129.379 103.35 132.913C102.996 135.033 102.289 136.977 101.229 138.744C100.169 140.51 99.1091 142.277 98.049 144.044C96.2821 147.931 94.5153 151.818 92.7485 155.705C90.9816 159.592 89.2148 163.479 87.4479 167.366C84.9743 173.02 82.8541 179.204 81.0873 185.918C80.3805 188.745 79.6738 191.749 78.9671 194.929C78.2603 198.11 77.3769 201.113 76.3168 203.94C75.6101 205.707 74.9033 207.65 74.1966 209.771C73.4898 211.538 72.7831 213.304 72.0764 215.071C71.0163 218.252 69.6028 221.255 67.8359 224.082C66.4225 226.909 65.009 229.913 63.5955 233.093C61.8287 236.98 60.0618 241.044 58.295 245.284C56.8815 249.525 55.2913 253.588 53.5245 257.476C51.7576 261.716 49.9908 266.133 48.224 270.727C46.4571 274.967 44.5136 279.208 42.3934 283.448C40.9799 286.628 39.3897 288.925 37.6229 290.339C34.7959 293.873 31.2622 295.109 27.0218 294.049C24.5482 293.342 22.7814 293.873 21.7213 295.639C21.3679 295.993 20.4845 296.346 19.071 296.699C18.0109 296.699 17.3042 296.523 16.9508 296.169C15.5373 294.756 13.0637 293.696 9.53005 292.989C7.40984 292.282 5.81968 291.222 4.75957 289.809C3.3461 288.395 2.46267 286.275 2.1093 283.448C1.0492 274.614 0.695829 266.663 1.0492 259.596C1.40257 256.415 1.57925 253.235 1.57925 250.055C1.57925 246.521 1.75594 242.987 2.1093 239.454C2.46267 235.567 2.63936 231.68 2.63936 227.793C2.63936 223.552 2.81604 219.488 3.16941 215.601V201.29C3.52278 196.343 3.87615 191.572 4.22952 186.978C4.22952 182.031 4.4062 177.084 4.75957 172.137C5.11294 168.957 5.28963 165.953 5.28963 163.126C5.28963 159.946 5.46631 156.942 5.81968 154.115C6.17305 149.168 6.52642 144.574 6.87979 140.334C7.23316 135.74 7.58652 130.969 7.93989 126.022C8.64663 122.135 9 118.425 9 114.891C9.35337 111.357 9.70674 107.647 10.0601 103.76C10.7668 99.5196 11.2969 95.2791 11.6503 91.0387C12.0036 86.4449 12.5337 82.0278 13.2404 77.7874C13.9472 73.1936 14.4772 68.7765 14.8306 64.536C15.5373 59.9422 16.2441 55.1718 16.9508 50.2246C18.0109 40.6836 19.6011 31.1427 21.7213 21.6017C22.428 19.4815 22.7814 17.538 22.7814 15.7711C23.1348 13.6509 23.4881 11.5307 23.8415 9.41046C23.8415 5.17005 25.785 2.51978 29.6721 1.45967C31.0856 0.752939 32.499 0.576257 33.9125 0.929621C35.326 0.929621 36.9162 0.752939 38.683 0.399574C39.0364 0.399574 39.213 0.576257 39.213 0.929621C39.5664 0.929621 39.9198 0.929621 40.2732 0.929621C42.3934 2.3431 44.1602 3.22652 45.5737 3.57989C47.3405 4.64 49.1074 6.23016 50.8742 8.35037C51.581 9.76385 52.2877 10.6473 52.9944 11.0006C54.7613 12.0607 55.9981 13.4742 56.7048 15.2411C57.4116 17.0079 58.295 18.7748 59.3551 20.5416C60.0618 22.3084 60.4152 24.252 60.4152 26.3722C60.4152 28.4924 60.2385 30.6126 59.8851 32.7328C59.5318 36.6199 58.825 40.5069 57.7649 44.394C57.0582 48.2811 56.3514 52.3448 55.6447 56.5852C55.2913 58.3521 55.1147 60.8257 55.1147 64.006C54.4079 68.9531 54.0545 74.077 54.0545 79.3775C54.4079 84.3247 54.4079 89.2719 54.0545 94.219C54.0545 96.6926 53.8779 98.4595 53.5245 99.5196C52.8178 101.64 52.4644 103.76 52.4644 105.88C52.4644 108 52.4644 109.944 52.4644 111.711C52.4644 114.538 52.4644 117.188 52.4644 119.662C52.4644 121.782 52.2877 124.079 51.9343 126.552C51.581 129.733 51.4043 132.913 51.4043 136.093C51.7576 139.274 51.9343 142.454 51.9343 145.634C51.581 148.461 51.4043 151.465 51.4043 154.645C51.7576 157.472 51.7576 160.476 51.4043 163.656C51.4043 168.25 51.4043 172.844 51.4043 177.437C51.4043 181.678 51.0509 186.095 50.3442 190.689C50.3442 192.809 49.9908 194.929 49.2841 197.049C48.9307 198.816 48.9307 200.936 49.2841 203.41C49.2841 204.47 49.4608 205.177 49.8141 205.53C51.2276 202.35 52.111 199.523 52.4644 197.049C55.6447 185.742 59.0017 174.61 62.5354 163.656C66.0691 152.702 69.7795 141.57 73.6665 130.263C76.4935 121.075 79.6738 112.064 83.2075 103.23C86.7412 94.3957 90.4516 85.5615 94.3386 76.7273C97.8723 69.6599 101.229 62.4158 104.41 54.9951C107.59 47.5743 110.947 40.3303 114.481 33.2629C115.187 31.496 115.894 29.9059 116.601 28.4924C117.661 27.0789 118.721 25.4888 119.781 23.7219C120.488 21.9551 121.548 20.895 122.961 20.5416C125.435 19.1281 127.732 16.8312 129.852 13.6509C130.559 12.2374 131.442 11.5307 132.502 11.5307C133.916 11.1773 135.153 10.824 136.213 10.4706C140.453 8.70374 144.34 9.05711 147.874 11.5307C150.701 13.2975 153.175 15.2411 155.295 17.3613C157.415 19.1281 159.359 21.425 161.125 24.252C164.659 30.966 166.426 38.2101 166.426 45.9842C166.426 48.4578 166.249 50.2246 165.896 51.2847C165.189 54.1116 164.659 56.9386 164.306 59.7656C164.306 62.5925 163.952 65.4195 163.246 68.2464C162.539 70.3666 162.185 72.6635 162.185 75.1371C162.185 77.2573 162.009 79.5542 161.655 82.0278C161.302 85.2081 160.949 88.3884 160.595 91.5688C160.242 94.7491 160.065 97.9294 160.065 101.11C159.712 103.583 159.535 106.057 159.535 108.53C159.535 111.004 159.359 113.478 159.005 115.951C158.298 121.252 157.945 126.729 157.945 132.383C158.298 137.683 158.475 142.984 158.475 148.284C158.122 152.172 157.768 156.059 157.415 159.946C157.415 163.479 157.238 167.19 156.885 171.077C156.532 171.784 156.355 172.49 156.355 173.197C156.708 173.904 156.708 174.61 156.355 175.317C156.355 179.558 156.178 183.798 155.825 188.039C155.471 191.926 155.118 195.989 154.765 200.23C154.411 203.41 154.058 206.767 153.705 210.301C153.705 213.481 153.351 216.661 152.645 219.842C152.645 221.255 152.468 222.492 152.114 223.552C152.114 224.612 151.938 225.849 151.584 227.262C150.878 228.676 150.524 230.089 150.524 231.503C150.524 232.563 150.348 233.8 149.994 235.213C149.641 238.04 149.287 240.69 148.934 243.164C148.581 245.638 148.227 248.288 147.874 251.115C147.874 252.175 148.051 252.705 148.404 252.705ZM359.672 205C363.559 205 364.619 207.12 362.852 211.361C361.792 213.128 361.085 214.895 360.732 216.661C360.379 218.428 359.848 220.195 359.142 221.962C358.435 223.729 357.728 225.319 357.022 226.732C356.668 227.793 356.138 229.029 355.431 230.443C354.725 231.856 354.018 233.093 353.311 234.153C352.604 235.213 351.898 236.273 351.191 237.333C350.484 238.747 349.777 240.16 349.071 241.574C348.364 242.634 347.657 244.047 346.951 245.814C345.89 247.581 344.83 249.701 343.77 252.175C342.71 254.295 341.827 256.239 341.12 258.006C340.767 258.712 340.413 259.419 340.06 260.126C339.706 260.479 339.353 261.009 339 261.716C336.173 265.603 333.346 269.49 330.519 273.377C328.045 276.911 325.395 280.621 322.568 284.508C321.155 286.275 319.918 288.219 318.858 290.339C318.151 292.106 317.091 294.049 315.677 296.169C312.85 301.117 309.67 305.71 306.136 309.951C302.956 314.191 299.422 318.608 295.535 323.202C293.768 325.676 291.648 327.796 289.175 329.563C286.701 331.683 283.874 333.096 280.694 333.803C279.28 334.157 278.044 334.687 276.983 335.393C276.277 336.453 275.393 337.337 274.333 338.044C271.153 340.517 267.973 341.754 264.792 341.754C263.732 341.401 262.672 341.224 261.612 341.224C260.552 341.224 259.492 341.047 258.432 340.694C257.018 340.341 255.605 339.987 254.191 339.634C253.131 339.28 251.718 339.28 249.951 339.634C247.124 339.987 244.12 339.457 240.94 338.044C237.759 336.63 234.579 334.687 231.399 332.213C228.219 330.093 225.215 327.619 222.388 324.792C219.914 322.319 217.617 320.199 215.497 318.432C211.257 314.545 208.253 309.951 206.486 304.65C204.366 299.703 202.953 294.403 202.246 288.749C201.186 280.975 200.832 273.377 201.186 265.956C201.539 258.536 202.599 251.115 204.366 243.694C207.193 230.973 210.903 218.605 215.497 206.59C219.738 194.576 224.508 182.738 229.809 171.077C233.696 162.243 237.936 153.938 242.53 146.164C247.477 138.037 252.601 129.909 257.902 121.782C264.969 111.181 272.92 102.347 281.754 95.2791C283.167 94.219 284.404 93.1589 285.464 92.0988C286.524 90.6853 287.761 89.4486 289.175 88.3884C295.535 82.7345 302.249 78.3174 309.317 75.1371C311.79 74.077 313.734 73.7236 315.147 74.077C318.328 74.7837 321.508 75.1371 324.688 75.1371C328.222 74.7837 331.402 75.4905 334.229 77.2573C335.996 78.3174 337.763 79.3775 339.53 80.4376C341.65 81.4977 343.417 83.0879 344.83 85.2081C345.537 86.975 346.42 88.5651 347.481 89.9786C348.894 91.3921 350.131 92.9822 351.191 94.7491C352.251 96.5159 352.958 98.2828 353.311 100.05C353.665 101.816 354.018 103.583 354.371 105.35C354.725 107.47 354.725 109.591 354.371 111.711C354.371 113.831 354.725 115.951 355.431 118.071C355.785 119.838 355.431 121.959 354.371 124.432C353.665 126.199 353.134 127.789 352.781 129.203C352.781 130.616 352.428 132.206 351.721 133.973C351.721 134.68 351.368 135.387 350.661 136.093C347.834 140.334 345.36 144.574 343.24 148.815C341.12 153.055 338.823 157.472 336.349 162.066C336.349 162.066 335.996 162.773 335.289 164.186C333.876 165.953 332.462 167.72 331.049 169.487C329.635 171.253 328.575 173.374 327.869 175.847C327.515 177.261 326.808 178.498 325.748 179.558C324.688 180.618 323.805 181.678 323.098 182.738C320.271 186.272 317.444 189.805 314.617 193.339C312.144 196.873 309.493 200.406 306.666 203.94C303.133 207.827 299.776 211.714 296.595 215.601C293.415 219.135 289.881 222.669 285.994 226.202C284.228 227.969 282.284 229.559 280.164 230.973C278.044 232.033 275.923 233.27 273.803 234.683C270.623 236.45 267.619 238.57 264.792 241.044C261.965 243.164 259.138 245.461 256.311 247.935C255.605 248.288 255.251 248.641 255.251 248.995C255.251 248.995 254.898 248.995 254.191 248.995C248.537 249.348 245.534 252.175 245.18 257.476C244.827 261.363 244.297 265.25 243.59 269.137C242.883 272.67 242.883 276.381 243.59 280.268C243.943 282.388 244.12 284.508 244.12 286.628C244.12 288.749 244.12 290.869 244.12 292.989C244.12 295.816 244.65 298.466 245.71 300.94V301.47C246.417 302.177 247.477 303.59 248.891 305.71C249.597 306.417 249.951 306.947 249.951 307.301C250.304 307.301 250.657 307.477 251.011 307.831V308.361C253.484 310.834 256.135 311.011 258.962 308.891C264.262 305.71 269.563 302.53 274.863 299.35C280.164 295.816 284.934 291.576 289.175 286.628C290.942 284.862 292.532 283.095 293.945 281.328C295.712 279.208 297.479 277.264 299.246 275.497C301.719 272.67 304.016 270.02 306.136 267.547C308.61 264.72 311.084 261.893 313.557 259.066C316.031 256.592 318.328 254.118 320.448 251.645C322.921 249.171 325.218 246.521 327.339 243.694C330.519 239.807 333.699 235.92 336.879 232.033C340.06 227.793 343.24 223.552 346.42 219.312C347.834 217.545 349.071 215.778 350.131 214.011C351.544 211.891 352.781 209.947 353.841 208.181C355.255 206.06 357.198 205 359.672 205ZM272.743 175.317C272.036 177.791 271.153 180.264 270.093 182.738C269.386 185.212 268.326 187.685 266.912 190.159C269.739 187.332 272.39 184.681 274.863 182.208C277.69 179.734 280.34 177.084 282.814 174.257C287.761 168.25 292.532 162.066 297.125 155.705C301.719 149.345 305.43 142.631 308.257 135.563C309.67 132.383 311.084 129.379 312.497 126.552C313.911 123.725 315.147 120.722 316.207 117.541C316.914 115.421 317.621 113.301 318.328 111.181C319.034 109.061 319.388 106.94 319.388 104.82C318.328 104.82 317.798 104.82 317.798 104.82C316.031 106.234 314.264 107.647 312.497 109.061C311.084 110.121 309.67 111.534 308.257 113.301C306.136 115.775 304.193 118.425 302.426 121.252C301.013 123.725 299.422 126.199 297.656 128.673C295.889 131.499 294.122 134.15 292.355 136.623C290.588 139.097 288.645 141.747 286.524 144.574C283.697 147.754 281.754 151.641 280.694 156.235C280.34 158.002 279.987 159.592 279.634 161.006C279.28 162.066 278.75 163.303 278.044 164.716C277.337 166.483 276.453 168.25 275.393 170.017C274.333 171.784 273.45 173.55 272.743 175.317ZM739.364 160.476C738.304 160.122 737.244 159.946 736.184 159.946C735.124 159.946 734.063 159.769 733.003 159.416C731.943 160.829 731.943 161.889 733.003 162.596C734.063 162.949 734.77 163.656 735.124 164.716C733.357 166.836 731.59 169.133 729.823 171.607C728.056 174.08 725.936 176.377 723.462 178.498C720.989 180.264 718.692 182.385 716.572 184.858C714.805 187.332 713.038 189.805 711.271 192.279C708.444 195.813 705.794 199.346 703.32 202.88C700.847 206.06 698.197 209.417 695.37 212.951C691.836 216.838 688.479 220.902 685.299 225.142C682.118 229.383 678.761 233.446 675.228 237.333C672.754 240.16 670.28 242.987 667.807 245.814C665.687 248.641 663.39 251.468 660.916 254.295C660.563 254.649 660.209 255.002 659.856 255.355C659.856 255.709 659.679 256.062 659.326 256.415C657.912 258.889 656.146 261.186 654.025 263.306C652.259 265.073 650.492 266.84 648.725 268.607C646.605 270.373 644.661 273.024 642.894 276.557C642.188 277.971 641.304 279.208 640.244 280.268C639.184 281.328 638.124 282.388 637.064 283.448C634.59 285.215 632.293 287.159 630.173 289.279C628.406 291.046 626.639 292.812 624.872 294.579C617.098 302.353 608.441 307.477 598.9 309.951C589.005 312.071 579.818 310.304 571.337 304.65C569.924 303.944 568.157 302.53 566.037 300.41C565.683 300.41 565.506 300.41 565.506 300.41C565.506 300.056 565.33 299.88 564.976 299.88C564.27 298.466 563.563 297.23 562.856 296.169C562.149 295.109 561.443 293.696 560.736 291.929C560.383 290.516 560.206 289.279 560.206 288.219C560.206 286.805 560.029 285.392 559.676 283.978C559.323 281.151 558.969 278.324 558.616 275.497C558.616 272.67 558.262 269.843 557.556 267.016C558.969 266.31 559.676 265.956 559.676 265.956C559.676 264.896 559.676 263.836 559.676 262.776C560.029 261.716 560.029 260.656 559.676 259.596C559.676 258.889 559.676 258.359 559.676 258.006C560.029 257.652 559.853 257.299 559.146 256.945C557.732 256.592 556.496 256.945 555.435 258.006C552.608 261.893 549.782 265.956 546.955 270.197C544.128 274.084 541.477 278.324 539.004 282.918C537.59 285.392 535.47 287.865 532.643 290.339C530.523 291.752 529.286 293.166 528.933 294.579C528.226 295.993 527.343 297.406 526.282 298.82C525.222 299.88 524.339 301.293 523.632 303.06L523.102 303.59C520.275 305.004 517.802 306.77 515.681 308.891C513.915 311.011 511.794 312.778 509.321 314.191C505.787 315.605 503.314 314.721 501.9 311.541C501.193 309.421 500.31 309.244 499.25 311.011C497.836 313.484 495.363 315.251 491.829 316.311C489.002 317.725 485.115 317.725 480.168 316.311C475.574 315.251 472.217 313.131 470.097 309.951C469.39 308.891 468.683 307.831 467.977 306.77C466.917 305.71 466.033 304.65 465.326 303.59C462.499 300.763 460.556 297.583 459.496 294.049C459.142 292.989 458.436 292.459 457.376 292.459C456.669 285.745 457.376 275.674 459.496 262.246C461.263 248.465 467.8 231.326 479.108 210.831C480.521 209.064 481.935 207.297 483.348 205.53C484.762 203.763 486.175 201.997 487.589 200.23C489.709 197.403 491.652 194.576 493.419 191.749C495.539 188.922 497.483 186.095 499.25 183.268C505.964 173.02 512.854 163.303 519.922 154.115C527.343 144.574 535.117 135.387 543.244 126.552C546.778 123.019 550.135 119.662 553.315 116.481C556.849 113.301 560.383 110.121 563.916 106.94C565.683 105.173 567.627 103.76 569.747 102.7C572.22 101.286 574.517 100.05 576.638 98.9895C578.404 98.2828 579.818 98.2828 580.878 98.9895C582.291 99.3429 583.352 99.8729 584.058 100.58C585.825 101.64 587.415 102.7 588.829 103.76C590.596 104.467 592.363 105.527 594.129 106.94L595.72 108.53C598.546 111.357 599.96 114.361 599.96 117.541C600.313 120.368 599.607 123.902 597.84 128.142C596.426 130.616 595.013 132.913 593.599 135.033C592.186 137.153 590.596 139.45 588.829 141.924C586.355 145.458 583.882 148.815 581.408 151.995C578.934 154.822 576.461 158.179 573.987 162.066C573.281 162.773 572.397 163.656 571.337 164.716C570.63 165.776 569.924 166.66 569.217 167.366C563.916 171.253 559.146 176.731 554.905 183.798C553.139 187.685 551.018 191.219 548.545 194.399C546.071 197.579 543.598 200.936 541.124 204.47C536.53 211.184 532.113 218.075 527.873 225.142C523.986 231.856 520.099 238.747 516.211 245.814C513.738 249.701 511.441 253.765 509.321 258.006C507.554 261.893 506.14 266.133 505.08 270.727V272.317C506.494 271.257 508.261 269.313 510.381 266.486C518.508 255.885 526.459 245.284 534.233 234.683C542.361 223.729 550.312 212.774 558.086 201.82C559.499 199.7 560.913 197.579 562.326 195.459C564.093 193.339 565.506 191.042 566.567 188.569C569.747 182.561 573.457 177.084 577.698 172.137C582.291 167.19 586.532 161.889 590.419 156.235C591.126 155.175 592.009 154.292 593.069 153.585C594.129 152.878 595.013 152.172 595.72 151.465C601.727 142.984 608.971 134.503 617.452 126.022C618.158 125.316 618.512 124.609 618.512 123.902C618.865 123.195 619.395 122.489 620.102 121.782C620.455 121.075 620.809 120.192 621.162 119.132C621.515 118.071 621.869 117.188 622.222 116.481C622.576 115.775 623.106 115.244 623.812 114.891C624.519 114.538 625.049 114.538 625.402 114.891C626.109 115.598 626.109 116.128 625.402 116.481C625.049 116.835 624.696 117.365 624.342 118.071C624.342 118.425 623.812 119.308 622.752 120.722C625.933 119.308 627.699 117.011 628.053 113.831C630.526 115.598 632.47 116.481 633.883 116.481C636.004 116.481 637.594 117.365 638.654 119.132C639.007 120.192 640.244 121.075 642.364 121.782C644.131 121.782 645.014 122.489 645.014 123.902C645.014 126.022 645.545 128.142 646.605 130.263C647.311 133.09 647.311 135.563 646.605 137.683C645.898 139.804 645.191 142.101 644.484 144.574C643.778 146.694 642.894 148.815 641.834 150.935C640.774 152.702 639.891 154.645 639.184 156.765C638.477 158.532 637.064 161.359 634.943 165.246C633.177 169.133 631.94 171.784 631.233 173.197C628.406 178.144 626.639 181.855 625.933 184.328C625.226 186.448 624.342 188.745 623.282 191.219C619.395 199.7 616.922 205.707 615.862 209.241C615.155 212.774 614.448 215.425 613.741 217.191C612.328 221.432 611.444 224.436 611.091 226.202C610.738 227.969 609.678 230.796 607.911 234.683C605.084 240.337 603.14 244.754 602.08 247.935C601.373 250.761 600.313 255.179 598.9 261.186C597.84 266.133 597.133 270.197 596.78 273.377C596.426 276.204 596.956 278.678 598.37 280.798C598.723 281.151 598.723 281.328 598.37 281.328C599.077 282.035 600.313 282.388 602.08 282.388C603.494 280.975 604.73 279.738 605.791 278.678C607.204 277.264 608.617 275.674 610.031 273.907C611.091 272.847 612.151 271.787 613.211 270.727C614.625 269.667 616.215 269.313 617.982 269.667C616.568 268.253 616.038 267.37 616.392 267.016C617.098 266.663 617.805 266.31 618.512 265.956C619.925 265.25 621.162 264.72 622.222 264.366C622.929 263.659 623.459 262.599 623.812 261.186C624.519 259.772 625.226 258.359 625.933 256.945C626.286 256.592 626.639 256.415 626.993 256.415C627.346 256.062 627.699 255.709 628.053 255.355C628.053 255.709 628.053 255.885 628.053 255.885C628.406 255.885 628.583 256.062 628.583 256.415V256.945C630.35 256.239 631.233 255.179 631.233 253.765C629.82 254.472 629.113 254.825 629.113 254.825C629.82 252.705 630.526 251.292 631.233 250.585C632.293 249.878 634.237 249.525 637.064 249.525C637.064 247.404 638.477 245.461 641.304 243.694C642.011 242.987 643.424 241.397 645.545 238.924C648.371 235.39 651.198 232.033 654.025 228.853C657.206 225.319 660.209 221.962 663.036 218.782C665.863 215.601 668.69 212.598 671.517 209.771C674.697 206.944 677.701 203.763 680.528 200.23C681.235 199.876 681.942 199.346 682.648 198.64C684.415 196.873 686.359 195.459 688.479 194.399C690.599 192.986 692.366 191.042 693.779 188.569C695.546 185.388 698.373 184.151 702.26 184.858C701.907 183.091 702.26 181.678 703.32 180.618C704.38 179.558 705.441 178.498 706.501 177.437C707.914 176.024 709.328 174.61 710.741 173.197C712.508 171.784 714.275 170.37 716.042 168.957C717.808 167.19 719.222 166.306 720.282 166.306C722.049 165.6 723.286 164.716 723.992 163.656C725.053 162.596 725.936 161.359 726.643 159.946C727.349 158.886 728.233 158.002 729.293 157.295C731.06 156.942 732.65 156.059 734.063 154.645C735.477 152.878 737.774 153.055 740.954 155.175C740.247 157.295 739.717 159.062 739.364 160.476ZM855.446 102.7C857.213 109.061 856.506 112.948 853.325 114.361C850.499 115.775 847.672 117.365 844.845 119.132C842.371 120.898 839.721 122.665 836.894 124.432C834.42 125.492 831.947 126.552 829.473 127.612C826.999 128.673 824.526 129.909 822.052 131.323C820.285 132.03 818.695 132.913 817.282 133.973C815.868 134.68 814.278 135.917 812.511 137.683C811.805 138.39 810.391 139.45 808.271 140.864C804.737 142.984 801.38 145.281 798.2 147.754C795.02 149.875 791.663 151.818 788.129 153.585C784.949 155.705 781.945 158.179 779.118 161.006C776.291 163.479 773.464 165.953 770.637 168.427C769.93 169.133 769.224 169.84 768.517 170.547C767.81 170.9 767.103 171.43 766.397 172.137C764.983 173.197 763.57 174.434 762.156 175.847C761.096 177.261 760.213 179.028 759.506 181.148C758.799 183.975 757.386 186.272 755.266 188.039C753.499 189.805 751.732 191.572 749.965 193.339C748.552 194.753 747.668 195.989 747.315 197.049C746.255 198.816 745.018 200.583 743.604 202.35C742.544 203.763 741.484 205.354 740.424 207.12C738.657 209.594 737.067 212.068 735.654 214.541C734.24 216.661 732.65 218.782 730.883 220.902C730.883 220.902 730.53 221.609 729.823 223.022C729.116 226.556 727.879 229.913 726.113 233.093C724.699 235.92 723.286 238.924 721.872 242.104C721.165 243.164 720.459 244.401 719.752 245.814C719.399 246.874 718.869 247.935 718.162 248.995C717.455 251.822 716.218 254.295 714.451 256.415C713.038 258.182 711.624 260.302 710.211 262.776C708.798 265.25 707.561 267.547 706.501 269.667C705.441 271.787 704.204 274.084 702.79 276.557C701.377 279.384 699.787 282.035 698.02 284.508C696.606 286.982 695.016 289.632 693.249 292.459C692.543 293.873 691.482 294.579 690.069 294.579C689.009 294.579 687.772 294.756 686.359 295.109C685.299 295.109 684.415 294.756 683.708 294.049C682.295 293.342 680.881 292.989 679.468 292.989C678.408 292.989 677.171 292.989 675.758 292.989C674.344 292.989 673.637 292.989 673.637 292.989C672.224 291.576 670.987 290.516 669.927 289.809C668.513 288.749 667.453 287.335 666.747 285.568C666.04 283.448 665.333 282.035 664.626 281.328C662.153 278.148 661.446 274.614 662.506 270.727C663.213 268.96 663.566 267.37 663.566 265.956C663.566 264.543 663.566 262.953 663.566 261.186C663.92 258.006 664.45 255.002 665.156 252.175C665.863 249.348 666.57 246.521 667.277 243.694C667.983 239.454 669.044 235.39 670.457 231.503C671.87 227.262 673.284 223.199 674.697 219.312C675.051 218.605 675.404 217.898 675.758 217.191C676.111 216.485 676.288 215.601 676.288 214.541C678.054 209.241 680.351 201.997 683.178 192.809C686.359 183.621 689.892 172.844 693.779 160.476C695.546 154.468 697.313 148.638 699.08 142.984C701.2 136.977 703.32 130.969 705.441 124.962C707.207 120.722 708.974 116.658 710.741 112.771C712.508 108.53 714.275 104.29 716.042 100.05C716.042 99.3429 716.218 98.8128 716.572 98.4595C716.925 98.1061 717.102 97.576 717.102 96.8693C717.808 94.7491 718.869 93.1589 720.282 92.0988C722.049 91.0387 723.816 90.1553 725.583 89.4485C725.583 89.4485 725.759 89.4485 726.113 89.4485C728.94 90.1553 731.943 90.862 735.124 91.5688C738.304 92.2755 740.954 94.219 743.074 97.3994C743.428 98.1061 744.311 98.8128 745.725 99.5196C747.491 101.286 748.905 104.113 749.965 108C751.379 111.534 751.732 114.538 751.025 117.011C750.672 118.071 750.318 119.132 749.965 120.192C749.965 120.898 749.965 121.782 749.965 122.842C749.965 124.609 749.788 125.846 749.435 126.552C747.668 129.733 746.255 133.09 745.195 136.623C744.488 140.157 743.428 143.514 742.014 146.694C741.307 148.461 740.777 150.228 740.424 151.995C740.424 153.408 740.071 154.998 739.364 156.765C740.777 156.412 741.838 155.882 742.544 155.175C743.251 154.115 743.958 153.232 744.664 152.525C748.552 149.698 752.262 146.871 755.796 144.044C759.683 140.864 763.57 138.037 767.457 135.563C772.051 132.736 776.468 129.733 780.708 126.552C785.302 123.372 789.896 120.368 794.49 117.541C798.377 115.068 802.264 112.948 806.151 111.181C810.038 109.061 814.102 107.294 818.342 105.88C821.522 104.82 824.703 104.29 827.883 104.29C830.356 104.29 832.653 103.76 834.774 102.7C836.894 101.286 839.014 100.58 841.134 100.58C843.608 100.226 846.081 99.6963 848.555 98.9895C852.089 98.2828 854.386 99.5196 855.446 102.7ZM959.088 205C962.975 205 964.035 207.12 962.268 211.361C961.208 213.128 960.501 214.895 960.148 216.661C959.794 218.428 959.264 220.195 958.558 221.962C957.851 223.729 957.144 225.319 956.437 226.732C956.084 227.793 955.554 229.029 954.847 230.443C954.141 231.856 953.434 233.093 952.727 234.153C952.02 235.213 951.314 236.273 950.607 237.333C949.9 238.747 949.193 240.16 948.487 241.574C947.78 242.634 947.073 244.047 946.366 245.814C945.306 247.581 944.246 249.701 943.186 252.175C942.126 254.295 941.243 256.239 940.536 258.006C940.182 258.712 939.829 259.419 939.476 260.126C939.122 260.479 938.769 261.009 938.416 261.716C935.589 265.603 932.762 269.49 929.935 273.377C927.461 276.911 924.811 280.621 921.984 284.508C920.57 286.275 919.334 288.219 918.274 290.339C917.567 292.106 916.507 294.049 915.093 296.169C912.266 301.117 909.086 305.71 905.552 309.951C902.372 314.191 898.838 318.608 894.951 323.202C893.184 325.676 891.064 327.796 888.591 329.563C886.117 331.683 883.29 333.096 880.11 333.803C878.696 334.157 877.459 334.687 876.399 335.393C875.693 336.453 874.809 337.337 873.749 338.044C870.569 340.517 867.388 341.754 864.208 341.754C863.148 341.401 862.088 341.224 861.028 341.224C859.968 341.224 858.908 341.047 857.847 340.694C856.434 340.341 855.021 339.987 853.607 339.634C852.547 339.28 851.133 339.28 849.367 339.634C846.54 339.987 843.536 339.457 840.356 338.044C837.175 336.63 833.995 334.687 830.815 332.213C827.634 330.093 824.631 327.619 821.804 324.792C819.33 322.319 817.033 320.199 814.913 318.432C810.673 314.545 807.669 309.951 805.902 304.65C803.782 299.703 802.369 294.403 801.662 288.749C800.602 280.975 800.248 273.377 800.602 265.956C800.955 258.536 802.015 251.115 803.782 243.694C806.609 230.973 810.319 218.605 814.913 206.59C819.154 194.576 823.924 182.738 829.225 171.077C833.112 162.243 837.352 153.938 841.946 146.164C846.893 138.037 852.017 129.909 857.317 121.782C864.385 111.181 872.336 102.347 881.17 95.2791C882.583 94.219 883.82 93.1589 884.88 92.0988C885.94 90.6853 887.177 89.4486 888.591 88.3884C894.951 82.7345 901.665 78.3174 908.733 75.1371C911.206 74.077 913.15 73.7236 914.563 74.077C917.744 74.7837 920.924 75.1371 924.104 75.1371C927.638 74.7837 930.818 75.4905 933.645 77.2573C935.412 78.3174 937.179 79.3775 938.946 80.4376C941.066 81.4977 942.833 83.0879 944.246 85.2081C944.953 86.975 945.836 88.5651 946.896 89.9786C948.31 91.3921 949.547 92.9822 950.607 94.7491C951.667 96.5159 952.374 98.2828 952.727 100.05C953.08 101.816 953.434 103.583 953.787 105.35C954.141 107.47 954.141 109.591 953.787 111.711C953.787 113.831 954.141 115.951 954.847 118.071C955.201 119.838 954.847 121.959 953.787 124.432C953.08 126.199 952.55 127.789 952.197 129.203C952.197 130.616 951.844 132.206 951.137 133.973C951.137 134.68 950.784 135.387 950.077 136.093C947.25 140.334 944.776 144.574 942.656 148.815C940.536 153.055 938.239 157.472 935.765 162.066C935.765 162.066 935.412 162.773 934.705 164.186C933.292 165.953 931.878 167.72 930.465 169.487C929.051 171.253 927.991 173.374 927.284 175.847C926.931 177.261 926.224 178.498 925.164 179.558C924.104 180.618 923.221 181.678 922.514 182.738C919.687 186.272 916.86 189.805 914.033 193.339C911.56 196.873 908.909 200.406 906.082 203.94C902.549 207.827 899.192 211.714 896.011 215.601C892.831 219.135 889.297 222.669 885.41 226.202C883.643 227.969 881.7 229.559 879.58 230.973C877.459 232.033 875.339 233.27 873.219 234.683C870.039 236.45 867.035 238.57 864.208 241.044C861.381 243.164 858.554 245.461 855.727 247.935C855.021 248.288 854.667 248.641 854.667 248.995C854.667 248.995 854.314 248.995 853.607 248.995C847.953 249.348 844.949 252.175 844.596 257.476C844.243 261.363 843.713 265.25 843.006 269.137C842.299 272.67 842.299 276.381 843.006 280.268C843.359 282.388 843.536 284.508 843.536 286.628C843.536 288.749 843.536 290.869 843.536 292.989C843.536 295.816 844.066 298.466 845.126 300.94V301.47C845.833 302.177 846.893 303.59 848.307 305.71C849.013 306.417 849.367 306.947 849.367 307.301C849.72 307.301 850.073 307.477 850.427 307.831V308.361C852.9 310.834 855.551 311.011 858.378 308.891C863.678 305.71 868.979 302.53 874.279 299.35C879.58 295.816 884.35 291.576 888.591 286.628C890.357 284.862 891.948 283.095 893.361 281.328C895.128 279.208 896.895 277.264 898.662 275.497C901.135 272.67 903.432 270.02 905.552 267.547C908.026 264.72 910.499 261.893 912.973 259.066C915.447 256.592 917.744 254.118 919.864 251.645C922.337 249.171 924.634 246.521 926.754 243.694C929.935 239.807 933.115 235.92 936.295 232.033C939.476 227.793 942.656 223.552 945.836 219.312C947.25 217.545 948.487 215.778 949.547 214.011C950.96 211.891 952.197 209.947 953.257 208.181C954.671 206.06 956.614 205 959.088 205ZM872.159 175.317C871.452 177.791 870.569 180.264 869.509 182.738C868.802 185.212 867.742 187.685 866.328 190.159C869.155 187.332 871.806 184.681 874.279 182.208C877.106 179.734 879.756 177.084 882.23 174.257C887.177 168.25 891.948 162.066 896.541 155.705C901.135 149.345 904.846 142.631 907.672 135.563C909.086 132.383 910.499 129.379 911.913 126.552C913.326 123.725 914.563 120.722 915.623 117.541C916.33 115.421 917.037 113.301 917.744 111.181C918.45 109.061 918.804 106.94 918.804 104.82C917.744 104.82 917.213 104.82 917.213 104.82C915.447 106.234 913.68 107.647 911.913 109.061C910.499 110.121 909.086 111.534 907.672 113.301C905.552 115.775 903.609 118.425 901.842 121.252C900.428 123.725 898.838 126.199 897.071 128.673C895.305 131.499 893.538 134.15 891.771 136.623C890.004 139.097 888.061 141.747 885.94 144.574C883.113 147.754 881.17 151.641 880.11 156.235C879.756 158.002 879.403 159.592 879.05 161.006C878.696 162.066 878.166 163.303 877.459 164.716C876.753 166.483 875.869 168.25 874.809 170.017C873.749 171.784 872.866 173.55 872.159 175.317ZM1290.55 137.683C1291.61 141.57 1290.72 144.397 1287.89 146.164C1287.19 146.871 1286.3 147.401 1285.24 147.754C1284.18 147.754 1283.3 148.108 1282.59 148.815C1281.89 149.521 1281.18 150.051 1280.47 150.405C1280.12 150.405 1279.77 150.758 1279.41 151.465C1278 154.292 1276.06 156.589 1273.58 158.355C1271.11 159.769 1268.81 161.359 1266.69 163.126C1261.75 167.366 1256.27 170.9 1250.26 173.727C1244.61 176.201 1238.78 179.204 1232.77 182.738C1227.12 185.918 1221.46 189.275 1215.81 192.809C1210.51 196.343 1205.38 200.053 1200.44 203.94C1197.61 206.414 1194.61 208.711 1191.43 210.831C1188.6 212.951 1185.59 214.718 1182.41 216.131C1181 216.838 1179.94 217.545 1179.23 218.252C1178.17 224.612 1176.76 231.15 1174.99 237.864C1173.23 244.224 1171.46 250.585 1169.69 256.945C1167.93 263.659 1165.63 270.197 1162.8 276.557C1159.98 282.918 1157.68 289.632 1155.91 296.699C1155.56 298.113 1155.2 299.35 1154.85 300.41C1154.5 301.117 1153.44 301.647 1151.67 302C1150.26 302 1149.55 302.707 1149.55 304.12C1148.84 306.947 1147.61 309.244 1145.84 311.011C1144.43 313.131 1142.84 315.075 1141.07 316.841C1138.24 319.315 1135.06 321.259 1131.53 322.672C1128.35 324.439 1124.99 325.676 1121.46 326.382C1119.34 327.089 1117.04 327.089 1114.57 326.382C1112.45 326.029 1110.33 325.676 1108.21 325.322C1104.67 324.616 1101.32 323.379 1098.14 321.612C1095.31 320.199 1092.31 318.785 1089.12 317.372C1088.42 316.665 1087.71 316.135 1087 315.781C1086.65 315.781 1086.12 315.605 1085.41 315.251C1075.87 311.364 1069.51 304.827 1066.33 295.639C1065.63 294.226 1065.1 292.989 1064.74 291.929C1064.04 290.869 1063.33 289.632 1062.62 288.219C1059.8 283.271 1057.85 278.148 1056.79 272.847C1055.73 267.193 1055.55 261.363 1056.26 255.355V253.235C1058.73 242.634 1061.39 232.74 1064.21 223.552C1067.04 214.011 1069.69 205.884 1072.16 199.17C1074.64 192.102 1076.76 186.448 1078.52 182.208C1080.29 177.967 1081.17 175.847 1081.17 175.847V173.727C1082.23 172.667 1082.94 171.784 1083.29 171.077C1086.47 164.363 1090.01 158.002 1093.9 151.995C1097.78 145.634 1102.2 139.804 1107.15 134.503C1111.39 130.263 1115.8 126.376 1120.4 122.842C1125.35 119.308 1131 117.011 1137.36 115.951C1140.54 115.244 1143.19 115.598 1145.31 117.011C1147.78 118.425 1150.08 119.662 1152.2 120.722C1154.67 121.782 1157.15 123.019 1159.62 124.432C1162.8 126.199 1165.1 128.319 1166.51 130.793C1168.28 134.68 1170.22 138.39 1172.34 141.924C1174.46 145.104 1176.41 148.638 1178.17 152.525C1180.65 157.825 1182.24 163.479 1182.94 169.487V174.787V189.099C1186.48 187.332 1189.83 185.388 1193.02 183.268C1196.2 181.148 1199.38 179.204 1202.56 177.437C1205.38 176.024 1208.03 174.787 1210.51 173.727C1212.98 172.314 1215.45 170.9 1217.93 169.487C1226.76 164.539 1235.77 160.299 1244.96 156.765C1254.15 152.878 1263.34 148.991 1272.52 145.104C1275 144.397 1277.29 143.691 1279.41 142.984C1281.89 142.277 1284.01 141.04 1285.77 139.274C1286.48 138.567 1287.19 138.213 1287.89 138.213C1288.95 138.213 1289.84 138.037 1290.55 137.683ZM1142.66 176.907C1142.66 175.141 1142.84 173.197 1143.19 171.077C1143.54 168.957 1143.37 167.013 1142.66 165.246C1141.95 164.893 1141.25 165.07 1140.54 165.776C1137.01 167.543 1134.18 169.84 1132.06 172.667C1130.29 175.494 1128.53 178.674 1126.76 182.208C1124.64 186.448 1122.52 190.689 1120.4 194.929C1118.28 198.816 1116.33 203.057 1114.57 207.65C1113.86 210.477 1112.8 213.304 1111.39 216.131C1110.33 218.605 1109.44 221.255 1108.74 224.082C1108.03 226.909 1107.15 229.559 1106.09 232.033C1105.38 234.153 1104.67 236.627 1103.97 239.454C1103.26 242.281 1102.55 244.931 1101.85 247.404C1101.14 249.878 1100.43 252.528 1099.73 255.355C1099.37 256.415 1099.2 258.182 1099.2 260.656C1099.55 266.663 1100.61 272.67 1102.38 278.678C1103.79 283.271 1106.09 283.978 1109.27 280.798C1111.74 279.031 1113.86 276.911 1115.63 274.437C1117.39 271.964 1119.16 269.49 1120.93 267.016C1121.99 265.25 1123.05 263.659 1124.11 262.246C1125.17 260.479 1125.88 258.536 1126.23 256.415C1126.23 254.649 1126.94 251.998 1128.35 248.465C1129.06 247.051 1129.41 245.814 1129.41 244.754C1128.7 241.574 1128.88 238.57 1129.94 235.743C1131 232.563 1132.06 229.383 1133.12 226.202C1134.53 222.315 1135.77 218.252 1136.83 214.011C1138.24 209.771 1139.3 205.53 1140.01 201.29C1141.07 197.403 1141.6 193.339 1141.6 189.099C1141.95 184.858 1142.31 180.794 1142.66 176.907ZM1495.37 176.907C1494.67 177.967 1494.31 179.204 1494.31 180.618C1494.67 182.031 1494.14 183.268 1492.72 184.328C1491.66 185.035 1490.6 185.918 1489.54 186.978C1488.84 188.038 1488.13 189.099 1487.42 190.159C1486.36 191.219 1485.3 192.279 1484.24 193.339C1483.54 194.399 1482.65 195.459 1481.59 196.519C1479.83 197.933 1478.59 200.23 1477.88 203.41C1477.53 205.177 1476.47 206.944 1474.7 208.711C1472.93 210.477 1471.17 212.068 1469.4 213.481C1467.99 214.541 1466.57 215.955 1465.16 217.721C1459.51 223.375 1454.38 229.029 1449.79 234.683C1446.26 238.924 1442.72 242.987 1439.19 246.874C1435.65 250.761 1431.94 254.649 1428.06 258.536C1427.35 259.242 1426.64 259.949 1425.94 260.656C1425.23 261.363 1424.52 262.069 1423.82 262.776C1420.99 265.956 1417.81 268.607 1414.28 270.727C1411.09 272.494 1407.74 274.261 1404.2 276.027C1403.85 276.381 1403.5 276.557 1403.14 276.557C1402.79 276.557 1402.44 276.734 1402.08 277.087C1400.32 278.854 1398.37 279.738 1396.25 279.738C1394.13 279.738 1391.84 279.384 1389.36 278.678C1386.54 277.971 1384.24 277.264 1382.47 276.557C1377.52 274.437 1373.46 271.434 1370.28 267.547C1367.45 263.306 1365.16 258.712 1363.39 253.765C1362.68 252.352 1362.15 250.938 1361.8 249.525C1361.8 248.111 1361.62 246.521 1361.27 244.754C1360.56 242.281 1360.21 239.984 1360.21 237.864C1360.56 235.39 1360.92 232.916 1361.27 230.443C1361.62 227.616 1361.8 224.789 1361.8 221.962C1362.15 219.135 1362.68 216.308 1363.39 213.481C1363.39 211.714 1363.74 208.711 1364.45 204.47C1365.51 200.23 1366.39 195.989 1367.1 191.749V188.039C1367.1 184.858 1367.28 181.855 1367.63 179.028C1367.98 175.847 1368.51 172.844 1369.22 170.017C1369.93 167.896 1370.1 166.13 1369.75 164.716C1367.28 166.483 1365.33 168.603 1363.92 171.077C1362.51 173.197 1361.09 175.317 1359.68 177.437C1356.5 182.738 1352.79 187.508 1348.55 191.749C1346.43 194.222 1344.48 196.873 1342.72 199.7C1340.95 202.173 1339.18 204.824 1337.42 207.65C1335.65 209.771 1333.88 212.068 1332.12 214.541C1330.7 216.661 1329.11 218.782 1327.35 220.902C1323.46 224.789 1320.81 229.029 1319.4 233.623C1317.63 237.51 1315.51 241.221 1313.04 244.754C1310.56 247.935 1307.91 251.115 1305.08 254.295C1302.96 257.476 1300.49 260.479 1297.66 263.306C1295.19 265.78 1293.07 268.607 1291.3 271.787C1289.54 274.614 1287.77 277.264 1286 279.738C1284.59 282.211 1283 284.862 1281.23 287.689C1278.76 290.516 1276.28 293.519 1273.81 296.699C1271.69 299.526 1269.22 302.353 1266.39 305.18C1263.56 308.007 1259.85 309.774 1255.26 310.481C1250.67 311.188 1246.78 310.658 1243.6 308.891L1240.95 306.24C1239.89 304.474 1238.47 303.06 1236.71 302C1234.23 300.587 1232.64 298.82 1231.94 296.699C1230.88 294.579 1230.17 292.106 1229.82 289.279C1228.76 283.271 1229.11 276.911 1230.88 270.197C1232.29 263.483 1233.53 256.945 1234.59 250.585C1235.29 243.871 1236.71 237.333 1238.83 230.973C1239.53 228.146 1240.42 225.319 1241.48 222.492C1242.54 219.665 1243.42 216.838 1244.13 214.011L1272.75 122.312C1273.46 122.312 1274.16 122.135 1274.87 121.782C1275.58 121.075 1276.28 120.368 1276.99 119.662C1277.7 119.308 1278.4 119.132 1279.11 119.132C1279.82 118.778 1280.53 119.132 1281.23 120.192C1281.94 120.898 1282.65 121.075 1283.35 120.722C1284.06 120.015 1284.77 119.662 1285.47 119.662C1287.59 119.308 1288.83 119.485 1289.18 120.192C1289.89 120.545 1290.07 121.782 1289.71 123.902C1289.71 125.669 1290.77 126.552 1292.89 126.552C1295.01 126.906 1296.43 127.966 1297.13 129.733C1298.19 131.499 1299.25 133.266 1300.31 135.033C1301.73 136.8 1303.32 138.39 1305.08 139.804C1308.97 141.924 1310.56 145.458 1309.85 150.405C1309.15 155.705 1308.44 161.006 1307.73 166.306C1307.38 171.607 1306.5 176.907 1305.08 182.208V183.798C1307.56 182.031 1309.85 179.204 1311.97 175.317C1315.86 169.31 1320.1 163.479 1324.7 157.825C1329.29 151.818 1334.24 146.341 1339.54 141.394C1341.3 139.98 1342.72 138.567 1343.78 137.153C1344.84 135.74 1346.08 134.15 1347.49 132.383C1350.32 129.556 1353.67 126.729 1357.56 123.902C1361.8 120.722 1367.1 119.132 1373.46 119.132L1386.18 117.541C1392.54 116.481 1398.2 117.365 1403.14 120.192C1405.62 121.605 1407.91 123.019 1410.03 124.432C1412.51 125.846 1414.63 127.966 1416.4 130.793C1417.1 132.206 1417.81 134.326 1418.52 137.153C1419.22 151.641 1417.99 165.246 1414.81 177.967C1411.98 190.689 1409.86 202.703 1408.44 214.011C1408.09 217.191 1407.56 220.372 1406.85 223.552C1406.15 226.379 1405.44 229.383 1404.73 232.563C1404.73 233.27 1404.56 234.507 1404.2 236.273C1403.85 238.04 1403.5 239.984 1403.14 242.104C1403.5 242.104 1404.73 241.751 1406.85 241.044C1409.68 239.984 1413.04 238.217 1416.93 235.743C1420.81 232.916 1424.35 230.089 1427.53 227.262C1431.06 224.436 1434.77 221.609 1438.66 218.782C1443.6 215.601 1448.02 211.891 1451.91 207.65C1455.8 203.057 1460.04 198.816 1464.63 194.929C1467.46 192.102 1470.46 189.629 1473.64 187.508C1476.82 185.388 1479.83 182.915 1482.65 180.088C1483.36 179.734 1483.89 179.381 1484.24 179.028C1484.6 178.321 1485.13 177.614 1485.83 176.907C1489.01 173.374 1492.19 173.197 1495.37 176.377V176.907ZM1609.75 205C1613.64 205 1614.7 207.12 1612.93 211.361C1611.87 213.128 1611.16 214.895 1610.81 216.661C1610.46 218.428 1609.93 220.195 1609.22 221.962C1608.51 223.729 1607.81 225.319 1607.1 226.732C1606.75 227.793 1606.22 229.029 1605.51 230.443C1604.8 231.856 1604.1 233.093 1603.39 234.153C1602.68 235.213 1601.97 236.273 1601.27 237.333C1600.56 238.747 1599.85 240.16 1599.15 241.574C1598.44 242.634 1597.73 244.047 1597.03 245.814C1595.97 247.581 1594.91 249.701 1593.85 252.175C1592.79 254.295 1591.9 256.239 1591.2 258.006C1590.84 258.712 1590.49 259.419 1590.14 260.126C1589.78 260.479 1589.43 261.009 1589.08 261.716C1586.25 265.603 1583.42 269.49 1580.6 273.377C1578.12 276.911 1575.47 280.621 1572.65 284.508C1571.23 286.275 1570 288.219 1568.93 290.339C1568.23 292.106 1567.17 294.049 1565.75 296.169C1562.93 301.117 1559.75 305.71 1556.21 309.951C1553.03 314.191 1549.5 318.608 1545.61 323.202C1543.85 325.676 1541.73 327.796 1539.25 329.563C1536.78 331.683 1533.95 333.096 1530.77 333.803C1529.36 334.157 1528.12 334.687 1527.06 335.393C1526.35 336.453 1525.47 337.337 1524.41 338.044C1521.23 340.517 1518.05 341.754 1514.87 341.754C1513.81 341.401 1512.75 341.224 1511.69 341.224C1510.63 341.224 1509.57 341.047 1508.51 340.694C1507.1 340.341 1505.68 339.987 1504.27 339.634C1503.21 339.28 1501.79 339.28 1500.03 339.634C1497.2 339.987 1494.2 339.457 1491.02 338.044C1487.84 336.63 1484.66 334.687 1481.48 332.213C1478.3 330.093 1475.29 327.619 1472.47 324.792C1469.99 322.319 1467.69 320.199 1465.57 318.432C1461.33 314.545 1458.33 309.951 1456.56 304.65C1454.44 299.703 1453.03 294.403 1452.32 288.749C1451.26 280.975 1450.91 273.377 1451.26 265.956C1451.62 258.536 1452.68 251.115 1454.44 243.694C1457.27 230.973 1460.98 218.605 1465.57 206.59C1469.81 194.576 1474.59 182.738 1479.89 171.077C1483.77 162.243 1488.01 153.938 1492.61 146.164C1497.55 138.037 1502.68 129.909 1507.98 121.782C1515.05 111.181 1523 102.347 1531.83 95.2791C1533.24 94.219 1534.48 93.1589 1535.54 92.0988C1536.6 90.6853 1537.84 89.4486 1539.25 88.3884C1545.61 82.7345 1552.33 78.3174 1559.39 75.1371C1561.87 74.077 1563.81 73.7236 1565.22 74.077C1568.4 74.7837 1571.59 75.1371 1574.77 75.1371C1578.3 74.7837 1581.48 75.4905 1584.31 77.2573C1586.07 78.3174 1587.84 79.3775 1589.61 80.4376C1591.73 81.4977 1593.49 83.0879 1594.91 85.2081C1595.61 86.975 1596.5 88.5651 1597.56 89.9786C1598.97 91.3921 1600.21 92.9822 1601.27 94.7491C1602.33 96.5159 1603.04 98.2828 1603.39 100.05C1603.74 101.816 1604.1 103.583 1604.45 105.35C1604.8 107.47 1604.8 109.591 1604.45 111.711C1604.45 113.831 1604.8 115.951 1605.51 118.071C1605.86 119.838 1605.51 121.959 1604.45 124.432C1603.74 126.199 1603.21 127.789 1602.86 129.203C1602.86 130.616 1602.5 132.206 1601.8 133.973C1601.8 134.68 1601.44 135.387 1600.74 136.093C1597.91 140.334 1595.44 144.574 1593.32 148.815C1591.2 153.055 1588.9 157.472 1586.43 162.066C1586.43 162.066 1586.07 162.773 1585.37 164.186C1583.95 165.953 1582.54 167.72 1581.13 169.487C1579.71 171.253 1578.65 173.374 1577.95 175.847C1577.59 177.261 1576.89 178.498 1575.83 179.558C1574.77 180.618 1573.88 181.678 1573.18 182.738C1570.35 186.272 1567.52 189.805 1564.69 193.339C1562.22 196.873 1559.57 200.406 1556.74 203.94C1553.21 207.827 1549.85 211.714 1546.67 215.601C1543.49 219.135 1539.96 222.669 1536.07 226.202C1534.3 227.969 1532.36 229.559 1530.24 230.973C1528.12 232.033 1526 233.27 1523.88 234.683C1520.7 236.45 1517.7 238.57 1514.87 241.044C1512.04 243.164 1509.22 245.461 1506.39 247.935C1505.68 248.288 1505.33 248.641 1505.33 248.995C1505.33 248.995 1504.98 248.995 1504.27 248.995C1498.61 249.348 1495.61 252.175 1495.26 257.476C1494.9 261.363 1494.37 265.25 1493.67 269.137C1492.96 272.67 1492.96 276.381 1493.67 280.268C1494.02 282.388 1494.2 284.508 1494.2 286.628C1494.2 288.749 1494.2 290.869 1494.2 292.989C1494.2 295.816 1494.73 298.466 1495.79 300.94V301.47C1496.49 302.177 1497.55 303.59 1498.97 305.71C1499.67 306.417 1500.03 306.947 1500.03 307.301C1500.38 307.301 1500.73 307.477 1501.09 307.831V308.361C1503.56 310.834 1506.21 311.011 1509.04 308.891C1514.34 305.71 1519.64 302.53 1524.94 299.35C1530.24 295.816 1535.01 291.576 1539.25 286.628C1541.02 284.862 1542.61 283.095 1544.02 281.328C1545.79 279.208 1547.56 277.264 1549.32 275.497C1551.8 272.67 1554.09 270.02 1556.21 267.547C1558.69 264.72 1561.16 261.893 1563.63 259.066C1566.11 256.592 1568.4 254.118 1570.53 251.645C1573 249.171 1575.3 246.521 1577.42 243.694C1580.6 239.807 1583.78 235.92 1586.96 232.033C1590.14 227.793 1593.32 223.552 1596.5 219.312C1597.91 217.545 1599.15 215.778 1600.21 214.011C1601.62 211.891 1602.86 209.947 1603.92 208.181C1605.33 206.06 1607.28 205 1609.75 205ZM1522.82 175.317C1522.11 177.791 1521.23 180.264 1520.17 182.738C1519.46 185.212 1518.4 187.685 1516.99 190.159C1519.82 187.332 1522.47 184.681 1524.94 182.208C1527.77 179.734 1530.42 177.084 1532.89 174.257C1537.84 168.25 1542.61 162.066 1547.2 155.705C1551.8 149.345 1555.51 142.631 1558.33 135.563C1559.75 132.383 1561.16 129.379 1562.57 126.552C1563.99 123.725 1565.22 120.722 1566.28 117.541C1566.99 115.421 1567.7 113.301 1568.4 111.181C1569.11 109.061 1569.46 106.94 1569.46 104.82C1568.4 104.82 1567.87 104.82 1567.87 104.82C1566.11 106.234 1564.34 107.647 1562.57 109.061C1561.16 110.121 1559.75 111.534 1558.33 113.301C1556.21 115.775 1554.27 118.425 1552.5 121.252C1551.09 123.725 1549.5 126.199 1547.73 128.673C1545.97 131.499 1544.2 134.15 1542.43 136.623C1540.67 139.097 1538.72 141.747 1536.6 144.574C1533.77 147.754 1531.83 151.641 1530.77 156.235C1530.42 158.002 1530.06 159.592 1529.71 161.006C1529.36 162.066 1528.83 163.303 1528.12 164.716C1527.41 166.483 1526.53 168.25 1525.47 170.017C1524.41 171.784 1523.53 173.55 1522.82 175.317ZM1610.96 315.251C1610.25 315.251 1609.72 315.605 1609.37 316.311C1609.37 317.372 1609.01 317.548 1608.31 316.841C1607.25 316.135 1607.07 315.075 1607.78 313.661V312.071C1607.07 311.718 1606.72 311.894 1606.72 312.601C1607.07 313.308 1606.89 313.661 1606.19 313.661C1603.36 311.188 1601.59 308.537 1600.89 305.71C1600.18 303.944 1599.65 302.177 1599.3 300.41C1598.94 298.643 1599.3 296.876 1600.36 295.109C1601.77 292.282 1603.18 289.632 1604.6 287.159C1606.01 284.685 1607.78 282.388 1609.9 280.268C1612.37 277.794 1615.38 276.027 1618.91 274.967C1619.62 274.614 1620.15 274.614 1620.5 274.967C1620.85 275.321 1621.21 275.497 1621.56 275.497C1623.33 276.204 1624.74 277.087 1625.8 278.148C1627.21 279.208 1628.8 280.091 1630.57 280.798C1631.63 281.858 1632.16 282.565 1632.16 282.918C1632.16 283.625 1632.51 284.332 1633.22 285.038C1634.28 285.745 1635.16 287.335 1635.87 289.809C1637.64 292.282 1638.17 294.756 1637.46 297.23C1636.75 299.35 1636.05 301.47 1635.34 303.59C1633.93 307.124 1631.45 309.421 1627.92 310.481C1625.09 311.188 1622.97 312.424 1621.56 314.191C1620.85 315.251 1620.15 315.428 1619.44 314.721C1619.44 314.721 1618.91 314.721 1617.85 314.721C1617.14 316.135 1616.26 316.488 1615.2 315.781C1615.2 315.428 1614.85 315.605 1614.14 316.311C1612.73 317.372 1611.66 317.018 1610.96 315.251Z" fill="#E89112"/>
</g>
</svg>
